<?xml version="1.0" encoding="UTF-8"?>
<svg id="Camada_1" data-name="Camada 1" xmlns="http://www.w3.org/2000/svg" xmlns:xlink="http://www.w3.org/1999/xlink" version="1.1" viewBox="0 0 1390 729">
  <defs>
    <style>
      .cls-1 {
        fill: #f6f4ef;
      }

      .cls-1, .cls-2, .cls-3, .cls-4, .cls-5, .cls-6, .cls-7, .cls-8, .cls-9, .cls-10, .cls-11, .cls-12, .cls-13, .cls-14, .cls-15, .cls-16, .cls-17, .cls-18, .cls-19, .cls-20, .cls-21, .cls-22, .cls-23, .cls-24, .cls-25, .cls-26, .cls-27, .cls-28, .cls-29, .cls-30, .cls-31, .cls-32, .cls-33, .cls-34, .cls-35, .cls-36, .cls-37, .cls-38, .cls-39, .cls-40, .cls-41, .cls-42, .cls-43, .cls-44, .cls-45, .cls-46, .cls-47, .cls-48, .cls-49, .cls-50, .cls-51, .cls-52, .cls-53, .cls-54, .cls-55, .cls-56, .cls-57, .cls-58, .cls-59, .cls-60, .cls-61, .cls-62, .cls-63, .cls-64, .cls-65, .cls-66 {
        stroke-width: 0px;
      }

      .cls-2 {
        fill: #262626;
      }

      .cls-3 {
        fill: url(#Gradiente_sem_nome_5);
      }

      .cls-4 {
        fill: url(#Gradiente_sem_nome_7);
      }

      .cls-5 {
        fill: url(#Gradiente_sem_nome_3);
      }

      .cls-6 {
        fill: url(#Gradiente_sem_nome_8);
      }

      .cls-7 {
        fill: url(#Gradiente_sem_nome_9);
      }

      .cls-8 {
        fill: url(#Gradiente_sem_nome_6);
      }

      .cls-67 {
        stroke: url(#Gradiente_sem_nome);
      }

      .cls-67, .cls-68, .cls-69, .cls-70, .cls-71, .cls-72 {
        fill: none;
      }

      .cls-67, .cls-68, .cls-69, .cls-71, .cls-73 {
        stroke-width: 2px;
      }

      .cls-68, .cls-71, .cls-73 {
        stroke: #757070;
      }

      .cls-9 {
        fill: #404040;
      }

      .cls-69 {
        stroke: #585757;
      }

      .cls-74 {
        fill: #212121;
        stroke: #212121;
      }

      .cls-74, .cls-71, .cls-75, .cls-73 {
        stroke-linejoin: round;
      }

      .cls-10 {
        fill: #610000;
      }

      .cls-70 {
        stroke: url(#Gradiente_sem_nome_4);
      }

      .cls-70, .cls-72 {
        stroke-width: 3px;
      }

      .cls-11 {
        fill: #363636;
      }

      .cls-76 {
        opacity: .4;
      }

      .cls-77 {
        opacity: .8;
      }

      .cls-12 {
        fill: #eae4df;
      }

      .cls-75 {
        fill: url(#Gradiente_sem_nome_2);
        stroke: #414040;
        stroke-opacity: .9;
        stroke-width: 4px;
      }

      .cls-13 {
        fill: #444;
      }

      .cls-14 {
        fill: url(#Gradiente_sem_nome_36);
      }

      .cls-15 {
        fill: url(#Gradiente_sem_nome_31);
      }

      .cls-16 {
        fill: url(#Gradiente_sem_nome_30);
      }

      .cls-17 {
        fill: url(#Gradiente_sem_nome_37);
      }

      .cls-18 {
        fill: url(#Gradiente_sem_nome_39);
      }

      .cls-19 {
        fill: url(#Gradiente_sem_nome_34);
      }

      .cls-20 {
        fill: url(#Gradiente_sem_nome_33);
      }

      .cls-21 {
        fill: url(#Gradiente_sem_nome_32);
      }

      .cls-22 {
        fill: url(#Gradiente_sem_nome_38);
      }

      .cls-23 {
        fill: url(#Gradiente_sem_nome_35);
      }

      .cls-24 {
        fill: url(#Gradiente_sem_nome_29);
      }

      .cls-25 {
        fill: url(#Gradiente_sem_nome_28);
      }

      .cls-26 {
        fill: url(#Gradiente_sem_nome_26);
      }

      .cls-27 {
        fill: url(#Gradiente_sem_nome_27);
      }

      .cls-28 {
        fill: url(#Gradiente_sem_nome_22);
      }

      .cls-29 {
        fill: url(#Gradiente_sem_nome_23);
      }

      .cls-30 {
        fill: url(#Gradiente_sem_nome_21);
      }

      .cls-31 {
        fill: url(#Gradiente_sem_nome_20);
      }

      .cls-32 {
        fill: url(#Gradiente_sem_nome_16);
      }

      .cls-33 {
        fill: url(#Gradiente_sem_nome_17);
      }

      .cls-34 {
        fill: url(#Gradiente_sem_nome_19);
      }

      .cls-35 {
        fill: url(#Gradiente_sem_nome_18);
      }

      .cls-36 {
        fill: url(#Gradiente_sem_nome_24);
      }

      .cls-37 {
        fill: url(#Gradiente_sem_nome_25);
      }

      .cls-38 {
        fill: url(#Gradiente_sem_nome_11);
      }

      .cls-39 {
        fill: url(#Gradiente_sem_nome_10);
      }

      .cls-40 {
        fill: url(#Gradiente_sem_nome_12);
      }

      .cls-41 {
        fill: url(#Gradiente_sem_nome_13);
      }

      .cls-42 {
        fill: url(#Gradiente_sem_nome_49);
      }

      .cls-43 {
        fill: url(#Gradiente_sem_nome_46);
      }

      .cls-44 {
        fill: url(#Gradiente_sem_nome_48);
      }

      .cls-45 {
        fill: url(#Gradiente_sem_nome_47);
      }

      .cls-46 {
        fill: url(#Gradiente_sem_nome_45);
      }

      .cls-47 {
        fill: url(#Gradiente_sem_nome_14);
      }

      .cls-48 {
        fill: url(#Gradiente_sem_nome_15);
      }

      .cls-49 {
        fill: url(#Gradiente_sem_nome_41);
      }

      .cls-50 {
        fill: url(#Gradiente_sem_nome_44);
      }

      .cls-51 {
        fill: url(#Gradiente_sem_nome_42);
      }

      .cls-52 {
        fill: url(#Gradiente_sem_nome_43);
      }

      .cls-53 {
        fill: url(#Gradiente_sem_nome_40);
      }

      .cls-54 {
        fill: url(#Gradiente_sem_nome_52);
      }

      .cls-55 {
        fill: url(#Gradiente_sem_nome_59);
      }

      .cls-56 {
        fill: url(#Gradiente_sem_nome_50);
      }

      .cls-57 {
        fill: url(#Gradiente_sem_nome_53);
      }

      .cls-58 {
        fill: url(#Gradiente_sem_nome_56);
      }

      .cls-59 {
        fill: url(#Gradiente_sem_nome_51);
      }

      .cls-60 {
        fill: url(#Gradiente_sem_nome_54);
      }

      .cls-61 {
        fill: url(#Gradiente_sem_nome_58);
      }

      .cls-62 {
        fill: url(#Gradiente_sem_nome_57);
      }

      .cls-63 {
        fill: url(#Gradiente_sem_nome_61);
      }

      .cls-64 {
        fill: url(#Gradiente_sem_nome_60);
      }

      .cls-65 {
        fill: #05050a;
      }

      .cls-73 {
        fill: #757070;
      }

      .cls-66 {
        fill: #440101;
      }

      .cls-72 {
        stroke: url(#Gradiente_sem_nome_55);
      }
    </style>
    <linearGradient id="Gradiente_sem_nome" data-name="Gradiente sem nome" x1="459.2" y1="507.1" x2="1166.4" y2="126" gradientTransform="translate(0 730) scale(1 -1)" gradientUnits="userSpaceOnUse">
      <stop offset="0" stop-color="#161616"/>
      <stop offset="1" stop-color="#632100"/>
    </linearGradient>
    <radialGradient id="Gradiente_sem_nome_2" data-name="Gradiente sem nome 2" cx="-266.7" cy="905.1" fx="-266.7" fy="905.1" r="1" gradientTransform="translate(21252.3 -92370.3) rotate(-148.2) scale(119.5 -98.5)" gradientUnits="userSpaceOnUse">
      <stop offset="0" stop-color="#272626"/>
      <stop offset="1" stop-color="#060606"/>
    </radialGradient>
    <linearGradient id="Gradiente_sem_nome_3" data-name="Gradiente sem nome 3" x1="181.3" y1="14.9" x2="-58.7" y2="171.2" gradientTransform="translate(0 730) scale(1 -1)" gradientUnits="userSpaceOnUse">
      <stop offset="0" stop-color="#272626"/>
      <stop offset="1" stop-color="#060606"/>
    </linearGradient>
    <linearGradient id="Gradiente_sem_nome_4" data-name="Gradiente sem nome 4" x1="972.2" y1="560.7" x2="1007" y2="384.1" gradientTransform="translate(0 730) scale(1 -1)" gradientUnits="userSpaceOnUse">
      <stop offset="0" stop-color="#161616"/>
      <stop offset="1" stop-color="#632100"/>
    </linearGradient>
    <linearGradient id="Gradiente_sem_nome_5" data-name="Gradiente sem nome 5" x1="-23.3" y1="639.7" x2="671" y2="639.2" gradientTransform="translate(0 730) scale(1 -1)" gradientUnits="userSpaceOnUse">
      <stop offset=".2" stop-color="#111"/>
      <stop offset="1" stop-color="#606060"/>
    </linearGradient>
    <linearGradient id="Gradiente_sem_nome_6" data-name="Gradiente sem nome 6" x1="-23.3" y1="621.1" x2="671" y2="620.6" gradientTransform="translate(0 730) scale(1 -1)" gradientUnits="userSpaceOnUse">
      <stop offset=".2" stop-color="#111"/>
      <stop offset="1" stop-color="#606060"/>
    </linearGradient>
    <linearGradient id="Gradiente_sem_nome_7" data-name="Gradiente sem nome 7" x1="-23.3" y1="602.5" x2="671" y2="602" gradientTransform="translate(0 730) scale(1 -1)" gradientUnits="userSpaceOnUse">
      <stop offset=".2" stop-color="#111"/>
      <stop offset="1" stop-color="#606060"/>
    </linearGradient>
    <linearGradient id="Gradiente_sem_nome_8" data-name="Gradiente sem nome 8" x1="-23.3" y1="583.9" x2="671" y2="583.4" gradientTransform="translate(0 730) scale(1 -1)" gradientUnits="userSpaceOnUse">
      <stop offset=".2" stop-color="#111"/>
      <stop offset="1" stop-color="#606060"/>
    </linearGradient>
    <linearGradient id="Gradiente_sem_nome_9" data-name="Gradiente sem nome 9" x1="-23.4" y1="565.3" x2="671" y2="564.8" gradientTransform="translate(0 730) scale(1 -1)" gradientUnits="userSpaceOnUse">
      <stop offset=".2" stop-color="#111"/>
      <stop offset="1" stop-color="#606060"/>
    </linearGradient>
    <linearGradient id="Gradiente_sem_nome_10" data-name="Gradiente sem nome 10" x1="-23.3" y1="639.7" x2="671" y2="639.2" gradientTransform="translate(0 730) scale(1 -1)" gradientUnits="userSpaceOnUse">
      <stop offset=".2" stop-color="#111"/>
      <stop offset="1" stop-color="#606060"/>
    </linearGradient>
    <linearGradient id="Gradiente_sem_nome_11" data-name="Gradiente sem nome 11" x1="-23.3" y1="621.1" x2="671" y2="620.6" gradientTransform="translate(0 730) scale(1 -1)" gradientUnits="userSpaceOnUse">
      <stop offset=".2" stop-color="#111"/>
      <stop offset="1" stop-color="#606060"/>
    </linearGradient>
    <linearGradient id="Gradiente_sem_nome_12" data-name="Gradiente sem nome 12" x1="-23.3" y1="602.5" x2="671" y2="602" gradientTransform="translate(0 730) scale(1 -1)" gradientUnits="userSpaceOnUse">
      <stop offset=".2" stop-color="#111"/>
      <stop offset="1" stop-color="#606060"/>
    </linearGradient>
    <linearGradient id="Gradiente_sem_nome_13" data-name="Gradiente sem nome 13" x1="-23.3" y1="583.9" x2="671" y2="583.4" gradientTransform="translate(0 730) scale(1 -1)" gradientUnits="userSpaceOnUse">
      <stop offset=".2" stop-color="#111"/>
      <stop offset="1" stop-color="#606060"/>
    </linearGradient>
    <linearGradient id="Gradiente_sem_nome_14" data-name="Gradiente sem nome 14" x1="-23.4" y1="565.3" x2="671" y2="564.8" gradientTransform="translate(0 730) scale(1 -1)" gradientUnits="userSpaceOnUse">
      <stop offset=".2" stop-color="#111"/>
      <stop offset="1" stop-color="#606060"/>
    </linearGradient>
    <linearGradient id="Gradiente_sem_nome_15" data-name="Gradiente sem nome 15" x1="-23.3" y1="639.8" x2="671" y2="639.3" gradientTransform="translate(0 730) scale(1 -1)" gradientUnits="userSpaceOnUse">
      <stop offset=".2" stop-color="#111"/>
      <stop offset="1" stop-color="#606060"/>
    </linearGradient>
    <linearGradient id="Gradiente_sem_nome_16" data-name="Gradiente sem nome 16" x1="-23.3" y1="621.2" x2="671" y2="620.7" gradientTransform="translate(0 730) scale(1 -1)" gradientUnits="userSpaceOnUse">
      <stop offset=".2" stop-color="#111"/>
      <stop offset="1" stop-color="#606060"/>
    </linearGradient>
    <linearGradient id="Gradiente_sem_nome_17" data-name="Gradiente sem nome 17" x1="-23.3" y1="602.6" x2="671" y2="602.1" gradientTransform="translate(0 730) scale(1 -1)" gradientUnits="userSpaceOnUse">
      <stop offset=".2" stop-color="#111"/>
      <stop offset="1" stop-color="#606060"/>
    </linearGradient>
    <linearGradient id="Gradiente_sem_nome_18" data-name="Gradiente sem nome 18" x1="-23.3" y1="584" x2="671" y2="583.5" gradientTransform="translate(0 730) scale(1 -1)" gradientUnits="userSpaceOnUse">
      <stop offset=".2" stop-color="#111"/>
      <stop offset="1" stop-color="#606060"/>
    </linearGradient>
    <linearGradient id="Gradiente_sem_nome_19" data-name="Gradiente sem nome 19" x1="-23.4" y1="565.4" x2="671" y2="564.9" gradientTransform="translate(0 730) scale(1 -1)" gradientUnits="userSpaceOnUse">
      <stop offset=".2" stop-color="#111"/>
      <stop offset="1" stop-color="#606060"/>
    </linearGradient>
    <linearGradient id="Gradiente_sem_nome_20" data-name="Gradiente sem nome 20" x1="-23.3" y1="639.8" x2="671" y2="639.3" gradientTransform="translate(0 730) scale(1 -1)" gradientUnits="userSpaceOnUse">
      <stop offset=".2" stop-color="#111"/>
      <stop offset="1" stop-color="#606060"/>
    </linearGradient>
    <linearGradient id="Gradiente_sem_nome_21" data-name="Gradiente sem nome 21" x1="-23.3" y1="621.2" x2="671" y2="620.7" gradientTransform="translate(0 730) scale(1 -1)" gradientUnits="userSpaceOnUse">
      <stop offset=".2" stop-color="#111"/>
      <stop offset="1" stop-color="#606060"/>
    </linearGradient>
    <linearGradient id="Gradiente_sem_nome_22" data-name="Gradiente sem nome 22" x1="-23.3" y1="602.6" x2="671" y2="602.1" gradientTransform="translate(0 730) scale(1 -1)" gradientUnits="userSpaceOnUse">
      <stop offset=".2" stop-color="#111"/>
      <stop offset="1" stop-color="#606060"/>
    </linearGradient>
    <linearGradient id="Gradiente_sem_nome_23" data-name="Gradiente sem nome 23" x1="-23.3" y1="584" x2="671" y2="583.5" gradientTransform="translate(0 730) scale(1 -1)" gradientUnits="userSpaceOnUse">
      <stop offset=".2" stop-color="#111"/>
      <stop offset="1" stop-color="#606060"/>
    </linearGradient>
    <linearGradient id="Gradiente_sem_nome_24" data-name="Gradiente sem nome 24" x1="-23.4" y1="565.4" x2="671" y2="564.9" gradientTransform="translate(0 730) scale(1 -1)" gradientUnits="userSpaceOnUse">
      <stop offset=".2" stop-color="#111"/>
      <stop offset="1" stop-color="#606060"/>
    </linearGradient>
    <linearGradient id="Gradiente_sem_nome_25" data-name="Gradiente sem nome 25" x1="-23.3" y1="639.8" x2="671" y2="639.3" gradientTransform="translate(0 730) scale(1 -1)" gradientUnits="userSpaceOnUse">
      <stop offset=".2" stop-color="#111"/>
      <stop offset="1" stop-color="#606060"/>
    </linearGradient>
    <linearGradient id="Gradiente_sem_nome_26" data-name="Gradiente sem nome 26" x1="-23.3" y1="621.2" x2="671" y2="620.7" gradientTransform="translate(0 730) scale(1 -1)" gradientUnits="userSpaceOnUse">
      <stop offset=".2" stop-color="#111"/>
      <stop offset="1" stop-color="#606060"/>
    </linearGradient>
    <linearGradient id="Gradiente_sem_nome_27" data-name="Gradiente sem nome 27" x1="-23.3" y1="602.6" x2="671" y2="602.1" gradientTransform="translate(0 730) scale(1 -1)" gradientUnits="userSpaceOnUse">
      <stop offset=".2" stop-color="#111"/>
      <stop offset="1" stop-color="#606060"/>
    </linearGradient>
    <linearGradient id="Gradiente_sem_nome_28" data-name="Gradiente sem nome 28" x1="-23.3" y1="584" x2="671" y2="583.5" gradientTransform="translate(0 730) scale(1 -1)" gradientUnits="userSpaceOnUse">
      <stop offset=".2" stop-color="#111"/>
      <stop offset="1" stop-color="#606060"/>
    </linearGradient>
    <linearGradient id="Gradiente_sem_nome_29" data-name="Gradiente sem nome 29" x1="-23.4" y1="565.4" x2="671" y2="564.9" gradientTransform="translate(0 730) scale(1 -1)" gradientUnits="userSpaceOnUse">
      <stop offset=".2" stop-color="#111"/>
      <stop offset="1" stop-color="#606060"/>
    </linearGradient>
    <linearGradient id="Gradiente_sem_nome_30" data-name="Gradiente sem nome 30" x1="-23.3" y1="639.8" x2="671" y2="639.3" gradientTransform="translate(0 730) scale(1 -1)" gradientUnits="userSpaceOnUse">
      <stop offset=".2" stop-color="#111"/>
      <stop offset="1" stop-color="#606060"/>
    </linearGradient>
    <linearGradient id="Gradiente_sem_nome_31" data-name="Gradiente sem nome 31" x1="-23.3" y1="621.2" x2="671" y2="620.7" gradientTransform="translate(0 730) scale(1 -1)" gradientUnits="userSpaceOnUse">
      <stop offset=".2" stop-color="#111"/>
      <stop offset="1" stop-color="#606060"/>
    </linearGradient>
    <linearGradient id="Gradiente_sem_nome_32" data-name="Gradiente sem nome 32" x1="-23.3" y1="602.6" x2="671" y2="602.1" gradientTransform="translate(0 730) scale(1 -1)" gradientUnits="userSpaceOnUse">
      <stop offset=".2" stop-color="#111"/>
      <stop offset="1" stop-color="#606060"/>
    </linearGradient>
    <linearGradient id="Gradiente_sem_nome_33" data-name="Gradiente sem nome 33" x1="-23.3" y1="584" x2="671" y2="583.5" gradientTransform="translate(0 730) scale(1 -1)" gradientUnits="userSpaceOnUse">
      <stop offset=".2" stop-color="#111"/>
      <stop offset="1" stop-color="#606060"/>
    </linearGradient>
    <linearGradient id="Gradiente_sem_nome_34" data-name="Gradiente sem nome 34" x1="-23.4" y1="565.4" x2="671" y2="564.9" gradientTransform="translate(0 730) scale(1 -1)" gradientUnits="userSpaceOnUse">
      <stop offset=".2" stop-color="#111"/>
      <stop offset="1" stop-color="#606060"/>
    </linearGradient>
    <linearGradient id="Gradiente_sem_nome_35" data-name="Gradiente sem nome 35" x1="-23.3" y1="639.8" x2="671" y2="639.3" gradientTransform="translate(0 730) scale(1 -1)" gradientUnits="userSpaceOnUse">
      <stop offset=".2" stop-color="#111"/>
      <stop offset="1" stop-color="#606060"/>
    </linearGradient>
    <linearGradient id="Gradiente_sem_nome_36" data-name="Gradiente sem nome 36" x1="-23.3" y1="621.2" x2="671" y2="620.7" gradientTransform="translate(0 730) scale(1 -1)" gradientUnits="userSpaceOnUse">
      <stop offset=".2" stop-color="#111"/>
      <stop offset="1" stop-color="#606060"/>
    </linearGradient>
    <linearGradient id="Gradiente_sem_nome_37" data-name="Gradiente sem nome 37" x1="-23.3" y1="602.6" x2="671" y2="602.1" gradientTransform="translate(0 730) scale(1 -1)" gradientUnits="userSpaceOnUse">
      <stop offset=".2" stop-color="#111"/>
      <stop offset="1" stop-color="#606060"/>
    </linearGradient>
    <linearGradient id="Gradiente_sem_nome_38" data-name="Gradiente sem nome 38" x1="-23.3" y1="584" x2="671" y2="583.5" gradientTransform="translate(0 730) scale(1 -1)" gradientUnits="userSpaceOnUse">
      <stop offset=".2" stop-color="#111"/>
      <stop offset="1" stop-color="#606060"/>
    </linearGradient>
    <linearGradient id="Gradiente_sem_nome_39" data-name="Gradiente sem nome 39" x1="-23.4" y1="565.4" x2="671" y2="564.9" gradientTransform="translate(0 730) scale(1 -1)" gradientUnits="userSpaceOnUse">
      <stop offset=".2" stop-color="#111"/>
      <stop offset="1" stop-color="#606060"/>
    </linearGradient>
    <linearGradient id="Gradiente_sem_nome_40" data-name="Gradiente sem nome 40" x1="-23.3" y1="639.9" x2="671" y2="639.4" gradientTransform="translate(0 730) scale(1 -1)" gradientUnits="userSpaceOnUse">
      <stop offset=".2" stop-color="#111"/>
      <stop offset="1" stop-color="#606060"/>
    </linearGradient>
    <linearGradient id="Gradiente_sem_nome_41" data-name="Gradiente sem nome 41" x1="-23.3" y1="621.3" x2="671" y2="620.8" gradientTransform="translate(0 730) scale(1 -1)" gradientUnits="userSpaceOnUse">
      <stop offset=".2" stop-color="#111"/>
      <stop offset="1" stop-color="#606060"/>
    </linearGradient>
    <linearGradient id="Gradiente_sem_nome_42" data-name="Gradiente sem nome 42" x1="-23.3" y1="602.7" x2="671" y2="602.2" gradientTransform="translate(0 730) scale(1 -1)" gradientUnits="userSpaceOnUse">
      <stop offset=".2" stop-color="#111"/>
      <stop offset="1" stop-color="#606060"/>
    </linearGradient>
    <linearGradient id="Gradiente_sem_nome_43" data-name="Gradiente sem nome 43" x1="-23.3" y1="584.1" x2="671" y2="583.6" gradientTransform="translate(0 730) scale(1 -1)" gradientUnits="userSpaceOnUse">
      <stop offset=".2" stop-color="#111"/>
      <stop offset="1" stop-color="#606060"/>
    </linearGradient>
    <linearGradient id="Gradiente_sem_nome_44" data-name="Gradiente sem nome 44" x1="-23.4" y1="565.4" x2="671" y2="564.9" gradientTransform="translate(0 730) scale(1 -1)" gradientUnits="userSpaceOnUse">
      <stop offset=".2" stop-color="#111"/>
      <stop offset="1" stop-color="#606060"/>
    </linearGradient>
    <linearGradient id="Gradiente_sem_nome_45" data-name="Gradiente sem nome 45" x1="-23.3" y1="639.9" x2="671" y2="639.4" gradientTransform="translate(0 730) scale(1 -1)" gradientUnits="userSpaceOnUse">
      <stop offset=".2" stop-color="#111"/>
      <stop offset="1" stop-color="#606060"/>
    </linearGradient>
    <linearGradient id="Gradiente_sem_nome_46" data-name="Gradiente sem nome 46" x1="-23.3" y1="621.3" x2="671" y2="620.8" gradientTransform="translate(0 730) scale(1 -1)" gradientUnits="userSpaceOnUse">
      <stop offset=".2" stop-color="#111"/>
      <stop offset="1" stop-color="#606060"/>
    </linearGradient>
    <linearGradient id="Gradiente_sem_nome_47" data-name="Gradiente sem nome 47" x1="-23.3" y1="602.7" x2="671" y2="602.2" gradientTransform="translate(0 730) scale(1 -1)" gradientUnits="userSpaceOnUse">
      <stop offset=".2" stop-color="#111"/>
      <stop offset="1" stop-color="#606060"/>
    </linearGradient>
    <linearGradient id="Gradiente_sem_nome_48" data-name="Gradiente sem nome 48" x1="-23.3" y1="584.1" x2="671" y2="583.6" gradientTransform="translate(0 730) scale(1 -1)" gradientUnits="userSpaceOnUse">
      <stop offset=".2" stop-color="#111"/>
      <stop offset="1" stop-color="#606060"/>
    </linearGradient>
    <linearGradient id="Gradiente_sem_nome_49" data-name="Gradiente sem nome 49" x1="-23.4" y1="565.5" x2="671" y2="565" gradientTransform="translate(0 730) scale(1 -1)" gradientUnits="userSpaceOnUse">
      <stop offset=".2" stop-color="#111"/>
      <stop offset="1" stop-color="#606060"/>
    </linearGradient>
    <linearGradient id="Gradiente_sem_nome_50" data-name="Gradiente sem nome 50" x1="-23.3" y1="639.9" x2="671" y2="639.4" gradientTransform="translate(0 730) scale(1 -1)" gradientUnits="userSpaceOnUse">
      <stop offset=".2" stop-color="#111"/>
      <stop offset="1" stop-color="#606060"/>
    </linearGradient>
    <linearGradient id="Gradiente_sem_nome_51" data-name="Gradiente sem nome 51" x1="-23.3" y1="621.3" x2="671" y2="620.8" gradientTransform="translate(0 730) scale(1 -1)" gradientUnits="userSpaceOnUse">
      <stop offset=".2" stop-color="#111"/>
      <stop offset="1" stop-color="#606060"/>
    </linearGradient>
    <linearGradient id="Gradiente_sem_nome_52" data-name="Gradiente sem nome 52" x1="-23.3" y1="602.7" x2="671" y2="602.2" gradientTransform="translate(0 730) scale(1 -1)" gradientUnits="userSpaceOnUse">
      <stop offset=".2" stop-color="#111"/>
      <stop offset="1" stop-color="#606060"/>
    </linearGradient>
    <linearGradient id="Gradiente_sem_nome_53" data-name="Gradiente sem nome 53" x1="-23.3" y1="584.1" x2="671" y2="583.6" gradientTransform="translate(0 730) scale(1 -1)" gradientUnits="userSpaceOnUse">
      <stop offset=".2" stop-color="#111"/>
      <stop offset="1" stop-color="#606060"/>
    </linearGradient>
    <linearGradient id="Gradiente_sem_nome_54" data-name="Gradiente sem nome 54" x1="-23.4" y1="565.5" x2="671" y2="565" gradientTransform="translate(0 730) scale(1 -1)" gradientUnits="userSpaceOnUse">
      <stop offset=".2" stop-color="#111"/>
      <stop offset="1" stop-color="#606060"/>
    </linearGradient>
    <linearGradient id="Gradiente_sem_nome_55" data-name="Gradiente sem nome 55" x1="1422" y1="303.2" x2="1197.5" y2="138.2" gradientTransform="translate(0 730) scale(1 -1)" gradientUnits="userSpaceOnUse">
      <stop offset="0" stop-color="#712601"/>
      <stop offset="1" stop-color="#2c2c2c"/>
    </linearGradient>
    <linearGradient id="Gradiente_sem_nome_56" data-name="Gradiente sem nome 56" x1="301.6" y1="377.1" x2="241.1" y2="236.6" gradientTransform="translate(0 730) scale(1 -1)" gradientUnits="userSpaceOnUse">
      <stop offset="0" stop-color="#929191"/>
      <stop offset="1" stop-color="#4b4b4b"/>
    </linearGradient>
    <linearGradient id="Gradiente_sem_nome_57" data-name="Gradiente sem nome 57" x1="363.5" y1="397.5" x2="270.5" y2="305" gradientTransform="translate(-132 528.6) rotate(29.4) scale(1 -1)" gradientUnits="userSpaceOnUse">
      <stop offset="0" stop-color="#3c3c3c"/>
      <stop offset="1" stop-color="#666"/>
    </linearGradient>
    <linearGradient id="Gradiente_sem_nome_58" data-name="Gradiente sem nome 58" x1="722" y1="364.9" x2="570.8" y2="415.8" gradientTransform="translate(-22.3 -13.8) rotate(59.2) scale(1 -1)" gradientUnits="userSpaceOnUse">
      <stop offset="0" stop-color="#fbb090"/>
      <stop offset="1" stop-color="#4e1800"/>
    </linearGradient>
    <linearGradient id="Gradiente_sem_nome_59" data-name="Gradiente sem nome 59" x1="846.7" y1="441.6" x2="791.3" y2="604.5" gradientTransform="translate(0 730) scale(1 -1)" gradientUnits="userSpaceOnUse">
      <stop offset="0" stop-color="#fbb090"/>
      <stop offset="1" stop-color="#4e1800"/>
    </linearGradient>
    <linearGradient id="Gradiente_sem_nome_60" data-name="Gradiente sem nome 60" x1="1129.7" y1="347.3" x2="1163.1" y2="191.3" gradientTransform="translate(0 730) scale(1 -1)" gradientUnits="userSpaceOnUse">
      <stop offset="0" stop-color="#fbb090"/>
      <stop offset="1" stop-color="#4e1800"/>
    </linearGradient>
    <linearGradient id="Gradiente_sem_nome_61" data-name="Gradiente sem nome 61" x1="870.4" y1="321.2" x2="925.9" y2="158.3" gradientTransform="translate(0 730) scale(1 -1)" gradientUnits="userSpaceOnUse">
      <stop offset="0" stop-color="#fbb090"/>
      <stop offset="1" stop-color="#4e1800"/>
    </linearGradient>
  </defs>
  <path class="cls-69" d="M117,495h801l74.5-57h284"/>
  <path class="cls-69" d="M70,455h1248.5"/>
  <path class="cls-67" d="M697,619.5l60.5,36.5M697,619.5l-61.5,40.5M697,619.5v-126M697,9v448.5"/>
  <path class="cls-71" d="M367,262.8v-8.5l7-4.2,7,4.2v8.5l-7,4.2-7-4.2Z"/>
  <path class="cls-71" d="M1014,696.8v-8.5l7-4.2,7,4.2v8.5l-7,4.2-7-4.2Z"/>
  <path class="cls-71" d="M502,118.8v-8.5l7-4.2,7,4.2v8.5l-7,4.2-7-4.2Z"/>
  <path class="cls-71" d="M877,118.8v-8.5l7-4.2,7,4.2v8.5l-7,4.2-7-4.2Z"/>
  <path class="cls-73" d="M367,696.8v-8.5l7-4.2,7,4.2v8.5l-7,4.2-7-4.2Z"/>
  <path class="cls-73" d="M1,479.8v-8.5l7-4.2,7,4.2v8.5l-7,4.2-7-4.2Z"/>
  <path class="cls-73" d="M1014,264.8v-8.5l7-4.2,7,4.2v8.5l-7,4.2-7-4.2Z"/>
  <path class="cls-73" d="M175,367v-6l5-3,5,3v6l-5,3-5-3Z"/>
  <path class="cls-75" d="M1204,208.8v-68.5l56.5-34.2,56.5,34.2v68.5l-56.5,34.2-56.5-34.2Z"/>
  <path class="cls-5" d="M15,658.2v-49.5l41-24.8,41,24.8v49.5l-41,24.8-41-24.8Z"/>
  <path class="cls-73" d="M632,661.8v-6.5l5.5-3.2,5.5,3.2v6.5l-5.5,3.2-5.5-3.2Z"/>
  <path class="cls-73" d="M692,444.8v-6.5l5.5-3.2,5.5,3.2v6.5l-5.5,3.2-5.5-3.2Z"/>
  <path class="cls-73" d="M692,510.8v-6.5l5.5-3.2,5.5,3.2v6.5l-5.5,3.2-5.5-3.2Z"/>
  <path class="cls-73" d="M691,10.8v-6.5l5.5-3.2,5.5,3.2v6.5l-5.5,3.2-5.5-3.2Z"/>
  <path class="cls-71" d="M757,661.8v-6.5l5.5-3.2,5.5,3.2v6.5l-5.5,3.2-5.5-3.2Z"/>
  <path class="cls-71" d="M564,626.8v-6.5l5.5-3.2,5.5,3.2v6.5l-5.5,3.2-5.5-3.2Z"/>
  <path class="cls-71" d="M681,484.8v-18.5l16-9.2,16,9.2v18.5l-16,9.2-16-9.2Z"/>
  <path class="cls-71" d="M1378,478.8v-6.5l5.5-3.2,5.5,3.2v6.5l-5.5,3.2-5.5-3.2Z"/>
  <path class="cls-70" d="M922,191.5v70.5l124.5-70.5"/>
  <path class="cls-73" d="M1045,195v-6l5-3,5,3v6l-5,3-5-3Z"/>
  <path class="cls-73" d="M1277,441v-6l5-3,5,3v6l-5,3-5-3Z"/>
  <path class="cls-73" d="M437,257v-6l5-3,5,3v6l-5,3-5-3Z"/>
  <path class="cls-73" d="M915,265.8v-8.5l7-4.2,7,4.2v8.5l-7,4.2-7-4.2Z"/>
  <path class="cls-71" d="M916,188.8v-6.5l5.5-3.2,5.5,3.2v6.5l-5.5,3.2-5.5-3.2Z"/>
  <path class="cls-74" d="M1262.5,371.8c-.3-.2-.5-.5-.5-.9v-13.9c0-.4.2-.7.5-.9l11.5-6.9c.3-.2.7-.2,1,0l11.5,6.9c.3.2.5.5.5.9v13.9c0,.4-.2.7-.5.9l-11.5,6.9c-.3.2-.7.2-1,0l-11.5-6.9Z"/>
  <path class="cls-71" d="M1277,397.5v-15l12.5-7.5,12.5,7.5v15l-12.5,7.5-12.5-7.5Z"/>
  <path class="cls-73" d="M1277,345.5v-15l12.5-7.5,12.5,7.5v15l-12.5,7.5-12.5-7.5Z"/>
  <path class="cls-73" d="M1307,345.5v-15l12.5-7.5,12.5,7.5v15l-12.5,7.5-12.5-7.5Z"/>
  <path class="cls-71" d="M1292,371.5v-15l12.5-7.5,12.5,7.5v15l-12.5,7.5-12.5-7.5Z"/>
  <path class="cls-71" d="M1166,177.8v-6.5l5.5-3.2,5.5,3.2v6.5l-5.5,3.2-5.5-3.2Z"/>
  <path class="cls-68" d="M1172.5,113.5v56M1172.5,286v-104.5"/>
  <path class="cls-68" d="M138.5,366.5v70.5H52.5"/>
  <path class="cls-73" d="M145,432.2v8.5l-7,4.2-7-4.2v-8.5l7-4.2,7,4.2Z"/>
  <path class="cls-73" d="M143,364.8v5.5l-4.5,2.8-4.5-2.8v-5.5l4.5-2.8,4.5,2.8Z"/>
  <path class="cls-71" d="M52,433.2v6.5l-5.5,3.2-5.5-3.2v-6.5l5.5-3.2,5.5,3.2Z"/>
  <path class="cls-68" d="M374,693.5l322.5-188.5,318,184.7M374,693.5l-193.5-112v-217.5l186.5-105.2M374,693.5v35.5M381,260.1l60.5,34.4M1027.5,689.7l185.5-108.2v-212.5l-192-111-194.7,111M441.5,294.5v-123.5M441.5,294.5l128,74.9M569.5,369.4l127,73.6,129.8-74M569.5,369.4v248.6M826.3,369v211.4"/>
  <path class="cls-68" d="M15,475h666M1378,475h-664"/>
  <path class="cls-68" d="M509,399V122M884.5,399V122M515.5,110.8L697,6.5l181,104.3"/>
  <path class="cls-3" d="M17.2,88.1v4.3l-3.6,2.1-3.6-2.1v-4.3l3.6-2.1,3.6,2.1Z"/>
  <path class="cls-8" d="M17.2,106.8v4.3l-3.6,2.1-3.6-2.1v-4.3l3.6-2.1,3.6,2.1Z"/>
  <path class="cls-4" d="M17.2,125.4v4.3l-3.6,2.1-3.6-2.1v-4.3l3.6-2.1,3.6,2.1Z"/>
  <path class="cls-6" d="M17.2,144v4.3l-3.6,2.1-3.6-2.1v-4.3l3.6-2.1,3.6,2.1Z"/>
  <path class="cls-7" d="M17.2,162.6v4.3l-3.6,2.1-3.6-2.1v-4.3l3.6-2.1,3.6,2.1Z"/>
  <path class="cls-39" d="M42.9,88.1v4.3l-3.6,2.1-3.6-2.1v-4.3l3.6-2.1,3.6,2.1Z"/>
  <path class="cls-38" d="M42.9,106.8v4.3l-3.6,2.1-3.6-2.1v-4.3l3.6-2.1,3.6,2.1Z"/>
  <path class="cls-40" d="M42.9,125.4v4.3l-3.6,2.1-3.6-2.1v-4.3l3.6-2.1,3.6,2.1Z"/>
  <path class="cls-41" d="M42.9,144v4.3l-3.6,2.1-3.6-2.1v-4.3l3.6-2.1,3.6,2.1Z"/>
  <path class="cls-47" d="M42.9,162.6v4.3l-3.6,2.1-3.6-2.1v-4.3l3.6-2.1,3.6,2.1Z"/>
  <path class="cls-48" d="M68.7,88.1v4.3l-3.6,2.1-3.6-2.1v-4.3l3.6-2.1,3.6,2.1Z"/>
  <path class="cls-32" d="M68.7,106.8v4.3l-3.6,2.1-3.6-2.1v-4.3l3.6-2.1,3.6,2.1Z"/>
  <path class="cls-33" d="M68.7,125.4v4.3l-3.6,2.1-3.6-2.1v-4.3l3.6-2.1,3.6,2.1Z"/>
  <path class="cls-35" d="M68.7,144v4.3l-3.6,2.1-3.6-2.1v-4.3l3.6-2.1,3.6,2.1Z"/>
  <path class="cls-34" d="M68.7,162.6v4.3l-3.6,2.1-3.6-2.1v-4.3l3.6-2.1,3.6,2.1Z"/>
  <path class="cls-31" d="M94.4,88.1v4.3l-3.6,2.1-3.6-2.1v-4.3l3.6-2.1,3.6,2.1Z"/>
  <path class="cls-30" d="M94.4,106.8v4.3l-3.6,2.1-3.6-2.1v-4.3l3.6-2.1,3.6,2.1Z"/>
  <path class="cls-28" d="M94.4,125.4v4.3l-3.6,2.1-3.6-2.1v-4.3l3.6-2.1,3.6,2.1Z"/>
  <path class="cls-29" d="M94.4,144v4.3l-3.6,2.1-3.6-2.1v-4.3l3.6-2.1,3.6,2.1Z"/>
  <path class="cls-36" d="M94.4,162.6v4.3l-3.6,2.1-3.6-2.1v-4.3l3.6-2.1,3.6,2.1Z"/>
  <path class="cls-37" d="M120.2,88.1v4.3l-3.6,2.1-3.6-2.1v-4.3l3.6-2.1,3.6,2.1Z"/>
  <path class="cls-26" d="M120.2,106.8v4.3l-3.6,2.1-3.6-2.1v-4.3l3.6-2.1,3.6,2.1Z"/>
  <path class="cls-27" d="M120.2,125.4v4.3l-3.6,2.1-3.6-2.1v-4.3l3.6-2.1,3.6,2.1Z"/>
  <path class="cls-25" d="M120.2,144v4.3l-3.6,2.1-3.6-2.1v-4.3l3.6-2.1,3.6,2.1Z"/>
  <path class="cls-24" d="M120.2,162.6v4.3l-3.6,2.1-3.6-2.1v-4.3l3.6-2.1,3.6,2.1Z"/>
  <path class="cls-16" d="M146,88.1v4.3l-3.6,2.1-3.6-2.1v-4.3l3.6-2.1,3.6,2.1Z"/>
  <path class="cls-15" d="M146,106.8v4.3l-3.6,2.1-3.6-2.1v-4.3l3.6-2.1,3.6,2.1Z"/>
  <path class="cls-21" d="M146,125.4v4.3l-3.6,2.1-3.6-2.1v-4.3l3.6-2.1,3.6,2.1Z"/>
  <path class="cls-20" d="M146,144v4.3l-3.6,2.1-3.6-2.1v-4.3l3.6-2.1,3.6,2.1Z"/>
  <path class="cls-19" d="M146,162.6v4.3l-3.6,2.1-3.6-2.1v-4.3l3.6-2.1,3.6,2.1Z"/>
  <path class="cls-23" d="M171.7,88.1v4.3l-3.6,2.1-3.6-2.1v-4.3l3.6-2.1,3.6,2.1Z"/>
  <path class="cls-14" d="M171.7,106.8v4.3l-3.6,2.1-3.6-2.1v-4.3l3.6-2.1,3.6,2.1Z"/>
  <path class="cls-17" d="M171.7,125.4v4.3l-3.6,2.1-3.6-2.1v-4.3l3.6-2.1,3.6,2.1Z"/>
  <path class="cls-22" d="M171.7,144v4.3l-3.6,2.1-3.6-2.1v-4.3l3.6-2.1,3.6,2.1Z"/>
  <path class="cls-18" d="M171.7,162.6v4.3l-3.6,2.1-3.6-2.1v-4.3l3.6-2.1,3.6,2.1Z"/>
  <path class="cls-53" d="M197.5,88.1v4.3l-3.6,2.1-3.6-2.1v-4.3l3.6-2.1,3.6,2.1Z"/>
  <path class="cls-49" d="M197.5,106.8v4.3l-3.6,2.1-3.6-2.1v-4.3l3.6-2.1,3.6,2.1Z"/>
  <path class="cls-51" d="M197.5,125.4v4.3l-3.6,2.1-3.6-2.1v-4.3l3.6-2.1,3.6,2.1Z"/>
  <path class="cls-52" d="M197.5,144v4.3l-3.6,2.1-3.6-2.1v-4.3l3.6-2.1,3.6,2.1Z"/>
  <path class="cls-50" d="M197.5,162.6v4.3l-3.6,2.1-3.6-2.1v-4.3l3.6-2.1,3.6,2.1Z"/>
  <path class="cls-46" d="M223.2,88.1v4.3l-3.6,2.1-3.6-2.1v-4.3l3.6-2.1,3.6,2.1Z"/>
  <path class="cls-43" d="M223.2,106.8v4.3l-3.6,2.1-3.6-2.1v-4.3l3.6-2.1,3.6,2.1Z"/>
  <path class="cls-45" d="M223.2,125.4v4.3l-3.6,2.1-3.6-2.1v-4.3l3.6-2.1,3.6,2.1Z"/>
  <path class="cls-44" d="M223.2,144v4.3l-3.6,2.1-3.6-2.1v-4.3l3.6-2.1,3.6,2.1Z"/>
  <path class="cls-42" d="M223.2,162.6v4.3l-3.6,2.1-3.6-2.1v-4.3l3.6-2.1,3.6,2.1Z"/>
  <path class="cls-56" d="M249,88.1v4.3l-3.6,2.1-3.6-2.1v-4.3l3.6-2.1,3.6,2.1Z"/>
  <path class="cls-59" d="M249,106.8v4.3l-3.6,2.1-3.6-2.1v-4.3l3.6-2.1,3.6,2.1Z"/>
  <path class="cls-54" d="M249,125.4v4.3l-3.6,2.1-3.6-2.1v-4.3l3.6-2.1,3.6,2.1Z"/>
  <path class="cls-57" d="M249,144v4.3l-3.6,2.1-3.6-2.1v-4.3l3.6-2.1,3.6,2.1Z"/>
  <path class="cls-60" d="M249,162.6v4.3l-3.6,2.1-3.6-2.1v-4.3l3.6-2.1,3.6,2.1Z"/>
  <path class="cls-72" d="M1260.5,581.5v-70.5h86"/>
  <path class="cls-71" d="M1347,514.8v-6.5l5.5-3.2,5.5,3.2v6.5l-5.5,3.2-5.5-3.2Z"/>
  <path class="cls-73" d="M1254,515.8v-8.5l7-4.2,7,4.2v8.5l-7,4.2-7-4.2Z"/>
  <path class="cls-73" d="M1206,587.8v-8.5l7-4.2,7,4.2v8.5l-7,4.2-7-4.2Z"/>
  <path class="cls-73" d="M1256,583.2v-5.5l4.5-2.8,4.5,2.8v5.5l-4.5,2.8-4.5-2.8Z"/>
  <g>
    <g>
      <path class="cls-13" d="M530,566.5c3.1-1.8,5-5.1,5-8.7v-171c0-3.6-1.9-6.9-5-8.7l-148.8-85.6c-3.1-1.8-6.9-1.8-10,0l-148.8,85.6c-3.1,1.8-5,5.1-5,8.7v171c0,3.6,1.9,6.9,5,8.7l148.8,85.6c3.1,1.8,6.9,1.8,10,0l148.8-85.6Z"/>
      <g class="cls-76">
        <path class="cls-1" d="M376.3,659.9c-2.8,0-5.7-.7-8.2-2.2l-148.7-85.6c-5.1-2.9-8.3-8.4-8.3-14.3v-171c0-5.9,3.2-11.4,8.3-14.3l148.8-85.6c5.1-2.9,11.4-2.9,16.5,0l148.8,85.6c5.1,2.9,8.3,8.4,8.3,14.3v171c0,5.9-3.2,11.4-8.3,14.3h0l-148.8,85.6c-2.5,1.5-5.4,2.2-8.2,2.2ZM376.3,297.7c-.6,0-1.2.2-1.7.5l-148.8,85.6c-1.1.6-1.8,1.8-1.8,3v171c0,1.2.7,2.4,1.8,3l148.8,85.6c1.1.6,2.4.6,3.5,0l148.8-85.6c1.1-.6,1.8-1.8,1.8-3v-171c0-1.2-.7-2.4-1.8-3l-148.8-85.6c-.5-.3-1.1-.5-1.7-.5Z"/>
      </g>
    </g>
    <g>
      <g class="cls-77">
        <polygon class="cls-65" points="483 539.8 483 427.2 385.5 371 288 427.2 288 539.8 385.5 596 483 539.8"/>
      </g>
      <path class="cls-65" d="M385.5,596.8c-.1,0-.3,0-.4-.1l-97.5-56.2c-.2-.1-.4-.4-.4-.6v-112.5c0-.3.1-.5.4-.6l97.5-56.2c.2-.1.5-.1.8,0l97.5,56.2c.2.1.4.4.4.6v112.5c0,.3-.1.5-.4.6l-97.5,56.2c-.1,0-.2.1-.4.1ZM288.8,539.3l96.8,55.8,96.8-55.8v-111.6l-96.8-55.8-96.8,55.8v111.6Z"/>
    </g>
    <path class="cls-12" d="M475,532.5v-113l-98.5-56.5-98.5,56.5v113l98.5,56.5,98.5-56.5Z"/>
    <path class="cls-58" d="M249,529.5c-.6,0-1-.4-1-1v-124.5c0-.4.2-.7.5-.9l81-46c.5-.3,1.1-.1,1.4.4.3.5.1,1.1-.4,1.4l-80.5,45.7v123.9c0,.6-.4,1-1,1Z"/>
    <rect class="cls-62" x="252" y="376.5" width="132.5" height="2" transform="translate(-144.2 204.6) rotate(-29.4)"/>
    <path class="cls-9" d="M354,446c0,1.4,1,2.5,2.3,2.5h39.6c1.3,0,2.3-1.1,2.3-2.5v-5.7c0-8.5-6.4-15.5-14.4-15.5h-15.5c-7.9,0-14.4,6.9-14.4,15.5v5.7Z"/>
    <path class="cls-9" d="M375.6,421.5c-5.8,0-10.5-4.8-10.5-10.7s4.7-10.7,10.5-10.7,10.5,4.8,10.5,10.7-4.7,10.7-10.5,10.7Z"/>
    <path class="cls-2" d="M323.4,520.6h-4v-2.1h4c1.4,0,2.5-.3,3.4-.9.9-.6,1.6-1.4,2.1-2.4.5-1,.7-2.3.7-3.7v-1.2c0-1.1-.1-2.1-.4-2.9-.3-.9-.6-1.6-1.2-2.2-.5-.6-1.1-1.1-1.9-1.4-.7-.3-1.6-.5-2.5-.5h-4.3v-2.1h4.3c1.3,0,2.4.2,3.4.6,1,.4,1.9,1,2.7,1.8.8.8,1.3,1.7,1.7,2.8.4,1.1.6,2.4.6,3.7v1.1c0,1.4-.2,2.6-.6,3.8-.4,1.1-1,2.1-1.8,2.8-.8.8-1.7,1.4-2.7,1.8-1.1.4-2.3.6-3.6.6ZM320.8,501.4v19.2h-2.5v-19.2h2.5ZM341.5,520.8c-1,0-1.9-.2-2.7-.5-.8-.3-1.5-.8-2.1-1.4-.6-.6-1-1.3-1.3-2.2-.3-.8-.5-1.8-.5-2.8v-.6c0-1.2.2-2.2.5-3.1.3-.9.8-1.7,1.4-2.3.6-.6,1.3-1.1,2-1.4.7-.3,1.5-.5,2.3-.5s1.9.2,2.6.5c.7.4,1.4.8,1.8,1.5.5.6.8,1.4,1.1,2.2.2.8.3,1.8.3,2.8v1.1h-10.7v-2h8.2v-.2c0-.6-.2-1.2-.4-1.8-.2-.6-.6-1.1-1.1-1.5-.5-.4-1.1-.6-2-.6s-1.1.1-1.5.4c-.5.2-.9.6-1.2,1-.3.5-.6,1-.8,1.7-.2.7-.3,1.4-.3,2.3v.6c0,.7,0,1.3.3,1.9.2.6.5,1.1.8,1.6.4.4.8.8,1.3,1.1.5.3,1.1.4,1.8.4s1.6-.2,2.2-.5c.6-.4,1.1-.8,1.6-1.4l1.5,1.2c-.3.5-.7.9-1.2,1.3-.5.4-1.1.8-1.8,1-.7.3-1.5.4-2.4.4ZM354,518.4l3.9-12.1h2.5l-5.1,14.3h-1.6l.4-2.2ZM350.8,506.3l4,12.1.3,2.1h-1.6l-5.2-14.3h2.5ZM368.5,520.8c-1,0-1.9-.2-2.7-.5-.8-.3-1.5-.8-2.1-1.4-.6-.6-1-1.3-1.3-2.2-.3-.8-.5-1.8-.5-2.8v-.6c0-1.2.2-2.2.5-3.1.3-.9.8-1.7,1.4-2.3.6-.6,1.3-1.1,2-1.4.7-.3,1.5-.5,2.3-.5s1.9.2,2.6.5c.7.4,1.4.8,1.8,1.5.5.6.8,1.4,1.1,2.2.2.8.3,1.8.3,2.8v1.1h-10.7v-2h8.2v-.2c0-.6-.2-1.2-.4-1.8-.2-.6-.6-1.1-1.1-1.5-.5-.4-1.1-.6-2-.6s-1.1.1-1.5.4c-.5.2-.9.6-1.2,1-.3.5-.6,1-.8,1.7-.2.7-.3,1.4-.3,2.3v.6c0,.7,0,1.3.3,1.9.2.6.5,1.1.8,1.6.4.4.8.8,1.3,1.1.5.3,1.1.4,1.8.4s1.6-.2,2.2-.5c.6-.4,1.1-.8,1.6-1.4l1.5,1.2c-.3.5-.7.9-1.2,1.3-.5.4-1.1.8-1.8,1-.7.3-1.5.4-2.4.4ZM379.6,500.3v20.2h-2.5v-20.2h2.5ZM382.8,513.6v-.3c0-1,.1-2,.4-2.9.3-.9.7-1.7,1.3-2.3.6-.7,1.2-1.2,2-1.5.8-.4,1.7-.6,2.7-.6s1.9.2,2.7.6c.8.4,1.5.9,2.1,1.5.6.6,1,1.4,1.3,2.3.3.9.4,1.8.4,2.9v.3c0,1-.1,2-.4,2.9-.3.9-.7,1.6-1.3,2.3-.6.7-1.2,1.2-2,1.5-.8.4-1.7.5-2.7.5s-1.9-.2-2.7-.5c-.8-.4-1.5-.9-2.1-1.5-.6-.7-1-1.4-1.3-2.3-.3-.9-.4-1.8-.4-2.9ZM385.3,513.3v.3c0,.7,0,1.4.2,2,.2.6.4,1.2.8,1.7.3.5.8.9,1.3,1.1.5.3,1.1.4,1.8.4s1.3-.1,1.8-.4c.5-.3.9-.7,1.3-1.1.3-.5.6-1,.8-1.7.2-.6.3-1.3.3-2v-.3c0-.7,0-1.4-.3-2-.2-.6-.4-1.2-.8-1.7-.3-.5-.8-.9-1.3-1.2-.5-.3-1.1-.4-1.8-.4s-1.3.1-1.8.4c-.5.3-.9.7-1.3,1.2-.3.5-.6,1-.8,1.7-.2.6-.2,1.3-.2,2ZM401.3,509v17h-2.5v-19.7h2.2l.2,2.7ZM410.9,513.3v.3c0,1-.1,2-.4,2.9-.2.9-.6,1.6-1.1,2.3-.5.7-1,1.2-1.7,1.5-.7.4-1.5.5-2.4.5s-1.7-.1-2.4-.4c-.7-.3-1.3-.7-1.8-1.3-.5-.6-.9-1.3-1.2-2.1-.3-.8-.5-1.7-.6-2.7v-1.5c.1-1.1.3-2,.6-2.8.3-.8.7-1.5,1.1-2.1.5-.6,1.1-1.1,1.8-1.4.7-.3,1.5-.5,2.4-.5s1.7.2,2.4.5c.7.3,1.3.8,1.8,1.5.5.6.8,1.4,1.1,2.3.2.9.4,1.9.4,3ZM408.5,513.6v-.3c0-.7,0-1.4-.2-2-.1-.6-.4-1.2-.7-1.7-.3-.5-.7-.9-1.2-1.1-.5-.3-1.1-.4-1.7-.4s-1.2.1-1.6.3c-.4.2-.8.5-1.1.9-.3.4-.6.8-.8,1.2-.2.4-.3.9-.4,1.4v3.4c.2.6.4,1.2.7,1.7.3.5.7,1,1.3,1.3.5.3,1.2.5,2,.5s1.2-.1,1.7-.4c.5-.3.9-.7,1.2-1.1.3-.5.5-1,.7-1.7.1-.6.2-1.3.2-2ZM420,520.8c-1,0-1.9-.2-2.7-.5-.8-.3-1.5-.8-2.1-1.4-.6-.6-1-1.3-1.3-2.2-.3-.8-.5-1.8-.5-2.8v-.6c0-1.2.2-2.2.5-3.1.3-.9.8-1.7,1.4-2.3.6-.6,1.3-1.1,2-1.4.7-.3,1.5-.5,2.3-.5s1.9.2,2.6.5c.7.4,1.4.8,1.8,1.5.5.6.8,1.4,1.1,2.2.2.8.3,1.8.3,2.8v1.1h-10.7v-2h8.2v-.2c0-.6-.2-1.2-.4-1.8-.2-.6-.6-1.1-1.1-1.5-.5-.4-1.1-.6-2-.6s-1.1.1-1.5.4c-.5.2-.9.6-1.2,1-.3.5-.6,1-.8,1.7-.2.7-.3,1.4-.3,2.3v.6c0,.7,0,1.3.3,1.9.2.6.5,1.1.8,1.6.4.4.8.8,1.3,1.1.5.3,1.1.4,1.8.4s1.6-.2,2.2-.5c.6-.4,1.1-.8,1.6-1.4l1.5,1.2c-.3.5-.7.9-1.2,1.3-.5.4-1.1.8-1.8,1-.7.3-1.5.4-2.4.4ZM430.8,508.5v12h-2.4v-14.3h2.4v2.2ZM435.3,506.2v2.3c-.2,0-.4,0-.6,0-.2,0-.4,0-.6,0-.6,0-1.1,0-1.5.3-.4.2-.8.4-1.1.7-.3.3-.5.7-.7,1.1-.2.4-.3.9-.3,1.4l-.7.4c0-.9,0-1.7.3-2.4.2-.8.4-1.4.8-2,.4-.6.8-1,1.4-1.4.6-.3,1.2-.5,2-.5s.4,0,.6,0c.2,0,.4,0,.5.1Z"/>
    <path class="cls-11" d="M338.8,482c0-.4,0-.8-.2-1.1-.1-.3-.3-.6-.6-.9-.3-.3-.7-.5-1.3-.8-.5-.3-1.3-.5-2.1-.8-1-.3-1.9-.6-2.7-1-.8-.4-1.6-.8-2.2-1.3-.6-.5-1.1-1.1-1.5-1.7-.4-.7-.5-1.4-.5-2.3s.2-1.6.5-2.3c.4-.7.9-1.3,1.6-1.8.7-.5,1.5-.9,2.4-1.2.9-.3,1.9-.4,3-.4s2.9.3,4,.8c1.1.6,2,1.3,2.6,2.3.6,1,.9,2,.9,3.2h-3.9c0-.6-.1-1.2-.4-1.7-.3-.5-.7-.9-1.2-1.2-.5-.3-1.2-.4-2-.4s-1.5.1-2,.4c-.5.2-.9.6-1.2,1-.3.4-.4.9-.4,1.4s0,.7.3,1c.2.3.4.6.8.8.4.3.8.5,1.3.7.5.2,1.2.4,1.9.7,1.1.3,2.1.7,3,1.1.9.4,1.6.9,2.1,1.4.6.5,1,1.1,1.3,1.8.3.7.4,1.4.4,2.3s-.2,1.7-.5,2.4c-.4.7-.9,1.3-1.5,1.8-.7.5-1.4.9-2.4,1.1-.9.3-1.9.4-3,.4s-2-.1-3-.4c-1-.3-1.9-.7-2.6-1.2-.8-.5-1.4-1.2-1.9-2.1-.5-.8-.7-1.8-.7-2.9h3.9c0,.7.1,1.2.3,1.7.2.5.5.8.9,1.1.4.3.9.5,1.4.6.5.1,1.1.2,1.7.2s1.4-.1,2-.3c.5-.2.9-.5,1.2-.9.3-.4.4-.8.4-1.4ZM349.8,466.8v20.6h-3.9v-20.6h3.9ZM370.6,466.8v20.6h-3.9l-8.8-14.3v14.3h-3.9v-20.6h3.9l8.8,14.3v-14.3h3.9ZM390.6,476.7v8c-.3.4-.8.8-1.4,1.3-.6.5-1.5.8-2.5,1.2-1,.3-2.3.5-3.8.5s-2.5-.2-3.6-.7c-1.1-.4-2-1.1-2.8-1.9-.8-.8-1.4-1.9-1.8-3.1-.4-1.2-.6-2.6-.6-4.2v-1.4c0-1.6.2-3,.6-4.2.4-1.2,1-2.3,1.7-3.1.8-.8,1.7-1.5,2.7-1.9,1.1-.4,2.2-.7,3.5-.7s3.2.3,4.3.9c1.1.6,2,1.4,2.6,2.4.6,1,1,2.2,1.1,3.5h-3.8c-.1-.7-.3-1.3-.6-1.9-.3-.5-.8-1-1.3-1.3-.6-.3-1.3-.5-2.2-.5s-1.4.2-2,.5c-.6.3-1.1.7-1.5,1.3-.4.6-.7,1.3-.9,2.1-.2.8-.3,1.8-.3,2.9v1.4c0,1.1.1,2.1.3,2.9.2.8.6,1.6,1,2.2.4.6,1,1,1.6,1.3.6.3,1.4.4,2.2.4s1.3,0,1.8-.2c.5-.1.9-.3,1.2-.5.3-.2.5-.4.7-.5v-3.9h-4.1v-2.8h8ZM407.4,484.3v3.1h-10.4v-3.1h10.4ZM398.2,466.8v20.6h-3.9v-20.6h3.9ZM423.7,484.3v3.1h-11v-3.1h11ZM413.9,466.8v20.6h-3.9v-20.6h3.9ZM422.2,475.3v3h-9.5v-3h9.5ZM423.6,466.8v3.1h-10.9v-3.1h10.9Z"/>
  </g>
  <g>
    <g>
      <path class="cls-10" d="M851,318.5c3.1-1.8,5-5.1,5-8.7v-171c0-3.6-1.9-6.9-5-8.7l-148.8-85.6c-3.1-1.8-6.9-1.8-10,0l-148.8,85.6c-3.1,1.8-5,5.1-5,8.7v171c0,3.6,1.9,6.9,5,8.7l148.8,85.6c3.1,1.8,6.9,1.8,10,0l148.8-85.6Z"/>
      <g class="cls-76">
        <path class="cls-1" d="M697.3,411.9c-2.8,0-5.7-.7-8.2-2.2l-148.7-85.6c-5.1-2.9-8.3-8.4-8.3-14.3v-171c0-5.9,3.2-11.4,8.3-14.3l148.8-85.6c5.1-2.9,11.4-2.9,16.5,0l148.8,85.6c5.1,2.9,8.3,8.4,8.3,14.3v171c0,5.9-3.2,11.4-8.3,14.3l-148.8,85.6c-2.5,1.5-5.4,2.2-8.2,2.2ZM697.3,49.7c-.6,0-1.2.2-1.7.5l-148.8,85.6c-1.1.6-1.8,1.8-1.8,3v171c0,1.2.7,2.4,1.8,3l148.8,85.6c1.1.6,2.4.6,3.5,0l148.8-85.6h0c1.1-.6,1.8-1.8,1.8-3v-171c0-1.2-.7-2.4-1.8-3l-148.8-85.6c-.5-.3-1.1-.5-1.7-.5Z"/>
      </g>
    </g>
    <g>
      <g class="cls-77">
        <polygon class="cls-65" points="802 289.8 802 177.2 704.5 121 607 177.2 607 289.8 704.5 346 802 289.8"/>
      </g>
      <path class="cls-65" d="M704.5,346.8c-.1,0-.3,0-.4-.1l-97.5-56.2c-.2-.1-.4-.4-.4-.6v-112.5c0-.3.1-.5.4-.6l97.5-56.2c.2-.1.5-.1.8,0l97.5,56.2c.2.1.4.4.4.6v112.5c0,.3-.1.5-.4.6l-97.5,56.2c-.1,0-.2.1-.4.1ZM607.8,289.3l96.8,55.8,96.8-55.8v-111.6l-96.8-55.8-96.8,55.8v111.6Z"/>
    </g>
    <path class="cls-12" d="M796,284.5v-113l-98.5-56.5-98.5,56.5v113l98.5,56.5,98.5-56.5Z"/>
    <path class="cls-2" d="M633.8,253.4v19.2h-2.5v-19.2h2.5ZM641.8,262v2.1h-8.6v-2.1h8.6ZM643.1,253.4v2.1h-9.9v-2.1h9.9ZM654.2,269.3v-11h2.5v14.3h-2.3v-3.3ZM654.7,266.3h1c0,.9-.1,1.8-.3,2.6-.2.8-.5,1.5-1,2.1-.4.6-1,1-1.7,1.4-.7.3-1.6.5-2.6.5s-1.3-.1-1.9-.3c-.6-.2-1.1-.5-1.5-.9s-.7-1-1-1.6c-.2-.7-.3-1.5-.3-2.4v-9.2h2.4v9.2c0,.6,0,1.2.2,1.6.1.4.3.7.6,1,.3.2.5.4.8.5.3,0,.6.1,1,.1,1,0,1.9-.2,2.5-.6.6-.4,1-.9,1.3-1.6.3-.7.4-1.4.4-2.3ZM663,252.3v20.3h-2.5v-20.3h2.5ZM669.6,252.3v20.3h-2.5v-20.3h2.5ZM687.7,265h-5.1v-2.1h5.1c1,0,1.8-.2,2.4-.5.6-.3,1.1-.8,1.3-1.3.3-.6.4-1.2.4-1.9s-.1-1.3-.4-1.9c-.3-.6-.7-1-1.3-1.4-.6-.4-1.4-.5-2.4-.5h-4.5v17.1h-2.5v-19.2h7.1c1.5,0,2.7.3,3.7.8,1,.5,1.8,1.2,2.3,2.1.5.9.8,1.9.8,3s-.3,2.3-.8,3.1c-.5.9-1.3,1.5-2.3,2-1,.4-2.2.7-3.7.7ZM699.7,260.5v12h-2.4v-14.3h2.4v2.2ZM704.1,258.2v2.3c-.2,0-.4,0-.6,0-.2,0-.4,0-.6,0-.6,0-1.1,0-1.5.3-.4.2-.8.4-1.1.7-.3.3-.5.7-.7,1.1-.2.4-.3.9-.3,1.4l-.7.4c0-.9,0-1.7.2-2.4.2-.8.4-1.4.8-2,.4-.6.8-1,1.4-1.4.6-.3,1.2-.5,2-.5s.4,0,.6,0c.2,0,.4,0,.5.1ZM705.5,265.6v-.3c0-1,.1-2,.4-2.9.3-.9.7-1.7,1.3-2.3.6-.7,1.2-1.2,2-1.5.8-.4,1.7-.6,2.7-.6s1.9.2,2.7.6c.8.4,1.5.9,2.1,1.5.6.6,1,1.4,1.3,2.3.3.9.4,1.8.4,2.9v.3c0,1-.1,2-.4,2.9s-.7,1.6-1.3,2.3c-.6.7-1.2,1.2-2,1.5-.8.4-1.7.5-2.7.5s-1.9-.2-2.7-.5c-.8-.4-1.5-.9-2.1-1.5-.6-.7-1-1.4-1.3-2.3-.3-.9-.4-1.8-.4-2.9ZM707.9,265.3v.3c0,.7,0,1.4.3,2,.2.6.4,1.2.8,1.7.3.5.8.9,1.3,1.1.5.3,1.1.4,1.8.4s1.3-.1,1.8-.4c.5-.3.9-.7,1.3-1.1.3-.5.6-1,.8-1.7.2-.6.3-1.3.3-2v-.3c0-.7,0-1.4-.3-2-.2-.6-.4-1.2-.8-1.7-.3-.5-.8-.9-1.3-1.2-.5-.3-1.1-.4-1.8-.4s-1.3.1-1.8.4c-.5.3-.9.7-1.3,1.2-.3.5-.6,1-.8,1.7-.2.6-.3,1.3-.3,2ZM721.6,258.3h2.5v16c0,.9-.1,1.6-.4,2.2-.3.6-.7,1.1-1.2,1.4-.5.3-1.2.5-2.1.5s-.5,0-.8,0c-.3,0-.5,0-.8-.2v-2c.2,0,.4,0,.6,0,.2,0,.4,0,.6,0,.4,0,.7,0,.9-.2.2-.1.4-.3.6-.6.1-.3.2-.7.2-1.2v-16ZM721.4,254.5c0-.4.1-.7.4-1,.2-.3.6-.4,1.1-.4s.8.1,1.1.4c.2.3.4.6.4,1s-.1.7-.4,1c-.2.3-.6.4-1.1.4s-.8-.1-1.1-.4c-.2-.3-.4-.6-.4-1ZM733.9,272.8c-1,0-1.9-.2-2.7-.5-.8-.3-1.5-.8-2.1-1.4-.6-.6-1-1.3-1.3-2.2-.3-.8-.5-1.8-.5-2.8v-.6c0-1.2.2-2.2.5-3.1.3-.9.8-1.7,1.4-2.3.6-.6,1.3-1.1,2-1.4.7-.3,1.5-.5,2.3-.5s1.9.2,2.6.5c.7.4,1.4.8,1.8,1.5.5.6.8,1.4,1.1,2.2.2.8.3,1.8.3,2.8v1.1h-10.7v-2h8.2v-.2c0-.6-.2-1.2-.4-1.8-.2-.6-.6-1.1-1.1-1.5-.5-.4-1.1-.6-2-.6s-1.1.1-1.5.4c-.5.2-.9.6-1.2,1s-.6,1-.8,1.7c-.2.7-.3,1.4-.3,2.3v.6c0,.7,0,1.3.3,1.9.2.6.5,1.1.8,1.6.4.4.8.8,1.3,1.1.5.3,1.1.4,1.8.4s1.6-.2,2.2-.5c.6-.4,1.1-.8,1.6-1.4l1.5,1.2c-.3.5-.7.9-1.2,1.3-.5.4-1.1.8-1.8,1-.7.3-1.5.4-2.4.4ZM748,270.8c.6,0,1.1-.1,1.6-.4s.9-.6,1.2-1c.3-.4.5-.9.5-1.4h2.3c0,.8-.3,1.6-.9,2.4-.5.7-1.2,1.3-2,1.8-.8.4-1.8.7-2.8.7s-2-.2-2.8-.6c-.8-.4-1.5-.9-2-1.6-.5-.7-.9-1.4-1.2-2.3-.3-.9-.4-1.8-.4-2.7v-.6c0-1,.1-1.9.4-2.7.3-.9.7-1.6,1.2-2.3.5-.7,1.2-1.2,2-1.6.8-.4,1.7-.6,2.8-.6s2.1.2,2.9.7c.8.4,1.5,1.1,2,1.8.5.8.7,1.7.8,2.6h-2.3c0-.6-.2-1.1-.5-1.6-.3-.5-.7-.9-1.2-1.1-.5-.3-1-.4-1.7-.4s-1.4.1-1.9.4c-.5.3-.9.7-1.2,1.2-.3.5-.5,1-.6,1.6-.1.6-.2,1.2-.2,1.8v.6c0,.6,0,1.2.2,1.8.1.6.3,1.2.6,1.6.3.5.7.9,1.2,1.2.5.3,1.1.4,1.9.4ZM762.4,258.3v1.9h-7.7v-1.9h7.7ZM757.3,254.8h2.4v14.2c0,.5,0,.8.2,1.1.1.2.3.4.6.5.2,0,.5.1.8.1s.4,0,.6,0c.2,0,.4,0,.5-.1v2c-.2,0-.4.1-.8.2-.3,0-.7,0-1.1,0s-1.1-.1-1.6-.4c-.5-.2-.9-.6-1.2-1.2-.3-.6-.4-1.3-.4-2.3v-14.2Z"/>
    <path class="cls-11" d="M658.1,236.3v3.1h-10.4v-3.1h10.4ZM648.9,218.8v20.6h-3.9v-20.6h3.9ZM674.3,236.3v3.1h-11v-3.1h11ZM664.6,218.8v20.6h-3.9v-20.6h3.9ZM672.9,227.3v3h-9.5v-3h9.5ZM674.3,218.8v3.1h-10.9v-3.1h10.9ZM693.1,228.7v8c-.3.4-.8.8-1.4,1.3-.6.5-1.5.8-2.5,1.2-1,.3-2.3.5-3.8.5s-2.5-.2-3.6-.7c-1.1-.4-2-1.1-2.8-1.9-.8-.8-1.4-1.9-1.8-3.1-.4-1.2-.6-2.6-.6-4.2v-1.4c0-1.6.2-3,.6-4.2.4-1.2,1-2.3,1.7-3.1.8-.8,1.7-1.5,2.7-1.9,1.1-.4,2.2-.7,3.5-.7s3.2.3,4.3.9c1.1.6,2,1.4,2.6,2.4.6,1,1,2.2,1.1,3.5h-3.8c-.1-.7-.3-1.3-.6-1.9-.3-.5-.8-1-1.3-1.3-.6-.3-1.3-.5-2.2-.5s-1.4.2-2,.5c-.6.3-1.1.7-1.5,1.3-.4.6-.7,1.3-.9,2.1-.2.8-.3,1.8-.3,2.9v1.4c0,1.1.1,2.1.3,2.9.2.8.6,1.6,1,2.2.4.6,1,1,1.6,1.3.6.3,1.4.4,2.2.4s1.3,0,1.8-.2c.5-.1.9-.3,1.2-.5.3-.2.5-.4.7-.5v-3.9h-4.1v-2.8h8ZM705,221.9l-5.9,17.5h-4.1l7.7-20.6h2.6l-.3,3.1ZM709.9,239.4l-5.9-17.5-.4-3.1h2.6l7.7,20.6h-4.1ZM709.6,231.7v3.1h-11.1v-3.1h11.1ZM728,232.6h3.9c-.1,1.4-.5,2.6-1.1,3.7-.7,1.1-1.6,1.9-2.8,2.5s-2.6.9-4.3.9-2.5-.2-3.5-.7c-1-.5-1.9-1.1-2.6-2-.7-.9-1.3-1.9-1.7-3.1-.4-1.2-.6-2.6-.6-4.1v-1.6c0-1.5.2-2.9.6-4.1.4-1.2,1-2.2,1.7-3.1.7-.9,1.6-1.5,2.7-2,1-.5,2.2-.7,3.5-.7s3.1.3,4.3.9c1.2.6,2.1,1.5,2.7,2.5.6,1.1,1,2.3,1.2,3.7h-3.9c0-.9-.3-1.6-.6-2.2-.3-.6-.7-1.1-1.3-1.4-.6-.3-1.4-.5-2.3-.5s-1.4.1-2,.4c-.6.3-1,.7-1.4,1.3-.4.6-.7,1.3-.9,2.1-.2.8-.3,1.8-.3,2.9v1.6c0,1,0,2,.3,2.8.2.8.4,1.5.8,2.1.4.6.8,1,1.4,1.3.6.3,1.2.5,2,.5s1.7-.2,2.3-.5c.6-.3,1.1-.7,1.4-1.3.3-.6.5-1.3.6-2.2ZM737.3,218.8l4.5,9.6,4.6-9.6h4.3l-6.9,13.1v7.5h-4v-7.5l-6.9-13.1h4.3Z"/>
    <path class="cls-9" d="M690.3,196.7c-.4,0-.7,0-1.1-.2-1.5-.6-2.3-2.3-1.7-3.9,0-.2,7.8-20,14.2-35.9.6-1.5,2.4-2.3,3.9-1.7,1.5.6,2.3,2.4,1.7,3.9-6.4,15.9-14.1,35.6-14.2,35.8-.5,1.2-1.6,1.9-2.8,1.9ZM713.2,190.2c-.8,0-1.6-.3-2.2-1-1.1-1.2-1-3.1.2-4.2l10-9.2-10-9.2c-1.2-1.1-1.3-3-.2-4.2,1.1-1.2,3-1.3,4.2-.2l11.3,10.4c.9.8,1.4,2,1.4,3.2,0,1.2-.5,2.4-1.4,3.2l-11.3,10.4c-.6.5-1.3.8-2,.8ZM722.6,177h0,0ZM682.8,190.2c-.7,0-1.5-.3-2-.8l-11.3-10.4c-.9-.8-1.4-2-1.4-3.2,0-1.2.5-2.4,1.4-3.2l11.3-10.4c1.2-1.1,3.1-1,4.2.2,1.1,1.2,1,3.1-.2,4.2l-10,9.2,10,9.2c1.2,1.1,1.3,3,.2,4.2-.6.6-1.4,1-2.2,1ZM673.4,177h0s0,0,0,0Z"/>
    <rect class="cls-61" x="642" y="278.3" width="2" height="120.4" transform="translate(23.3 717.9) rotate(-59.2)"/>
    <polygon class="cls-55" points="820.9 271 818.9 270.9 819.4 151.2 782.5 129.9 783.5 128.1 821.4 150 821.4 150.6 820.9 271"/>
  </g>
  <g>
    <g>
      <path class="cls-66" d="M1175,569.5c3.1-1.8,5-5.1,5-8.7v-171c0-3.6-1.9-6.9-5-8.7l-148.8-85.6c-3.1-1.8-6.9-1.8-10,0l-148.7,85.6c-3.1,1.8-5,5.1-5,8.7v171c0,3.6,1.9,6.9,5,8.7l148.7,85.6c3.1,1.8,6.9,1.8,10,0l148.8-85.6Z"/>
      <g class="cls-76">
        <path class="cls-1" d="M1021.3,662.9c-2.8,0-5.7-.7-8.2-2.2l-148.8-85.6c-5.1-2.9-8.3-8.4-8.3-14.3v-171c0-5.9,3.2-11.4,8.3-14.3l148.7-85.6c5.1-2.9,11.4-2.9,16.5,0l148.8,85.6c5.1,2.9,8.3,8.4,8.3,14.3v171c0,5.9-3.2,11.4-8.3,14.3l-148.8,85.6c-2.5,1.5-5.4,2.2-8.2,2.2ZM1021.3,300.7c-.6,0-1.2.2-1.7.5l-148.7,85.6c-1.1.6-1.8,1.8-1.8,3v171c0,1.2.7,2.4,1.8,3l148.7,85.6c1.1.6,2.4.6,3.5,0l148.8-85.6s0,0,0,0c1.1-.6,1.8-1.8,1.8-3v-171c0-1.2-.7-2.4-1.8-3l-148.8-85.6c-.5-.3-1.1-.5-1.7-.5Z"/>
      </g>
    </g>
    <g>
      <g class="cls-77">
        <polygon class="cls-65" points="1126 540.8 1126 428.2 1028.5 372 931 428.2 931 540.8 1028.5 597 1126 540.8"/>
      </g>
      <path class="cls-65" d="M1028.5,597.8c-.1,0-.3,0-.4-.1l-97.5-56.2c-.2-.1-.4-.4-.4-.6v-112.5c0-.3.1-.5.4-.6l97.5-56.2c.2-.1.5-.1.8,0l97.5,56.2c.2.1.4.4.4.6v112.5c0,.3-.1.5-.4.6l-97.5,56.2c-.1,0-.2.1-.4.1ZM931.8,540.3l96.8,55.8,96.8-55.8v-111.6l-96.8-55.8-96.8,55.8v111.6Z"/>
    </g>
    <path class="cls-12" d="M1120,535.5v-113l-98.5-56.5-98.5,56.5v113l98.5,56.5,98.5-56.5Z"/>
    <path class="cls-2" d="M971.1,514.6h-4.9v-2s4.4,0,4.4,0c.7,0,1.4-.1,1.9-.4.5-.2,1-.6,1.3-1.1.3-.5.5-1,.5-1.7s-.1-1.3-.4-1.7c-.3-.4-.7-.8-1.2-1-.5-.2-1.2-.3-2.1-.3h-3.7v17.1h-2.5v-19.2h6.3c1,0,1.9.1,2.6.3.8.2,1.4.5,2,.9.5.4,1,.9,1.2,1.6.3.6.4,1.4.4,2.3s-.2,1.5-.6,2.1c-.4.6-1,1.2-1.7,1.6-.7.4-1.5.7-2.5.8l-.9.6ZM971,523.6h-5.7l1.4-2.1h4.3c.8,0,1.5-.1,2.1-.4.6-.3,1-.7,1.3-1.2.3-.5.4-1.1.4-1.8s-.1-1.3-.4-1.8c-.3-.5-.7-.9-1.2-1.2s-1.2-.4-2.1-.4h-3.6v-2h5l.5.7c.9,0,1.7.3,2.3.8.6.4,1.1,1,1.5,1.7.3.7.5,1.4.5,2.3,0,1.2-.3,2.2-.8,3-.5.8-1.3,1.4-2.2,1.9-.9.4-2.1.6-3.3.6ZM989.4,520.3v-11h2.5v14.3h-2.3v-3.3ZM989.9,517.3h1c0,.9-.1,1.8-.3,2.6-.2.8-.5,1.5-.9,2.1-.4.6-1,1.1-1.7,1.4-.7.3-1.6.5-2.6.5s-1.3-.1-1.9-.3c-.6-.2-1.1-.5-1.5-.9-.4-.4-.7-1-1-1.6-.2-.7-.3-1.5-.3-2.4v-9.2h2.4v9.2c0,.6,0,1.2.2,1.6.1.4.3.7.6,1,.3.2.5.4.8.5.3,0,.6.1,1,.1,1,0,1.9-.2,2.5-.6.6-.4,1-.9,1.3-1.6.3-.7.4-1.4.4-2.3ZM998.2,509.3v14.3h-2.5v-14.3h2.5ZM995.6,505.5c0-.4.1-.7.4-1,.2-.3.6-.4,1.1-.4s.8.1,1.1.4c.3.3.4.6.4,1s-.1.7-.4,1c-.2.3-.6.4-1.1.4s-.8-.1-1.1-.4c-.2-.3-.4-.6-.4-1ZM1004.8,503.3v20.2h-2.4v-20.2h2.4ZM1017.7,520.8v-17.5h2.5v20.2h-2.2l-.2-2.8ZM1008.1,516.6v-.3c0-1.1.1-2.1.4-3,.3-.9.7-1.7,1.2-2.3s1.1-1.1,1.8-1.5c.7-.4,1.5-.5,2.3-.5s1.7.2,2.3.5c.7.3,1.2.8,1.7,1.4.5.6.8,1.3,1.1,2.1.3.8.5,1.8.6,2.8v1.2c0,1-.3,2-.6,2.8-.3.8-.6,1.5-1.1,2.1-.5.6-1,1-1.7,1.4-.7.3-1.5.5-2.4.5s-1.6-.2-2.3-.5c-.7-.4-1.3-.9-1.8-1.5-.5-.6-.9-1.4-1.2-2.3-.3-.9-.4-1.8-.4-2.9ZM1010.6,516.3v.3c0,.7,0,1.4.2,2,.1.6.4,1.2.7,1.6.3.5.7.8,1.2,1.1.5.3,1,.4,1.7.4s1.5-.2,2-.5,1-.8,1.3-1.4c.3-.6.6-1.2.7-1.8v-3.2c-.1-.5-.3-.9-.5-1.4-.2-.5-.5-.9-.8-1.2-.3-.4-.7-.6-1.1-.9s-1-.3-1.6-.3-1.2.1-1.7.4c-.5.3-.9.7-1.2,1.1-.3.5-.5,1-.7,1.7-.1.6-.2,1.3-.2,2ZM1033.6,504.4v19.2h-2.5v-19.2h2.5ZM1041.6,513v2.1h-8.6v-2.1h8.6ZM1042.9,504.4v2.1h-9.9v-2.1h9.9ZM1053.5,521.1v-7.3c0-.6-.1-1.1-.3-1.5-.2-.4-.5-.7-1-1-.4-.2-1-.3-1.7-.3s-1.2.1-1.6.3c-.5.2-.8.5-1.1.8-.3.3-.4.7-.4,1.1h-2.4c0-.5.1-1,.4-1.5.3-.5.6-1,1.1-1.4.5-.4,1.1-.7,1.8-1,.7-.2,1.5-.4,2.3-.4s1.9.2,2.8.5c.8.4,1.4.9,1.9,1.6.4.7.7,1.6.7,2.6v6.6c0,.5,0,1,.1,1.5,0,.5.2,1,.4,1.4v.2h-2.5c-.1-.3-.2-.7-.3-1.1,0-.5-.1-.9-.1-1.3ZM1054,514.9v1.7s-2.4,0-2.4,0c-.7,0-1.3,0-1.9.2-.6.1-1,.3-1.4.5-.4.2-.7.5-.9.8-.2.3-.3.7-.3,1.1s0,.9.3,1.2c.2.4.5.7.9.9.4.2.9.3,1.5.3s1.4-.2,2-.5c.6-.3,1-.7,1.4-1.2.3-.5.5-.9.6-1.3l1,1.2c0,.4-.2.8-.5,1.2-.3.4-.6.9-1.1,1.3-.4.4-1,.7-1.6,1-.6.3-1.3.4-2.1.4s-1.8-.2-2.6-.6c-.7-.4-1.3-.9-1.7-1.5-.4-.6-.6-1.4-.6-2.1s.2-1.4.5-2c.3-.6.7-1.1,1.3-1.5.6-.4,1.2-.7,2-.9.8-.2,1.7-.3,2.7-.3h2.8ZM1068.1,519.8c0-.4,0-.7-.2-1-.2-.3-.5-.6-.9-.8-.5-.3-1.2-.5-2.1-.7-.8-.2-1.5-.4-2.1-.6-.6-.2-1.2-.5-1.6-.8-.4-.3-.8-.7-1-1.1-.2-.4-.4-1-.4-1.5s.1-1.1.4-1.6.6-.9,1.1-1.3c.5-.4,1-.7,1.7-.9.6-.2,1.4-.3,2.2-.3,1.1,0,2.1.2,2.9.6.8.4,1.4.9,1.9,1.6.4.7.7,1.4.7,2.2h-2.4c0-.4-.1-.8-.4-1.1-.2-.4-.6-.7-1-.9-.4-.2-1-.4-1.6-.4s-1.2.1-1.7.3c-.4.2-.7.5-.9.8-.2.3-.3.7-.3,1s0,.5.1.7c0,.2.3.4.5.6.2.2.6.3,1,.5.4.1,1,.3,1.7.4,1.2.3,2.1.6,2.9.9.8.4,1.3.8,1.7,1.4s.6,1.2.6,2-.1,1.2-.4,1.7c-.3.5-.6,1-1.1,1.3-.5.4-1.1.7-1.7.9-.7.2-1.4.3-2.3.3-1.2,0-2.3-.2-3.2-.7-.9-.4-1.5-1-2-1.7-.4-.7-.7-1.5-.7-2.3h2.5c0,.7.2,1.2.6,1.6.4.4.8.7,1.3.8.5.2,1,.2,1.5.2s1.2,0,1.7-.3c.5-.2.8-.4,1-.7.2-.3.3-.7.3-1.1ZM1079.7,509.3v1.9h-7.7v-1.9h7.7ZM1074.6,505.8h2.4v14.2c0,.5,0,.8.2,1.1.1.2.3.4.6.5.2,0,.5.1.8.1s.4,0,.6,0c.2,0,.4,0,.5-.1v2c-.2,0-.4.1-.8.2-.3,0-.7,0-1.1,0s-1.2-.1-1.7-.4-.9-.6-1.2-1.2c-.3-.6-.4-1.3-.4-2.3v-14.2Z"/>
    <path class="cls-11" d="M969.4,469.8h3.9v13.7c0,1.6-.3,2.9-1,4-.7,1.1-1.6,1.9-2.8,2.4-1.2.5-2.5.8-4,.8s-2.9-.3-4-.8c-1.2-.5-2.1-1.4-2.8-2.4-.7-1.1-1-2.4-1-4v-13.7h3.9v13.7c0,1,.2,1.8.5,2.4.3.6.8,1.1,1.4,1.3.6.3,1.3.4,2.1.4s1.5-.1,2.1-.4c.6-.3,1-.7,1.3-1.3.3-.6.5-1.4.5-2.4v-13.7ZM977,469.8h7.5c1.6,0,2.9.2,4,.7,1.1.5,2,1.2,2.6,2.1.6.9.9,2.1.9,3.4s-.2,2-.6,2.8c-.4.8-.9,1.4-1.6,2-.7.5-1.5.9-2.4,1.2l-1.2.6h-6.6v-3.1s4.9,0,4.9,0c.8,0,1.5-.1,2-.4.5-.3.9-.7,1.2-1.2.3-.5.4-1.1.4-1.7s-.1-1.3-.4-1.8c-.3-.5-.7-.9-1.2-1.2-.5-.3-1.2-.4-2-.4h-3.6v17.5h-3.9v-20.6ZM988.7,490.4l-4.8-9.2h4.1s4.8,9,4.8,9v.2h-4.2ZM1011.5,479.7v8c-.3.4-.8.8-1.4,1.3-.6.5-1.5.8-2.5,1.2-1,.3-2.3.5-3.8.5s-2.5-.2-3.6-.7c-1.1-.4-2-1.1-2.8-1.9-.8-.8-1.4-1.9-1.8-3.1-.4-1.2-.6-2.6-.6-4.2v-1.4c0-1.6.2-3,.6-4.2.4-1.2,1-2.3,1.7-3.1.8-.8,1.7-1.5,2.7-1.9,1.1-.4,2.2-.7,3.5-.7s3.2.3,4.3.9c1.1.6,2,1.4,2.6,2.4.6,1,1,2.2,1.1,3.5h-3.8c0-.7-.3-1.3-.6-1.9-.3-.5-.8-1-1.3-1.3-.6-.3-1.3-.5-2.2-.5s-1.4.2-2,.5c-.6.3-1.1.7-1.5,1.3-.4.6-.7,1.3-.9,2.1-.2.8-.3,1.8-.3,2.9v1.4c0,1.1.1,2.1.3,2.9.2.8.6,1.6,1,2.2.4.6,1,1,1.6,1.3.7.3,1.4.4,2.2.4s1.4,0,1.8-.2c.5-.1.9-.3,1.2-.5.3-.2.5-.4.7-.5v-3.9h-4.1v-2.8h8ZM1028.9,487.3v3.1h-11v-3.1h11ZM1019.1,469.8v20.6h-3.9v-20.6h3.9ZM1027.5,478.3v3h-9.5v-3h9.5ZM1028.8,469.8v3.1h-10.9v-3.1h10.9ZM1048.2,469.8v20.6h-3.9l-8.8-14.3v14.3h-3.9v-20.6h3.9l8.8,14.3v-14.3h3.9ZM1064.2,483.6h3.9c0,1.4-.5,2.6-1.2,3.7-.7,1.1-1.6,1.9-2.8,2.5-1.2.6-2.6.9-4.3.9s-2.5-.2-3.5-.7c-1-.5-1.9-1.1-2.7-2-.7-.9-1.3-1.9-1.7-3.1-.4-1.2-.6-2.6-.6-4.1v-1.6c0-1.5.2-2.9.6-4.1s1-2.2,1.7-3.1c.8-.9,1.6-1.5,2.7-2,1-.5,2.2-.7,3.5-.7s3.1.3,4.3.9c1.2.6,2.1,1.5,2.7,2.5.7,1.1,1,2.3,1.2,3.7h-3.9c0-.9-.3-1.6-.6-2.2-.3-.6-.7-1.1-1.3-1.4-.6-.3-1.4-.5-2.3-.5s-1.4.1-2,.4c-.6.3-1,.7-1.4,1.3-.4.6-.7,1.3-.8,2.1-.2.8-.3,1.8-.3,2.9v1.6c0,1,0,2,.3,2.8.2.8.4,1.5.8,2.1.4.6.8,1,1.4,1.3.6.3,1.2.5,2,.5s1.7-.2,2.3-.5,1.1-.7,1.4-1.3c.3-.6.5-1.3.6-2.2ZM1073.5,469.8l4.5,9.6,4.6-9.6h4.3l-6.8,13.1v7.5h-4v-7.5l-6.9-13.1h4.3Z"/>
    <rect class="cls-64" x="1146.2" y="404" width="2" height="120.4"/>
    <g>
      <path class="cls-9" d="M1001.7,424.3l33.1-27.4-11.9,23.8,17.2,2.9-32.5,27.5,10.3-24.1-16.1-2.7Z"/>
      <path class="cls-9" d="M1007.5,453c-.4,0-.8-.1-1.2-.4-.7-.6-1-1.5-.7-2.4l9.3-21.7-13.6-2.3c-.8-.1-1.4-.7-1.6-1.5s0-1.6.7-2.1l33.1-27.4c.7-.6,1.8-.6,2.5,0,.7.6,1,1.6.5,2.5l-10.7,21.4,14.5,2.4c.8.1,1.4.7,1.6,1.4.2.8,0,1.6-.6,2.1l-32.5,27.5c-.4.3-.8.5-1.3.5ZM1006.3,423l11.8,2c.6.1,1.1.5,1.4,1s.3,1.2,0,1.7l-7,16.3,22.8-19.3-12.9-2.2c-.6-.1-1.2-.5-1.5-1.1-.3-.6-.3-1.2,0-1.8l7.7-15.3-22.3,18.5Z"/>
    </g>
    <polygon class="cls-63" points="933.6 569.1 895.7 547.2 895.7 546.6 896.2 426.2 898.2 426.2 897.7 546 934.6 567.3 933.6 569.1"/>
  </g>
</svg>