<svg width="1005" height="639" viewBox="0 0 1005 639" fill="none" xmlns="http://www.w3.org/2000/svg">
<path d="M412.941 600.908V525.936L348.5 488.45L284.059 525.936V600.908L348.5 638.394L412.941 600.908Z" fill="#282828"/>
<path d="M394.873 589.722V535.912L348.5 509.007L302.127 535.912V589.722L348.5 616.627L394.873 589.722Z" stroke="#00FFF0" stroke-width="3" stroke-linejoin="round"/>
<path d="M349.653 532.441L320.322 562.08L329.4 571.253L367.809 532.441H349.653Z" fill="#D2D2D2"/>
<path d="M349.448 559.773L333.744 575.642L342.856 584.989L367.807 559.775H349.447L349.448 559.773Z" fill="#D2D2D2"/>
<path d="M342.856 584.987L349.753 591.957H367.807L351.917 575.83L342.856 584.987Z" fill="#A9A9AA"/>
<path d="M333.642 575.744L342.72 566.57L351.917 575.83L342.856 584.987L333.642 575.744Z" fill="#C2C3C4"/>
<path d="M342.856 584.987L350.401 582.457L351.151 576.605L342.856 584.987Z" fill="url(#paint0_linear_503_4524)" fill-opacity="0.8"/>
<path d="M766.072 477.562V402.59L701.631 365.104L637.191 402.59V477.562L701.631 515.048L766.072 477.562Z" fill="#282828"/>
<path d="M748.005 466.376V412.566L701.631 385.661L655.258 412.566V466.376L701.631 493.281L748.005 466.376Z" stroke="#FF9800" stroke-width="3" stroke-linejoin="round"/>
<path d="M690.953 458.686C680.889 458.686 672.913 450.612 672.913 440.842C672.913 431.072 681.076 422.998 690.953 422.998H712.03C722.095 422.998 730.07 431.072 730.07 440.842C730.07 450.612 721.907 458.686 712.03 458.686H690.953ZM711.655 452.299C718.112 452.299 723.425 447.043 723.425 440.656C723.425 434.27 718.112 429.014 711.655 429.014H691.525C685.068 429.014 679.754 434.27 679.754 440.656C679.754 447.043 685.068 452.299 691.525 452.299H711.655Z" fill="#D2D2D2"/>
<path d="M695.273 600.908V525.936L630.833 488.45L566.392 525.936V600.908L630.833 638.394L695.273 600.908Z" fill="#282828"/>
<path d="M677.206 589.722V535.912L630.832 509.007L584.459 535.912V589.722L630.832 616.627L677.206 589.722Z" stroke="#FF9800" stroke-width="3" stroke-linejoin="round"/>
<path d="M634.982 527.265L613.342 545.781L594.884 578.485H611.53L634.982 527.265ZM637.859 531.597L628.625 557.28L646.329 579.233L611.979 585.057H668.273L637.859 531.597Z" fill="#D2D2D2"/>
<path d="M694.41 355.941V280.969L629.969 243.483L565.528 280.969V355.941L629.969 393.427L694.41 355.941Z" fill="#282828"/>
<path d="M676.342 344.755V290.945L629.969 264.04L583.596 290.945V344.755L629.969 371.66L676.342 344.755Z" stroke="#FF9800" stroke-width="3" stroke-linejoin="round"/>
<path d="M642.519 315.029L629.294 319.386L617.79 324.508L614.571 325.366C613.751 326.152 612.892 326.95 611.962 327.756C610.943 328.644 609.992 329.45 609.263 330.035C608.454 330.679 607.255 331.891 606.644 332.656C605.734 333.805 605.014 335.025 604.704 335.963C604.155 337.657 604.424 339.371 605.484 340.955C606.843 342.973 609.552 345.029 612.711 346.431C614.32 347.146 617.029 348.065 619.068 348.578C622.457 349.445 629.013 350.382 632.622 350.524C633.351 350.555 634.331 350.555 634.372 350.524C634.451 350.473 635.011 349.395 635.662 348.054C637.88 343.486 639.481 339.201 640.35 335.54C640.87 333.322 641.28 330.367 641.549 326.868C641.62 325.89 641.65 322.613 641.59 321.503C641.5 319.688 641.34 318.216 641.09 316.774C641.049 316.562 641.039 316.37 641.06 316.36C641.1 316.33 641.22 316.289 642.849 315.815L642.519 315.028V315.029ZM639.5 316.814C639.62 316.814 639.94 319.91 640.019 321.867C640.039 322.281 640.03 322.552 640.009 322.552C639.93 322.552 638.319 321.595 637.171 320.869C636.171 320.233 634.272 318.963 633.972 318.721C633.872 318.65 633.882 318.641 634.701 318.359C636.09 317.885 639.389 316.816 639.499 316.816L639.5 316.814ZM632.763 319.052C632.853 319.052 633.083 319.184 633.632 319.526C635.692 320.826 638.49 322.4 639.69 322.925C640.06 323.087 640.1 323.027 639.25 323.611C637.431 324.861 635.162 326.092 632.382 327.332C631.893 327.554 631.483 327.724 631.472 327.724C631.453 327.724 631.513 327.472 631.592 327.17C632.261 324.659 632.641 322.118 632.662 320.081C632.669 319.408 632.703 319.062 632.763 319.042C632.743 319.052 632.752 319.052 632.763 319.052ZM631.374 319.587C631.433 319.647 631.393 321.906 631.314 322.521C631.134 323.993 630.854 325.364 630.395 326.907C630.285 327.28 630.185 327.593 630.164 327.613C630.124 327.662 628.754 326.312 628.305 325.787C627.525 324.879 626.916 323.972 626.465 323.084C626.235 322.629 625.876 321.743 625.906 321.713C626.066 321.603 631.333 319.544 631.374 319.585V319.587ZM624.837 322.179C624.847 322.179 624.856 322.179 624.867 322.19C624.886 322.21 624.957 322.371 625.016 322.552C625.337 323.43 626.055 324.721 626.675 325.547C627.355 326.454 628.244 327.422 628.985 328.058C629.224 328.26 629.444 328.451 629.474 328.481C629.534 328.541 629.553 328.531 627.925 329.156C626.036 329.882 623.976 330.608 621.617 331.374C621.054 331.557 620.49 331.743 619.929 331.928C619.839 331.958 619.869 331.909 620.128 331.495C621.297 329.65 623.076 326.03 624.076 323.468C624.247 323.024 624.416 322.58 624.446 322.48C624.487 322.338 624.536 322.288 624.666 322.217C624.737 322.198 624.807 322.176 624.837 322.176V322.179ZM622.837 323.016C622.867 323.036 622.356 324.115 621.857 325.103C620.887 327.009 619.827 328.884 618.408 331.163C618.168 331.555 617.938 331.919 617.908 331.96C617.858 332.031 617.837 332.01 617.677 331.697C617.338 331.022 617.058 330.154 616.908 329.358C616.758 328.571 616.788 327.2 616.957 326.353C617.088 325.728 617.077 325.739 617.376 325.586C618.656 324.931 622.794 322.974 622.834 323.015L622.837 323.016ZM640.081 323.721V324.144C640.081 326.392 639.841 329.479 639.491 331.727C639.431 332.12 639.38 332.443 639.371 332.454C639.371 332.454 639.081 332.374 638.741 332.273C637.241 331.798 635.613 331.102 634.143 330.287C633.173 329.752 631.764 328.875 631.803 328.834C631.814 328.824 632.233 328.602 632.722 328.34C634.682 327.312 636.56 326.202 638.19 325.103C638.8 324.689 639.72 324.025 639.919 323.842L640.079 323.721H640.081ZM615.29 326.707C615.33 326.707 615.32 326.787 615.26 327.151C615.219 327.413 615.17 327.896 615.151 328.229C615.07 329.701 615.311 330.79 616.031 332.283C616.231 332.697 616.39 333.04 616.381 333.049C616.311 333.109 609.695 335.066 607.614 335.64C606.994 335.811 606.454 335.963 606.415 335.972C606.345 335.992 606.336 335.983 606.365 335.811C606.596 334.328 607.716 332.392 609.274 330.758C610.314 329.669 611.143 329.034 612.563 328.217C613.582 327.632 615.152 326.755 615.272 326.714C615.272 326.704 615.282 326.704 615.291 326.704L615.29 326.707ZM630.884 329.52C630.895 329.509 631.134 329.641 631.425 329.813C633.564 331.063 636.542 332.223 639.081 332.818L639.311 332.868L638.991 333.049C637.662 333.795 633.294 335.631 628.826 337.315C628.176 337.556 627.537 337.799 627.416 337.849C627.296 337.899 627.185 337.929 627.185 337.92C627.185 337.911 627.365 337.558 627.596 337.123C628.845 334.763 630.104 331.889 630.745 329.893C630.826 329.701 630.875 329.53 630.886 329.52H630.884ZM629.294 330.044C629.305 330.054 629.224 330.266 629.124 330.507C628.254 332.635 627.115 334.954 625.656 337.556C625.286 338.222 624.976 338.757 624.966 338.757C624.955 338.757 624.656 338.575 624.296 338.353C622.177 337.043 620.298 335.429 619.069 333.866L618.89 333.644L619.8 333.391C623.059 332.495 625.828 331.527 628.576 330.337C628.965 330.175 629.285 330.044 629.296 330.044H629.294ZM639.171 333.523C639.181 333.755 638.671 335.832 638.252 337.334C637.901 338.595 637.602 339.583 637.053 341.327C636.813 342.094 636.604 342.728 636.593 342.728C636.583 342.728 636.523 342.717 636.463 342.698C633.495 342.153 630.835 341.396 628.336 340.389C627.636 340.107 626.638 339.652 626.578 339.602C626.558 339.583 627.157 339.3 627.917 338.967C632.465 336.96 637.183 334.681 638.803 333.703C638.993 333.582 639.142 333.521 639.172 333.521L639.171 333.523ZM616.371 334.31C616.39 334.329 615.121 336.174 613.342 338.686C612.723 339.563 612.003 340.591 611.733 340.975C611.464 341.358 611.054 341.962 610.823 342.326L610.403 342.982L609.952 342.598C609.422 342.154 608.503 341.206 608.093 340.682C607.234 339.604 606.653 338.464 606.424 337.425C606.315 336.94 606.315 336.698 606.413 336.668C606.563 336.627 609.232 335.993 611.732 335.407C613.121 335.084 614.73 334.702 615.311 334.56C615.89 334.418 616.36 334.308 616.371 334.308V334.31ZM617.649 334.803L617.969 335.166C619.409 336.789 620.878 337.99 622.657 339.038C622.978 339.219 623.217 339.38 623.198 339.391C623.127 339.441 617.02 341.629 614.191 342.618C612.601 343.183 611.292 343.636 611.283 343.636C611.274 343.636 611.182 343.575 611.082 343.504L610.902 343.373L611.193 342.95C612.133 341.579 613.312 340.076 615.881 336.951L617.65 334.803H617.649ZM625.626 340.561C625.636 340.551 626.075 340.712 626.615 340.914C627.914 341.408 628.944 341.721 630.324 342.074C632.023 342.508 634.483 342.932 635.932 343.053C636.152 343.072 636.271 343.093 636.231 343.124C636.161 343.164 634.692 343.658 633.611 344.001C631.892 344.546 626.644 346.109 622.365 347.349C621.575 347.581 620.896 347.772 620.857 347.782C620.756 347.802 620.427 347.711 620.427 347.672C620.427 347.652 620.667 347.34 620.957 346.997C622.397 345.262 623.826 343.326 625.015 341.491C625.344 340.987 625.624 340.573 625.624 340.564L625.626 340.561ZM623.867 340.612C623.877 340.623 623.168 341.772 621.928 343.749C621.398 344.585 620.809 345.534 620.599 345.866C620.399 346.189 620.099 346.693 619.93 346.976L619.64 347.491L619.49 347.45C619.131 347.349 616.601 346.452 615.932 346.18C615.103 345.848 614.242 345.445 613.603 345.102C612.804 344.668 611.804 344.022 611.883 344.003C611.902 343.992 613.272 343.619 614.922 343.166C619.3 341.965 621.729 341.271 623.319 340.767C623.609 340.676 623.859 340.605 623.868 340.616L623.867 340.612ZM636.312 343.557H636.322C636.363 343.658 634.743 348.196 634.153 349.627C634.023 349.951 633.974 350.031 633.903 350.02C633.733 350.009 631.384 349.677 629.955 349.466C627.465 349.082 623.288 348.347 622.238 348.104L621.999 348.054L623.488 347.711C626.687 346.985 628.226 346.592 629.785 346.108C631.755 345.502 633.704 344.745 635.673 343.818C635.982 343.676 636.243 343.566 636.312 343.556V343.557Z" fill="#D2D2D2"/>
<path d="M628.884 283.93C628.664 283.9 625.115 285.191 622.827 286.129C619.737 287.4 617.339 288.61 615.86 289.658C615.311 290.052 614.621 290.747 614.511 291.02C614.471 291.121 614.452 291.242 614.452 291.363L615.791 292.643L618.98 293.671L626.567 295.043L635.243 296.545L635.333 295.789C635.303 295.789 635.283 295.778 635.253 295.778L634.114 295.597L633.885 295.183C632.706 293.086 631.407 290.484 630.646 288.729C630.056 287.367 629.497 285.795 629.187 284.666C629.016 283.98 628.997 283.939 628.887 283.93H628.884ZM628.724 284.445H628.735C628.745 284.456 628.784 284.738 628.824 285.07C628.994 286.482 629.305 287.843 629.794 289.315C630.164 290.425 630.164 290.364 629.735 290.233C628.715 289.951 624.147 289.155 620.839 288.69C620.309 288.619 619.86 288.549 619.86 288.539C619.819 288.498 622.249 287.218 623.319 286.713C624.689 286.077 628.447 284.495 628.727 284.444L628.724 284.445ZM619.089 288.963L619.48 289.095C621.599 289.821 626.926 290.849 629.865 291.091C630.194 291.121 630.474 291.151 630.484 291.151C630.495 291.162 630.215 291.313 629.854 291.483C628.435 292.199 626.876 293.077 625.796 293.753C625.476 293.954 625.187 294.115 625.147 294.115C625.106 294.115 624.897 294.075 624.677 294.044L624.277 293.984L623.277 292.996C621.518 291.272 620.138 289.942 619.608 289.437L619.089 288.963ZM618.689 289.276L620.099 291.05C620.869 292.029 621.648 292.986 621.819 293.197C621.988 293.409 622.129 293.581 622.118 293.591C622.078 293.622 620.08 293.229 619.02 292.986C617.93 292.734 617.481 292.613 616.811 292.402L616.261 292.22V292.078C616.272 291.403 617.12 290.395 618.56 289.366L618.691 289.276H618.689ZM630.664 291.695C630.705 291.695 630.754 291.785 630.874 292.057C631.213 292.814 632.273 294.851 632.532 295.243C632.613 295.375 632.752 295.385 631.342 295.153C627.953 294.599 626.864 294.417 626.864 294.396C626.864 294.386 626.964 294.316 627.094 294.245C628.143 293.661 629.203 292.915 630.143 292.118C630.374 291.926 630.583 291.745 630.622 291.714C630.633 291.695 630.652 291.684 630.663 291.695H630.664Z" fill="#D2D2D2"/>
<path d="M614.58 290.878C614.58 290.878 614.36 291.231 614.57 291.755C614.7 292.078 615.08 292.471 615.51 292.874C615.51 292.874 619.959 297.25 620.497 297.875C622.957 300.738 624.025 303.562 624.126 307.455C624.186 309.956 623.716 312.154 622.547 314.705C620.467 319.283 616.079 324.334 609.311 329.941L610.301 329.609C610.94 329.124 611.81 328.611 613.85 327.481C618.557 324.879 623.856 322.489 630.353 320.029C639.708 316.479 655.093 312.325 663.848 310.973L664.758 310.832L664.617 310.61C663.818 309.359 663.267 308.583 662.609 307.756C660.69 305.356 658.361 303.41 655.512 301.795C651.593 299.588 646.525 297.863 640.108 296.583C638.898 296.341 636.24 295.878 634.08 295.544C629.501 294.828 626.543 294.334 623.285 293.77C622.116 293.567 620.366 293.265 619.206 293.013C618.605 292.882 617.456 292.61 616.556 292.297C615.836 292.015 614.797 291.733 614.577 290.875L614.58 290.878ZM617.159 293.4C617.17 293.389 617.329 293.449 617.54 293.52C617.92 293.652 618.409 293.803 618.989 293.964C619.427 294.087 619.867 294.204 620.307 294.318C620.908 294.469 621.407 294.611 621.416 294.611C621.487 294.682 622.496 297.939 622.835 299.189C622.966 299.663 623.066 300.066 623.056 300.066C623.045 300.077 622.936 299.905 622.806 299.674C621.637 297.596 619.786 295.49 617.647 293.795C617.367 293.594 617.158 293.412 617.158 293.403L617.159 293.4ZM622.078 294.771C622.127 294.771 622.348 294.801 622.618 294.861C624.317 295.245 627.367 295.829 629.315 296.162C629.645 296.211 629.905 296.273 629.905 296.293C629.905 296.313 629.785 296.383 629.636 296.465C629.306 296.636 627.977 297.433 627.537 297.735C626.428 298.481 625.428 299.287 624.708 300.014C624.418 300.307 624.168 300.548 624.168 300.548C624.168 300.548 624.108 300.378 624.058 300.165C623.699 298.763 622.949 296.685 622.27 295.224C622.16 294.991 622.069 294.78 622.069 294.76C622.069 294.78 622.069 294.771 622.08 294.771H622.078ZM630.734 296.435C630.794 296.454 630.895 296.797 631.094 297.554C631.463 299.015 631.634 300.649 631.574 302.173C631.555 302.596 631.534 302.99 631.514 303.04L631.484 303.141L630.965 302.97C629.895 302.627 628.157 302.113 626.667 301.69C625.817 301.457 625.129 301.246 625.129 301.226C625.129 301.166 626.368 299.915 626.898 299.441C627.907 298.544 630.646 296.406 630.736 296.436L630.734 296.435ZM631.423 296.536C631.453 296.506 635.562 297.222 637.43 297.585C638.819 297.857 640.838 298.282 640.958 298.331C641.018 298.351 640.808 298.472 640.138 298.775C637.499 299.976 635.539 301.054 633.59 302.365C633.08 302.708 632.65 302.99 632.641 302.99C632.632 302.99 632.622 302.697 632.622 302.345C632.622 300.429 632.242 298.493 631.543 296.859C631.472 296.698 631.413 296.547 631.423 296.536ZM642.049 298.653C642.079 298.683 641.949 299.5 641.829 299.983C641.47 301.486 640.5 303.715 639.31 305.812C639.1 306.185 638.91 306.487 638.889 306.498C638.87 306.508 638.599 306.356 638.289 306.175C637.129 305.489 635.81 304.844 634.37 304.239C633.971 304.068 633.62 303.926 633.611 303.906C633.541 303.846 636.759 301.697 638.46 300.669C639.81 299.841 642.009 298.612 642.048 298.652L642.049 298.653ZM642.81 298.774C642.899 298.774 644.72 299.278 645.669 299.561C648.017 300.266 650.716 301.265 652.476 302.072L653.205 302.404L652.696 302.525C648.399 303.523 644.72 304.672 641.171 306.125C640.88 306.246 640.621 306.347 640.6 306.347C640.579 306.347 640.68 306.114 640.81 305.832C641.88 303.543 642.569 301.152 642.739 299.115C642.75 298.923 642.78 298.772 642.81 298.772V298.774ZM624.696 302.969C624.726 302.939 626.115 303.271 626.865 303.482C628.004 303.805 630.423 304.622 630.423 304.683C630.423 304.693 630.154 304.924 629.833 305.207C628.524 306.306 627.265 307.466 625.754 308.938C625.304 309.371 624.925 309.725 624.904 309.725C624.883 309.725 624.874 309.664 624.885 309.583C625.115 307.888 625.064 305.711 624.745 303.502C624.716 303.219 624.686 302.978 624.696 302.967V302.969ZM653.894 302.999C653.913 303.019 653.255 304.068 652.834 304.663C652.234 305.53 651.355 306.68 649.366 309.201C648.317 310.531 647.137 312.034 646.748 312.538C646.348 313.042 646.017 313.465 646.008 313.465C645.999 313.465 645.869 313.284 645.729 313.062C644.609 311.368 643.269 309.885 641.68 308.554C641.38 308.302 641.049 308.03 640.94 307.949C640.831 307.869 640.739 307.787 640.739 307.778C640.739 307.748 642.438 307.011 643.729 306.487C645.987 305.56 649.067 304.45 651.376 303.734C652.586 303.351 653.876 302.978 653.895 302.999H653.894ZM654.665 303.201C654.705 303.191 654.945 303.313 655.235 303.484C657.665 304.885 660.043 306.691 661.923 308.545C662.453 309.069 663.763 310.44 663.742 310.451C663.742 310.451 663.282 310.492 662.742 310.531C658.534 310.854 653.146 311.751 647.968 313.012C647.618 313.092 647.308 313.163 647.288 313.163C647.269 313.163 647.658 312.77 648.147 312.296C651.186 309.341 652.575 307.476 654.214 304.148C654.445 303.654 654.644 303.23 654.663 303.2C654.656 303.2 654.656 303.2 654.663 303.2L654.665 303.201ZM632.403 305.5C632.544 305.53 633.843 306.144 634.822 306.64C635.722 307.093 637.072 307.819 637.141 307.879C637.152 307.89 636.671 308.142 636.081 308.434C634.201 309.382 632.592 310.279 630.913 311.307C630.432 311.6 630.032 311.842 630.023 311.842C629.983 311.842 629.993 311.801 630.263 311.307C631.163 309.654 631.883 307.677 632.293 305.752C632.333 305.601 632.372 305.5 632.402 305.5H632.403ZM631.104 305.743C631.134 305.773 630.794 307.013 630.585 307.689C630.175 308.97 629.485 310.573 628.815 311.783C628.655 312.065 628.416 312.479 628.286 312.71L628.036 313.113L627.476 312.568C626.826 311.932 626.296 311.54 625.617 311.186C625.347 311.046 625.136 310.924 625.136 310.904C625.136 310.824 626.846 309.261 628.155 308.132C629.095 307.315 631.074 305.711 631.104 305.741V305.743ZM639.051 309.039L639.541 309.362C640.66 310.099 641.979 311.076 642.989 311.934C643.56 312.408 644.658 313.406 644.878 313.648L644.998 313.779L644.188 314.012C639.609 315.292 636.072 316.432 631.944 317.965C631.484 318.136 631.094 318.278 631.064 318.278C631.004 318.278 630.954 318.327 631.983 317.37C634.622 314.919 636.961 312.218 638.701 309.586L639.051 309.041V309.039ZM636.961 309.565C636.981 309.584 635.611 311.531 634.792 312.63C633.813 313.941 632.074 316.139 630.874 317.571C630.374 318.166 629.944 318.66 629.925 318.67C629.895 318.681 629.884 318.53 629.884 318.297C629.884 317.077 629.574 315.775 629.034 314.667C628.803 314.203 628.765 314.092 628.814 314.042C629.004 313.87 631.912 312.197 633.752 311.198C634.992 310.533 636.93 309.545 636.961 309.565ZM624.326 312.69C624.356 312.69 624.587 312.811 624.846 312.953C625.485 313.306 626.055 313.699 626.566 314.123C626.585 314.143 626.326 314.356 625.986 314.607C625.037 315.292 623.597 316.391 622.758 317.066C621.877 317.772 621.848 317.793 621.948 317.642C622.608 316.624 622.937 316.049 623.288 315.312C623.597 314.656 623.907 313.88 624.127 313.204C624.207 312.911 624.307 312.689 624.328 312.689L624.326 312.69ZM627.696 315.353C627.745 315.342 627.805 315.433 628.076 315.837C628.646 316.695 629.085 317.844 629.196 318.771L629.215 318.974L627.845 319.508C625.397 320.466 623.138 321.414 621.608 322.119C621.178 322.321 620.429 322.684 619.939 322.925C619.45 323.178 619.05 323.369 619.05 323.359C619.05 323.348 619.36 323.117 619.74 322.835C622.729 320.647 625.317 318.247 627.257 315.846C627.467 315.594 627.657 315.362 627.676 315.353H627.696ZM626.147 315.735C626.187 315.775 625.046 317.076 624.268 317.873C622.339 319.86 620.43 321.412 618.06 322.925C617.761 323.117 617.49 323.288 617.46 323.309C617.39 323.35 617.48 323.249 618.52 322.108C619.18 321.393 619.68 320.787 620.249 320.041C620.629 319.547 620.699 319.476 621.249 319.084C622.719 318.015 626.106 315.695 626.147 315.736V315.735Z" fill="#E2E0E0"/>
<path d="M836.008 355.941V280.969L771.567 243.483L707.126 280.969V355.941L771.567 393.427L836.008 355.941Z" fill="#282828"/>
<path d="M817.94 344.755V290.945L771.567 264.04L725.194 290.945V344.755L771.567 371.66L817.94 344.755Z" stroke="white" stroke-width="3" stroke-linejoin="round"/>
<path d="M785.768 338.981C778.745 343.041 769.09 343.459 759.375 339.291C751.51 335.94 744.983 330.076 740.799 323.376C742.807 325.051 745.15 326.391 747.66 327.563C757.692 332.27 767.723 331.949 774.782 327.575C764.74 319.868 756.195 309.804 749.836 301.597C748.497 300.256 747.493 298.58 746.489 297.073C754.187 304.109 766.404 312.988 770.754 315.502C761.551 305.784 753.35 293.723 753.684 294.057C768.244 308.8 781.8 317.177 781.8 317.177C782.249 317.431 782.595 317.641 782.874 317.829C783.167 317.082 783.424 316.306 783.641 315.502C785.984 306.958 783.308 297.24 777.449 289.199C791.004 297.408 799.038 312.82 795.69 325.721C795.602 326.069 795.508 326.413 795.405 326.75C802.098 335.127 800.376 344.15 799.539 342.475C795.908 335.362 789.187 337.537 785.769 338.98L785.768 338.981Z" fill="#D2D2D2"/>
<path d="M623.611 233.458V158.486L559.17 121L494.729 158.486V233.458L559.17 270.943L623.611 233.458Z" fill="#282828"/>
<path d="M605.543 222.272V168.462L559.17 141.556L512.797 168.462V222.272L559.17 249.177L605.543 222.272Z" stroke="#FF9800" stroke-width="3" stroke-linejoin="round"/>
<path d="M564.905 170.607C562.041 167.195 559.551 163.783 559.074 163.032H558.972C558.494 163.749 556.005 167.195 553.141 170.607C528.59 201.962 557.028 223.116 557.028 223.116L557.267 223.286C557.471 226.528 558.017 231.236 558.017 231.236H560.131C560.131 231.236 560.643 226.562 560.847 223.286L561.086 223.082C561.086 223.082 589.455 201.962 564.905 170.607ZM558.972 222.638C558.358 222.16 557.812 221.614 557.335 221L558.972 186.882L560.506 221C560.063 221.58 559.517 222.126 558.972 222.638Z" fill="#D2D2D2"/>
<path d="M693.547 112.699V37.7275L629.106 0.241699L564.665 37.7275V112.699L629.106 150.185L693.547 112.699Z" fill="#282828"/>
<path d="M675.479 101.514V47.7033L629.106 20.7981L582.732 47.7033V101.514L629.106 128.419L675.479 101.514Z" stroke="#FF9800" stroke-width="3" stroke-linejoin="round"/>
<path d="M637.284 108.098H638.068L650.852 101.644L651.065 101.34V49.8212L650.852 49.5161L638.067 43.0671H637.275L637.284 108.098" fill="#D2D2D2"/>
<path d="M620.647 108.098H619.853L607.08 101.644L606.82 101.194L606.689 50.0834L607.08 49.5159L619.853 43.0671H620.657L620.647 108.098Z" fill="#B2B2B2"/>
<path d="M619.875 43.0671H638.055V108.098H619.875V43.0671Z" fill="#BFBFBF"/>
<path d="M657.544 74.1217L657.112 74.025L650.943 73.4445L650.852 73.4903L638.056 72.9736H619.875L607.079 73.4903V63.639L607.066 63.6463L607.079 63.6174L619.875 60.6239H638.056L650.852 63.6174L655.556 66.1418V64.519L657.544 64.2993L657.338 63.8941L651.043 59.35L650.851 59.4128L638.056 55.4098H619.875L607.079 59.4128V49.5161L600.388 57.4311V64.3436L600.44 64.3058L602.376 64.519V66.1752L600.388 67.2493V74.1272L600.44 74.1217L602.376 74.1506V77.0375L600.705 77.0628L600.388 77.0321V83.9128L602.376 84.9921V86.6676L600.471 86.88L600.388 86.8167V93.7279L607.079 101.644V91.748L619.875 95.751H638.056L650.89 91.7363L651.06 91.8119L657.272 87.3347L657.544 86.8886L655.556 86.6674V85.0255L655.295 84.9205L651.044 87.2344L650.89 87.559L638.056 90.5351V90.5387H619.875V90.5351L607.079 87.5463V77.6587L619.875 78.1736V78.1862H638.056L650.852 77.6587L651.143 77.794L657.122 77.2741L657.544 77.0662L655.556 77.0373V74.1504L657.544 74.1214" fill="#A0A0A0"/>
<path d="M650.852 91.7483V101.644L657.544 93.7282V86.862L650.89 91.7368L650.852 91.7486M650.852 87.5679L650.891 87.5588L657.544 83.9459V77.0373L650.852 77.6587V87.5679M650.891 63.6265L650.852 63.6174V73.4903L657.544 74.1217V67.2165L650.89 63.6263M650.891 59.4516L657.544 64.2993V57.4329L650.852 49.5164V59.413L650.891 59.4266V59.4518" fill="#B2B2B2"/>
<path d="M763.314 233.42V159.048L699.389 121.863L635.464 159.048V233.42L699.389 270.605L763.314 233.42Z" fill="#282828"/>
<path d="M745.391 222.324V168.944L699.389 142.254L653.387 168.944V222.324L699.389 249.013L745.391 222.324Z" stroke="#FF9800" stroke-width="3" stroke-linejoin="round"/>
<path d="M728.277 210.924C724.911 212.686 707.498 219.89 703.797 221.83C700.096 223.77 698.029 223.75 695.105 222.345C692.182 220.939 673.637 213.408 670.3 211.805C668.627 211.003 667.751 210.33 667.751 209.687V203.284C667.751 203.284 691.877 198 695.775 196.594C699.673 195.189 701.021 195.139 704.338 196.357C707.655 197.574 727.47 201.176 730.748 202.384V208.698C730.748 209.331 729.99 210.043 728.277 210.924Z" fill="#BCBBBB"/>
<path d="M728.277 204.521C724.911 206.283 707.498 213.487 703.797 215.427C700.096 217.367 698.029 217.347 695.105 215.942C692.182 214.536 673.637 207.005 670.3 205.402C666.963 203.799 666.894 202.69 670.172 201.404L695.775 191.438C699.673 190.033 701.021 189.983 704.338 191.2C707.655 192.418 724.96 199.345 728.238 200.572C731.516 201.8 731.644 202.769 728.277 204.531V204.511V204.521Z" fill="#D2D2D2"/>
<path d="M728.277 200.483C724.911 202.245 707.498 209.45 703.797 211.389C700.096 213.329 698.029 213.309 695.105 211.904C692.182 210.499 673.637 202.967 670.3 201.364C668.627 200.563 667.751 199.89 667.751 199.246V192.843C667.751 192.843 691.877 187.559 695.775 186.153C699.673 184.748 701.021 184.699 704.338 185.916C707.655 187.133 727.47 190.735 730.748 191.943V198.257C730.748 198.89 729.99 199.603 728.277 200.483Z" fill="#BCBBBB"/>
<path d="M728.277 194.081C724.911 195.842 707.498 203.047 703.797 204.986C700.096 206.926 698.029 206.906 695.105 205.501C692.182 204.096 673.637 196.565 670.3 194.961C666.963 193.358 666.894 192.25 670.172 190.963L695.775 180.997C699.673 179.592 701.021 179.543 704.338 180.76C707.655 181.977 724.96 188.905 728.238 190.112C731.516 191.319 731.644 192.309 728.277 194.071V194.081Z" fill="#D2D2D2"/>
<path d="M728.277 189.657C724.911 191.418 707.498 198.623 703.797 200.563C700.086 202.502 698.029 202.483 695.105 201.077C692.182 199.672 673.637 192.141 670.3 190.538C668.627 189.736 667.751 189.063 667.751 188.42V182.017C667.751 182.017 691.877 176.732 695.775 175.327C699.673 173.922 701.021 173.872 704.338 175.089C707.655 176.307 727.47 179.909 730.748 181.116V187.43C730.748 188.064 729.99 188.776 728.277 189.657Z" fill="#BCBBBB"/>
<path d="M728.277 183.254C724.911 185.015 707.498 192.22 703.797 194.16C700.096 196.099 698.029 196.079 695.105 194.674C692.182 193.269 673.637 185.738 670.3 184.134C666.963 182.531 666.894 181.423 670.172 180.136L695.775 170.171C699.673 168.765 701.021 168.716 704.338 169.933C707.655 171.15 724.96 178.078 728.238 179.285C731.516 180.493 731.644 181.482 728.277 183.244V183.254Z" fill="#D2D2D2"/>
<path d="M700.824 180.611L698.846 177.316L692.546 176.742L697.251 175.04L695.843 172.417L700.243 174.149L704.397 172.783L703.275 175.495L707.508 177.088L702.055 177.662L700.834 180.621L700.824 180.611ZM690.302 187.183L704.899 184.926L700.49 191.428L690.302 187.183Z" fill="#BCBBBB"/>
<path d="M686.374 184.807C690.685 184.807 694.18 183.447 694.18 181.769C694.18 180.091 690.685 178.731 686.374 178.731C682.063 178.731 678.569 180.091 678.569 181.769C678.569 183.447 682.063 184.807 686.374 184.807Z" fill="#BCBBBB"/>
<path d="M722.588 181.324L713.955 184.748V177.89L722.588 181.324Z" fill="#A5A4A4"/>
<path d="M713.955 184.758L713.02 185.124L704.397 181.7L713.955 177.9V184.758Z" fill="#BCBBBB"/>
<rect x="686.725" y="233.133" width="101.881" height="19.8389" rx="4" fill="#D9D9D9"/>
<path d="M696.877 238.586V249.961H694.541V238.586H696.877ZM708.33 238.586V249.961H705.987L701.416 242.336V249.961H699.073V238.586H701.416L705.995 246.219V238.586H708.33ZM715.424 238.586H717.409L720.33 246.938L723.252 238.586H725.237L721.127 249.961H719.534L715.424 238.586ZM714.354 238.586H716.33L716.69 246.727V249.961H714.354V238.586ZM724.33 238.586H726.315V249.961H723.971V246.727L724.33 238.586ZM736.002 248.133V249.961H729.948V248.133H736.002ZM730.713 238.586V249.961H728.37V238.586H730.713ZM735.213 243.219V245H729.948V243.219H735.213ZM735.995 238.586V240.422H729.948V238.586H735.995ZM738.44 238.586H740.424L743.346 246.938L746.268 238.586H748.252L744.143 249.961H742.549L738.44 238.586ZM737.37 238.586H739.346L739.705 246.727V249.961H737.37V238.586ZM747.346 238.586H749.33V249.961H746.987V246.727L747.346 238.586ZM760.729 244.008V244.547C760.729 245.412 760.612 246.188 760.377 246.875C760.143 247.563 759.812 248.149 759.385 248.633C758.958 249.112 758.448 249.48 757.854 249.735C757.265 249.99 756.612 250.118 755.893 250.118C755.179 250.118 754.526 249.99 753.932 249.735C753.343 249.48 752.833 249.112 752.401 248.633C751.968 248.149 751.633 247.563 751.393 246.875C751.159 246.188 751.041 245.412 751.041 244.547V244.008C751.041 243.139 751.159 242.362 751.393 241.68C751.627 240.993 751.958 240.407 752.385 239.922C752.817 239.438 753.328 239.068 753.916 238.813C754.51 238.558 755.164 238.43 755.877 238.43C756.596 238.43 757.25 238.558 757.838 238.813C758.432 239.068 758.942 239.438 759.37 239.922C759.802 240.407 760.135 240.993 760.37 241.68C760.609 242.362 760.729 243.139 760.729 244.008ZM758.362 244.547V243.993C758.362 243.389 758.307 242.857 758.198 242.399C758.088 241.941 757.927 241.555 757.713 241.243C757.5 240.93 757.239 240.696 756.932 240.54C756.625 240.378 756.273 240.297 755.877 240.297C755.481 240.297 755.13 240.378 754.823 240.54C754.521 240.696 754.263 240.93 754.049 241.243C753.841 241.555 753.682 241.941 753.573 242.399C753.463 242.857 753.409 243.389 753.409 243.993V244.547C753.409 245.146 753.463 245.678 753.573 246.141C753.682 246.599 753.843 246.987 754.057 247.305C754.271 247.618 754.531 247.855 754.838 248.016C755.146 248.178 755.497 248.258 755.893 248.258C756.289 248.258 756.64 248.178 756.948 248.016C757.255 247.855 757.513 247.618 757.721 247.305C757.929 246.987 758.088 246.599 758.198 246.141C758.307 245.678 758.362 245.146 758.362 244.547ZM762.416 238.586H766.659C767.528 238.586 768.276 238.717 768.901 238.977C769.531 239.237 770.015 239.623 770.354 240.133C770.692 240.644 770.862 241.271 770.862 242.016C770.862 242.625 770.758 243.149 770.549 243.586C770.346 244.019 770.057 244.381 769.682 244.672C769.312 244.959 768.877 245.188 768.377 245.36L767.635 245.75H763.948L763.932 243.922H766.674C767.086 243.922 767.427 243.849 767.698 243.704C767.968 243.558 768.172 243.355 768.307 243.094C768.448 242.834 768.518 242.532 768.518 242.188C768.518 241.823 768.45 241.508 768.315 241.243C768.179 240.977 767.974 240.774 767.698 240.633C767.422 240.493 767.075 240.422 766.659 240.422H764.76V249.961H762.416V238.586ZM768.776 249.961L766.182 244.891L768.659 244.875L771.284 249.852V249.961H768.776ZM773.854 238.586L776.229 243.774L778.604 238.586H781.159L777.416 245.821V249.961H775.041V245.821L771.291 238.586H773.854Z" fill="#282828"/>
<path d="M623.611 477.562V402.59L559.17 365.104L494.729 402.59V477.562L559.17 515.048L623.611 477.562Z" fill="#282828"/>
<path d="M605.543 466.376V412.566L559.17 385.661L512.797 412.566V466.376L559.17 493.281L605.543 466.376Z" stroke="#FF9800" stroke-width="3" stroke-linejoin="round"/>
<path fill-rule="evenodd" clip-rule="evenodd" d="M585.472 454.844C582.364 454.755 579.953 455.076 577.935 455.92C577.354 456.152 576.417 456.152 576.345 456.881C576.658 457.183 576.694 457.69 576.97 458.108C577.435 458.882 578.256 459.913 578.989 460.456L581.48 462.225C582.998 463.15 584.704 463.684 586.186 464.608C587.043 465.151 587.9 465.836 588.749 466.414C589.186 466.725 589.445 467.223 589.99 467.409V467.294C589.722 466.947 589.642 466.449 589.365 466.067L588.195 464.955C587.07 463.452 585.668 462.145 584.15 461.069C582.909 460.224 580.185 459.068 579.685 457.645L579.605 457.557C580.462 457.468 581.471 457.174 582.284 456.943C583.605 456.596 584.811 456.676 586.168 456.329L588.034 455.787V455.44C587.338 454.747 586.829 453.822 586.088 453.173C584.105 451.483 581.926 449.829 579.676 448.442C578.471 447.677 576.917 447.17 575.631 446.521C575.167 446.29 574.39 446.174 574.113 445.792C573.407 444.947 573.023 443.826 572.514 442.831L569.326 436.134C568.63 434.632 568.201 433.138 567.344 431.75C563.344 425.214 558.986 421.248 552.297 417.362C550.86 416.553 549.154 416.206 547.332 415.788L544.421 415.637C543.796 415.37 543.18 414.641 542.635 414.294C540.43 412.907 534.715 409.91 533.08 413.859C532.027 416.357 534.634 418.821 535.518 420.092C536.179 420.973 537.036 421.978 537.501 422.974C537.76 423.623 537.849 424.316 538.126 425.01C538.751 426.699 539.331 428.585 540.144 430.168C540.581 430.977 541.037 431.822 541.582 432.551C541.894 432.978 542.439 433.164 542.555 433.858C542.01 434.632 541.974 435.779 541.662 436.748C540.26 441.096 540.805 446.476 542.787 449.678C543.412 450.638 544.877 452.755 546.868 451.945C548.618 451.252 548.225 449.064 548.734 447.135C548.85 446.672 548.77 446.37 549.002 446.059V446.147L550.601 449.34C551.806 451.225 553.905 453.19 555.655 454.498C556.584 455.191 557.325 456.383 558.495 456.81V456.694H558.414C558.182 456.347 557.834 456.196 557.521 455.929C556.825 455.236 556.048 454.391 555.503 453.617C553.869 451.465 552.431 449.082 551.154 446.619C550.529 445.427 549.985 444.12 549.484 442.928C549.252 442.466 549.252 441.772 548.859 441.541C548.279 442.386 547.422 443.115 546.993 444.156C546.252 445.81 546.18 447.846 545.904 449.962C545.743 449.998 545.814 449.962 545.743 450.051C544.502 449.74 544.073 448.477 543.609 447.401C542.439 444.671 542.251 440.287 543.26 437.13C543.528 436.321 544.698 433.787 544.234 433.013C544.002 432.284 543.225 431.857 542.796 431.279C542.287 430.55 541.751 429.625 541.394 428.816C540.465 426.664 539.992 424.281 538.983 422.12C538.519 421.124 537.697 420.083 537.036 419.159C536.295 418.118 535.483 417.389 534.902 416.162C534.706 415.735 534.438 415.05 534.75 414.588C534.831 414.277 534.982 414.161 535.295 414.09C535.804 413.663 537.242 414.205 537.742 414.437C539.179 415.015 540.385 415.548 541.59 416.357C542.135 416.74 542.716 417.469 543.421 417.665H544.243C545.484 417.931 546.886 417.754 548.047 418.092C550.11 418.75 551.976 419.71 553.646 420.75C558.736 423.943 562.933 428.478 565.772 433.902C566.237 434.783 566.433 435.592 566.862 436.517C567.683 438.402 568.692 440.323 569.505 442.172C570.327 443.978 571.104 445.827 572.264 447.33C572.845 448.139 575.176 448.557 576.229 448.984C577.006 449.331 578.212 449.642 578.908 450.06C580.23 450.869 581.551 451.794 582.793 452.675C583.418 453.137 585.355 454.097 585.472 454.862V454.844ZM545.832 421.417C545.296 421.417 544.761 421.48 544.243 421.613V421.702H544.323C544.636 422.315 545.18 422.742 545.564 423.276L546.457 425.126L546.538 425.037C547.082 424.654 547.359 424.041 547.359 423.116C547.127 422.849 547.091 422.573 546.895 422.307C546.663 421.924 546.154 421.729 545.841 421.426L545.832 421.417Z" fill="#D2D2D2"/>
<path d="M552.097 111.53V37.3378L488.014 0.241699L423.93 37.3378V111.53L488.014 148.626L552.097 111.53Z" fill="#282828"/>
<path d="M534.13 100.461V47.2102L488.014 20.5847L441.898 47.2102V100.461L488.014 127.087L534.13 100.461Z" stroke="#CBE858" stroke-width="3" stroke-linejoin="round"/>
<path d="M515.181 58.0488C506.694 53.1526 498.207 48.2582 489.721 43.3657C488.984 42.9116 488.223 42.4978 487.442 42.1245H487.29C486.502 42.4912 485.761 42.9501 485.006 43.3827C476.53 48.2751 468.054 53.1648 459.579 58.0516C458.984 58.3422 458.626 58.9647 458.671 59.6257V90.5698C458.64 91.2336 459.01 91.8514 459.609 92.1354C468.627 97.3476 477.654 102.551 486.689 107.745C487.172 108.034 487.781 108 488.229 107.658C497.254 102.455 506.28 97.2489 515.304 92.0395C515.728 91.7687 516.029 91.3399 516.139 90.8481C516.15 80.5356 516.132 70.2194 516.15 59.9022C516.237 59.1434 515.851 58.409 515.18 58.0498L515.181 58.0488ZM503.757 88.0027C503.592 89.6059 502.402 90.9139 500.824 91.2261C498.612 91.6935 496.315 91.0004 494.727 89.3878C489.103 82.6833 483.49 75.9694 477.889 69.2461C477.878 75.4052 477.889 81.5643 477.889 87.7234C477.889 88.9411 477.287 90.0789 476.283 90.7625C474.761 91.763 472.748 91.5609 471.453 90.2783C470.791 89.5956 470.43 88.675 470.451 87.7234V62.1956C470.525 60.3639 471.924 58.8603 473.741 58.6582C476.106 58.2942 478.482 59.2402 479.953 61.1312C485.433 67.657 490.866 74.2157 496.367 80.718C496.329 74.463 496.367 68.2118 496.367 61.954C496.524 60.1561 497.945 58.7296 499.74 58.5726C501.781 58.3939 503.58 59.9078 503.758 61.954C503.77 70.6359 503.77 79.3198 503.758 88.0036L503.757 88.0027Z" fill="#D2D2D2"/>
<path d="M553.822 355.552V280.384L488.895 242.8L423.969 280.384V355.552L488.895 393.137L553.822 355.552Z" fill="#282828"/>
<path d="M535.618 344.338V290.386L488.895 263.41L442.172 290.386V344.338L488.895 371.314L535.618 344.338Z" stroke="#CBE858" stroke-width="3" stroke-linejoin="round"/>
<path d="M507.529 318.5C506.753 318.5 506.006 318.416 505.258 318.275C504.54 318.135 503.85 317.911 503.16 317.631L502.671 317.518H502.326C502.039 317.518 501.895 317.715 501.895 318.107V319.032C501.867 319.201 501.867 319.397 501.895 319.565C502.039 319.789 502.24 319.986 502.499 320.098C503.189 320.434 503.936 320.687 504.683 320.827C505.632 321.051 506.58 321.163 507.558 321.163C508.535 321.191 509.512 321.051 510.432 320.771C511.208 320.575 511.927 320.21 512.53 319.733C513.105 319.285 513.594 318.752 513.939 318.107C514.255 317.434 514.427 316.677 514.427 315.92C514.427 314.995 514.14 314.07 513.565 313.313C512.789 312.471 511.812 311.855 510.691 311.518L507.96 310.677C507.184 310.481 506.494 310.144 505.862 309.668C505.488 309.331 505.287 308.854 505.287 308.35C505.258 307.677 505.574 307.032 506.178 306.668C506.983 306.303 507.845 306.107 508.736 306.163C510.001 306.135 511.237 306.387 512.386 306.892C512.616 307.004 512.875 307.088 513.134 307.116C513.421 307.116 513.565 306.892 513.565 306.499V305.49C513.565 305.266 513.507 305.069 513.392 304.873C513.249 304.677 513.048 304.537 512.818 304.424C512.559 304.284 512.3 304.172 512.013 304.088C511.668 303.976 511.294 303.864 510.921 303.78L509.656 303.499C509.196 303.471 508.707 303.471 508.247 303.499C507.443 303.499 506.638 303.583 505.862 303.808C505.143 304.004 504.453 304.34 503.85 304.789C503.275 305.181 502.815 305.714 502.499 306.303C502.154 306.948 501.981 307.649 501.981 308.378C501.981 309.387 502.298 310.369 502.93 311.182C503.706 312.107 504.77 312.78 505.977 313.088L508.851 313.929C509.57 314.098 510.231 314.406 510.777 314.883C511.122 315.247 511.294 315.724 511.294 316.201C511.294 316.93 510.921 317.602 510.288 317.967C509.426 318.388 508.477 318.556 507.529 318.5ZM490.829 304.901C490.772 304.621 490.657 304.368 490.456 304.172C490.254 304.004 489.967 303.948 489.708 303.976H488.127C487.869 303.976 487.61 304.032 487.38 304.172C487.179 304.368 487.035 304.621 487.006 304.901L484.132 317.238L480.855 304.901C480.798 304.621 480.654 304.368 480.453 304.172C480.453 304.172 480.079 303.976 479.706 303.976H477.837C477.521 303.976 477.377 304.144 477.377 304.452C477.377 304.705 477.464 304.957 477.55 305.21L482.034 319.621C482.091 319.874 482.206 320.126 482.379 320.322C482.609 320.462 482.867 320.518 483.126 320.49H484.764C485.023 320.49 485.311 320.462 485.54 320.322C485.713 320.098 485.828 319.846 485.885 319.565L488.76 307.565L491.634 319.593C491.634 319.874 491.778 320.126 491.979 320.322C492.209 320.462 492.468 320.546 492.755 320.518H494.393C494.652 320.518 494.911 320.462 495.112 320.322C495.342 320.126 495.457 319.874 495.514 319.593L500.142 305.181C500.142 305.041 500.142 304.873 500.142 304.733C500.142 304.621 500.142 304.537 500.142 304.424C500.171 304.2 500.027 303.976 499.768 303.948C499.74 303.948 499.682 303.948 499.653 303.948H497.871C497.613 303.948 497.354 304.004 497.124 304.144C496.951 304.368 496.808 304.593 496.75 304.873L493.876 317.518L490.829 304.901ZM470.22 310.873C469.531 310.789 468.87 310.733 468.18 310.733C466.484 310.649 464.817 311.154 463.495 312.191C462.345 313.144 461.713 314.574 461.77 316.032C461.713 317.378 462.201 318.668 463.178 319.621C464.213 320.546 465.593 321.051 467.001 320.967C469.214 321.023 471.341 320.07 472.75 318.388C472.922 318.752 473.124 319.117 473.325 319.481C473.526 319.789 473.756 320.07 474.015 320.35C474.302 320.631 474.791 320.631 475.078 320.35L476.285 319.565C476.486 319.453 476.63 319.229 476.659 319.004C476.716 318.864 476.716 318.696 476.659 318.556C476.429 318.135 476.228 317.687 476.055 317.238C475.912 316.677 475.825 316.116 475.854 315.556V309.64C475.998 307.957 475.423 306.303 474.273 305.041C472.807 303.836 470.882 303.275 468.956 303.499C467.979 303.499 467.03 303.611 466.081 303.864C465.248 304.06 464.443 304.34 463.667 304.705C463.466 304.789 463.293 304.929 463.15 305.097C463.092 305.294 463.092 305.546 463.15 305.742V306.668C463.15 307.06 463.15 307.228 463.552 307.228C463.667 307.228 463.753 307.228 463.868 307.228L464.529 307.004C465.104 306.724 465.708 306.499 466.34 306.303C467.03 306.135 467.72 306.051 468.41 306.051C469.531 305.939 470.623 306.247 471.514 306.92C472.204 307.761 472.52 308.826 472.405 309.892V311.266L470.22 310.873ZM472.462 313.397V314.154C472.462 314.715 472.405 315.247 472.261 315.78C472.146 316.229 471.916 316.649 471.6 316.986C471.112 317.546 470.508 317.939 469.789 318.163C469.157 318.388 468.496 318.5 467.835 318.5C467.087 318.556 466.369 318.303 465.823 317.827C465.305 317.294 465.075 316.565 465.133 315.836C465.075 315.023 465.449 314.238 466.081 313.705C466.915 313.144 467.95 312.864 468.956 312.948H470.738C471.313 313.06 471.888 313.228 472.462 313.397ZM510.432 328.734C503.562 331.566 496.175 333.024 488.731 333.052C478.757 333.052 468.956 330.528 460.275 325.706C459.586 325.285 459.039 325.986 459.643 326.519C467.461 333.388 477.607 337.201 488.127 337.145C496.434 337.145 504.54 334.762 511.409 330.22C512.386 329.351 511.495 328.201 510.432 328.734Z" fill="#D9D9D9"/>
<path d="M506.465 326.098C505.919 326.491 506.006 327.023 506.609 326.939C508.65 326.687 513.163 326.182 513.967 327.192C514.772 328.201 513.076 332.323 512.3 334.173C512.07 334.734 512.588 334.958 513.105 334.538C515.749 332.154 517.072 328.678 516.64 325.173C513.278 323.883 509.512 324.22 506.465 326.098Z" fill="#D9D9D9"/>
<path d="M482.162 477.255V403.063L418.078 365.967L353.995 403.063V477.255L418.078 514.351L482.162 477.255Z" fill="#282828"/>
<path d="M464.194 466.186V412.935L418.078 386.31L371.962 412.935V466.186L418.078 492.812L464.194 466.186Z" stroke="#CBE858" stroke-width="3" stroke-linejoin="round"/>
<path d="M427.101 410.056C426.152 410.612 424.563 412.209 422.666 414.516V414.658L424.326 417.722L424.409 417.781C425.631 416.042 426.864 414.469 428.121 413.132C428.216 413.026 428.264 412.978 428.264 412.978C428.216 413.026 428.168 413.085 428.121 413.132C427.718 413.581 426.485 415.001 424.635 417.84L424.848 417.888C424.848 417.888 429.176 417.462 431.263 417.107L431.382 417.001C432.046 413.286 430.73 411.583 430.73 411.583C430.73 411.583 429.07 408.909 427.101 410.057V410.056Z" fill="#B7B3B3"/>
<path d="M419.286 426.238C419.82 425.256 420.354 424.286 420.887 423.352C421.445 422.382 422.014 421.436 422.594 420.524C422.63 420.477 422.665 420.418 422.69 420.359C423.259 419.459 423.828 418.607 424.409 417.78L422.666 414.503C422.536 414.657 422.405 414.822 422.274 414.988C421.776 415.615 421.254 416.277 420.721 416.987C420.116 417.791 419.5 418.643 418.871 419.542C418.29 420.37 417.697 421.246 417.116 422.133C416.617 422.902 416.108 423.683 415.609 424.499C415.586 424.535 415.574 424.559 415.55 424.594V424.724L417.72 429.019L417.815 429.054C418.301 428.108 418.787 427.162 419.285 426.239L419.286 426.238Z" fill="#C4C0C0"/>
<path d="M409.835 447.26C410.227 446.242 410.641 445.213 411.056 444.173C411.459 443.179 411.862 442.174 412.29 441.168C412.705 440.162 413.144 439.157 413.582 438.14C414.032 437.111 414.483 436.082 414.946 435.064C415.408 434.059 415.871 433.053 416.345 432.06C416.511 431.705 416.689 431.338 416.867 430.983C417.164 430.368 417.472 429.753 417.769 429.15C417.781 429.114 417.804 429.091 417.816 429.055L415.551 424.595C415.515 424.654 415.48 424.714 415.444 424.772C414.922 425.636 414.389 426.511 413.879 427.41C413.357 428.321 412.847 429.244 412.349 430.178C411.923 430.971 411.519 431.764 411.116 432.568C411.033 432.734 410.962 432.887 410.879 433.053C410.38 434.071 409.942 435.04 409.539 435.987C409.088 437.052 408.684 438.069 408.329 439.039C408.092 439.678 407.89 440.281 407.689 440.872C407.535 441.369 407.38 441.878 407.238 442.375C406.895 443.558 406.61 444.729 406.373 445.912L406.409 446.054L408.579 450.36L408.649 450.396C408.946 449.592 409.254 448.787 409.574 447.959C409.657 447.723 409.752 447.498 409.835 447.261V447.26Z" fill="#D2D2D2"/>
<path d="M406.349 446.065C406.064 447.496 405.862 448.928 405.756 450.347C405.756 450.394 405.744 450.442 405.744 450.501C405.032 449.365 403.135 448.265 403.135 448.265C404.499 450.229 405.53 452.18 405.684 454.097C404.961 454.25 403.965 454.026 402.803 453.612C404 454.711 404.902 455.019 405.257 455.102C404.155 455.173 403.005 455.93 401.843 456.794C403.539 456.108 404.902 455.836 405.886 456.048C404.333 460.437 402.779 465.288 401.214 470.422C401.689 470.28 401.973 469.96 402.139 469.523C402.412 468.588 404.262 462.484 407.143 454.452C407.226 454.227 407.309 453.99 407.392 453.765C407.416 453.706 407.44 453.635 407.463 453.576C407.772 452.736 408.08 451.873 408.412 450.997C408.483 450.796 408.566 450.595 408.637 450.394V450.381L406.372 445.91C406.372 445.969 406.36 446.016 406.349 446.064V446.065Z" fill="#DBD9D9"/>
<path d="M424.634 417.851C424.124 418.632 423.567 419.519 422.962 420.525C422.926 420.572 422.902 420.631 422.866 420.679C422.345 421.554 421.799 422.5 421.218 423.553C420.72 424.452 420.198 425.422 419.653 426.475C419.179 427.385 418.693 428.344 418.195 429.373L418.302 429.42L423.816 428.829L423.946 428.734C425.618 427.964 426.365 427.267 427.089 426.261C427.279 425.989 427.48 425.693 427.67 425.398C428.263 424.475 428.844 423.469 429.354 422.464C429.852 421.494 430.291 420.523 430.635 419.66C430.848 419.104 431.026 418.595 431.144 418.146C431.251 417.744 431.334 417.365 431.394 417.011C429.164 417.401 426.425 417.768 424.634 417.85V417.851Z" fill="#C4C0C0"/>
<path d="M417.982 429.835C417.792 430.237 417.59 430.651 417.389 431.065C417.176 431.515 416.95 431.988 416.737 432.462C416.63 432.698 416.511 432.947 416.405 433.183C416.061 433.916 415.729 434.673 415.373 435.454C414.947 436.412 414.508 437.418 414.069 438.447C413.642 439.44 413.215 440.458 412.788 441.523C412.373 442.529 411.958 443.57 411.543 444.634C411.164 445.592 410.784 446.562 410.405 447.579C410.381 447.626 410.369 447.674 410.345 447.721C409.966 448.727 409.596 449.75 409.205 450.802C409.193 450.826 409.172 450.888 409.16 450.911L409.241 450.929L410.891 450.752L410.984 450.714C410.948 450.701 410.926 450.654 410.891 450.643C413.073 450.371 415.978 448.738 417.864 446.727C418.729 445.804 419.512 444.705 420.247 443.427C420.793 442.469 421.291 441.416 421.777 440.245C422.204 439.227 422.607 438.115 422.998 436.92C422.5 437.18 421.919 437.381 421.291 437.511C421.184 437.535 421.065 437.559 420.947 437.582C420.829 437.606 420.71 437.618 420.604 437.641C422.643 436.861 423.924 435.347 424.861 433.501C424.328 433.868 423.45 434.341 422.406 434.578C422.264 434.613 422.121 434.637 421.967 434.66C421.932 434.66 421.897 434.673 421.861 434.673C422.572 434.377 423.165 434.046 423.687 433.655C423.794 433.572 423.9 433.489 424.007 433.395C424.161 433.253 424.316 433.111 424.457 432.969C424.552 432.874 424.635 432.78 424.73 432.674C424.932 432.437 425.122 432.177 425.299 431.893C425.359 431.81 425.406 431.716 425.465 431.633C425.536 431.503 425.596 431.373 425.655 431.243C425.94 430.675 426.165 430.166 426.343 429.716C426.438 429.491 426.509 429.291 426.58 429.089C426.603 429.019 426.627 428.936 426.663 428.864C426.734 428.651 426.793 428.462 426.84 428.284C426.911 428.036 426.947 427.835 426.971 427.693C426.9 427.752 426.828 427.799 426.734 427.859C426.117 428.225 425.061 428.556 424.208 428.711C424.089 428.734 424.006 428.746 423.912 428.77C423.919 428.762 422.018 428.963 418.207 429.372C418.183 429.396 418.042 429.693 417.983 429.835H417.982Z" fill="#D2D2D2"/>
<path d="M408.982 451.353C408.685 452.169 408.377 453.009 408.08 453.861C408.08 453.873 408.068 453.885 408.068 453.897C408.021 454.015 407.985 454.133 407.938 454.263C407.736 454.843 407.558 455.351 407.155 456.534C407.82 456.842 408.353 457.634 408.863 458.545C408.816 457.61 408.424 456.723 407.677 456.049C410.962 456.191 413.796 455.363 415.255 452.973C415.385 452.76 415.504 452.535 415.611 452.299C414.947 453.139 414.117 453.494 412.575 453.411C414.864 452.393 416.002 451.412 417.023 449.791C417.26 449.4 417.497 448.987 417.734 448.525C415.73 450.572 413.418 451.151 410.987 450.714L409.161 450.915C409.101 451.045 409.042 451.199 408.983 451.353H408.982Z" fill="#DBD9D9"/>
<path d="M482.876 233.458V158.486L418.436 121L353.995 158.486V233.458L418.436 270.943L482.876 233.458Z" fill="#282828"/>
<path d="M464.809 222.272V168.462L418.436 141.556L372.062 168.462V222.272L418.436 249.177L464.809 222.272Z" stroke="#CBE858" stroke-width="3" stroke-linejoin="round"/>
<path d="M445.943 189.056C445.046 189.056 444.148 189.119 443.251 189.278C442.771 186.46 441.105 183.991 438.669 182.503L437.772 181.996L437.163 182.851C436.394 183.991 435.85 185.289 435.529 186.618C434.889 188.993 435.273 191.557 436.587 193.646C435.113 194.279 433.543 194.659 431.941 194.754H389.743C388.653 194.754 387.756 195.641 387.724 196.717C387.692 200.389 388.301 203.998 389.582 207.449C390.736 210.836 392.979 213.717 395.991 215.679C400.38 217.864 405.251 218.908 410.153 218.687C412.748 218.718 415.344 218.529 417.907 218.117C421.495 217.484 424.956 216.249 428.128 214.476C430.755 212.894 433.094 210.931 435.081 208.62C438.029 205.169 440.336 201.244 441.906 197.002H442.514C445.174 197.097 447.737 196.147 449.659 194.343C450.493 193.583 451.133 192.633 451.55 191.589L451.806 190.892L451.165 190.386C449.627 189.404 447.769 188.929 445.943 189.056Z" fill="#D2D2D2"/>
<path d="M399.291 187.568H393.652C393.395 187.568 393.171 187.79 393.139 188.043V193.045C393.139 193.298 393.395 193.52 393.652 193.52H399.291C399.547 193.52 399.772 193.298 399.804 193.045V188.043C399.804 187.79 399.547 187.568 399.291 187.568ZM407.109 187.568H401.438C401.181 187.568 400.957 187.79 400.925 188.043V193.045C400.925 193.298 401.181 193.52 401.438 193.52H407.109C407.365 193.52 407.59 193.298 407.59 193.045V188.043C407.59 187.79 407.365 187.568 407.109 187.568ZM415.023 187.568H409.352C409.095 187.568 408.871 187.79 408.871 188.043V193.045C408.871 193.298 409.095 193.52 409.352 193.52H415.023C415.279 193.52 415.504 193.298 415.504 193.045V188.043C415.504 187.79 415.279 187.568 415.023 187.568ZM417.17 187.568C416.914 187.505 416.657 187.631 416.593 187.885C416.593 187.916 416.593 187.98 416.593 188.043V193.045C416.593 193.298 416.817 193.52 417.074 193.52H423.001C423.258 193.52 423.482 193.298 423.482 193.045V188.043C423.482 187.79 423.258 187.568 423.001 187.568H417.17ZM401.438 180.414H406.949C407.237 180.414 407.461 180.635 407.461 180.92V185.859C407.525 186.144 407.333 186.397 407.045 186.46C407.013 186.46 406.981 186.46 406.949 186.46H401.438C401.181 186.46 400.957 186.239 400.957 185.985V180.889C400.957 180.635 401.181 180.414 401.438 180.414ZM409.352 180.414H415.023C415.279 180.414 415.504 180.635 415.504 180.889V185.859C415.504 186.144 415.279 186.365 414.991 186.365H409.352C409.095 186.365 408.871 186.144 408.871 185.89V180.889C408.871 180.635 409.095 180.414 409.352 180.414ZM417.17 180.414H422.969C423.226 180.414 423.45 180.635 423.45 180.889V185.859C423.514 186.112 423.386 186.365 423.129 186.428C423.097 186.428 423.033 186.428 422.969 186.428H417.17C416.881 186.492 416.625 186.302 416.561 186.049C416.561 185.985 416.561 185.922 416.561 185.827V180.857C416.561 180.604 416.753 180.382 417.01 180.35C417.074 180.35 417.106 180.35 417.17 180.35V180.414Z" fill="#D2D2D2"/>
<path d="M422.841 173.228H417.17C416.904 173.228 416.689 173.44 416.689 173.702V178.704C416.689 178.966 416.904 179.179 417.17 179.179H422.841C423.107 179.179 423.322 178.966 423.322 178.704V173.702C423.322 173.44 423.107 173.228 422.841 173.228Z" fill="#D2D2D2"/>
<path d="M425.052 187.568C424.796 187.568 424.571 187.79 424.571 188.043V193.045C424.571 193.298 424.796 193.52 425.052 193.52H430.723C430.98 193.52 431.204 193.298 431.204 193.045V188.043C431.204 187.79 430.98 187.568 430.723 187.568H425.052Z" fill="#D2D2D2"/>
<path d="M412.109 355.257V280.285L347.352 242.8L282.596 280.285V355.257L347.352 392.743L412.109 355.257Z" fill="#282828"/>
<path d="M393.953 344.072V290.262L347.352 263.357L300.752 290.262V344.072L347.352 370.977L393.953 344.072Z" stroke="#A5270E" stroke-width="3" stroke-linejoin="round"/>
<path d="M323.749 299.834C323.749 296.384 326.549 293.587 330.003 293.587H365.912C369.365 293.587 372.165 296.384 372.165 299.834V335.708C372.165 339.158 369.365 341.955 365.912 341.955H330.003C326.549 341.955 323.749 339.158 323.749 335.708V299.834ZM368.184 330.429C368.184 330.428 368.184 330.427 368.184 330.426C367.834 328.223 366.382 326.37 362.132 324.65C360.653 323.952 358.985 323.468 358.501 322.366C358.313 321.694 358.286 321.345 358.42 320.942C358.716 319.652 360.276 319.249 361.487 319.625C361.654 319.677 361.818 319.745 361.978 319.829C363.016 320.376 364.491 320.762 365.482 320.134C366.394 319.556 366.582 318.373 365.817 317.61C364.553 316.186 362.859 315.46 360.088 315.541L358.663 315.729C357.291 316.051 356 316.804 355.22 317.744C352.906 320.351 353.579 324.865 356.376 326.746C359.12 328.815 363.155 329.245 363.666 331.18C364.15 333.545 361.917 334.297 359.685 334.028C358.789 333.823 358.118 333.489 357.526 332.984C356.601 332.193 355.318 331.812 354.262 332.42C353.232 333.013 352.836 334.292 353.63 335.178C353.772 335.336 353.925 335.505 354.09 335.694C357.614 339.241 366.382 339.053 367.942 333.679C367.995 333.494 368.413 332.295 368.119 330.44C368.116 330.42 368.142 330.41 368.152 330.427L368.157 330.436C368.165 330.449 368.184 330.444 368.184 330.429ZM350.042 315.823C350.047 315.828 350.043 315.836 350.036 315.836H346.841C346.106 315.836 345.51 316.432 345.51 317.166C345.51 320.619 345.51 324.072 345.51 327.525C345.51 329.998 345.644 332.282 345.241 332.98C344.688 334.128 343.427 334.206 342.563 334.063C342.228 334.008 341.906 333.883 341.628 333.689C341.096 333.32 340.765 332.852 340.399 332.228C340.229 331.956 339.985 331.914 339.712 332.081L339.257 332.359C337.663 333.336 336.989 335.496 338.44 336.675C338.652 336.847 338.874 337.004 339.108 337.145C340.829 338.167 343.143 338.516 345.563 337.978C347.15 337.522 348.522 336.581 349.221 335.13C350.244 333.249 350.028 330.965 350.028 328.385C350.028 324.247 350.028 320.109 350.028 315.917V315.828C350.028 315.821 350.037 315.818 350.042 315.823Z" fill="#D2D2D2"/>
<path d="M341.387 478.72V403.551L276.46 365.967L211.534 403.551V478.72L276.46 516.304L341.387 478.72Z" fill="#282828"/>
<path d="M323.183 467.505V413.553L276.46 386.577L229.737 413.553V467.505L276.46 494.481L323.183 467.505Z" stroke="#A5270E" stroke-width="3" stroke-linejoin="round"/>
<path d="M275.617 414.825C290.511 414.825 302.599 426.901 302.599 441.781C302.599 456.661 290.511 468.737 275.617 468.737C260.723 468.737 248.634 456.661 248.634 441.781C248.634 426.901 260.723 414.825 275.617 414.825ZM270.247 450.757C270.652 452.213 270.598 453.561 270.193 454.774L270.058 455.178C269.708 455.987 269.249 456.741 268.628 457.388C267.063 459.087 264.878 459.734 263.933 459.194C262.908 458.601 263.421 456.202 265.256 454.261C267.225 452.186 270.032 450.865 270.032 450.865L270.274 450.73L270.247 450.757ZM292.535 426.362C291.321 421.564 283.361 420 275.86 422.669C271.381 424.259 266.551 426.739 263.07 430.001C258.915 433.856 258.267 437.225 258.537 438.654C259.508 443.614 266.308 446.876 269.114 449.275C268.278 449.679 262.234 452.725 260.83 455.852C259.319 459.167 261.073 461.513 262.207 461.809C265.741 462.78 269.384 461.001 271.354 458.116C273.242 455.286 273.081 451.647 272.271 449.868C273.377 449.571 274.699 449.436 276.372 449.625C281.094 450.164 282.039 453.129 281.823 454.342C281.634 455.555 280.636 456.256 280.312 456.472C279.961 456.688 279.88 456.741 279.907 456.876C279.934 457.065 280.123 457.065 280.393 457.038C280.771 456.984 282.848 456.014 282.956 453.722C283.064 450.838 280.285 447.603 275.374 447.657C273.35 447.684 272.055 447.873 271.165 448.223C271.111 448.115 271.03 448.035 270.922 447.981C267.9 444.719 262.261 442.428 262.503 438.061C262.584 436.47 263.151 432.292 273.296 427.251C281.634 423.1 288.272 424.259 289.432 426.766C291.078 430.378 285.897 437.063 277.209 438.061C273.89 438.438 272.19 437.144 271.731 436.686C271.273 436.174 271.192 436.147 271.03 436.255C270.76 436.39 270.922 436.821 271.03 437.09C271.3 437.764 272.352 438.95 274.16 439.543C275.752 440.056 279.61 440.352 284.278 438.519C289.513 436.497 293.587 430.864 292.4 426.146L292.562 426.308L292.535 426.362Z" fill="#D2D2D2"/>
<path d="M271.111 113.562V38.5901L206.354 1.10425L141.598 38.5901V113.562L206.354 151.048L271.111 113.562Z" fill="#282828"/>
<path d="M252.955 102.377V48.5663L206.354 21.6611L159.754 48.5663V102.377L206.354 129.282L252.955 102.377Z" stroke="#A5270E" stroke-width="3" stroke-linejoin="round"/>
<path d="M184.223 50.2385H231.765L227.44 100.274L207.948 105.924L188.547 100.274L184.223 50.2385ZM222.933 60.4766H193.085L193.573 66.5633H216.507L215.928 72.8685H200.882L201.431 78.8303H215.441L214.618 87.0083L208.04 88.8812L201.339 87.0083L200.913 82.1078H195.004L195.674 91.0661L208.04 94.9991L220.192 91.4407L222.933 60.4766Z" fill="#D2D2D2"/>
<path d="M341.748 233.753V158.584L276.821 121L211.895 158.584V233.753L276.821 271.337L341.748 233.753Z" fill="#282828"/>
<path d="M323.544 222.538V168.587L276.821 141.611L230.098 168.587V222.538L276.821 249.514L323.544 222.538Z" stroke="#A5270E" stroke-width="3" stroke-linejoin="round"/>
<path d="M251.083 169.547H301.244L296.684 220.185L276.116 225.923L255.675 220.185L251.083 169.547ZM267.889 192.436L267.346 186.071H291.359L291.901 179.925H260.427L262.085 198.738H283.865L283.1 206.796L276.148 208.678L269.1 206.796L268.654 201.842H262.436L263.233 211.625L276.18 215.043L289.031 211.656L290.817 192.499H267.92L267.889 192.436Z" fill="#D2D2D2"/>
<path d="M270.588 600.34V525.172L205.661 487.587L140.735 525.172V600.34L205.661 637.924L270.588 600.34Z" fill="#282828"/>
<path d="M252.384 589.126V535.174L205.661 508.198L158.938 535.174V589.126L205.661 616.101L252.384 589.126Z" stroke="#FCD0C2" stroke-width="3" stroke-linejoin="round"/>
<g clip-path="url(#clip0_503_4524)">
<path d="M205.661 590.641C204.94 590.641 204.245 590.449 203.604 590.094L197.087 586.133C196.126 585.586 196.607 585.368 196.9 585.286C198.236 584.821 198.476 584.739 199.838 583.947C199.999 583.838 200.186 583.893 200.346 584.002L205.341 587.062C205.528 587.171 205.795 587.171 205.928 587.062L225.48 575.478C225.667 575.369 225.774 575.177 225.774 574.932V551.792C225.774 551.546 225.667 551.355 225.48 551.245L205.901 539.716C205.715 539.607 205.474 539.607 205.314 539.716L185.762 551.245C185.575 551.355 185.469 551.6 185.469 551.792V574.904C185.469 575.096 185.575 575.369 185.762 575.451L191.104 578.62C193.989 580.122 195.805 578.374 195.805 576.598V553.813C195.805 553.513 196.046 553.212 196.393 553.212H198.904C199.197 553.212 199.491 553.458 199.491 553.813V576.625C199.491 580.587 197.381 582.882 193.722 582.882C192.6 582.882 191.719 582.882 189.208 581.625L184.08 578.62C182.771 577.855 181.996 576.462 181.996 574.959V551.846C181.996 550.344 182.771 548.95 184.053 548.185L203.604 536.602C204.887 535.892 206.436 535.892 207.718 536.602L227.269 548.185C228.551 548.923 229.326 550.344 229.326 551.846V574.959C229.326 576.462 228.551 577.855 227.269 578.62L207.718 590.203C207.077 590.504 206.329 590.668 205.661 590.668V590.641ZM211.698 574.74C203.124 574.74 201.361 570.724 201.361 567.337C201.361 567.036 201.601 566.736 201.948 566.736H204.486C204.78 566.736 205.02 566.927 205.02 567.227C205.421 569.877 206.543 571.189 211.724 571.189C215.838 571.189 217.6 570.233 217.6 567.965C217.6 566.654 217.12 565.725 210.683 565.069C205.341 564.523 202.002 563.321 202.002 558.949C202.002 554.906 205.341 552.475 210.923 552.475C217.2 552.475 220.271 554.688 220.672 559.496C220.672 559.66 220.619 559.824 220.512 559.933C220.405 560.042 220.271 560.124 220.111 560.124H217.574C217.307 560.124 217.093 559.933 217.039 559.687C216.452 556.928 214.929 556.026 210.923 556.026C206.409 556.026 205.875 557.638 205.875 558.84C205.875 560.288 206.516 560.753 212.579 561.545C218.615 562.337 221.447 563.512 221.447 567.801C221.393 572.2 217.867 574.713 211.644 574.713L211.698 574.74Z" fill="#D2D2D2"/>
</g>
<path d="M200.415 234.615V159.447L135.489 121.863L70.562 159.447V234.615L135.489 272.2L200.415 234.615Z" fill="#282828"/>
<path d="M182.211 223.401V169.449L135.489 142.473L88.7657 169.449V223.401L135.489 250.377L182.211 223.401Z" stroke="#FCD0C2" stroke-width="3" stroke-linejoin="round"/>
<path d="M128.491 196.852H141.037C141.037 196.852 148.078 196.968 148.078 190.015V178.524C148.078 178.524 149.15 171.571 135.3 171.571C121.45 171.571 122.87 177.331 122.87 177.331V183.324H135.532V185.127H117.886C117.886 185.127 109.397 184.167 109.397 197.579C109.397 210.99 116.814 210.525 116.814 210.525H121.218V204.299C121.218 204.299 120.987 196.881 128.491 196.881V196.852ZM128.317 180.153C127.071 180.153 126.057 179.134 126.057 177.884C126.057 176.633 127.071 175.585 128.317 175.585C129.563 175.585 130.577 176.603 130.577 177.884C130.577 179.164 129.563 180.153 128.317 180.153Z" fill="#D9D9D9"/>
<path d="M149.788 184.749V190.975C149.788 190.975 150.02 198.393 142.515 198.393H129.969C129.969 198.393 122.928 198.277 122.928 205.23V216.721C122.928 216.721 121.856 223.674 135.706 223.674C149.556 223.674 148.136 217.914 148.136 217.914V211.95H135.474V210.147H153.149C153.149 210.147 161.639 211.107 161.639 197.695C161.639 184.284 154.221 184.749 154.25 184.749H149.788ZM142.66 215.121C143.906 215.121 144.92 216.14 144.92 217.391C144.92 218.642 143.906 219.66 142.66 219.66C141.414 219.66 140.4 218.642 140.4 217.391C140.4 216.14 141.414 215.121 142.66 215.121Z" fill="#D9D9D9"/>
<path d="M129.853 355.552V280.384L64.9265 242.8L0 280.384V355.552L64.9265 393.137L129.853 355.552Z" fill="#282828"/>
<path d="M111.649 344.338V290.386L64.9265 263.41L18.2036 290.386V344.338L64.9265 371.314L111.649 344.338Z" stroke="#FCD0C2" stroke-width="3" stroke-linejoin="round"/>
<path d="M88.06 341.135L91.0658 300.763L89.8881 307.371L78.8371 325.891L75.0178 330.036L48.1787 343.885C60.7913 343.004 74.8827 342.041 88.0631 341.142L88.06 341.135Z" fill="#D9D9D9"/>
<path d="M89.8881 307.371L74.3804 294.641L70.1689 309.088C87.2957 310.536 83.8626 307.739 89.8881 307.371ZM54.4148 323.224L75.258 329.776L75.3092 329.72L70.1689 309.088L54.4148 323.224ZM40.5325 326.176C47.3956 347.769 49.1114 352.429 54.4148 323.224L40.3765 326.487L40.5325 326.176ZM67.5173 289.981L82.6475 290.136L74.3804 294.641C72.6646 293.554 68.7651 290.913 67.5173 289.981ZM37.7248 317.632L37.1009 333.011L40.6884 326.331L37.7248 317.632ZM70.9488 292.622C75.0044 296.66 70.7929 306.447 62.6818 314.37C54.5708 322.292 44.276 327.263 40.2205 323.224C36.321 319.202 40.3297 309.243 48.4641 301.321C56.5985 293.398 67.0571 288.583 70.9566 292.622H70.9488Z" fill="#D9D9D9"/>
<path d="M54.4148 323.224L75.1603 329.904C67.6732 336.894 53.7129 343.341 48.1755 343.885L54.4148 323.224Z" fill="#C6C6C6"/>
<path d="M70.1689 309.088L75.3163 329.749C81.5556 323.224 87.0804 316.07 89.8881 307.371L70.1689 309.088Z" fill="#EAEAEA"/>
<path d="M89.8881 307.371C91.9159 301.002 92.3838 291.681 82.401 289.973L74.134 294.478L89.8881 307.371Z" fill="#C2BFBF"/>
<path d="M37.1009 333.011C37.4128 343.574 44.8999 343.73 48.1755 343.885L40.5325 326.331L37.1009 333.011Z" fill="#C6C6C6"/>
<path d="M54.4148 323.224L62.6678 338.398C67.6592 335.757 71.8264 333.348 75.258 329.776L54.4148 323.224Z" fill="#C2BFBF"/>
<path d="M40.5325 326.331L39.2846 340.467C41.4683 343.574 44.588 343.73 47.8636 343.574C45.5239 337.826 40.8444 326.176 40.5325 326.331Z" fill="#C2BFBF"/>
<path d="M271.116 355.552V280.384L206.19 242.8L141.263 280.384V355.552L206.19 393.137L271.116 355.552Z" fill="#282828"/>
<path d="M252.912 344.338V290.386L206.19 263.41L159.467 290.386V344.338L206.19 371.314L252.912 344.338Z" stroke="#FCD0C2" stroke-width="3" stroke-linejoin="round"/>
<path d="M175.513 333.768H180.669C180.899 333.768 181.096 333.6 181.129 333.364L182.278 327.245H186.285C187.96 327.278 189.635 327.076 191.244 326.572C192.558 326.135 193.74 325.395 194.726 324.42C195.612 323.613 196.368 322.638 196.926 321.562C197.484 320.52 197.879 319.377 198.108 318.2C198.831 315.711 198.305 312.988 196.762 310.937C194.956 309.054 192.46 308.112 189.898 308.314H180.045C179.815 308.314 179.585 308.516 179.553 308.751L175.02 333.162C175.02 333.162 174.955 333.465 175.02 333.6C175.152 333.734 175.316 333.801 175.513 333.768ZM184.873 313.055H188.157C189.405 312.887 190.686 313.223 191.704 314.03C192.262 314.636 192.361 315.779 192.065 317.393C191.901 318.839 191.244 320.184 190.193 321.159C188.88 321.999 187.369 322.403 185.825 322.268H183.198L184.873 313.055ZM217.058 309.861C215.285 308.516 213.085 307.911 210.884 308.146H206.976L208.06 302.228C208.06 302.228 208.125 301.926 208.06 301.791C207.928 301.757 207.83 301.757 207.698 301.791H202.542C202.312 301.791 202.115 301.959 202.082 302.195L197.55 326.639C197.55 326.639 197.484 326.908 197.55 327.043C197.616 327.177 197.78 327.245 197.911 327.245H202.969C203.199 327.245 203.396 327.043 203.429 326.807L205.958 313.122H209.603C211.081 313.122 211.607 313.459 211.771 313.66C212.034 314.333 212.034 315.073 211.771 315.745L209.767 326.639C209.767 326.639 209.702 326.908 209.767 327.043C209.866 327.177 209.997 327.245 210.129 327.245H215.252C215.482 327.245 215.712 327.043 215.745 326.807L217.847 315.375C218.536 313.526 218.241 311.441 217.058 309.861ZM231.903 308.146H221.624C221.361 308.146 221.164 308.314 221.131 308.583L216.336 333.162C216.336 333.162 216.27 333.465 216.336 333.6C216.434 333.7 216.566 333.768 216.697 333.768H222.05C222.28 333.768 222.51 333.6 222.543 333.364L223.758 327.245H227.929C229.67 327.278 231.378 327.043 233.053 326.572C234.498 326.169 235.811 325.429 236.928 324.42C237.848 323.613 238.636 322.638 239.227 321.562C239.785 320.52 240.212 319.377 240.442 318.2C241.165 315.678 240.639 312.988 239.063 310.937C237.191 308.987 234.563 307.978 231.903 308.146ZM233.939 317.46C233.742 318.906 233.053 320.251 231.969 321.226C230.622 322.066 229.046 322.47 227.469 322.335H224.842L226.616 313.055H229.9C231.213 312.887 232.527 313.223 233.611 314.03C234.136 314.636 234.136 315.779 233.939 317.46Z" fill="#D9D9D9"/>
<path d="M199.691 478.145V402.977L134.764 365.392L69.8378 402.977V478.145L134.764 515.729L199.691 478.145Z" fill="#282828"/>
<path d="M181.487 466.93V412.979L134.764 386.003L88.0414 412.979V466.93L134.764 493.906L181.487 466.93Z" stroke="#FCD0C2" stroke-width="3" stroke-linejoin="round"/>
<path d="M124.543 453.126C115.419 455.655 130.064 460.89 141.668 456.067C140.546 455.626 139.454 455.096 138.42 454.479C134.405 455.39 130.242 455.567 126.138 455.008C122.27 454.567 124.543 453.126 124.543 453.126ZM140.281 448.185C135.084 449.302 129.74 449.567 124.455 448.95C120.587 448.538 123.126 446.685 123.126 446.685C113.087 449.979 128.706 453.743 142.731 449.626C141.816 449.332 140.989 448.832 140.281 448.185ZM145.654 419.569C145.654 419.569 125.37 424.598 135.054 435.715C136.59 437.539 136.354 440.274 134.493 441.803C134.434 441.862 134.375 441.891 134.316 441.95C134.316 441.95 141.58 438.215 138.243 433.539C134.907 428.863 132.751 427.01 145.654 419.569Z" fill="#D9D9D9"/>
<path d="M150.408 457.919C150.408 457.919 152.061 459.272 148.548 460.331C141.845 462.36 120.704 462.978 114.829 460.331C112.703 459.419 116.659 458.155 117.781 457.89C118.46 457.714 119.14 457.625 119.819 457.655C117.457 456.008 104.613 460.89 113.293 462.302C137.062 466.331 156.52 460.655 150.408 457.919ZM142.259 443.568C143.115 443.009 144.03 442.538 144.975 442.126C144.975 442.126 140.517 442.921 136.117 443.303C131.393 443.744 126.639 443.803 121.885 443.45C114.858 442.538 125.635 439.862 125.635 439.862C122.387 439.862 119.199 440.597 116.305 442.068C110.223 445.097 131.334 446.42 142.259 443.568ZM144.945 450.744C144.945 450.744 144.798 450.92 144.709 451.008C159.472 447.126 154.099 437.333 147.012 439.803C146.628 439.95 146.274 440.215 146.038 440.538C146.038 440.538 146.451 440.391 147.308 440.185C150.91 439.45 155.929 444.979 144.945 450.744ZM132.308 439.862C130.123 434.95 122.683 430.627 132.308 423.069C144.384 413.628 138.213 407.511 138.213 407.511C140.694 417.246 129.356 420.187 125.399 426.245C122.653 430.392 126.787 434.833 132.308 439.862Z" fill="#D9D9D9"/>
<path d="M145.33 464.331C136.413 465.86 127.319 465.978 118.343 464.743C118.343 464.743 119.701 465.86 126.728 466.301C137.387 466.978 153.745 465.948 154.158 460.919C154.158 460.919 153.39 462.801 145.33 464.331Z" fill="#D9D9D9"/>
<path d="M412.077 112.699V37.7275L347.637 0.241699L283.196 37.7275V112.699L347.637 150.185L412.077 112.699Z" fill="#282828"/>
<path d="M394.01 101.514V47.7033L347.637 20.7981L301.263 47.7033V101.514L347.637 128.419L394.01 101.514Z" stroke="#00FF0A" stroke-width="3" stroke-linejoin="round"/>
<path d="M338.203 68.9186L338.22 68.9617C340.819 68.9617 342.961 70.316 344.048 72.6794L344.126 72.8605L348.504 71.4028L348.4 71.1871C346.708 67.1504 342.788 64.6317 338.195 64.6317C334.965 64.6317 332.323 65.6323 330.165 67.7197C328.006 69.7898 326.919 72.3861 326.919 75.4309C326.919 78.4758 328.006 81.0376 330.165 83.1077C332.341 85.1951 334.965 86.1957 338.195 86.1957C342.797 86.1957 346.708 83.6943 348.4 79.6661L348.504 79.4505L344.109 77.9927L344.031 78.1911C343.047 80.5114 340.863 81.9088 338.203 81.9088C336.39 81.9088 334.853 81.2791 333.627 80.0629C332.393 78.8208 331.771 77.2682 331.771 75.4396C331.771 73.6109 332.375 72.0756 333.627 70.7731C334.836 69.5569 336.39 68.9272 338.203 68.9272V68.9186ZM347.649 43.3696C330.199 43.3696 316.005 57.5501 316.005 74.9824C316.005 92.4147 329.716 106.595 347.217 106.595C347.459 106.595 347.692 106.543 347.916 106.474C350.507 106.078 352.786 103.706 353.952 101.696L354.064 101.713L370.097 64.6231H365.072L358.605 80.1836L352.104 64.6231H346.785L355.894 85.8593L350.325 98.7287L350.239 98.6941C349.609 100.885 348.296 101.713 346.639 101.998C331.978 101.696 320.581 89.9392 320.581 74.9738C320.581 60.0084 332.721 47.9412 347.649 47.9412C362.577 47.9412 374.717 60.0688 374.717 74.9824C374.717 85.428 368.871 94.7523 359.46 99.3238C358.32 99.8759 357.846 101.247 358.398 102.377C358.951 103.516 360.315 103.982 361.455 103.438C372.29 98.1852 379.284 87.0151 379.284 74.991C379.293 57.5501 365.098 43.3696 347.649 43.3696Z" fill="#D2D2D2"/>
<path d="M552.812 600.908V525.936L488.371 488.45L423.93 525.936V600.908L488.371 638.394L552.812 600.908Z" fill="#282828"/>
<path d="M534.744 589.722V535.912L488.371 509.007L441.998 535.912V589.722L488.371 616.627L534.744 589.722Z" stroke="#FF9800" stroke-width="3" stroke-linejoin="round"/>
<path d="M484.55 567.973V567.651C484.726 567.211 484.903 566.8 485.109 566.39C486.727 562.959 487.021 559.058 485.874 555.422C485.756 554.366 484.962 553.487 483.932 553.252C481.754 553.106 479.577 553.721 477.812 555.041V555.569C478.018 557.915 477.959 560.29 477.635 562.636C477.282 564.777 477.959 566.947 479.459 568.501C480.548 569.674 482.078 570.319 483.667 570.348C483.932 569.527 484.226 568.736 484.55 567.973ZM482.372 555.334C482.196 555.158 482.108 554.894 482.108 554.66C482.137 554.513 482.225 554.396 482.372 554.308C482.814 554.073 483.314 554.015 483.785 554.103C484.52 554.103 485.256 554.572 485.197 555.1C484.962 555.686 484.403 556.097 483.755 556.067H483.579C483.108 555.979 482.667 555.715 482.372 555.334Z" fill="#D2D2D2"/>
<path d="M476.134 562.431C476.399 560.202 476.458 557.944 476.311 555.686V554.865C476.193 550.026 477.812 545.305 480.842 541.522C477.9 540.584 470.838 538.59 466.513 541.816C463.864 543.692 462.629 547.211 462.893 552.226C463.482 556.595 464.453 560.935 465.836 565.129C467.837 571.639 470.102 575.744 472.044 576.419C472.339 576.419 473.251 576.8 474.575 575.216C476.458 572.988 478.194 571.082 478.989 570.231L478.429 569.674C476.546 567.768 475.722 565.07 476.134 562.431ZM486.433 572.401C485.962 572.225 485.727 572.108 485.197 572.724C484.873 573.046 484.609 573.369 484.344 573.75C483.314 575.011 482.873 575.451 479.901 576.067C479.489 576.125 479.106 576.243 478.724 576.389C479.047 576.624 479.43 576.771 479.812 576.859C482.519 577.768 485.491 576.829 487.168 574.513C487.316 574.19 487.316 573.809 487.168 573.486C487.08 573.046 486.815 572.665 486.433 572.401ZM504.941 555.334C505.088 554.572 505.147 553.78 505.176 553.018C503.234 552.783 500.998 552.812 500.115 554.073C498.409 556.507 501.763 562.519 503.058 565.07C503.352 565.51 503.587 565.979 503.823 566.478C503.94 566.8 504.088 567.093 504.264 567.387C505.029 565.393 505.206 563.223 504.735 561.14C504.588 560.114 504.529 559.088 504.529 558.061C504.588 557.152 504.735 556.243 504.941 555.334ZM503.293 554.865C503.028 555.129 502.705 555.305 502.351 555.364H502.175C501.616 555.364 501.086 555.012 500.88 554.484C500.88 554.073 501.469 553.78 502.175 553.663C502.881 553.545 503.587 553.663 503.646 554.103C503.646 554.396 503.499 554.66 503.293 554.865Z" fill="#D2D2D2"/>
<path d="M502.969 544.484C504.911 546.625 506.294 549.205 507.001 552.021C507.001 552.167 507.001 552.314 507.001 552.46C507.001 553.516 506.912 554.542 506.736 555.569C506.589 556.39 506.5 557.24 506.471 558.091C506.471 559.058 506.53 560.055 506.677 561.023C507.265 563.721 506.883 566.536 505.618 568.97L505.824 569.205C512.356 558.97 514.651 547.094 512.562 544.484C509.855 541.082 505.706 539.147 501.351 539.206C499.733 539.206 498.144 539.352 496.555 539.675C499.027 540.789 501.204 542.431 502.969 544.484Z" fill="#D2D2D2"/>
<path d="M516.652 571.228C516.446 570.641 515.563 568.735 512.326 569.41C511.355 569.615 510.384 569.732 509.384 569.791C512.032 565.304 514.092 560.495 515.445 555.48C516.534 551.228 517.387 545.539 515.122 542.636C511.738 538.384 506.559 535.921 501.116 536.038C498.673 536.038 496.231 536.361 493.877 537.065C492.465 536.83 491.052 536.683 489.611 536.654C487.08 536.595 484.579 537.24 482.372 538.472C480.666 537.915 478.93 537.475 477.164 537.182C472.927 536.097 468.425 536.801 464.718 539.117C461.069 541.669 459.392 546.126 459.686 552.372C460.245 557.005 461.246 561.609 462.629 566.067C463.452 568.853 464.541 571.58 465.895 574.16C466.866 576.536 468.69 578.471 471.044 579.527C472.78 580.084 474.693 579.673 476.017 578.442C476.811 579.292 477.841 579.908 478.959 580.172C481.254 580.788 483.667 580.641 485.874 579.761V582.137C485.874 584.483 486.168 586.799 486.786 589.057C486.786 589.175 486.786 589.321 486.786 589.438C487.168 590.787 487.904 592.048 488.875 593.075C490.052 594.189 491.641 594.776 493.259 594.717C493.966 594.717 494.642 594.629 495.319 594.482C497.908 594.16 500.262 592.811 501.822 590.758C503.823 587.18 504.735 583.104 504.499 579.028V578.266H505C507.412 578.442 509.825 578.031 512.062 577.093C513.386 576.418 517.682 574.16 516.652 571.228ZM511.326 575.539C509.649 576.213 507.854 576.565 506.03 576.536C505.235 576.536 504.47 576.448 503.705 576.242C503.411 578.999 502.763 584.131 502.381 586.271C502.145 589.849 499.321 592.693 495.76 593.016C495.113 593.163 494.466 593.221 493.818 593.221C491.2 593.163 488.905 591.374 488.257 588.823C487.492 584.893 487.227 580.905 487.433 576.917C485.992 578.207 484.138 578.911 482.196 578.852C481.254 578.852 480.342 578.706 479.43 578.471C479.165 578.471 476.87 577.797 476.899 576.33C476.929 574.864 478.841 574.6 479.548 574.454C482.078 573.926 482.255 573.72 483.049 572.723C483.226 572.489 483.402 572.254 483.608 572.02C482.461 571.99 481.342 571.668 480.342 571.14C479.665 571.873 477.812 573.867 475.811 576.242C475.075 577.327 473.869 578.031 472.545 578.09C472.191 578.148 471.868 578.148 471.515 578.09C468.925 577.093 466.483 572.841 464.247 565.363C462.864 561.023 461.864 556.595 461.304 552.079C461.01 546.448 462.481 542.46 465.63 540.349C471.279 536.361 480.342 539.44 482.402 540.173C484.491 538.795 486.992 538.12 489.493 538.238C490.876 538.238 492.259 538.413 493.612 538.765C495.966 537.974 498.467 537.563 500.969 537.592C505.882 537.446 510.59 539.616 513.68 543.457C515.71 546.038 514.357 552.255 513.68 554.865C512.179 560.495 509.766 565.861 506.589 570.729C507.059 571.052 508.501 571.638 512.473 570.729C513.827 570.436 514.621 570.729 514.886 571.462C515.534 573.075 512.827 574.776 511.326 575.48V575.539Z" fill="#D2D2D2"/>
<path d="M504.235 570.026C503.499 569.146 502.881 568.149 502.41 567.093C502.41 566.888 502.057 566.39 501.734 565.833C500.027 562.9 496.467 556.39 498.791 553.106C500.38 551.405 502.763 550.73 505.029 551.317C504.264 549.235 503.146 547.299 501.704 545.628C498.732 541.962 494.289 539.822 489.552 539.763C486.757 539.587 484.05 540.613 482.049 542.549C479.548 545.481 478.106 549.176 477.988 553.047L478.429 552.812C479.665 552.167 480.989 551.727 482.372 551.581C484.667 551.053 486.963 552.49 487.492 554.777C487.492 554.865 487.522 554.982 487.551 555.07C488.757 559.029 488.463 563.311 486.698 567.064C486.492 567.445 486.345 567.827 486.197 568.208V568.53C485.903 569.322 485.638 570.055 485.462 570.671C486.021 570.554 486.609 570.642 487.139 570.876C488.022 571.287 488.699 572.079 488.963 573.046V573.516C488.963 573.516 488.963 573.692 488.963 573.779C488.64 578.589 488.875 583.398 489.611 588.149C490.111 590.524 492.465 592.049 494.848 591.521C495.084 591.462 495.29 591.404 495.496 591.345C498.409 591.14 500.674 588.794 500.763 585.891C501.204 583.31 502.087 576.067 502.204 574.513C502.204 571.404 503.734 570.788 504.676 570.524L504.235 570.026Z" fill="#D2D2D2"/>
<path d="M505.912 572.196L505.676 572.02H505.323C504.558 572.225 503.852 572.43 503.94 574.366C504.823 574.718 505.735 574.835 506.677 574.718C508.06 574.659 509.443 574.366 510.737 573.867C511.591 573.486 512.385 572.958 513.062 572.342C510.737 573.164 508.207 573.105 505.912 572.196Z" fill="#D2D2D2"/>
<defs>
<linearGradient id="paint0_linear_503_4524" x1="342.977" y1="579.348" x2="348.963" y2="581.487" gradientUnits="userSpaceOnUse">
<stop/>
<stop offset="1" stop-opacity="0"/>
</linearGradient>
<clipPath id="clip0_503_4524">
<rect width="47.3296" height="54.5578" fill="white" transform="translate(181.996 536.083)"/>
</clipPath>
</defs>
</svg>
