<svg width="95" height="109" viewBox="0 0 95 109" fill="none" xmlns="http://www.w3.org/2000/svg">
<path d="M92.6048 80.75V28.25L47.3024 2L2 28.25V80.75L47.3024 107L92.6048 80.75Z" fill="#CBE858" stroke="#282828" stroke-width="3" stroke-linejoin="round"/>
<path d="M42.024 31.0715C41.3993 30.4387 40.5348 30.0481 39.5697 30.0481C38.6047 30.0481 37.748 30.4387 37.1325 31.0715H37.117C36.4953 31.6995 36.1087 32.5776 36.1087 33.5463C36.1087 34.5149 36.4953 35.393 37.117 36.0148L37.1325 36.032C37.748 36.6601 38.6078 37.0444 39.5697 37.0444C40.5317 37.0444 41.4008 36.6601 42.024 36.032L42.0318 36.0148C42.6566 35.393 43.037 34.5212 43.037 33.5463C43.037 32.5713 42.6566 31.6995 42.0318 31.0715H42.024ZM39.5697 78.9503C40.5348 78.9503 41.4008 78.5535 42.024 77.9317L42.0318 77.9129C42.6566 77.2927 43.037 76.4162 43.037 75.4522C43.037 74.4882 42.6566 73.6055 42.0318 72.9727H42.024C41.3993 72.3337 40.5348 71.9478 39.5697 71.9478C38.6047 71.9478 37.748 72.3337 37.1325 72.9727H37.117C36.4953 73.6039 36.1087 74.4773 36.1087 75.4522C36.1087 76.4271 36.4953 77.2927 37.117 77.9129L37.1325 77.9317C37.748 78.5535 38.6078 78.9503 39.5697 78.9503ZM58.4324 68.3528C59.2892 68.1247 60.0655 67.57 60.5403 66.7279L60.6037 66.6045C61.0259 65.8077 61.1017 64.8874 60.8774 64.0703C60.6501 63.1985 60.0933 62.4251 59.2629 61.9424L59.2134 61.9095C58.4046 61.4596 57.4828 61.3627 56.6354 61.5955C55.774 61.8127 55.0007 62.3923 54.529 63.2251C54.0512 64.0531 53.9522 65.0062 54.1811 65.8827C54.4161 66.7451 54.9682 67.5247 55.7941 68.0122H55.7987C56.6261 68.4934 57.5617 68.5793 58.4309 68.3512L58.4324 68.3528ZM43.1205 50.9151C42.2112 49.9996 40.957 49.4246 39.5697 49.4246C38.1825 49.4246 36.933 49.998 36.0267 50.9151C35.122 51.8291 34.5653 53.0915 34.5653 54.493C34.5653 55.8944 35.122 57.1631 36.0267 58.0864C36.933 58.9973 38.1841 59.566 39.5697 59.566C40.9554 59.566 42.2127 58.9973 43.1205 58.0864C44.0268 57.1615 44.585 55.8944 44.585 54.493C44.585 53.0915 44.0283 51.8291 43.1205 50.9151ZM41.124 44.9547C43.1391 45.2906 44.9485 46.2655 46.331 47.6717H46.3419C46.5615 47.8935 46.7764 48.1372 46.9744 48.381L50.4308 46.3608C49.9669 44.9422 49.9437 43.4595 50.3179 42.0674C50.8112 40.2051 52.0051 38.538 53.7975 37.4928L53.8563 37.4553C55.6286 36.4429 57.6437 36.2304 59.4624 36.7288C61.3042 37.2272 62.9652 38.4412 63.9998 40.2488V40.2551C65.0298 42.0534 65.237 44.1157 64.7468 45.9734C64.2565 47.8357 63.0564 49.5137 61.2671 50.5527L60.7955 50.8339H60.7475C59.0912 51.6307 57.271 51.7557 55.5992 51.3104C54.2259 50.9433 52.9671 50.1683 51.9804 49.07L48.5286 51.0839C48.9261 52.1447 49.1441 53.2868 49.1441 54.4945C49.1441 55.7022 48.9245 56.8553 48.5286 57.9208L51.9804 59.93C52.9671 58.8145 54.2259 58.0567 55.5992 57.688C57.4411 57.1787 59.484 57.3959 61.2671 58.4458L61.3816 58.4989V58.5051C63.1059 59.5613 64.2627 61.1909 64.7468 63.0313C65.237 64.8781 65.0298 66.9419 63.9998 68.7434L63.9379 68.8684L63.9302 68.8574C62.8971 70.5932 61.2671 71.7697 59.4686 72.2681C57.6236 72.7602 55.5807 72.5493 53.7991 71.5134V71.4994C52.0067 70.4526 50.8112 68.7824 50.3195 66.9232C49.9452 65.5374 49.9669 64.0547 50.4324 62.6361L46.9759 60.6206C46.7764 60.8643 46.563 61.0971 46.3434 61.319L46.3326 61.3299C44.95 62.7329 43.1406 63.7063 41.1255 64.0312V68.0669C42.5622 68.37 43.8474 69.0949 44.8541 70.1136L44.8603 70.1245C46.2104 71.4822 47.0471 73.3742 47.0471 75.4522C47.0471 77.5301 46.2104 79.405 44.8603 80.7689L44.8541 80.7908C43.4948 82.1548 41.6297 83 39.5713 83C37.5129 83 35.654 82.1548 34.2977 80.7908H34.2915V80.7689C32.9399 79.405 32.1032 77.5239 32.1032 75.4522C32.1032 73.3805 32.9414 71.4822 34.2915 70.1245V70.1136H34.2977C35.3045 69.0949 36.5927 68.37 38.0232 68.0669V64.0312C36.0082 63.7063 34.2018 62.7329 32.8224 61.3299L32.8084 61.319C31.0795 59.5722 30 57.1631 30 54.493C30 51.8229 31.0795 49.42 32.8038 47.6717H32.8177C34.1987 46.264 36.0051 45.289 38.0186 44.9547V40.9363C36.5881 40.6222 35.2999 39.8973 34.2931 38.8849H34.2869V38.8739C32.9353 37.5037 32.0986 35.6258 32.0986 33.5463C32.0986 31.4667 32.9368 29.5825 34.2869 28.2186L34.2931 28.2123C35.6509 26.8437 37.5206 26 39.5682 26C41.6158 26 43.4917 26.8437 44.851 28.2139V28.2201H44.8572C46.2073 29.5841 47.044 31.4792 47.044 33.5478C47.044 35.6164 46.2073 37.5053 44.8572 38.8755L44.851 38.8864C43.8443 39.8989 42.5591 40.6238 41.1224 40.9378V44.9563L41.124 44.9547ZM60.5403 42.2752L60.5109 42.2315C60.0346 41.4206 59.2737 40.8785 58.4324 40.6457C57.5633 40.4129 56.6276 40.5097 55.7956 40.9925H55.8003C54.9698 41.469 54.4146 42.2471 54.1826 43.1205C53.9537 43.986 54.0543 44.9438 54.5306 45.7781L54.5476 45.7999C55.0255 46.6233 55.7879 47.1748 56.6369 47.3982C57.4906 47.642 58.4432 47.5389 59.2629 47.0561L59.3077 47.0342C60.115 46.5467 60.6532 45.7781 60.8774 44.9328C61.1063 44.061 61.0151 43.1095 60.5403 42.2752Z" fill="#282828"/>
</svg>
