<svg width="95" height="109" viewBox="0 0 95 109" fill="none" xmlns="http://www.w3.org/2000/svg">
<path d="M92.6048 80.75V28.25L47.3024 2L2 28.25V80.75L47.3024 107L92.6048 80.75Z" fill="#CBE858" stroke="#282828" stroke-width="3" stroke-linejoin="round"/>
<path d="M46.5675 84.1682C40.8523 84.1682 35.3626 81.9376 31.3168 77.9638C27.2711 73.99 25 68.598 25 62.9845C25 52.9245 33.0314 43.2633 38.5211 36.2168C41.484 32.4351 44.1009 28.3874 46.3419 24.133C46.387 24.0443 46.4773 24 46.5675 24C46.6578 24 46.748 24.0591 46.7931 24.133C49.0191 28.3874 51.636 32.4203 54.614 36.2168C60.1036 43.2633 68.135 52.9097 68.135 62.9845H54.9749C54.6892 62.9845 54.4636 63.2061 54.4636 63.4868V70.7548H47.0638C46.7781 70.7548 46.5525 70.9764 46.5525 71.2571L46.5675 84.1682ZM55.0201 79.0274V72.1139H48.4926C48.3422 72.1139 48.2219 72.173 48.1317 72.2616C48.0414 72.3502 47.9813 72.4832 47.9813 72.6162V79.0274H55.0201ZM47.9662 85.9261C50.3727 85.8818 52.749 85.4386 55.005 84.5966V81.1103H48.4626C48.3122 81.1103 48.1918 81.1694 48.1016 81.258C48.0114 81.3467 47.9512 81.4796 47.9512 81.6126L47.9662 85.9261ZM62.9011 71.2719V64.3583H56.3737C56.0879 64.3583 55.8623 64.5799 55.8623 64.8606V71.2719H62.9011ZM63.7433 79.8694C64.0291 79.5888 64.1795 79.2194 64.1795 78.8354V73.3695H57.1407V80.2831H62.7055C63.0966 80.2831 63.4726 80.1353 63.7433 79.8694ZM57.607 86C59.487 85.2023 61.2467 84.1534 62.8108 82.8535H57.607V86ZM68.5712 71.2719C69.4285 69.056 69.8797 66.7219 69.9549 64.3583H65.0518V71.2719H68.5712ZM66.7965 78.9535C68.12 77.4172 69.1878 75.6888 70 73.8423H66.7965V78.9535Z" fill="#282828"/>
<path d="M41.8299 34.2669L40.6417 35.9066L36.7463 40.9588C37.2727 41.0326 37.7841 41.1065 38.2804 41.1951L41.514 35.818L42.3864 34.2816C42.612 33.8828 42.0856 33.9271 41.8299 34.2669ZM36.6862 43.869L37.2727 42.8792L35.498 42.569C33.6481 44.9917 31.9636 47.5325 30.4596 50.1768C27.7523 55.0074 25.8723 60.3993 26.7296 65.9685C27.4666 70.5923 29.8429 74.8172 33.4525 77.8899C34.2196 78.5399 35.0318 79.1308 35.889 79.6626C35.9943 79.7365 36.1447 79.7069 36.235 79.6035C36.3102 79.5001 36.3102 79.3524 36.2049 79.2638C33.4074 76.6195 31.392 73.2809 30.3693 69.6026C28.76 63.7527 30.0986 57.7698 32.3997 52.2893C33.6481 49.3939 35.0769 46.5723 36.6862 43.869Z" fill="#A8A8A8"/>
</svg>
