<svg width="149" height="173" viewBox="0 0 149 173" fill="none" xmlns="http://www.w3.org/2000/svg">
<path d="M74.2219 1.73362L146.944 43.8715V128.157L74.2219 170.295L1.5 128.157V43.8715L74.2219 1.73362Z" fill="#282828" stroke="#CBE858" stroke-width="3" stroke-linejoin="round"/>
<path d="M90.1814 38.0407C88.6752 38.7547 86.0626 40.9552 82.8906 44.1873L82.8716 44.4021L84.968 49.2531L85.0854 49.3537C87.1615 46.8893 89.2338 44.6768 91.3101 42.8246C91.4681 42.6766 91.5457 42.6117 91.5457 42.6117C91.4681 42.6766 91.3877 42.7597 91.3101 42.8246C90.6417 43.4495 88.5899 45.43 85.4179 49.4734L85.7336 49.5731C85.7336 49.5731 92.3241 49.5081 95.5216 49.2505L95.7152 49.1056C97.2147 43.582 95.4551 40.8326 95.4551 40.8326C95.4551 40.8326 93.3065 36.5707 90.1813 38.0419L90.1814 38.0407Z" fill="#B7B3B3"/>
<path d="M76.2217 61.4479C77.1581 60.0354 78.0939 58.6414 79.0239 57.3C79.9955 55.9092 80.9811 54.5554 81.9793 53.256C82.0396 53.1896 82.1004 53.1047 82.1452 53.0183C83.1245 51.7358 84.0975 50.5244 85.0856 49.3514L82.8923 44.1678C82.6751 44.3824 82.4563 44.6153 82.2363 44.8482C81.4004 45.7291 80.5241 46.6596 79.6241 47.661C78.6035 48.7953 77.5591 50.0003 76.4901 51.2749C75.502 52.4479 74.4902 53.6917 73.494 54.9554C72.639 56.0511 71.7652 57.1624 70.904 58.3293C70.8635 58.3801 70.842 58.4141 70.8016 58.4649L70.7842 58.6613L73.4855 65.4396L73.6245 65.5063C74.4847 64.1415 75.345 62.7766 76.2205 61.449L76.2217 61.4479Z" fill="#C4C0C0"/>
<path d="M59.1448 91.9485C59.872 90.4631 60.6352 88.9635 61.4011 87.4468C62.1423 85.9996 62.8851 84.5341 63.6647 83.0718C64.4259 81.6079 65.2228 80.1472 66.02 78.6691C66.8373 77.1743 67.6557 75.6796 68.4899 74.2036C69.3224 72.7461 70.1549 71.2885 71.0042 69.8509C71.3024 69.3368 71.6193 68.8069 71.9359 68.2944C72.4655 67.4049 73.0136 66.5159 73.5415 65.6448C73.5647 65.5925 73.6035 65.56 73.6255 65.5076L70.8026 58.4662C70.7406 58.551 70.6798 58.6358 70.6179 58.7195C69.7147 59.9544 68.7926 61.2061 67.903 62.4966C66.9935 63.8027 66.1007 65.1288 65.2236 66.4748C64.4736 67.6157 63.7592 68.7596 63.0421 69.9207C62.8946 70.16 62.7672 70.3825 62.6196 70.6218C61.7314 72.0929 60.9394 73.4997 60.2045 74.8757C59.3824 76.4244 58.6369 77.9071 57.9701 79.3261C57.5271 80.2591 57.1416 81.144 56.7589 82.0106C56.4602 82.7411 56.1587 83.4887 55.8784 84.2209C55.2016 85.9619 54.6149 87.6936 54.099 89.45L54.134 89.6695L56.8338 96.4651L56.936 96.5286C57.4909 95.3531 58.0643 94.1782 58.658 92.9703C58.8149 92.6242 58.9876 92.2969 59.1446 91.9508L59.1448 91.9485Z" fill="#D2D2D2"/>
<path d="M54.0418 89.6776C53.4203 91.802 52.9252 93.9387 52.5745 96.0686C52.5682 96.1398 52.5434 96.2105 52.5356 96.2989C51.6132 94.4882 48.8967 92.5719 48.8967 92.5719C50.6928 95.7215 51.989 98.8084 51.9652 101.724C50.8532 101.86 49.3789 101.388 47.6804 100.607C49.3413 102.428 50.6607 103.014 51.1867 103.187C49.5131 103.146 47.6753 104.136 45.8059 105.287C48.4577 104.476 50.5527 104.247 52.009 104.7C49.0773 111.124 46.0839 118.245 43.0352 125.794C43.7707 125.643 44.2424 125.198 44.5516 124.559C45.0883 123.183 48.6967 114.207 54.1201 102.455C54.2756 102.126 54.4325 101.78 54.588 101.452C54.6315 101.365 54.6766 101.262 54.7202 101.175C55.2983 99.9473 55.8783 98.6838 56.4968 97.4052C56.6307 97.1103 56.7829 96.8182 56.9179 96.5235L56.9195 96.5051L54.0981 89.4465C54.0902 89.536 54.0655 89.6056 54.042 89.6753L54.0418 89.6776Z" fill="#DBD9D9"/>
<path d="M85.4154 49.4894C84.5416 50.6008 83.5811 51.8676 82.5335 53.3062C82.4731 53.3726 82.4296 53.459 82.3692 53.5254C81.4643 54.7787 80.5144 56.1356 79.4973 57.6486C78.625 58.9407 77.7075 60.3363 76.7445 61.8541C75.9062 63.1666 75.0444 64.5498 74.1558 66.0383L74.3105 66.1237L82.7126 65.9667L82.922 65.8405C85.5492 64.9017 86.7696 63.9472 87.9966 62.5245C88.3193 62.1387 88.6636 61.7189 88.9895 61.2975C90.0076 59.9825 91.0196 58.5408 91.9234 57.0895C92.8052 55.6907 93.5974 54.2828 94.2315 53.0241C94.6279 52.2119 94.965 51.4674 95.2033 50.8045C95.4181 50.2112 95.594 49.6504 95.7312 49.122C92.3138 49.4146 88.1304 49.6023 85.4155 49.4883L85.4154 49.4894Z" fill="#C4C0C0"/>
<path d="M73.772 66.708C73.4319 67.2902 73.0717 67.8891 72.7127 68.4882C72.3307 69.1384 71.9269 69.8237 71.5416 70.5107C71.349 70.8536 71.1364 71.2133 70.9438 71.5562C70.327 72.6185 69.7244 73.718 69.0829 74.8499C68.3108 76.241 67.5139 77.7018 66.7139 79.1981C65.937 80.6421 65.1558 82.1228 64.3694 83.6747C63.6082 85.1386 62.8433 86.6566 62.0743 88.2089C61.3734 89.6064 60.671 91.0211 59.9623 92.507C59.9204 92.575 59.8956 92.6458 59.8536 92.7138C59.1465 94.1825 58.4508 95.6788 57.72 97.2171C57.6985 97.2511 57.6592 97.3414 57.6377 97.3754L57.7583 97.4138L60.2719 97.3665L60.4174 97.3204C60.3649 97.2972 60.3379 97.2231 60.2865 97.2012C63.6167 97.0815 68.2202 95.0027 71.3355 92.2158C72.7653 90.9372 74.0934 89.38 75.3741 87.5477C76.3257 86.1724 77.2185 84.6484 78.1089 82.9436C78.889 81.4628 79.646 79.8365 80.3969 78.0835C79.61 78.4097 78.7067 78.6365 77.7405 78.749C77.5763 78.7703 77.3938 78.79 77.2124 78.8099C77.031 78.8297 76.8499 78.8322 76.6858 78.8536C79.8689 77.9465 82.0045 75.8299 83.6658 73.1668C82.8118 73.6491 81.4236 74.2473 79.8164 74.4651C79.5966 74.5 79.3784 74.5166 79.1429 74.5316C79.0888 74.5268 79.0343 74.5405 78.9803 74.5357C80.094 74.1841 81.033 73.7625 81.873 73.2419C82.0451 73.131 82.2172 73.0201 82.3908 72.8919C82.6421 72.6977 82.8946 72.5036 83.1274 72.3089C83.2839 72.1781 83.4207 72.0467 83.5787 71.8986C83.915 71.5684 84.2363 71.1999 84.5421 70.7952C84.6429 70.678 84.7268 70.5419 84.8276 70.4246C84.9519 70.2377 85.059 70.0493 85.1662 69.8597C85.6722 69.0399 86.0795 68.3016 86.4087 67.6456C86.5826 67.3184 86.7164 67.0246 86.8502 66.7298C86.8953 66.6261 86.9421 66.5041 87.0057 66.4009C87.1411 66.0888 87.2561 65.8108 87.3512 65.5484C87.4914 65.1823 87.5722 64.8839 87.6269 64.6723C87.512 64.7524 87.3976 64.8141 87.2471 64.891C86.2677 65.3623 84.6294 65.7219 83.3207 65.8411C83.1381 65.8608 83.0111 65.8681 82.8654 65.8911C82.8779 65.8806 79.9805 65.9298 74.1731 66.0387C74.1343 66.0711 73.8818 66.5013 73.7731 66.7081L73.772 66.708Z" fill="#D2D2D2"/>
<path d="M57.3095 98.0188C56.753 99.2126 56.1749 100.44 55.6137 101.688C55.612 101.707 55.5921 101.722 55.5905 101.741C55.5033 101.913 55.4335 102.087 55.3448 102.277C54.9626 103.126 54.6266 103.871 53.8601 105.604C54.8218 106.157 55.521 107.425 56.1686 108.87C56.2222 107.451 55.7497 106.059 54.7127 104.941C59.6517 105.594 64.0407 104.721 66.5626 101.305C66.7877 101.001 66.9972 100.677 67.1898 100.334C66.0746 101.514 64.7748 101.94 62.4592 101.609C66.0501 100.377 67.8995 99.046 69.6562 96.7327C70.0661 96.1741 70.4802 95.5811 70.8995 94.9156C67.6012 97.7407 64.0333 98.307 60.422 97.3208L57.6383 97.3812C57.5312 97.5696 57.4209 97.7948 57.3118 98.019L57.3095 98.0188Z" fill="#DBD9D9"/>
<rect x="57" y="123" width="35" height="30" rx="4" fill="#CBE858"/>
<path d="M82.2012 145.191V149H67.3184V145.777L74.1738 138.57C74.7793 137.877 75.2676 137.257 75.6387 136.71C76.0098 136.153 76.2783 135.65 76.4443 135.201C76.6201 134.752 76.708 134.347 76.708 133.985C76.708 133.37 76.6152 132.857 76.4297 132.447C76.2539 132.027 75.9902 131.71 75.6387 131.495C75.2969 131.28 74.8721 131.173 74.3643 131.173C73.8564 131.173 73.4121 131.319 73.0312 131.612C72.6504 131.905 72.3525 132.306 72.1377 132.813C71.9326 133.321 71.8301 133.893 71.8301 134.527H66.8789C66.8789 133.219 67.1963 132.022 67.8311 130.938C68.4756 129.854 69.3691 128.99 70.5117 128.346C71.6543 127.691 72.9775 127.364 74.4814 127.364C76.0537 127.364 77.3721 127.608 78.4365 128.097C79.501 128.585 80.3018 129.293 80.8389 130.221C81.3857 131.139 81.6592 132.247 81.6592 133.546C81.6592 134.288 81.542 135.001 81.3076 135.685C81.0732 136.368 80.7363 137.047 80.2969 137.721C79.8574 138.385 79.3203 139.068 78.6855 139.771C78.0605 140.475 77.3477 141.222 76.5469 142.013L73.793 145.191H82.2012Z" fill="#242424"/>
</svg>
