<svg width="151" height="175" viewBox="0 0 151 175" fill="none" xmlns="http://www.w3.org/2000/svg">
<path d="M75.2427 1.94083L148.941 44.6446V130.062L75.2427 172.765L1.54419 130.062V44.6446L75.2427 1.94083Z" fill="#282828" stroke="#CBE858" stroke-width="3" stroke-linejoin="round"/>
<path d="M103.015 84.4379C101.918 84.4379 100.863 84.3181 99.807 84.1184C98.7919 83.9186 97.8174 83.5991 96.8429 83.1997L96.1526 83.0399H95.6653C95.2593 83.0399 95.0563 83.3195 95.0563 83.8787V85.1968C95.0157 85.4364 95.0157 85.716 95.0563 85.9557C95.2593 86.2752 95.5435 86.5548 95.909 86.7146C96.8835 87.1939 97.9392 87.5533 98.9949 87.753C100.335 88.0726 101.675 88.2323 103.055 88.2323C104.436 88.2723 105.817 88.0726 107.116 87.6732C108.212 87.3936 109.227 86.8743 110.08 86.1953C110.892 85.5563 111.582 84.7974 112.07 83.8787C112.516 82.9201 112.76 81.8417 112.76 80.7632C112.76 79.4452 112.354 78.1271 111.542 77.0487C110.445 75.8504 109.065 74.9717 107.481 74.4924L103.624 73.2941C102.528 73.0146 101.553 72.5353 100.66 71.8562C100.132 71.3769 99.8476 70.6979 99.8476 69.979C99.807 69.0204 100.254 68.1017 101.106 67.5825C102.243 67.0632 103.461 66.7836 104.72 66.8635C106.507 66.8236 108.253 67.1831 109.877 67.902C110.202 68.0618 110.567 68.1816 110.933 68.2215C111.339 68.2215 111.542 67.902 111.542 67.3428V65.9049C111.542 65.5854 111.461 65.3058 111.298 65.0262C111.095 64.7466 110.811 64.5469 110.486 64.3871C110.121 64.1874 109.755 64.0277 109.349 63.9078C108.862 63.7481 108.334 63.5883 107.806 63.4685L106.02 63.0691C105.37 63.0291 104.68 63.0291 104.03 63.0691C102.893 63.0691 101.756 63.1889 100.66 63.5084C99.6446 63.788 98.6701 64.2673 97.8174 64.9064C97.0053 65.4656 96.3556 66.2245 95.909 67.0632C95.4217 67.9819 95.1781 68.9804 95.1781 70.0189C95.1781 71.4568 95.6247 72.8548 96.518 74.0131C97.6144 75.3312 99.1167 76.2898 100.822 76.7291L104.883 77.9274C105.898 78.167 106.832 78.6064 107.603 79.2854C108.09 79.8046 108.334 80.4837 108.334 81.1627C108.334 82.2011 107.806 83.1597 106.913 83.679C105.695 84.2781 104.355 84.5178 103.015 84.4379ZM79.4234 65.0662C79.3422 64.6667 79.1798 64.3073 78.8956 64.0277C78.6113 63.788 78.2053 63.7081 77.8399 63.7481H75.6066C75.2411 63.7481 74.8757 63.828 74.5509 64.0277C74.2666 64.3073 74.0636 64.6667 74.023 65.0662L69.9625 82.6405L65.3336 65.0662C65.2524 64.6667 65.0494 64.3073 64.7651 64.0277C64.7651 64.0277 64.2373 63.7481 63.7094 63.7481H61.0701C60.6234 63.7481 60.4204 63.9877 60.4204 64.4271C60.4204 64.7866 60.5422 65.146 60.664 65.5055L66.9984 86.0356C67.0796 86.395 67.242 86.7545 67.4856 87.0341C67.8105 87.2338 68.1759 87.3137 68.5414 87.2737H70.8558C71.2213 87.2737 71.6273 87.2338 71.9522 87.0341C72.1958 86.7146 72.3582 86.3551 72.4394 85.9557L76.4999 68.8606L80.5604 85.9956C80.5604 86.395 80.7634 86.7545 81.0476 87.0341C81.3725 87.2338 81.7379 87.3536 82.144 87.3137H84.4584C84.8239 87.3137 85.1893 87.2338 85.4735 87.0341C85.7984 86.7545 85.9608 86.395 86.042 85.9956L92.5794 65.4656C92.5794 65.2659 92.5794 65.0262 92.5794 64.8265C92.5794 64.6667 92.5794 64.5469 92.5794 64.3871C92.62 64.0676 92.417 63.7481 92.0515 63.7081C92.0109 63.7081 91.9297 63.7081 91.8891 63.7081H89.3716C89.0062 63.7081 88.6407 63.788 88.3159 63.9877C88.0723 64.3073 87.8692 64.6268 87.788 65.0262L83.7275 83.0399L79.4234 65.0662ZM50.3098 73.5737C49.3353 73.4539 48.4014 73.374 47.4269 73.374C45.0312 73.2542 42.6761 73.9732 40.8083 75.451C39.1841 76.809 38.2908 78.846 38.372 80.923C38.2908 82.8402 38.9811 84.6775 40.3617 86.0356C41.8234 87.3536 43.7725 88.0726 45.7621 87.9528C48.8887 88.0326 51.8934 86.6746 53.8831 84.2781C54.1267 84.7974 54.4109 85.3166 54.6952 85.8358C54.9794 86.2752 55.3042 86.6746 55.6697 87.074C56.0757 87.4735 56.766 87.4735 57.172 87.074L58.8774 85.9557C59.1617 85.7959 59.3647 85.4764 59.4053 85.1568C59.4865 84.9571 59.4865 84.7175 59.4053 84.5178C59.0805 83.9186 58.7962 83.2796 58.5526 82.6405C58.3496 81.8417 58.2278 81.0428 58.2684 80.244V71.8163C58.4714 69.4198 57.6593 67.0632 56.0351 65.2659C53.9643 63.5484 51.2437 62.7495 48.5232 63.0691C47.1427 63.0691 45.8027 63.2288 44.4628 63.5883C43.2852 63.8679 42.1483 64.2673 41.052 64.7866C40.7677 64.9064 40.5241 65.1061 40.3211 65.3457C40.2399 65.6253 40.2399 65.9848 40.3211 66.2644V67.5825C40.3211 68.1417 40.3211 68.3813 40.8895 68.3813C41.052 68.3813 41.1738 68.3813 41.3362 68.3813L42.2701 68.0618C43.0822 67.6624 43.9349 67.3428 44.8282 67.0632C45.8027 66.8236 46.7772 66.7038 47.7517 66.7038C49.3353 66.544 50.8783 66.9834 52.1371 67.942C53.1116 69.1402 53.5582 70.658 53.3958 72.1758V74.1329L50.3098 73.5737ZM53.477 77.1685V78.2469C53.477 79.0458 53.3958 79.8046 53.1928 80.5635C53.0304 81.2026 52.7055 81.8017 52.2589 82.281C51.5686 83.0799 50.7159 83.639 49.7008 83.9586C48.8075 84.2781 47.8736 84.4379 46.9396 84.4379C45.8839 84.5178 44.8688 84.1583 44.0973 83.4793C43.3664 82.7204 43.0416 81.6819 43.1228 80.6434C43.0416 79.4851 43.5695 78.3667 44.4628 77.6079C45.6403 76.809 47.1021 76.4096 48.5232 76.5294H51.0407C51.8528 76.6892 52.6649 76.9288 53.477 77.1685ZM107.116 99.0166C97.4113 103.051 86.9759 105.128 76.4593 105.168C62.3694 105.168 48.5232 101.573 36.2606 94.7029C35.2861 94.1038 34.5146 95.1023 35.3673 95.8612C46.4118 105.647 60.7453 111.079 75.6066 110.999C87.3414 110.999 98.7919 107.604 108.496 101.134C109.877 99.8953 108.618 98.2577 107.116 99.0166Z" fill="#D9D9D9"/>
<path d="M101.512 95.2621C100.741 95.8213 100.863 96.5802 101.715 96.4604C104.598 96.1009 110.973 95.3819 112.11 96.8198C113.247 98.2577 110.852 104.129 109.755 106.765C109.43 107.564 110.161 107.884 110.892 107.285C114.628 103.89 116.496 98.9367 115.887 93.944C111.136 92.1067 105.817 92.586 101.512 95.2621Z" fill="#D9D9D9"/>
<path d="M57 126C57 123.791 58.7909 122 61 122H89C91.2091 122 93 123.791 93 126V148C93 150.209 91.2091 152 89 152H61C58.7909 152 57 150.209 57 148V126Z" fill="#CBE858"/>
<path d="M71.2461 126.672V148H66.3096V132.238L61.4463 133.659V129.909L70.792 126.672H71.2461ZM78.6395 138.493L74.7137 137.57L76.0027 126.672H88.4686V130.51H80.0311L79.5477 134.743C79.782 134.606 80.1775 134.445 80.7342 134.26C81.3006 134.064 81.9256 133.967 82.6092 133.967C83.6639 133.967 84.5965 134.128 85.407 134.45C86.2273 134.763 86.9207 135.227 87.4871 135.842C88.0535 136.447 88.4783 137.194 88.7615 138.083C89.0545 138.972 89.201 139.987 89.201 141.13C89.201 142.048 89.0496 142.937 88.7469 143.796C88.4539 144.646 87.9998 145.412 87.3846 146.096C86.7791 146.77 86.0125 147.307 85.0848 147.707C84.157 148.098 83.0584 148.293 81.7889 148.293C80.8416 148.293 79.9187 148.146 79.0203 147.854C78.1219 147.561 77.3113 147.141 76.5887 146.594C75.8758 146.037 75.3094 145.368 74.8895 144.587C74.4793 143.796 74.2791 142.912 74.2889 141.936H79.2547C79.284 142.453 79.4061 142.902 79.6209 143.283C79.8357 143.664 80.1238 143.962 80.4852 144.177C80.8562 144.382 81.2811 144.484 81.7596 144.484C82.2479 144.484 82.6531 144.387 82.9754 144.191C83.2977 143.996 83.5516 143.728 83.7371 143.386C83.9227 143.044 84.0545 142.653 84.1326 142.214C84.2107 141.765 84.2498 141.291 84.2498 140.793C84.2498 140.266 84.1912 139.792 84.074 139.372C83.9666 138.952 83.7908 138.596 83.5467 138.303C83.3025 138 82.9852 137.771 82.5945 137.614C82.2137 137.458 81.7547 137.38 81.2176 137.38C80.5047 137.38 79.9432 137.502 79.533 137.746C79.1229 137.99 78.825 138.239 78.6395 138.493Z" fill="#242424"/>
</svg>
