<svg width="95" height="109" viewBox="0 0 95 109" fill="none" xmlns="http://www.w3.org/2000/svg">
<path d="M92.6048 81.0513V28.5513L47.3024 2.30127L2 28.5513V81.0513L47.3024 107.301L92.6048 81.0513Z" fill="#CBE858" stroke="#282828" stroke-width="3" stroke-linejoin="round"/>
<path fill-rule="evenodd" clip-rule="evenodd" d="M22 56.1954C22 69.5534 33.15 80.3013 47 80.3013C60.85 80.3013 72 69.5471 72 56.1954C72 42.8436 60.85 32.0832 47 32.0832C33.15 32.0832 22 42.8373 22 56.1954Z" fill="#282828"/>
<path fill-rule="evenodd" clip-rule="evenodd" d="M22 54.4072C22 67.7652 33.15 78.5131 47 78.5131C60.85 78.5131 72 67.7589 72 54.4072C72 41.0554 60.85 30.3013 47 30.3013C33.15 30.3013 22 41.0554 22 54.4072Z" fill="#424140"/>
<path fill-rule="evenodd" clip-rule="evenodd" d="M53.7688 65.6006H56.4062V43.2201H53.7688V65.6006ZM61.1812 59.9348L68.0813 54.5138L61.1812 48.8732V59.9348Z" fill="#C1C0BF"/>
<path fill-rule="evenodd" clip-rule="evenodd" d="M36.7875 55.6746L38.2937 54.5013L36.625 53.1398H62.35V55.6746H36.7875ZM36.625 64.3269H56.4062V66.868H36.7875L38.2937 65.6884L36.625 64.3269ZM38.2937 43.3079L36.625 41.9464H56.4062V44.4875H36.7875L38.2937 43.3079ZM31.1312 58.8368L36.65 54.5013L31.1312 49.9775V58.8368Z" fill="#C1C0BF"/>
<path fill-rule="evenodd" clip-rule="evenodd" d="M31.125 70.0239L36.6438 65.6884L31.125 61.1709V70.0239ZM31.125 47.6435L36.6438 43.3079L31.125 38.7904V47.6435Z" fill="#C1C0BF"/>
</svg>
