<svg width="95" height="109" viewBox="0 0 95 109" fill="none" xmlns="http://www.w3.org/2000/svg">
<path d="M92.6048 81.0513V28.5513L47.3024 2.30127L2 28.5513V81.0513L47.3024 107.301L92.6048 81.0513Z" fill="#CBE858" stroke="#282828" stroke-width="3" stroke-linejoin="round"/>
<path d="M54.1814 50.0898L64.5881 48.961L69.9803 50.0997L69.9998 50.1119L60.058 50.7152L54.1721 50.0997L54.1814 50.0898Z" fill="#0C0B0B"/>
<path d="M54.1723 50.0997L64.5792 49.2729L64.6507 49.167L64.6511 36.1081L64.5797 35.9587L54.1723 38.7115V50.1" fill="#595555"/>
<path d="M70 50.1121L64.5792 49.2729L64.5797 35.9587L69.9998 38.717V50.1121" fill="#282828"/>
<path d="M54.1723 59.5026L54.3243 59.6109L64.581 60.3186L69.8144 59.6109L69.9998 59.5074L60.058 58.8861L54.1721 59.5026" fill="#898888"/>
<path d="M54.1723 59.5026L64.581 60.29L64.6132 60.334L64.6052 73.5535L64.5794 73.6224L54.1721 70.8915V59.5023" fill="#595555"/>
<path d="M69.9998 59.5074L64.581 60.2902L64.5797 73.6227L69.9998 70.8857V59.5076" fill="#282828"/>
<path d="M40.6655 50.0797L30.377 49.1833L25.0342 50.0854L25.0002 50.1125L34.942 50.7158L40.7205 50.1123L40.6653 50.0801L40.6655 50.0797Z" fill="#0C0B0B"/>
<path d="M25.0004 50.1121L30.3718 49.3123L30.5299 49.1985V36.1116L30.3718 35.9587L25.0004 38.7175V50.1121Z" fill="#595555"/>
<path d="M40.7207 50.1119L30.3718 49.3123V35.9587L40.7214 38.7115L40.7209 50.1119" fill="#282828"/>
<path d="M40.7207 59.5074L40.4832 59.6836L30.3716 60.4547L25.1715 59.6836L25 59.5074L34.942 58.8861L40.7205 59.5074" fill="#898888"/>
<path d="M25 59.5074L30.3716 60.2834L30.5083 60.4536L30.5228 73.3854L30.3718 73.6227L25.0004 70.8855L25 59.5074Z" fill="#595555"/>
<path d="M40.7207 59.5074L30.3716 60.2834V73.6227L40.7207 70.8917V59.5074Z" fill="#282828"/>
<path d="M58.2411 61.2091L47.5002 60.1318L36.6524 61.2093L36.8053 61.3408L47.4472 63.0602L58.0878 61.3408L58.2409 61.2093" fill="#898888"/>
<path d="M36.6524 61.2093L47.4474 62.8181L47.557 62.967L47.5708 82.0892L47.4474 82.3013L36.6524 76.8116V61.2093Z" fill="#595555"/>
<path d="M58.2411 61.2091L47.4474 62.8179V82.3011L58.2413 76.8113V61.2089" fill="#282828"/>
<path d="M47.5002 49.4584L36.6524 48.3932L36.6803 48.3769L47.4467 46.678L58.2084 48.3809L58.2411 48.3932L47.5002 49.4584Z" fill="#0C0B0B"/>
<path d="M36.6524 48.3932L47.4474 46.7932L47.4991 46.7452L47.4753 27.3308L47.4476 27.3013L36.6526 32.7914V48.393" fill="#595555"/>
<path d="M58.2411 48.3932L47.4472 46.7932V27.3015L58.2411 32.7916V48.3932Z" fill="#282828"/>
</svg>
