<svg width="95" height="109" viewBox="0 0 95 109" fill="none" xmlns="http://www.w3.org/2000/svg">
<path d="M92.6048 81.0513V28.5513L47.3024 2.30127L2 28.5513V81.0513L47.3024 107.301L92.6048 81.0513Z" fill="#CBE858" stroke="#282828" stroke-width="3" stroke-linejoin="round"/>
<path d="M31.9708 51.5672L26 52.1505V39.9931L31.9708 36.9891L32.2458 37.5066V51.1128L31.9708 51.5672Z" fill="#282828"/>
<path d="M69 52.2547L58.5603 52.6881L51.7931 52.2556L62.9865 51.1808L69 52.2547Z" fill="#545352"/>
<path d="M62.9623 51.6505L69 52.2547L69 40.0711L62.9623 37.0464L62.4987 37.5478V51.132L62.9623 51.6505Z" fill="#3A3A3A"/>
<path d="M51.7931 40.064L62.9623 37.0355L62.9623 51.6505L51.7931 52.2556V40.064Z" fill="#282828"/>
<path d="M26 52.2547L36.4397 52.6881L43.2069 52.2556L32.0453 51.0579L26 52.2547Z" fill="#545352"/>
<path d="M43.2069 40.064L32.0376 37.0355V51.6505L43.2069 52.2556L43.2069 40.064Z" fill="#3A3A3A"/>
<path d="M69 58.5555L58.5603 58.1222L51.7931 58.5547L62.9378 59.6833L69 58.5555Z" fill="#545352"/>
<path d="M62.9624 59.1601L69 58.5555L69 70.7393L62.9624 73.764L62.6451 73.0723V59.7817L62.9624 59.1601Z" fill="#3A3A3A"/>
<path d="M51.7931 70.7466L62.9624 73.775V59.1601L51.7931 58.5547L51.7931 70.7466Z" fill="#282828"/>
<path d="M26 58.5555L36.4397 58.1222L43.2069 58.5547L31.9645 59.781L26 58.5555Z" fill="#545352"/>
<path d="M32.0376 59.1601L26 58.5555V70.7393L32.0376 73.764L32.4036 73.2187V59.781L32.0376 59.1601Z" fill="#282828"/>
<path d="M43.2069 70.7466L32.0376 73.775L32.0376 59.1601L43.2069 58.5547L43.2069 70.7466Z" fill="#3A3A3A"/>
<path d="M42.0499 47.1373L47.5871 46.1645L58.6418 47.7326L59.594 48.2813L54.2248 48.8699L42.0499 47.1373Z" fill="#545352"/>
<path d="M52.9501 47.1373L47.4129 46.1645L35.8823 47.9569L35.4062 48.2813L40.7754 48.8699L52.9501 47.1373Z" fill="#545352"/>
<path d="M42.0499 63.6733L47.5871 64.6461L58.6139 63.1014L59.594 62.5293L54.2248 61.9406L42.0499 63.6733Z" fill="#545352"/>
<path d="M52.9501 63.6733L47.4129 64.6461L35.7982 62.9891L35.406 62.5293L40.7752 61.9406L52.9501 63.6733Z" fill="#545352"/>
<path d="M59.594 48.2813L59.594 42.2595L53.9313 40.4043V32.5223L47.5 29.3013L47.2317 29.7294L47.1828 80.6465L47.5 81.3013L53.9313 78.0802V70.4065L59.594 68.5513L59.594 62.5293L53.9313 63.5281V47.2829L59.594 48.2813Z" fill="#3A3A3A"/>
<path d="M41.0687 32.5223V40.4041L35.406 42.2592V48.2811L41.0687 47.2824V63.5276L35.406 62.529V68.5508L41.0687 70.406V78.0798L47.5 81.3008L47.5 29.3013L41.0687 32.5223Z" fill="#282828"/>
</svg>
