<svg width="95" height="109" viewBox="0 0 95 109" fill="none" xmlns="http://www.w3.org/2000/svg">
<path d="M92.6048 81.0513V28.5513L47.3024 2.30127L2 28.5513V81.0513L47.3024 107.301L92.6048 81.0513Z" fill="#CBE858" stroke="#282828" stroke-width="3" stroke-linejoin="round"/>
<path d="M68.9966 45.4894L68.2902 45.4774L47.0146 39.1911L47.0026 38.8996V28.3013L69 39.2803V45.4911" fill="#282828"/>
<path d="M46.9991 39.5359V28.3013L25.0034 39.2752L25 70.3239L46.9957 81.3013L47.0696 81.2001L47.0404 70.7596L46.9974 70.7013L45.6225 69.7236L28.6075 64.6637L28.6934 45.0246L46.9974 39.5359" fill="#3F3F3F"/>
<path d="M50.2887 61.7993L27.81 64.9553V44.6438L50.2904 47.8032V61.7976" fill="#282828"/>
<path d="M38.8973 60.5146L46.9974 61.5438V48.0519L38.899 49.081V60.5146" fill="#3F3F3F"/>
<path d="M30.737 59.4786L35.9944 60.1459V49.4498L30.737 50.1187V59.4804" fill="#3F3F3F"/>
<path d="M27.8118 44.6438L47.0009 38.9013L68.9966 45.4894L50.3042 47.8049L27.8118 44.6438Z" fill="#333333"/>
<path d="M68.9862 58.7257L46.9991 61.494V48.0519L68.9862 50.8477V58.7257Z" fill="#282828"/>
<path d="M68.9845 64.12L68.5119 64.1406L47.0662 70.6189L46.9991 70.7013V81.3013L68.9845 70.3325V64.12Z" fill="#282828"/>
<path d="M27.81 64.9553L46.9991 70.7013L68.9845 64.12L50.2887 61.7976L27.81 64.9536" fill="#6D6D6C"/>
</svg>
