<svg width="95" height="109" viewBox="0 0 95 109" fill="none" xmlns="http://www.w3.org/2000/svg">
<path d="M92.6048 81.0513V28.5513L47.3024 2.30127L2 28.5513V81.0513L47.3024 107.301L92.6048 81.0513Z" fill="#CBE858" stroke="#282828" stroke-width="3" stroke-linejoin="round"/>
<path d="M35.1177 36.0706L24 53.8311L35.1177 71.5944L35.3116 71.4558L35.1693 36.1069L35.1177 36.0703" fill="#282828"/>
<path d="M47.5343 68.4022L35.1177 71.5946V36.0706L47.5343 39.2623V68.4022Z" fill="#4F4E4D"/>
<path d="M70.996 40.5409L65.0108 41.5342L51.2705 27.3013L44.4395 30.3026L45.3406 31.9887L40.506 33.9278V78.7728L47.534 82.3013L47.6509 82.2094L47.5428 36.1104L62.4401 58.764L70.996 40.5411" fill="#282828"/>
<path d="M51.2705 27.3013L69.5709 36.4824L62.3342 49.658L51.2705 27.3013Z" fill="#4F4E4D"/>
<path d="M70.9954 40.5409L71 70.519L47.5343 82.301L47.5312 31.1114L62.3344 58.0614L70.9954 40.5407" fill="#4F4E4D"/>
</svg>
