<svg width="95" height="109" viewBox="0 0 95 109" fill="none" xmlns="http://www.w3.org/2000/svg">
<path d="M92.6048 81.0513V28.5513L47.3024 2.30127L2 28.5513V81.0513L47.3024 107.301L92.6048 81.0513Z" fill="#CBE858" stroke="#282828" stroke-width="3" stroke-linejoin="round"/>
<path d="M47.5535 68.2388L28.5975 72.8794V37.7231L47.5535 42.2231V68.2388Z" fill="#282828"/>
<path d="M47 68.3794L65.4025 72.8794V37.7231L47 42.2231V68.3794Z" fill="#605E5D"/>
<path d="M47 28.3013V41.9419L55.0252 43.9106V32.3794L47 28.3013ZM65.4025 37.7231V72.8794L69 71.0513V39.4106L65.4025 37.7231ZM47 48.5513V62.1919L55.0252 61.0669V49.5356L47 48.5513ZM55.0252 66.6919L47 68.6606V82.3013L55.0252 78.2231V66.6919Z" fill="#282828"/>
<path d="M47 82.3013V68.6606L38.9748 66.6919V78.2231L47 82.3013ZM28.5975 72.8794V37.7231L25 39.5513V71.1919L28.5975 72.8794ZM47 62.0513V48.4106L38.9748 49.5356V61.0669L47 62.0513ZM38.9748 43.9106L47 41.9419V28.3013L38.9748 32.3794V43.9106Z" fill="#605E5D"/>
<path d="M55.0252 43.9106L47 45.4575L38.9748 43.9106L47 41.8013L55.0252 43.9106Z" fill="#353535"/>
<path d="M55.0252 66.6919L47 65.145L38.9748 66.6919L47 68.9419L55.0252 66.6919Z" fill="#515050"/>
</svg>
