<svg width="95" height="109" viewBox="0 0 95 109" fill="none" xmlns="http://www.w3.org/2000/svg">
<path d="M92.6048 81.0513V28.5513L47.3024 2.30127L2 28.5513V81.0513L47.3024 107.301L92.6048 81.0513Z" fill="#CBE858" stroke="#282828" stroke-width="3" stroke-linejoin="round"/>
<path d="M31.8496 71.3877L26.3563 72.6454V36.916L31.8496 38.1783V71.3877Z" fill="#5B5B5B"/>
<path d="M38.7022 73.4983L31.8496 75.4534V34.1583L38.7022 36.1111V73.4983ZM47.4943 75.6638L38.7022 78.8948V30.7168L47.4943 33.9479V75.6638ZM71 71.4952L47.4943 83.3013V26.3013L71 38.1074V71.4952Z" fill="#5B5B5B"/>
<path d="M42.8068 28.6543L47.4943 26.3013V83.3013L42.8091 80.9483V28.6543M35.0756 32.537L38.7022 30.7146V78.8834L35.0756 77.0609V32.537ZM28.9584 35.6103L31.8474 34.1583V75.4443L28.9584 73.9922V35.6103ZM26.3563 36.916L24 38.1005V71.5043L26.3563 72.6865V36.916Z" fill="#282828"/>
</svg>
