<svg width="95" height="109" viewBox="0 0 95 109" fill="none" xmlns="http://www.w3.org/2000/svg">
<path d="M92.6048 81.0513V28.5513L47.3024 2.30127L2 28.5513V81.0513L47.3024 107.301L92.6048 81.0513Z" fill="#CBE858" stroke="#282828" stroke-width="3" stroke-linejoin="round"/>
<path d="M24.0018 58.0046L24.1797 58.0971L26.9629 58.41L30.4577 58.218L30.6122 58.138L27.5092 57.8712L24.0018 58.0046Z" fill="#B7B7B7"/>
<path d="M47.0009 27.3013L37.2892 32.1076V62.9603L47.0009 64.7242L47.3333 64.2797V28.0925L47.0009 27.3013Z" fill="#282828"/>
<path d="M47.0009 27.3013V66.0116L56.7126 63.1417V32.1076L47.0009 27.3013Z" fill="#787A74"/>
<path d="M63.3896 58.138L63.5549 58.2482L67.0299 58.4385L69.8437 58.122L70 58.0028L66.4926 57.8695L63.3896 58.1362V58.138Z" fill="#B7B7B7"/>
<path d="M63.3896 64.5446L67.0317 65.0123L67.1287 64.8345V58.5398L67.0317 58.3371L63.3896 58.1362V64.5446Z" fill="#282828"/>
<path d="M30.6122 64.5446L26.9701 65.0123L26.909 64.8469V58.4456L26.9701 58.3371L30.6122 58.1362V64.5446Z" fill="#787A74"/>
<path d="M46.5966 64.2779L30.4775 61.4756L26.9701 61.8099L27.13 61.9681L42.4424 65.0372L42.6167 64.9465L46.5966 64.2797V64.2779Z" fill="#B7B7B7"/>
<path d="M24.0018 61.2088V70.8873L40.1209 78.8872V78.8979L47.0009 82.3013L47.2884 81.7678V60.6345L47.0009 59.9677L40.1209 59.3009V64.438L26.9683 61.8045V58.3407L24 58.0064V61.2106L24.0018 61.2088Z" fill="#282828"/>
<path d="M47.0009 64.3455L50.9125 65.0123L51.4156 65.0336L66.7406 61.9877L67.0317 61.8081L63.5926 61.4738L47.0009 64.3437V64.3455Z" fill="#B7B7B7"/>
<path d="M67.0317 58.3389V61.8027L53.8791 64.4362V59.0733L46.9991 59.7401V82.2995L69.9982 70.8855V58.0028L67.0299 58.3371L67.0317 58.3389Z" fill="#787A74"/>
<path d="M53.8809 59.6067L47.0009 59.0733L40.1209 59.6067L47.0009 60.2735L53.8809 59.6067Z" fill="#B7B7B7"/>
</svg>
