<svg width="95" height="109" viewBox="0 0 95 109" fill="none" xmlns="http://www.w3.org/2000/svg">
<path d="M92.6048 80.75V28.25L47.3024 2L2 28.25V80.75L47.3024 107L92.6048 80.75Z" fill="#CBE858" stroke="#282828" stroke-width="3" stroke-linejoin="round"/>
<path d="M48.8301 35.3897V35.8897H49.3301H51.4762V38.0278V38.5278H51.9762H53.7404H54.2404V38.0278V35.8924H56.3865H56.8865V35.3924V33.6354V33.1354H56.3865H54.2404V31V30.5H53.7404H51.9762H51.4762V31V33.1327H49.3301H48.8301V33.6327V35.3897ZM59.4093 45.0502V45.5502H59.9093H62.0554V47.6857V48.1857H62.5554H64.3196H64.8196V47.6857V45.5502H66.9657H67.4657V45.0502V43.2933V42.7933H66.9657H64.8196V40.6578V40.1578H64.3196H62.5554H62.0554V40.6578V42.7933H59.9093H59.4093V43.2933V45.0502ZM24.2641 62.3914V56.2825C25.5641 57.0562 27.2325 57.6492 29.0608 58.0685C31.2999 58.582 33.8197 58.8444 36.2833 58.8444C41.0476 58.8444 45.2596 57.9612 47.9508 56.4748V58.2193V58.7193H48.4508H50.2149H50.7149V58.2193V41.9742C50.7149 40.8656 50.1665 39.9198 49.3067 39.1465C48.4526 38.3783 47.2646 37.7532 45.8956 37.2593C43.1546 36.2706 39.567 35.7654 36.1074 35.7654C32.65 35.7654 29.2168 36.232 26.5609 37.1453C25.2336 37.6018 24.077 38.1778 23.2073 38.8818C22.4589 39.4877 21.9027 40.206 21.6569 41.039H21.5V41.539V70.9858C21.5 72.1384 22.0378 73.1304 22.8971 73.9493C23.7502 74.7622 24.9382 75.4249 26.3088 75.9486C29.0517 76.9967 32.6411 77.5318 36.1019 77.5318C39.5628 77.5318 43.1542 76.9967 45.8991 75.9486C47.2706 75.425 48.4597 74.7623 49.3136 73.9494C50.1736 73.1306 50.7121 72.1386 50.7121 70.9858V67.8853V67.3853H50.2121H48.448H47.948V67.8853V70.9858V71.0427C47.9228 71.3204 47.7209 71.6912 47.1979 72.1204C46.6499 72.5701 45.824 73.0193 44.7524 73.4177C42.6138 74.2128 39.5872 74.7721 36.1019 74.7721C32.6167 74.7721 29.5929 74.2128 27.4572 73.4178C26.387 73.0194 25.5625 72.5703 25.0156 72.1206C24.4553 71.6601 24.2641 71.2667 24.2641 70.983V66.3067C25.5689 67.0823 27.2447 67.6768 29.0816 68.0973C31.3296 68.6118 33.8596 68.8748 36.3328 68.8748C39.7704 68.8748 43.1075 68.391 45.734 67.5021L46.2084 67.3416L46.0471 66.8675L45.4811 65.2031L45.3203 64.7303L44.8473 64.8905C42.526 65.6766 39.4994 66.1151 36.3328 66.1151C32.7826 66.1151 29.6992 65.5642 27.52 64.7803C26.4279 64.3875 25.5859 63.9445 25.0273 63.5008C24.453 63.0447 24.2641 62.6601 24.2641 62.3914ZM66.5436 63.0228C62.9388 64.7662 59.7132 67.978 57.9638 71.57C56.2147 67.9778 52.9905 64.7658 49.3837 63.0223C52.9905 61.2789 56.2146 58.0669 57.9638 54.4748C59.7128 58.067 62.9367 61.2808 66.5436 63.0228ZM72.1179 61.6439C69.1932 61.6439 65.9947 59.9723 63.509 57.4968C61.0231 55.021 59.3459 51.8365 59.3459 48.9259C59.3459 48.1648 58.7283 47.5474 57.9638 47.5474C57.1993 47.5474 56.5817 48.1648 56.5817 48.9259C56.5817 51.8365 54.9044 55.021 52.4186 57.4968C49.9329 59.9723 46.7344 61.6439 43.8096 61.6439C43.0489 61.6439 42.4276 62.2603 42.4276 63.0223C42.4276 63.7844 43.0489 64.4008 43.8096 64.4008C46.7344 64.4008 49.9329 66.0723 52.4185 68.5482C54.9044 71.0243 56.5817 74.2095 56.5817 77.1215C56.5817 77.8826 57.1993 78.5 57.9638 78.5C58.7283 78.5 59.3459 77.8826 59.3459 77.1215C59.3459 74.2095 61.0232 71.0243 63.509 68.5482C65.9947 66.0723 69.1932 64.4008 72.1179 64.4008C72.8776 64.4008 73.5 63.7881 73.5 63.0223C73.5 62.2565 72.8776 61.6439 72.1179 61.6439ZM24.2641 52.3691V45.7548C25.5492 46.4887 27.1942 47.0512 28.9953 47.4491C31.2014 47.9365 33.6821 48.1857 36.1074 48.1857C38.5327 48.1857 41.0134 47.9365 43.2196 47.4491C45.0207 47.0512 46.6657 46.4887 47.9508 45.7548V53.0755C47.6802 53.3842 47.2494 53.7169 46.6486 54.0468C45.9728 54.4179 45.1096 54.7702 44.0827 55.0749C42.0292 55.6841 39.3532 56.0928 36.2833 56.0928C32.7471 56.0928 29.6763 55.542 27.5061 54.7583C26.4186 54.3656 25.5803 53.9226 25.0242 53.4791C24.4527 53.0234 24.2641 52.6387 24.2641 52.3691ZM36.1074 38.5251C39.885 38.5251 42.9106 39.0939 44.9746 39.8513C46.0089 40.2309 46.7815 40.6504 47.2851 41.0534C47.8095 41.473 47.9508 41.7977 47.9508 41.9769C47.9508 42.1561 47.8095 42.4808 47.2851 42.9004C46.7815 43.3034 46.0089 43.7229 44.9746 44.1025C42.9106 44.8599 39.885 45.4287 36.1074 45.4287C32.3299 45.4287 29.3043 44.8599 27.2403 44.1025C26.2059 43.7229 25.4334 43.3034 24.9297 42.9004C24.4053 42.4808 24.2641 42.1561 24.2641 41.9769C24.2641 41.7977 24.4053 41.473 24.9297 41.0534C25.4334 40.6504 26.2059 40.2309 27.2403 39.8513C29.3043 39.0939 32.3299 38.5251 36.1074 38.5251Z" fill="#282828" stroke="#282828"/>
</svg>
