<svg width="95" height="109" viewBox="0 0 95 109" fill="none" xmlns="http://www.w3.org/2000/svg">
<path d="M92.6048 81.0513V28.5513L47.3024 2.30127L2 28.5513V81.0513L47.3024 107.301L92.6048 81.0513Z" fill="#CBE858" stroke="#282828" stroke-width="3" stroke-linejoin="round"/>
<path d="M47.0467 54.8377V28.3719L68.93 39.3292L69 54.8355H66.1282L66.1983 44.5851L53.5629 40.9334V54.7434L47.0467 54.8377Z" fill="#282828"/>
<path d="M47.0467 28.3013V54.8141H35.4152V34.2404L47.0467 28.3013ZM25.07 54.7906V39.235L31.3294 36.2194V54.7906H25" fill="#5B5A5A"/>
<path d="M31.3294 36.2194V54.7906L35.4174 54.8141V37.2795L31.3294 36.2194Z" fill="#282828"/>
<path d="M58.1878 45.7159V54.8591H66.1749L66.1983 44.5851L58.1878 45.7159Z" fill="#5B5A5A"/>
<path d="M53.5629 40.9334L66.1983 44.5851L58.2112 45.7159L53.5629 44.7029V40.9334Z" fill="#534C4C"/>
<path d="M25.1868 59.4318L31.3294 60.5155V73.4774L25.07 70.2733L25.1868 59.4318ZM35.3452 61.1045V75.48L46.9767 81.3013V62.85L35.3452 61.1045Z" fill="#5B5A5A"/>
<path d="M68.8132 59.4318V70.389L46.9767 81.2991V62.8479L68.8132 59.4318Z" fill="#282828"/>
<path d="M53.8664 58.6307V59.6909L35.3452 61.128V72.4408L31.3273 73.4774L31.3039 60.2799L53.8664 58.6307Z" fill="#282828"/>
<path d="M25.1868 59.4318L48.8912 58.136L53.843 58.6072L31.2593 60.5862L25.1868 59.4318ZM35.3452 61.1045L57.4619 58.8663L68.6965 59.4553L46.9767 62.8479L35.3452 61.1045Z" fill="#777777"/>
</svg>
