<svg width="95" height="109" viewBox="0 0 95 109" fill="none" xmlns="http://www.w3.org/2000/svg">
<path d="M92.6048 81.0513V28.5513L47.3024 2.30127L2 28.5513V81.0513L47.3024 107.301L92.6048 81.0513Z" fill="#CBE858" stroke="#282828" stroke-width="3" stroke-linejoin="round"/>
<path d="M22 71.4829L27.9709 78.5443L28.5077 77.9008V32.7347L27.9709 32.0522L22 39.111V71.4829Z" fill="#282828"/>
<path d="M27.9718 78.5441L39.3812 84.3003L39.8559 83.5297L39.8637 26.9043L39.3893 26.3013L27.9721 32.0389V78.5438" fill="#303030"/>
<path d="M73 39.111L67.0275 32.0522L66.3594 32.2658L66.492 77.968L67.0272 78.5443L72.9998 71.4838V39.111" fill="#4E4F4F"/>
<path d="M55.6183 84.3003L67.0277 78.5441V32.0392L55.6103 26.3015L55.0704 27.0387L55.0783 83.4628L55.6183 84.3006" fill="#434444"/>
<path d="M39.389 26.3015H55.6103V84.3013H39.389V26.3015Z" fill="#3A3A3A"/>
</svg>
