<svg width="95" height="109" viewBox="0 0 95 109" fill="none" xmlns="http://www.w3.org/2000/svg">
<path d="M92.6048 80.75V28.25L47.3024 2L2 28.25V80.75L47.3024 107L92.6048 80.75Z" fill="#CBE858" stroke="#282828" stroke-width="3" stroke-linejoin="round"/>
<path fill-rule="evenodd" clip-rule="evenodd" d="M25.4069 71.9425L23 70.822V39.178L25.4069 38.0575L34.9451 55L25.4069 71.9425Z" fill="#7C7C7C"/>
<path fill-rule="evenodd" clip-rule="evenodd" d="M31.016 39.286L25.4069 38.0575V71.9425L31.016 70.7478V39.2792V39.286Z" fill="#282828"/>
<path fill-rule="evenodd" clip-rule="evenodd" d="M28.0606 73.1845L31.016 74.5548L38.0171 55L31.016 35.4452L28.0606 36.8155V73.1845Z" fill="#7C7C7C"/>
<path fill-rule="evenodd" clip-rule="evenodd" d="M38.0171 37.288L31.0229 35.4452V74.5548L38.0171 72.7053V37.288Z" fill="#282828"/>
<path fill-rule="evenodd" clip-rule="evenodd" d="M34.3143 76.0938L38.0171 77.8217L61.1394 55L38.0171 32.185L34.3143 33.9063V76.1005V76.0938Z" fill="#7C7C7C"/>
<path fill-rule="evenodd" clip-rule="evenodd" d="M63.0183 40.8047L38.0171 32.185V77.8217L63.0183 69.31V40.8047Z" fill="#282828"/>
<path fill-rule="evenodd" clip-rule="evenodd" d="M59.7749 59.2593L55.1051 58.9758L42.2 59.995L46.9931 82L59.7817 59.2593H59.7749Z" fill="#686867"/>
<path fill-rule="evenodd" clip-rule="evenodd" d="M47 60.4473V82L42.2137 79.7725V59.995L47 60.4473Z" fill="#7C7C7C"/>
<path fill-rule="evenodd" clip-rule="evenodd" d="M59.7749 59.2593V76.0465L47 82V60.4473L59.7886 59.2593H59.7817H59.7749Z" fill="#282828"/>
<path fill-rule="evenodd" clip-rule="evenodd" d="M59.7749 50.8893L55.352 51.1525L42.2 50.113L47 28L59.7886 50.8893H59.7749Z" fill="#A3A2A2"/>
<path fill-rule="evenodd" clip-rule="evenodd" d="M42.2069 50.113V30.2208L47 28V49.708L42.2137 50.113H42.2069Z" fill="#7C7C7C"/>
<path fill-rule="evenodd" clip-rule="evenodd" d="M47 49.708V28L59.7886 33.9535V50.8825L47 49.7013V49.708Z" fill="#282828"/>
<path fill-rule="evenodd" clip-rule="evenodd" d="M71 51.922L68.2571 52.03L61.1394 51.4428L64.1429 35.9853C64.1429 35.9853 71 51.9152 71 51.922Z" fill="#A3A2A2"/>
<path fill-rule="evenodd" clip-rule="evenodd" d="M64.1429 51.2942V35.992L71 39.1847V51.922L64.1429 51.2942Z" fill="#282828"/>
<path fill-rule="evenodd" clip-rule="evenodd" d="M71 58.2063L68.2571 58.105L61.1394 58.699L64.1429 74.0147L71 58.213V58.2063Z" fill="#686867"/>
<path fill-rule="evenodd" clip-rule="evenodd" d="M71 58.2063V70.8153L64.1429 74.008V58.8475L71 58.2063Z" fill="#282828"/>
<path fill-rule="evenodd" clip-rule="evenodd" d="M61.1394 36.7278L64.1429 35.9853V51.2808L61.1326 51.4292V36.7278H61.1394ZM61.1394 73.2655L64.1429 74.008V58.8475L61.1326 58.6923V73.2655H61.1394Z" fill="#7C7C7C"/>
</svg>
