<svg width="95" height="109" viewBox="0 0 95 109" fill="none" xmlns="http://www.w3.org/2000/svg">
<path d="M92.6048 81.0513V28.5513L47.3024 2.30127L2 28.5513V81.0513L47.3024 107.301L92.6048 81.0513Z" fill="#CBE858" stroke="#282828" stroke-width="3" stroke-linejoin="round"/>
<path d="M22 72.6777L25.2517 74.2872L25.7853 73.3493V36.0043L25.2517 35.315L22 36.9249V72.6777Z" fill="#646464"/>
<path d="M31.4983 36.84L25.2517 35.315V74.2872L31.4983 72.8469V36.84Z" fill="#282828"/>
<path d="M50.6662 39.8053L55.1157 37.518L69.9195 43.1943L65.9833 43.7025L50.6662 39.8053Z" fill="#353535"/>
<path d="M50.8371 69.7972L55.2012 72.0845L70.0048 66.4083L66.0686 65.8998L50.8371 69.7972Z" fill="#353535"/>
<path d="M51.9498 63.5276L59.7367 64.5443L60.1838 63.7499V45.9979L59.7367 45.058L51.9498 46.0745V63.5271M29.1024 33.3667L33.8943 30.9945L34.4177 31.9939V77.5571L33.8943 78.6083L29.1024 76.2361V33.3667Z" fill="#646464"/>
<path d="M43.6493 75.3888L33.8943 78.5234V30.9943L43.6493 34.1291V75.3886" fill="#282828"/>
<path d="M39.8843 81.4887L47.5 85.3013L48.2969 84.3948V25.419L47.5 24.3013L39.8843 28.1138V81.4887ZM65.8119 43.7025L69.7483 43.1943L70.0865 43.6805V65.9196L69.7483 66.4929L65.8119 65.9847V43.7027" fill="#646464"/>
<path d="M59.7364 45.0582V64.6289L67.8655 54.8014L59.7364 45.0585" fill="#282828"/>
<path d="M69.7483 35.315L47.5 24.3013V85.3013L73 72.6777V36.9249L69.7483 35.3153V35.315ZM69.7483 66.5223L55.1157 70.8489V38.7534L69.7483 43.08V66.5225V66.5223Z" fill="#282828"/>
</svg>
