<svg width="95" height="109" viewBox="0 0 95 109" fill="none" xmlns="http://www.w3.org/2000/svg">
<path d="M92.6048 81.0513V28.5513L47.3024 2.30127L2 28.5513V81.0513L47.3024 107.301L92.6048 81.0513Z" fill="#CBE858" stroke="#282828" stroke-width="3" stroke-linejoin="round"/>
<path d="M71 65.4651L47.0152 61.9584L23 65.4651L47 74.3125L71 65.4651Z" fill="#BABAB9"/>
<path d="M27.8063 65.0504L31.8534 66.3086L32.2248 65.8939V37.6811L31.8534 37.1929L27.8063 38.7319V65.0504Z" fill="#282828"/>
<path d="M46.2114 63.8084L31.8534 66.3086V37.1929L46.2114 40.4027V63.8084Z" fill="#777776"/>
<path d="M39.8139 68.7343L34.219 67.0182V31.0823L39.8139 28.3013L40.3049 28.8337V68.1425L39.8139 68.7343Z" fill="#282828"/>
<path d="M58.9924 64.2664L39.8139 68.7343V28.3013L58.9924 35.7284V64.2664Z" fill="#777776"/>
<path d="M47 73.928L23 65.4651V70.377L47 82.3013V73.928Z" fill="#282828"/>
<path d="M71 70.3619L47 82.3013V73.928L71 65.4651V70.3619Z" fill="#777776"/>
<path d="M64.2592 57.3284H58.4417L41.8516 58.4527L47 59.3999L64.2592 57.3284Z" fill="#BABAB9"/>
<path d="M41.8516 69.297L47 70.836L47.1488 70.6729V59.1482L47 59.0003L41.8516 58.4527V69.297Z" fill="#282828"/>
<path d="M64.2592 57.3284L47 59.0003V70.836L64.2592 65.6725V57.3284Z" fill="#777776"/>
</svg>
