<svg width="95" height="109" viewBox="0 0 95 109" fill="none" xmlns="http://www.w3.org/2000/svg">
<path d="M92.6048 81.0513V28.5513L47.3024 2.30127L2 28.5513V81.0513L47.3024 107.301L92.6048 81.0513Z" fill="#CBE858" stroke="#282828" stroke-width="3" stroke-linejoin="round"/>
<path d="M34.5422 45.5817L32 46.3798L34.6348 46.6739L34.5422 45.5817ZM34.4164 50.3585L47.5 51.1611L60.5836 50.3585L47.5 47.9074L34.4164 50.3585ZM60.3961 46.6716L63 46.3775L60.3961 45.7117V46.6716Z" fill="#5D5E5B"/>
<path d="M51.0581 67.3543L57.9132 68.9116L51.0415 70.9021L51.0581 67.3543Z" fill="#5D5E5D"/>
<path d="M34.4164 37.0291V32.5852L47.5 26.3013L47.5593 26.3492L47.5285 31.9901L47.5 32.0015L47.4502 32.1315L40.2936 34.9063L40.2271 44.6811L44.0368 44.0655L47.5 43.3997V83.3013L43.5811 81.4202V76.0962L40.1488 74.7783V49.8067L34.4188 50.3585V45.9146L32.0024 46.3798V37.9571L34.4164 37.0291Z" fill="#282828"/>
<path d="M44.0368 44.0677L40.1464 44.8133V34.8265L44.0368 35.9917V44.0677ZM60.5812 32.5852V37.0291L63 37.9571V46.3798L60.5812 45.9146V50.3585L54.8512 49.809V54.8001H60.5836V59.3694L57.9204 59.5997V64.2078L51.4189 65.4482V70.7722L57.9061 68.923L57.9204 73.62L51.4189 76.0962V81.4202L47.5 83.3013V43.3997L50.9608 44.0632L54.6637 44.5329V34.9063L47.5997 32.2888L47.5 32.0015V26.3013L60.5812 32.5852Z" fill="#666666"/>
<path d="M51.4189 33.5064L47.5 32.0015L40.1464 34.8265L44.0368 35.9917L51.4189 33.5064Z" fill="#3C4929"/>
<path d="M40.1464 34.8265L47.5 32.0015L54.8512 34.8243L54.6685 35.0044L51.1721 36.0509L50.9608 35.9894L47.5 34.8265L44.0368 35.9917L40.1464 34.8265Z" fill="#5D5E5B"/>
<path d="M50.9608 35.9917L54.8512 34.8288V44.8156L50.9608 44.0655V35.9917Z" fill="#282828"/>
</svg>
