<svg width="1113" height="629" viewBox="0 0 1113 629" fill="none" xmlns="http://www.w3.org/2000/svg">
<g opacity="0.23">
<path d="M280.698 160.356L228.574 133.003L213.674 89.8445L249.34 75.2527L298.658 101.521L315.036 143.446L280.693 160.361L280.698 160.356ZM229.435 132.62L280.315 159.326L313.876 142.829L297.892 101.859L249.683 76.188L214.853 90.4664L229.43 132.615L229.435 132.62Z" fill="url(#paint0_linear_566_3257)"/>
<path d="M374.497 170.864L324.946 144.64L308.409 102.859L340.135 88.4467L387.144 113.675L404.905 154.297L374.497 170.868V170.864ZM325.707 144.262L374.08 169.869L403.801 153.705L386.462 114.014L340.513 89.3621L309.538 103.466L325.707 144.267V144.262Z" fill="url(#paint1_linear_566_3257)"/>
<path d="M357.886 241.395L305.155 213.967L288.096 167.973L322.284 150.804L372.149 177.152L390.617 221.728L357.891 241.4L357.886 241.395ZM305.976 213.519L357.453 240.295L389.438 221.111L371.413 177.55L322.672 151.804L289.295 168.6L305.976 213.515V213.519Z" fill="url(#paint2_linear_566_3257)"/>
<path d="M338.408 321.18L282.041 292.444L264.469 241.44L301.538 220.908L354.637 248.469L373.841 297.717L338.403 321.18H338.408ZM282.937 291.907L337.961 319.961L372.597 297.081L353.856 248.952L301.951 222.012L265.758 242.101L282.941 291.907H282.937Z" fill="url(#paint3_linear_566_3257)"/>
<path d="M450.487 248.907L400.393 222.614L381.776 178.201L412.034 161.391L459.531 186.689L479.302 229.773L450.492 248.902L450.487 248.907ZM401.114 222.176L450.019 247.847L478.183 229.191L458.879 187.092L412.452 162.371L382.91 178.813L401.114 222.181V222.176Z" fill="url(#paint4_linear_566_3257)"/>
<path d="M529.356 330.085L478.71 303.742L457.86 256.519L486.511 237.136L534.5 262.494L556.425 308.205L529.356 330.085ZM479.397 303.235L528.839 328.956L555.301 307.613L533.898 262.942L486.989 238.161L459.014 257.121L479.397 303.235Z" fill="url(#paint5_linear_566_3257)"/>
<path d="M521.386 413.9L467.392 386.373L445.502 334.065L476.292 311.125L527.281 337.593L550.401 388.045L521.386 413.9ZM468.133 385.771L520.839 412.646L549.202 387.423L526.635 338.12L476.795 312.255L446.735 334.697L468.133 385.776V385.771Z" fill="url(#paint6_linear_566_3257)"/>
<path d="M613.519 334.011L565.331 308.717L543.291 263.181L568.52 244.33L614.3 268.718L637.2 312.847L613.519 334.011ZM565.928 308.23L612.972 332.926L636.126 312.279L613.763 269.156L569.017 245.325L544.391 263.763L565.928 308.23Z" fill="url(#paint7_linear_566_3257)"/>
<path d="M611.101 414.616L559.888 388.233L536.64 337.995L563.555 315.836L612.052 341.244L636.275 389.771L611.096 414.616H611.101ZM560.53 387.656L610.524 413.417L635.141 389.179L611.484 341.757L564.082 316.926L537.809 338.597L560.53 387.656Z" fill="url(#paint8_linear_566_3257)"/>
<path d="M319.568 412.283L259.141 382.174L241.012 325.235L281.29 300.573L337.981 329.419L358.015 384.164L319.568 412.278V412.283ZM260.116 381.522L319.1 410.915L356.677 383.492L337.125 329.991L281.708 301.802L242.38 325.926L260.111 381.522H260.116Z" fill="url(#paint9_linear_566_3257)"/>
<path d="M294.24 517.083L228.992 485.451L210.41 421.218L254.668 391.378L315.583 421.646L336.433 483.098L294.25 517.083H294.24ZM230.067 484.655L293.752 515.54L334.986 482.392L314.643 422.333L255.096 392.751L211.888 421.945L230.072 484.66L230.067 484.655Z" fill="#BABABA"/>
<path d="M426.263 413.139L369.269 384.398L349.03 329.901L384.164 306.14L437.82 333.732L459.586 386.214L426.263 413.139ZM370.114 383.771L425.751 411.835L458.322 385.572L437.079 334.279L384.627 307.314L350.324 330.558L370.109 383.771H370.114Z" fill="url(#paint10_linear_566_3257)"/>
<path d="M391.472 628.315L391.094 628.136L325.259 596.709L303.28 527.466L345.234 493.023L406.985 523.307L431.094 589.341L391.472 628.32V628.315ZM326.279 595.793L390.905 626.653L429.636 588.629L406.109 524.088L345.742 494.491L304.782 528.187L326.279 595.793Z" fill="#BABABA"/>
<path d="M409.88 512.958L348.612 482.829L327.523 421.691L365.791 393.189L423.218 422.079L446.099 480.69L409.88 512.958ZM349.538 482.073L409.343 511.491L444.745 480.018L422.412 422.736L366.274 394.502L328.911 422.382L349.533 482.073H349.538Z" fill="#BABABA"/>
<path d="M515.361 509.197L457.646 480.436L434.571 422.124L467.695 394.85L521.988 422.477L546.475 478.491L515.361 509.197ZM458.442 479.72L514.779 507.799L545.197 477.849L521.292 423.109L468.223 396.109L435.89 422.785L458.452 479.725L458.442 479.72Z" fill="#BABABA"/>
<path d="M505.182 618.613L504.824 618.444L443.079 588.504L418.751 522.834L454.745 490.152L512.904 519.057L538.883 581.833L505.182 618.613ZM443.949 587.639L504.565 617.036L537.515 581.151L512.152 519.799L455.297 491.55L420.164 523.52L443.949 587.639Z" fill="#BABABA"/>
<path d="M611.146 505.784L556.6 478.272L531.963 422.522L560.674 396.373L612.156 422.845L637.902 476.491L611.146 505.784ZM557.286 477.591L610.534 504.451L636.693 475.874L611.554 423.447L561.236 397.577L533.207 423.153L557.286 477.591Z" fill="#BABABA"/>
<path d="M68.6458 136.605L10.5521 106.685L0 60.4968L45.288 45.6014L99.929 74.2229L112.63 119.008L68.6458 136.605ZM11.6566 106.287L68.3623 135.496L111.342 118.342L98.9589 74.5762L45.5467 46.6064L1.31839 61.1833L11.6566 106.287Z" fill="url(#paint11_linear_566_3257)"/>
<path d="M924.112 232.425L888.719 212.694L866.153 179.46L878.725 166.699L912.804 185.868L935.599 218.35L924.117 232.425H924.112ZM889.008 212.37L923.565 231.639L934.798 217.908L912.535 186.167L879.232 167.441L866.964 179.918L889.013 212.37H889.008Z" fill="#9D9D9C"/>
<path d="M147.759 224.355L88.8744 194.341L76.0189 144.819L119.859 126.924L175.197 155.645L190.137 203.53L147.759 224.355ZM89.9391 193.863L147.421 223.166L188.833 202.858L174.261 156.063L120.168 127.993L77.3571 145.506L89.9391 193.863Z" fill="url(#paint12_linear_566_3257)"/>
<path d="M111.178 310.583L47.7357 278.991L35.1338 223.564L83.367 201.768L142.714 231.952L157.794 285.315L111.183 310.588L111.178 310.583ZM48.9147 278.404L110.839 309.25L156.391 284.603L141.685 232.455L83.6705 202.957L36.5716 224.286L48.9147 278.404Z" fill="url(#paint13_linear_566_3257)"/>
<path d="M257.335 233.241L201.689 204.579L186.525 156.884L225.206 139.351L277.673 166.834L294.548 213.007L257.34 233.241H257.335ZM202.624 204.117L256.942 232.101L293.31 212.37L276.842 167.252L225.559 140.391L187.789 157.545L202.624 204.122V204.117Z" fill="url(#paint14_linear_566_3257)"/>
<path d="M230.007 316.125L170.301 286.031L154.958 232.907L197.201 211.758L253.26 240.574L270.613 291.797L230.012 316.13L230.007 316.125ZM171.326 285.469L229.604 314.852L269.285 291.121L252.355 241.062L197.555 212.903L156.311 233.599L171.326 285.474V285.469Z" fill="url(#paint15_linear_566_3257)"/>
<path d="M202.36 411.348L138.083 379.741L122.58 320.13L168.843 294.498L228.912 324.717L246.788 381.93L202.36 411.348ZM139.212 379.06L201.948 409.92L245.37 381.229L227.932 325.314L169.207 295.782L124.033 320.856L139.207 379.06H139.212Z" fill="url(#paint16_linear_566_3257)"/>
<path d="M608.216 609.823L549.769 581.077L523.615 518.63L554.53 487.541L609.474 515.187L636.907 575.012L608.226 609.827L608.216 609.823ZM550.505 580.261L607.559 608.33L635.603 574.365L608.818 515.898L555.112 488.884L524.938 519.291L550.505 580.261Z" fill="#BABABA"/>
<path d="M812.75 219.952L774.612 198.923L752.771 163.893L768.671 150.714L805.288 171.107L827.496 205.306L812.75 219.952ZM774.985 198.584L812.223 219.122L826.641 204.828L804.949 171.411L769.164 151.486L753.642 164.376L774.98 198.584H774.985Z" fill="#9D9D9C"/>
<path d="M819.775 278.852L779.741 257.041L756.721 219.141L773.298 204.017L811.656 225.141L835.078 262.066L819.78 278.852H819.775ZM780.129 256.658L819.213 277.952L834.173 261.574L811.298 225.495L773.811 204.853L757.632 219.649L780.124 256.663L780.129 256.658Z" fill="#9D9D9C"/>
<path d="M892.754 347.035L852.426 325.21L827.591 285.35L842.72 268.39L881.346 289.539L906.51 328.314L892.754 347.035ZM852.78 324.777L892.152 346.09L905.605 327.822L881.028 289.932L843.277 269.265L828.516 285.852L852.78 324.777Z" fill="#BCBCBC"/>
<path d="M755.522 273.643L713.792 251.061L691.329 212.007L710.055 196.56L749.965 218.41L772.93 256.43L755.522 273.643ZM714.229 250.663L754.975 272.713L771.995 255.917L749.562 218.763L710.553 197.41L692.274 212.52L714.224 250.658L714.229 250.663Z" fill="#9D9D9C"/>
<path d="M762.313 340.951L718.369 317.509L694.623 274.982L714.224 257.116L756.154 279.778L780.452 321.076L762.313 340.951ZM718.831 317.046L761.736 339.936L779.472 320.543L755.741 280.186L714.757 258.042L695.623 275.514L718.826 317.046H718.831Z" fill="#BCBCBC"/>
<path d="M840.929 416.452L796.626 393L770.771 348.095L788.711 328.005L830.974 350.692L857.292 394.224L840.934 416.457L840.929 416.452ZM797.044 392.482L840.297 415.382L856.297 393.691L830.591 351.154L789.288 328.986L771.781 348.632L797.044 392.482Z" fill="#BCBCBC"/>
<path d="M689.936 337.572L643.942 313.229L620.967 269.235L643.235 250.882L687.031 274.384L710.702 317.065L689.936 337.572ZM644.469 312.757L689.369 336.523L709.672 316.513L686.553 274.807L643.748 251.842L622.012 269.792L644.464 312.757H644.469Z" fill="#70706E"/>
<path d="M770.209 415.89L723.811 391.537L698.628 344.985L719.179 324.254L763.338 347.781L789.129 392.855L770.209 415.895V415.89ZM724.294 390.999L769.587 414.78L788.089 392.303L762.9 348.254L719.742 325.264L699.682 345.542L724.294 390.999Z" fill="#BCBCBC"/>
<path d="M966.35 417.457L925.684 395.597L898.943 353.622L912.575 334.702L951.515 355.891L978.514 396.662L966.35 417.457ZM925.998 395.114L965.703 416.457L977.599 396.169L951.226 356.329L913.167 335.623L899.864 354.125L925.993 395.114H925.998Z" fill="#BCBCBC"/>
<path d="M1044.33 490.342L1003.37 468.486L974.594 424.318L986.564 403.333L1025.77 424.527L1054.72 467.362L1044.33 490.342ZM1003.65 467.954L1043.64 489.297L1053.8 466.875L1025.52 425.014L987.206 404.303L975.529 424.825L1003.65 467.954Z" fill="#BCBCBC"/>
<path d="M1095.84 414.382L1054.88 392.527L1026.1 348.358L1038.07 327.374L1077.28 348.567L1106.23 391.403L1095.84 414.382ZM1055.16 391.995L1095.14 413.338L1105.31 390.915L1077.03 349.055L1038.71 328.344L1027.04 348.866L1055.16 391.995Z" fill="#BCBCBC"/>
<path d="M905.008 416.965L862.571 394.328L836.218 350.921L851.904 331.428L892.461 353.348L919.167 395.472L905.008 416.969V416.965ZM862.939 393.826L904.371 415.93L918.222 394.955L892.137 353.791L852.501 332.369L837.193 351.433L862.944 393.826H862.939Z" fill="#BCBCBC"/>
<path d="M1067.01 570.669L1066.76 570.539L1023.93 548.047L993.156 499.789L1005.27 475.725L1046.41 497.65L1077.34 544.326L1067.01 570.664L1067.01 570.669ZM1024.21 547.435L1066.26 569.524L1076.38 543.818L1046.17 498.207L1005.95 476.779L994.146 500.311L1024.21 547.435H1024.21Z" fill="#BCBCBC"/>
<path d="M1102.67 490.168L1102.42 490.038L1059.58 467.546L1028.81 419.288L1040.92 395.224L1082.07 417.149L1113 463.825L1102.66 490.163L1102.67 490.168ZM1059.86 466.934L1101.92 489.023L1112.04 463.317L1081.83 417.706L1041.61 396.279L1029.8 419.811L1059.87 466.934H1059.86Z" fill="#BCBCBC"/>
<path d="M984.728 492.466L941.973 469.829L913.475 424.069L927.43 402.362L968.281 424.292L997.036 468.625L984.723 492.466H984.728ZM942.291 469.277L984.032 491.381L996.081 468.118L967.992 424.795L928.067 403.367L914.451 424.591L942.291 469.277Z" fill="#BCBCBC"/>
<path d="M920.371 494.759L875.645 471.282L847.561 423.8L863.779 401.323L906.421 424.039L934.878 469.984L920.371 494.759ZM876.023 470.705L919.684 493.63L933.878 469.456L906.082 424.556L864.406 402.358L848.581 424.337L876.023 470.7V470.705Z" fill="#BCBCBC"/>
<path d="M1004.89 575.968L959.808 552.51L929.326 502.347L943.609 477.337L986.579 500.048L1017.32 548.505L1004.89 575.968ZM960.136 551.873L1004.15 574.779L1016.31 547.983L986.28 500.63L944.286 478.436L930.356 502.894L960.136 551.878V551.873Z" fill="#BCBCBC"/>
<path d="M851.317 497.222L804.452 472.844L776.925 423.517L795.701 400.214L840.282 423.775L868.317 471.446L851.317 497.222ZM804.89 472.242L850.64 496.048L867.272 470.899L839.894 424.313L796.318 401.288L777.995 424.079L804.89 472.247V472.242Z" fill="#BCBCBC"/>
<path d="M936.341 288.305L899.331 267.897L875.526 232.116L888.461 217.604L924.032 237.41L948.077 272.32L936.341 288.305ZM899.635 267.529L935.769 287.454L947.246 271.857L923.759 237.743L888.998 218.39L876.376 232.579L899.635 267.524V267.529Z" fill="#9D9D9C"/>
<path d="M879.924 283.733L841.461 262.648L817.999 225.838L832.656 211.022L869.57 231.47L893.346 267.36L879.929 283.738L879.924 283.733ZM841.805 262.27L879.356 282.857L892.481 266.877L869.257 231.808L833.183 211.828L818.88 226.315L841.805 262.265V262.27Z" fill="#9D9D9C"/>
<path d="M951.475 349.771L912.749 328.672L887.55 290.021L900.804 273.484L937.963 293.951L963.405 331.582L951.475 349.776V349.771ZM913.052 328.249L950.863 348.856L962.529 331.105L937.679 294.334L901.366 274.334L888.436 290.508L913.052 328.254V328.249Z" fill="#BCBCBC"/>
<path d="M1009.47 352.184L970.43 331.055L943.405 290.424L955.211 272.046L992.658 292.548L1019.86 332.05L1009.47 352.184ZM970.698 330.588L1008.81 351.219L1018.98 331.573L992.41 292.971L955.813 272.937L944.296 290.906L970.698 330.583V330.588Z" fill="#BCBCBC"/>
<path d="M937.858 581.689L937.584 581.55L890.595 557.336L860.541 505.108L877.302 479.078L922.246 502.635L952.694 553.013L937.858 581.694V581.689ZM890.983 556.664L937.122 580.445L951.634 552.46L921.898 503.227L877.968 480.208L861.615 505.665L890.978 556.659L890.983 556.664Z" fill="#BCBCBC"/>
<path d="M743.846 155.824L706 134.834L685.762 101.526L702.911 89.9391L739.254 110.282L759.915 142.844L743.841 155.814L743.846 155.824ZM706.404 134.54L743.353 155.033L759.069 142.381L738.891 110.561L703.374 90.6804L686.633 102.014L706.408 134.54H706.404Z" fill="#9D9D9C"/>
<path d="M681.344 147.023L641.991 125.321L622.325 91.1477L641.464 79.4464L679.195 100.461L699.379 133.859L681.344 147.028V147.023ZM642.444 125.018L680.867 146.212L698.493 133.366L678.782 100.735L641.907 80.2026L623.225 91.6502L642.444 125.023V125.018Z" fill="#9D9D9C"/>
<path d="M1023.64 417.915L984.604 396.786L957.579 356.154L969.385 337.777L1006.83 358.279L1034.03 397.781L1023.64 417.915ZM984.872 396.318L1022.99 416.95L1033.15 397.303L1006.58 358.702L969.987 338.667L958.47 356.637L984.872 396.313V396.318Z" fill="#BCBCBC"/>
<path d="M204.012 79.795L152.515 52.5366L139.685 12.1192L176.744 0L225.504 26.1688L239.872 65.5265L204.017 79.795H204.012ZM153.411 52.2132L203.679 78.8248L238.718 64.9146L224.699 26.4574L177.042 0.880585L140.859 12.7411L153.411 52.2132Z" fill="url(#paint17_linear_566_3257)"/>
<path d="M802.596 164.097L766.154 143.779L745.443 111.302L760.806 99.8394L795.855 119.556L816.91 151.326L802.596 164.097ZM766.512 143.486L802.094 163.326L816.089 150.869L795.527 119.824L761.273 100.561L746.279 111.77L766.512 143.486Z" fill="#9D9D9C"/>
<path d="M863.511 214.863L863.983 214.938L869.262 225.365L868.789 225.296L863.511 214.863Z" fill="#A5270E"/>
<path d="M856.327 200.659L856.794 200.734L861.988 210.997L861.516 210.918L856.327 200.659Z" fill="#A5270E"/>
<path d="M851.168 210.858L860.804 212.381L861.063 212.893L851.426 211.371L851.168 210.858Z" fill="#A5270E"/>
<path d="M864.431 212.958L873.849 214.45L874.113 214.957L864.69 213.47L864.431 212.958Z" fill="#A5270E"/>
<path d="M875.774 214.987C875.65 214.749 875.73 214.584 875.948 214.614C876.167 214.649 876.441 214.873 876.565 215.112C876.69 215.351 876.61 215.515 876.396 215.485C876.177 215.45 875.904 215.226 875.779 214.987H875.774Z" fill="#A5270E"/>
<path d="M848.615 210.689C848.496 210.445 848.581 210.276 848.81 210.311C849.038 210.346 849.322 210.574 849.441 210.818C849.566 211.062 849.476 211.231 849.247 211.196C849.018 211.161 848.735 210.933 848.615 210.689Z" fill="#A5270E"/>
<path d="M855.581 198.749C855.357 198.709 855.078 198.49 854.959 198.251C854.839 198.012 854.919 197.853 855.143 197.888C855.367 197.928 855.64 198.147 855.765 198.386C855.884 198.624 855.804 198.784 855.581 198.749Z" fill="#A5270E"/>
<path d="M870.506 228.231C870.282 228.196 869.998 227.972 869.874 227.729C869.75 227.485 869.829 227.311 870.053 227.341C870.277 227.375 870.555 227.599 870.68 227.843C870.804 228.087 870.725 228.261 870.501 228.231H870.506Z" fill="#A5270E"/>
<path d="M919.097 324.698L919.57 324.727L925.54 336.513L925.062 336.488L919.097 324.698Z" fill="#A5270E"/>
<path d="M910.978 308.663L911.456 308.698L917.321 320.28L916.843 320.245L910.978 308.663Z" fill="#A5270E"/>
<path d="M906.461 321.414L916.222 322.071L916.51 322.653L906.754 321.996L906.461 321.414Z" fill="#A5270E"/>
<path d="M919.893 322.319L929.42 322.961L929.714 323.533L920.187 322.897L919.893 322.319Z" fill="#A5270E"/>
<path d="M931.381 323.369C931.241 323.1 931.306 322.892 931.53 322.906C931.749 322.921 932.042 323.15 932.177 323.424C932.316 323.693 932.251 323.901 932.027 323.887C931.808 323.872 931.515 323.643 931.381 323.369Z" fill="#A5270E"/>
<path d="M903.893 321.523C903.754 321.245 903.829 321.036 904.062 321.051C904.291 321.066 904.595 321.304 904.729 321.578C904.868 321.857 904.794 322.066 904.56 322.051C904.331 322.036 904.028 321.797 903.893 321.523Z" fill="#A5270E"/>
<path d="M910.112 306.479C909.888 306.459 909.595 306.23 909.461 305.961C909.326 305.693 909.396 305.489 909.625 305.509C909.849 305.528 910.142 305.757 910.276 306.026C910.411 306.295 910.341 306.499 910.117 306.479H910.112Z" fill="#A5270E"/>
<path d="M926.968 339.782C926.744 339.772 926.445 339.533 926.306 339.255C926.167 338.976 926.236 338.762 926.46 338.772C926.684 338.782 926.983 339.021 927.122 339.294C927.261 339.573 927.192 339.787 926.968 339.777V339.782Z" fill="#A5270E"/>
<path d="M982.126 449.258L982.609 449.233L989.405 462.656L988.922 462.685L982.126 449.258Z" fill="#A5270E"/>
<path d="M972.893 431.009L973.375 430.994L980.042 444.168L979.564 444.193L972.893 431.009Z" fill="#A5270E"/>
<path d="M969.236 446.935L979.067 446.467L979.4 447.129L969.569 447.596L969.236 446.935Z" fill="#A5270E"/>
<path d="M982.763 446.293L992.345 445.84L992.673 446.492L983.096 446.949L982.763 446.293Z" fill="#A5270E"/>
<path d="M994.33 446.079C994.171 445.77 994.226 445.517 994.445 445.507C994.663 445.497 994.972 445.735 995.131 446.044C995.29 446.352 995.236 446.606 995.017 446.621C994.798 446.631 994.489 446.392 994.33 446.084V446.079Z" fill="#A5270E"/>
<path d="M966.664 447.397C966.505 447.084 966.569 446.82 966.803 446.805C967.037 446.795 967.35 447.039 967.51 447.357C967.669 447.671 967.604 447.939 967.375 447.949C967.141 447.959 966.828 447.715 966.669 447.397H966.664Z" fill="#A5270E"/>
<path d="M971.873 428.497C971.644 428.502 971.335 428.263 971.181 427.955C971.027 427.651 971.087 427.397 971.31 427.392C971.539 427.387 971.848 427.626 972.002 427.935C972.156 428.238 972.097 428.492 971.873 428.497Z" fill="#A5270E"/>
<path d="M991.061 466.407C990.833 466.422 990.519 466.178 990.36 465.86C990.201 465.541 990.255 465.273 990.479 465.258C990.708 465.243 991.022 465.487 991.181 465.805C991.34 466.123 991.285 466.392 991.061 466.407Z" fill="#A5270E"/>
<path d="M586.355 64.7259L587.012 64.8751L591.082 75.5765L590.425 75.4272L586.355 64.7259Z" fill="#A5270E"/>
<path d="M580.828 50.1739L581.475 50.3331L585.475 60.8355L584.823 60.6862L580.828 50.1739Z" fill="#A5270E"/>
<path d="M569.898 58.8205L583.291 61.9299L583.49 62.4572L570.097 59.3478L569.898 58.8205Z" fill="#A5270E"/>
<path d="M588.331 63.0988L601.39 66.1336L601.589 66.651L588.529 63.6212L588.331 63.0988Z" fill="#A5270E"/>
<path d="M603.972 66.9694C603.878 66.7256 604.042 66.5814 604.345 66.651C604.649 66.7207 604.967 66.9744 605.062 67.2231C605.156 67.4669 604.992 67.6112 604.688 67.5415C604.385 67.4719 604.067 67.2182 603.967 66.9694H603.972Z" fill="#A5270E"/>
<path d="M566.266 58.2184C566.172 57.9697 566.356 57.8254 566.674 57.9C566.992 57.9747 567.326 58.2383 567.415 58.4871C567.51 58.7358 567.326 58.8801 567.007 58.8055C566.689 58.7309 566.356 58.4672 566.266 58.2184Z" fill="#A5270E"/>
<path d="M580.405 48.2583C580.097 48.1837 579.773 47.9249 579.679 47.6812C579.584 47.4374 579.758 47.3031 580.067 47.3777C580.375 47.4523 580.699 47.711 580.793 47.9548C580.888 48.1986 580.714 48.3329 580.405 48.2633V48.2583Z" fill="#A5270E"/>
<path d="M591.903 78.4867C591.594 78.4171 591.261 78.1584 591.166 77.9047C591.072 77.6509 591.246 77.5017 591.554 77.5713C591.863 77.641 592.196 77.8997 592.291 78.1534C592.385 78.4071 592.211 78.5564 591.903 78.4867Z" fill="#A5270E"/>
<path d="M629.499 178.207L630.181 178.311L634.852 190.59L634.171 190.49L629.499 178.207Z" fill="#A5270E"/>
<path d="M623.161 161.53L623.838 161.64L628.419 173.679L627.738 173.575L623.161 161.53Z" fill="#A5270E"/>
<path d="M612.295 173.018L626.221 175.227L626.449 175.829L612.524 173.625L612.295 173.018Z" fill="#A5270E"/>
<path d="M631.454 176.053L645.011 178.202L645.24 178.794L631.683 176.655L631.454 176.053Z" fill="#A5270E"/>
<path d="M647.703 178.903C647.593 178.625 647.758 178.436 648.071 178.485C648.384 178.535 648.723 178.804 648.837 179.082C648.947 179.361 648.782 179.55 648.469 179.5C648.156 179.45 647.812 179.182 647.703 178.903Z" fill="#A5270E"/>
<path d="M608.524 172.709C608.42 172.421 608.599 172.232 608.932 172.281C609.26 172.336 609.614 172.61 609.723 172.898C609.828 173.187 609.649 173.376 609.32 173.326C608.992 173.276 608.634 172.998 608.529 172.709H608.524Z" fill="#A5270E"/>
<path d="M622.638 159.302C622.32 159.247 621.972 158.978 621.867 158.7C621.763 158.421 621.937 158.237 622.255 158.292C622.574 158.346 622.917 158.615 623.027 158.894C623.131 159.172 622.962 159.356 622.638 159.302Z" fill="#A5270E"/>
<path d="M635.827 193.963C635.504 193.918 635.151 193.644 635.041 193.351C634.932 193.062 635.106 192.863 635.424 192.913C635.748 192.963 636.096 193.231 636.21 193.525C636.32 193.813 636.151 194.013 635.827 193.963Z" fill="#A5270E"/>
<path d="M679.24 309.036L679.946 309.081L685.359 323.314L684.653 323.275L679.24 309.036Z" fill="#A5270E"/>
<path d="M671.897 289.723L672.598 289.777L677.901 303.718L677.2 303.668L671.897 289.723Z" fill="#A5270E"/>
<path d="M661.245 304.862L675.717 305.837L675.981 306.539L661.504 305.569L661.245 304.862Z" fill="#A5270E"/>
<path d="M681.15 306.205L695.205 307.156L695.473 307.842L681.414 306.902L681.15 306.205Z" fill="#A5270E"/>
<path d="M698.006 307.678C697.881 307.355 698.04 307.106 698.364 307.131C698.687 307.151 699.05 307.434 699.18 307.757C699.309 308.081 699.15 308.33 698.827 308.305C698.503 308.285 698.135 308.001 698.011 307.678H698.006Z" fill="#A5270E"/>
<path d="M657.334 304.942C657.21 304.608 657.389 304.355 657.733 304.379C658.076 304.404 658.454 304.693 658.578 305.026C658.703 305.36 658.524 305.613 658.18 305.588C657.837 305.564 657.459 305.275 657.334 304.942Z" fill="#A5270E"/>
<path d="M671.255 287.106C670.921 287.081 670.553 286.798 670.434 286.474C670.309 286.151 670.479 285.912 670.812 285.942C671.145 285.967 671.513 286.25 671.633 286.574C671.757 286.897 671.588 287.136 671.255 287.106Z" fill="#A5270E"/>
<path d="M686.528 327.265C686.195 327.245 685.817 326.961 685.687 326.623C685.558 326.285 685.727 326.026 686.06 326.046C686.394 326.066 686.772 326.349 686.896 326.688C687.026 327.026 686.857 327.284 686.523 327.265H686.528Z" fill="#A5270E"/>
<path d="M737.209 461.516L737.94 461.477L744.294 478.173L743.557 478.223L737.209 461.516Z" fill="#A5270E"/>
<path d="M728.607 438.895L729.339 438.87L735.547 455.188L734.816 455.223L728.607 438.895Z" fill="#A5270E"/>
<path d="M718.388 458.78L733.398 458.074L733.712 458.89L718.692 459.611L718.388 458.78Z" fill="#A5270E"/>
<path d="M739.03 457.805L753.577 457.119L753.89 457.925L739.338 458.621L739.03 457.805Z" fill="#A5270E"/>
<path d="M756.492 457.392C756.343 457.014 756.492 456.691 756.831 456.676C757.164 456.661 757.557 456.954 757.706 457.333C757.856 457.711 757.706 458.034 757.368 458.049C757.035 458.064 756.642 457.77 756.492 457.392Z" fill="#A5270E"/>
<path d="M714.344 459.392C714.199 458.999 714.369 458.666 714.727 458.651C715.085 458.636 715.488 458.94 715.637 459.333C715.781 459.726 715.612 460.059 715.254 460.074C714.896 460.089 714.488 459.785 714.344 459.392Z" fill="#A5270E"/>
<path d="M727.806 435.791C727.463 435.801 727.065 435.502 726.926 435.124C726.781 434.746 726.946 434.432 727.289 434.422C727.632 434.413 728.025 434.711 728.169 435.084C728.314 435.462 728.149 435.776 727.806 435.786V435.791Z" fill="#A5270E"/>
<path d="M745.711 482.854C745.363 482.879 744.96 482.576 744.811 482.183C744.662 481.79 744.821 481.446 745.169 481.427C745.517 481.402 745.92 481.705 746.07 482.098C746.219 482.491 746.06 482.835 745.711 482.854Z" fill="#A5270E"/>
<path d="M442.865 31.6118L443.656 31.7959L447.079 43.3281L446.283 43.149L442.865 31.6118Z" fill="#A5270E"/>
<path d="M438.223 15.9602L439.009 16.1492L442.362 27.4476L441.571 27.2635L438.223 15.9602Z" fill="#A5270E"/>
<path d="M423.268 24.771L439.477 28.5371L439.646 29.0993L423.432 25.3431L423.268 24.771Z" fill="#A5270E"/>
<path d="M445.566 29.95L461.332 33.6117L461.506 34.1689L445.735 30.5122L445.566 29.95Z" fill="#A5270E"/>
<path d="M464.417 34.5869C464.337 34.3232 464.561 34.1789 464.924 34.2635C465.287 34.3481 465.646 34.6316 465.73 34.8953C465.81 35.159 465.586 35.3033 465.223 35.2187C464.859 35.1341 464.496 34.8505 464.417 34.5869Z" fill="#A5270E"/>
<path d="M418.83 24.0098C418.756 23.7411 419.004 23.5919 419.387 23.6814C419.771 23.771 420.144 24.0595 420.223 24.3332C420.298 24.6018 420.049 24.7511 419.666 24.6615C419.283 24.572 418.905 24.2834 418.83 24.0098Z" fill="#A5270E"/>
<path d="M437.989 13.9107C437.616 13.8211 437.253 13.5375 437.178 13.2739C437.099 13.0102 437.337 12.8709 437.711 12.9654C438.084 13.0549 438.447 13.3385 438.522 13.6022C438.601 13.8659 438.362 14.0052 437.989 13.9156V13.9107Z" fill="#A5270E"/>
<path d="M447.651 46.4524C447.273 46.3678 446.904 46.0792 446.82 45.8056C446.74 45.532 446.979 45.3778 447.357 45.4623C447.735 45.5469 448.103 45.8355 448.183 46.1091C448.263 46.3827 448.024 46.5369 447.646 46.4524H447.651Z" fill="#A5270E"/>
<path d="M479.362 154.69L480.193 154.819L484.183 168.242L483.342 168.117L479.362 154.69Z" fill="#A5270E"/>
<path d="M473.964 136.491L474.79 136.63L478.69 149.764L477.859 149.63L473.964 136.491Z" fill="#A5270E"/>
<path d="M458.616 148.675L475.715 151.381L475.909 152.043L458.805 149.341L458.616 148.675Z" fill="#A5270E"/>
<path d="M482.128 152.401L498.725 155.028L498.924 155.68L482.327 153.058L482.128 152.401Z" fill="#A5270E"/>
<path d="M501.973 155.854C501.879 155.545 502.113 155.346 502.491 155.411C502.874 155.471 503.257 155.769 503.352 156.073C503.446 156.381 503.212 156.58 502.834 156.521C502.451 156.461 502.063 156.162 501.968 155.854H501.973Z" fill="#A5270E"/>
<path d="M453.934 148.252C453.845 147.939 454.103 147.735 454.511 147.799C454.919 147.864 455.317 148.172 455.407 148.486C455.496 148.799 455.238 149.003 454.835 148.939C454.427 148.874 454.029 148.565 453.939 148.252H453.934Z" fill="#A5270E"/>
<path d="M473.65 134.073C473.257 134.008 472.869 133.705 472.78 133.401C472.69 133.098 472.934 132.904 473.327 132.973C473.72 133.038 474.108 133.342 474.198 133.645C474.287 133.949 474.043 134.143 473.655 134.073H473.65Z" fill="#A5270E"/>
<path d="M484.889 171.923C484.491 171.864 484.093 171.56 483.999 171.242C483.904 170.923 484.148 170.714 484.546 170.774C484.944 170.834 485.342 171.137 485.436 171.456C485.531 171.774 485.287 171.983 484.889 171.923Z" fill="#A5270E"/>
<path d="M522.088 298.772L522.968 298.827L527.665 314.648L526.779 314.598L522.088 298.772Z" fill="#A5270E"/>
<path d="M515.734 277.355L516.61 277.424L521.197 292.872L520.321 292.812L515.734 277.355Z" fill="#A5270E"/>
<path d="M500.068 293.981L518.132 295.2L518.361 295.976L500.292 294.767L500.068 293.981Z" fill="#A5270E"/>
<path d="M524.903 295.658L542.396 296.837L542.63 297.603L525.137 296.429L524.903 295.658Z" fill="#A5270E"/>
<path d="M545.829 297.444C545.719 297.086 545.953 296.812 546.356 296.842C546.759 296.867 547.172 297.181 547.286 297.544C547.396 297.902 547.162 298.176 546.759 298.146C546.356 298.121 545.938 297.807 545.829 297.444Z" fill="#A5270E"/>
<path d="M495.128 294.036C495.023 293.663 495.287 293.389 495.715 293.414C496.143 293.444 496.575 293.768 496.685 294.141C496.789 294.514 496.526 294.787 496.098 294.763C495.67 294.733 495.232 294.409 495.128 294.036Z" fill="#A5270E"/>
<path d="M515.317 274.459C514.904 274.424 514.486 274.111 514.376 273.753C514.272 273.395 514.521 273.136 514.933 273.166C515.346 273.2 515.764 273.514 515.874 273.872C515.978 274.23 515.729 274.489 515.322 274.459H515.317Z" fill="#A5270E"/>
<path d="M528.55 319.041C528.132 319.021 527.699 318.697 527.59 318.324C527.481 317.951 527.729 317.663 528.147 317.687C528.565 317.707 528.993 318.031 529.107 318.404C529.217 318.777 528.968 319.066 528.55 319.041Z" fill="#A5270E"/>
<path d="M572.788 469.74L573.719 469.695L579.336 488.615L578.4 488.675L572.788 469.74Z" fill="#A5270E"/>
<path d="M565.206 444.168L566.127 444.138L571.604 462.581L570.674 462.621L565.206 444.168Z" fill="#A5270E"/>
<path d="M549.356 466.765L568.47 465.859L568.744 466.785L549.625 467.7L549.356 466.765Z" fill="#A5270E"/>
<path d="M575.624 465.521L594.072 464.651L594.35 465.561L575.898 466.447L575.624 465.521Z" fill="#A5270E"/>
<path d="M597.703 464.939C597.569 464.511 597.808 464.148 598.231 464.128C598.654 464.108 599.106 464.442 599.236 464.869C599.37 465.297 599.136 465.66 598.708 465.68C598.286 465.7 597.833 465.367 597.698 464.939H597.703Z" fill="#A5270E"/>
<path d="M544.137 467.486C544.013 467.038 544.276 466.66 544.734 466.64C545.192 466.621 545.659 466.964 545.789 467.407C545.913 467.849 545.649 468.233 545.192 468.252C544.734 468.272 544.266 467.929 544.137 467.486Z" fill="#A5270E"/>
<path d="M564.644 440.661C564.206 440.676 563.754 440.337 563.624 439.915C563.5 439.487 563.749 439.133 564.187 439.124C564.619 439.109 565.077 439.447 565.201 439.87C565.326 440.293 565.077 440.651 564.644 440.666V440.661Z" fill="#A5270E"/>
<path d="M580.455 493.934C580.012 493.964 579.545 493.625 579.41 493.173C579.276 492.725 579.53 492.337 579.972 492.307C580.415 492.277 580.883 492.615 581.012 493.068C581.146 493.516 580.893 493.904 580.455 493.934Z" fill="#A5270E"/>
<path d="M712.364 93.8L712.906 93.9244L717.388 103.865L716.841 103.74L712.364 93.8Z" fill="#A5270E"/>
<path d="M706.264 80.2729L706.806 80.4023L711.214 90.1733L710.672 90.044L706.264 80.2729Z" fill="#A5270E"/>
<path d="M698.433 88.6657L709.578 91.2527L709.797 91.7403L698.652 89.1582L698.433 88.6657Z" fill="#A5270E"/>
<path d="M713.772 92.2277L724.662 94.7551L724.881 95.2376L713.99 92.7153L713.772 92.2277Z" fill="#A5270E"/>
<path d="M726.846 95.4766C726.742 95.2478 726.861 95.1085 727.11 95.1682C727.363 95.2279 727.652 95.4567 727.757 95.6856C727.861 95.9144 727.742 96.0537 727.493 95.994C727.239 95.9343 726.951 95.7055 726.846 95.4766Z" fill="#A5270E"/>
<path d="M695.443 88.193C695.339 87.9592 695.473 87.8198 695.737 87.8845C696.001 87.9442 696.299 88.183 696.399 88.4169C696.503 88.6507 696.369 88.79 696.105 88.7253C695.841 88.6656 695.543 88.4268 695.443 88.193Z" fill="#A5270E"/>
<path d="M705.707 78.4817C705.448 78.422 705.16 78.1882 705.055 77.9593C704.951 77.7305 705.08 77.6011 705.334 77.6608C705.593 77.7205 705.881 77.9544 705.981 78.1832C706.085 78.4121 705.956 78.5414 705.702 78.4817H705.707Z" fill="#A5270E"/>
<path d="M718.373 106.566C718.115 106.506 717.821 106.272 717.712 106.039C717.607 105.805 717.732 105.661 717.99 105.72C718.249 105.78 718.543 106.014 718.647 106.248C718.752 106.481 718.627 106.626 718.369 106.566H718.373Z" fill="#A5270E"/>
<path d="M759.602 198.585L760.159 198.674L765.239 209.933L764.681 209.848L759.602 198.585Z" fill="#A5270E"/>
<path d="M752.696 183.267L753.254 183.361L758.244 194.421L757.681 194.331L752.696 183.267Z" fill="#A5270E"/>
<path d="M745.199 194.072L756.642 195.883L756.89 196.435L745.443 194.629L745.199 194.072Z" fill="#A5270E"/>
<path d="M760.945 196.565L772.109 198.331L772.358 198.878L761.194 197.117L760.945 196.565Z" fill="#A5270E"/>
<path d="M774.358 198.943C774.239 198.684 774.353 198.51 774.612 198.55C774.87 198.59 775.174 198.834 775.293 199.092C775.413 199.351 775.298 199.525 775.039 199.485C774.781 199.446 774.477 199.202 774.358 198.943Z" fill="#A5270E"/>
<path d="M742.134 193.843C742.02 193.58 742.144 193.401 742.413 193.445C742.682 193.49 743 193.739 743.115 194.003C743.229 194.266 743.105 194.445 742.836 194.401C742.567 194.356 742.249 194.107 742.134 193.843Z" fill="#A5270E"/>
<path d="M752.035 181.212C751.771 181.167 751.463 180.923 751.348 180.665C751.234 180.406 751.348 180.237 751.617 180.281C751.881 180.326 752.189 180.57 752.303 180.824C752.418 181.078 752.303 181.252 752.035 181.207V181.212Z" fill="#A5270E"/>
<path d="M766.383 213.028C766.119 212.988 765.806 212.744 765.686 212.475C765.567 212.212 765.686 212.028 765.95 212.062C766.214 212.102 766.527 212.346 766.646 212.615C766.766 212.878 766.646 213.062 766.383 213.028Z" fill="#A5270E"/>
<path d="M813.342 317.792L813.914 317.827L819.72 330.697L819.143 330.668L813.342 317.792Z" fill="#A5270E"/>
<path d="M805.457 300.305L806.029 300.35L811.72 312.971L811.148 312.937L805.457 300.305Z" fill="#A5270E"/>
<path d="M798.462 314.126L810.183 314.917L810.467 315.548L798.741 314.762L798.462 314.126Z" fill="#A5270E"/>
<path d="M814.586 315.21L826.004 315.981L826.292 316.608L814.87 315.842L814.586 315.21Z" fill="#A5270E"/>
<path d="M828.317 316.439C828.183 316.145 828.287 315.921 828.551 315.936C828.815 315.956 829.138 316.205 829.273 316.499C829.407 316.792 829.302 317.016 829.039 317.001C828.775 316.981 828.452 316.732 828.317 316.434V316.439Z" fill="#A5270E"/>
<path d="M795.333 314.225C795.198 313.922 795.318 313.693 795.596 313.713C795.875 313.733 796.208 313.991 796.343 314.295C796.477 314.598 796.358 314.827 796.084 314.807C795.805 314.787 795.472 314.529 795.338 314.225H795.333Z" fill="#A5270E"/>
<path d="M804.671 297.927C804.402 297.907 804.074 297.648 803.944 297.36C803.815 297.066 803.925 296.847 804.193 296.872C804.462 296.892 804.79 297.151 804.92 297.439C805.049 297.733 804.939 297.952 804.671 297.927Z" fill="#A5270E"/>
<path d="M821.059 334.27C820.785 334.255 820.457 333.996 820.317 333.692C820.178 333.389 820.288 333.155 820.561 333.17C820.835 333.185 821.163 333.444 821.302 333.747C821.442 334.051 821.332 334.284 821.059 334.27Z" fill="#A5270E"/>
<path d="M875.023 454.616L875.605 454.591L882.307 469.437L881.72 469.472L875.023 454.616Z" fill="#A5270E"/>
<path d="M865.939 434.462L866.521 434.442L873.083 448.989L872.501 449.019L865.939 434.462Z" fill="#A5270E"/>
<path d="M859.675 452.109L871.635 451.542L871.964 452.273L860.003 452.845L859.675 452.109Z" fill="#A5270E"/>
<path d="M876.128 451.333L887.754 450.78L888.083 451.502L876.456 452.054L876.128 451.333Z" fill="#A5270E"/>
<path d="M890.127 451.034C889.973 450.696 890.063 450.412 890.331 450.398C890.6 450.383 890.943 450.651 891.098 450.99C891.252 451.328 891.162 451.611 890.894 451.626C890.625 451.641 890.282 451.373 890.127 451.034Z" fill="#A5270E"/>
<path d="M856.506 452.636C856.352 452.288 856.456 451.994 856.74 451.98C857.023 451.965 857.377 452.238 857.531 452.586C857.685 452.935 857.581 453.228 857.297 453.243C857.013 453.258 856.655 452.984 856.501 452.636H856.506Z" fill="#A5270E"/>
<path d="M864.993 431.691C864.72 431.701 864.372 431.433 864.222 431.094C864.073 430.756 864.173 430.477 864.446 430.473C864.72 430.463 865.068 430.731 865.217 431.065C865.372 431.403 865.267 431.681 864.993 431.686V431.691Z" fill="#A5270E"/>
<path d="M883.889 473.596C883.61 473.616 883.262 473.347 883.103 472.994C882.943 472.641 883.038 472.342 883.317 472.327C883.595 472.308 883.943 472.581 884.103 472.929C884.262 473.283 884.167 473.581 883.889 473.596Z" fill="#A5270E"/>
</g>
<defs>
<linearGradient id="paint0_linear_566_3257" x1="517.577" y1="321.513" x2="12192.9" y2="-10260.3" gradientUnits="userSpaceOnUse">
<stop stop-color="#E9E8E7"/>
<stop offset="0.28" stop-color="#E9B29F"/>
<stop offset="0.53" stop-color="#E98766"/>
<stop offset="0.74" stop-color="#E9683D"/>
<stop offset="0.9" stop-color="#E95524"/>
<stop offset="1" stop-color="#E94E1B"/>
</linearGradient>
<linearGradient id="paint1_linear_566_3257" x1="-199.614" y1="610.389" x2="11874.8" y2="-10522" gradientUnits="userSpaceOnUse">
<stop stop-color="#3A5685"/>
<stop offset="0.02" stop-color="#395483"/>
<stop offset="0.45" stop-color="#21345A"/>
<stop offset="0.79" stop-color="#132041"/>
<stop offset="1" stop-color="#0E1938"/>
</linearGradient>
<linearGradient id="paint2_linear_566_3257" x1="301.492" y1="404.685" x2="11310.4" y2="-10096.4" gradientUnits="userSpaceOnUse">
<stop stop-color="#E9E8E7"/>
<stop offset="0.28" stop-color="#E9B29F"/>
<stop offset="0.53" stop-color="#E98766"/>
<stop offset="0.74" stop-color="#E9683D"/>
<stop offset="0.9" stop-color="#E95524"/>
<stop offset="1" stop-color="#E94E1B"/>
</linearGradient>
<linearGradient id="paint3_linear_566_3257" x1="809.487" y1="215.831" x2="10766.6" y2="-9637.93" gradientUnits="userSpaceOnUse">
<stop stop-color="#3A5685"/>
<stop offset="0.02" stop-color="#395483"/>
<stop offset="0.45" stop-color="#21345A"/>
<stop offset="0.79" stop-color="#132041"/>
<stop offset="1" stop-color="#0E1938"/>
</linearGradient>
<linearGradient id="paint4_linear_566_3257" x1="-420.071" y1="685.767" x2="10983.2" y2="-10359.8" gradientUnits="userSpaceOnUse">
<stop stop-color="#3A5685"/>
<stop offset="0.02" stop-color="#395483"/>
<stop offset="0.45" stop-color="#21345A"/>
<stop offset="0.79" stop-color="#132041"/>
<stop offset="1" stop-color="#0E1938"/>
</linearGradient>
<linearGradient id="paint5_linear_566_3257" x1="-642.58" y1="754.767" x2="10097.9" y2="-10178.1" gradientUnits="userSpaceOnUse">
<stop stop-color="#3A5685"/>
<stop offset="0.02" stop-color="#395483"/>
<stop offset="0.45" stop-color="#21345A"/>
<stop offset="0.79" stop-color="#132041"/>
<stop offset="1" stop-color="#0E1938"/>
</linearGradient>
<linearGradient id="paint6_linear_566_3257" x1="-126.807" y1="557.292" x2="9573.14" y2="-9701.07" gradientUnits="userSpaceOnUse">
<stop stop-color="#3A5685"/>
<stop offset="0.02" stop-color="#395483"/>
<stop offset="0.45" stop-color="#21345A"/>
<stop offset="0.79" stop-color="#132041"/>
<stop offset="1" stop-color="#0E1938"/>
</linearGradient>
<linearGradient id="paint7_linear_566_3257" x1="-1391.04" y1="1018.94" x2="9737.59" y2="-10452.6" gradientUnits="userSpaceOnUse">
<stop stop-color="#3A5685"/>
<stop offset="0.02" stop-color="#395483"/>
<stop offset="0.45" stop-color="#21345A"/>
<stop offset="0.79" stop-color="#132041"/>
<stop offset="1" stop-color="#0E1938"/>
</linearGradient>
<linearGradient id="paint8_linear_566_3257" x1="-870.482" y1="812.573" x2="9214.5" y2="-9979.87" gradientUnits="userSpaceOnUse">
<stop stop-color="#3A5685"/>
<stop offset="0.02" stop-color="#395483"/>
<stop offset="0.45" stop-color="#21345A"/>
<stop offset="0.79" stop-color="#132041"/>
<stop offset="1" stop-color="#0E1938"/>
</linearGradient>
<linearGradient id="paint9_linear_566_3257" x1="1294.72" y1="51.2125" x2="10228.8" y2="-9156.14" gradientUnits="userSpaceOnUse">
<stop stop-color="#3A5685"/>
<stop offset="0.02" stop-color="#395483"/>
<stop offset="0.45" stop-color="#21345A"/>
<stop offset="0.79" stop-color="#132041"/>
<stop offset="1" stop-color="#0E1938"/>
</linearGradient>
<linearGradient id="paint10_linear_566_3257" x1="582.82" y1="307.951" x2="9905.54" y2="-9431.48" gradientUnits="userSpaceOnUse">
<stop stop-color="#3A5685"/>
<stop offset="0.02" stop-color="#395483"/>
<stop offset="0.45" stop-color="#21345A"/>
<stop offset="0.79" stop-color="#132041"/>
<stop offset="1" stop-color="#0E1938"/>
</linearGradient>
<linearGradient id="paint11_linear_566_3257" x1="-58.865" y1="566.771" x2="1179.28" y2="-513.034" gradientUnits="userSpaceOnUse">
<stop stop-color="#E9E8E7"/>
<stop offset="0.28" stop-color="#E9B29F"/>
<stop offset="0.53" stop-color="#E98766"/>
<stop offset="0.74" stop-color="#E9683D"/>
<stop offset="0.9" stop-color="#E95524"/>
<stop offset="1" stop-color="#E94E1B"/>
</linearGradient>
<linearGradient id="paint12_linear_566_3257" x1="1704.9" y1="-158.065" x2="11918.8" y2="-9571.11" gradientUnits="userSpaceOnUse">
<stop stop-color="#3A5685"/>
<stop offset="0.02" stop-color="#395483"/>
<stop offset="0.45" stop-color="#21345A"/>
<stop offset="0.79" stop-color="#132041"/>
<stop offset="1" stop-color="#0E1938"/>
</linearGradient>
<linearGradient id="paint13_linear_566_3257" x1="2190.78" y1="-329.71" x2="11357.7" y2="-9108.17" gradientUnits="userSpaceOnUse">
<stop stop-color="#E9E8E7"/>
<stop offset="0.28" stop-color="#E9B29F"/>
<stop offset="0.53" stop-color="#E98766"/>
<stop offset="0.74" stop-color="#E9683D"/>
<stop offset="0.9" stop-color="#E95524"/>
<stop offset="1" stop-color="#E94E1B"/>
</linearGradient>
<linearGradient id="paint14_linear_566_3257" x1="1011.6" y1="124.931" x2="11624.6" y2="-9832.08" gradientUnits="userSpaceOnUse">
<stop stop-color="#E9E8E7"/>
<stop offset="0.28" stop-color="#E9B29F"/>
<stop offset="0.53" stop-color="#E98766"/>
<stop offset="0.74" stop-color="#E9683D"/>
<stop offset="0.9" stop-color="#E95524"/>
<stop offset="1" stop-color="#E94E1B"/>
</linearGradient>
<linearGradient id="paint15_linear_566_3257" x1="1507.27" y1="-57.981" x2="11070.5" y2="-9373.69" gradientUnits="userSpaceOnUse">
<stop stop-color="#E9E8E7"/>
<stop offset="0.28" stop-color="#E9B29F"/>
<stop offset="0.53" stop-color="#E98766"/>
<stop offset="0.74" stop-color="#E9683D"/>
<stop offset="0.9" stop-color="#E95524"/>
<stop offset="1" stop-color="#E94E1B"/>
</linearGradient>
<linearGradient id="paint16_linear_566_3257" x1="1983.2" y1="-211.513" x2="10527.2" y2="-8887.76" gradientUnits="userSpaceOnUse">
<stop stop-color="#3A5685"/>
<stop offset="0.02" stop-color="#395483"/>
<stop offset="0.45" stop-color="#21345A"/>
<stop offset="0.79" stop-color="#132041"/>
<stop offset="1" stop-color="#0E1938"/>
</linearGradient>
<linearGradient id="paint17_linear_566_3257" x1="737.076" y1="227.651" x2="13108.5" y2="-10408.2" gradientUnits="userSpaceOnUse">
<stop stop-color="#E9E8E7"/>
<stop offset="0.28" stop-color="#E9B29F"/>
<stop offset="0.53" stop-color="#E98766"/>
<stop offset="0.74" stop-color="#E9683D"/>
<stop offset="0.9" stop-color="#E95524"/>
<stop offset="1" stop-color="#E94E1B"/>
</linearGradient>
</defs>
</svg>
