<?xml version="1.0" encoding="utf-8"?>
<!-- Generator: Adobe Illustrator 28.3.0, SVG Export Plug-In . SVG Version: 6.00 Build 0)  -->
<svg version="1.1" id="Camada_1" xmlns="http://www.w3.org/2000/svg" xmlns:xlink="http://www.w3.org/1999/xlink" x="0px" y="0px"
	 viewBox="0 0 1959.1 1115.6" style="enable-background:new 0 0 1959.1 1115.6;" xml:space="preserve">
<style type="text/css">
	.st0{opacity:0.15;}
	.st1{fill:none;stroke:url(#SVGID_1_);}
	.st2{fill:none;stroke:url(#SVGID_00000006693677962643093100000014027024405398815658_);}
	.st3{fill:none;stroke:url(#SVGID_00000036951871977437194200000007530647334204589961_);}
	.st4{fill:none;stroke:url(#SVGID_00000020359719636849530860000008738543785401552538_);}
	.st5{fill:none;stroke:url(#SVGID_00000114069945253375569360000015008419090574489225_);}
	.st6{fill:none;stroke:url(#SVGID_00000129201683692245868690000008369117879679049869_);}
	.st7{fill:none;stroke:url(#SVGID_00000048492363840249308850000010618489636642956950_);}
</style>
<g class="st0">
	
		<linearGradient id="SVGID_1_" gradientUnits="userSpaceOnUse" x1="46.8443" y1="-974.748" x2="872.8445" y2="-528.748" gradientTransform="matrix(1 0 0 1 0 1271.1929)">
		<stop  offset="0.22" style="stop-color:#111111"/>
		<stop  offset="1" style="stop-color:#ADA7A7"/>
	</linearGradient>
	<path class="st1" d="M53.9,285.2L53.9,285.2L53.9,285.2L53.9,285.2l377.9-221l388.3,221L431.8,508.1l0,0l-0.8-0.5l-3-1.8l-11.4-6.7
		L375.7,475c-34-20-79.4-46.8-125.5-74C157.9,346.6,63.4,290.9,53.9,285.2z M432.3,508.9l0.5-0.3L820.6,286l0.8,434.1l-388,224.6
		L432.3,508.9z M431.3,508.9l1.1,435.8L57.2,724.2l-3-437.7l373.3,220.1l3,1.8L431.3,508.9L431.3,508.9z"/>
</g>
<g class="st0">
	
		<linearGradient id="SVGID_00000027576084492662009060000001459638591846434705_" gradientUnits="userSpaceOnUse" x1="788.5142" y1="-542.4927" x2="1224.7552" y2="-307.1178" gradientTransform="matrix(1 0 0 1 0 1271.1929)">
		<stop  offset="0.195" style="stop-color:#111111"/>
		<stop  offset="1" style="stop-color:#ADA7A7"/>
	</linearGradient>
	<path style="fill:none;stroke:url(#SVGID_00000027576084492662009060000001459638591846434705_);" d="M792.5,722.5l-0.2-0.1
		L792.5,722.5z M991.9,606.2l204.5,116.5L991.9,840.2l-0.3-0.2l-1.6-1l-6-3.6l-21.6-12.8c-17.9-10.6-41.9-24.8-66.3-39.1
		c-47.8-28.2-96.7-57.1-103.3-60.9L991.9,606.2z M991.1,840.8l0.3,0.2l0.6,229.7L794.4,954.5l-1.6-230.7l196.7,116.1L991.1,840.8z
		 M993,1070.7L992.4,841l204.5-117.5l0.4,228.8L993,1070.7z"/>
</g>
<g class="st0">
	
		<linearGradient id="SVGID_00000057109645250158575490000000345080130390513038_" gradientUnits="userSpaceOnUse" x1="1444.9418" y1="-959.738" x2="1784.6117" y2="-776.6229" gradientTransform="matrix(1 0 0 1 0 1271.1929)">
		<stop  offset="0.105" style="stop-color:#111111"/>
		<stop  offset="1" style="stop-color:#ADA7A7"/>
	</linearGradient>
	<path style="fill:none;stroke:url(#SVGID_00000057109645250158575490000000345080130390513038_);" d="M1603.6,216.2l159,90.6
		l-159,91.4l-0.2-0.1l-1.2-0.7l-4.7-2.8l-16.8-9.9c-14-8.2-32.7-19.3-51.6-30.5c-36.8-21.7-74.5-44-80.2-47.4L1603.6,216.2z
		 M1602.9,398.9l0.2,0.1l0.5,178.7L1450,487.3l-1.2-179.4l148.3,87.6l4.7,2.8L1602.9,398.9z M1604.5,577.7L1604,399l159-91.4
		l0.3,178L1604.5,577.7z"/>
</g>
<g class="st0">
	
		<linearGradient id="SVGID_00000120539726144826313340000015966996020215873183_" gradientUnits="userSpaceOnUse" x1="1621.3159" y1="-622.0347" x2="1918.3859" y2="-462.3617" gradientTransform="matrix(1 0 0 1 0 1271.1929)">
		<stop  offset="0.3618" style="stop-color:#A59F9F"/>
		<stop  offset="0.4536" style="stop-color:#888383"/>
		<stop  offset="0.6345" style="stop-color:#555252"/>
		<stop  offset="0.7925" style="stop-color:#302F2F"/>
		<stop  offset="0.9196" style="stop-color:#191919"/>
		<stop  offset="1" style="stop-color:#111111"/>
		<stop  offset="1" style="stop-color:#ADA7A7"/>
	</linearGradient>
	<path style="fill:none;stroke:url(#SVGID_00000120539726144826313340000015966996020215873183_);" d="M1759.8,565.3l138.7,79.3
		l-138.7,80l-0.1-0.1l-1.1-0.6l-4.1-2.4l-14.7-8.7c-12.2-7.2-28.5-16.9-45.1-26.7c-32-18.9-64.7-38.3-70-41.4L1759.8,565.3z
		 M1760.3,725.4L1760.3,725.4l138.7-80l0.3,155.8l-138.6,80.6L1760.3,725.4z M1759.3,725.4l0.4,156.4l-134-79.1l-1.1-157.1
		l129.4,76.6l4.1,2.4l1.1,0.6L1759.3,725.4z"/>
</g>
<g class="st0">
	
		<linearGradient id="SVGID_00000077323777621563568610000009163633955678947995_" gradientUnits="userSpaceOnUse" x1="923.4163" y1="-1155.1354" x2="1220.4819" y2="-995.4628" gradientTransform="matrix(1 0 0 1 0 1271.1929)">
		<stop  offset="0.368" style="stop-color:#111111"/>
		<stop  offset="1" style="stop-color:#ADA7A7"/>
	</linearGradient>
	<path style="fill:none;stroke:url(#SVGID_00000077323777621563568610000009163633955678947995_);" d="M1061.9,32.2l138.7,79.3
		l-138.7,80l-0.1-0.1l-1.1-0.6l-4.1-2.4l-14.7-8.7c-12.2-7.2-28.5-16.9-45.1-26.7c-32-18.9-64.7-38.3-70-41.4L1061.9,32.2z
		 M1062.4,192.3l0.1-0.1l138.6-79.9l0.3,155.8l-138.6,80.6L1062.4,192.3z M1061.4,192.3l0.4,156.4l-134-79.1l-1.1-157.1l129.4,76.6
		l4.1,2.4l1.1,0.6L1061.4,192.3z"/>
</g>
<g class="st0">
	
		<linearGradient id="SVGID_00000181056206325259684710000013588077453361481353_" gradientUnits="userSpaceOnUse" x1="1314.2015" y1="-735.8024" x2="1507.7715" y2="-631.5593" gradientTransform="matrix(1 0 0 1 0 1271.1929)">
		<stop  offset="0.368" style="stop-color:#111111"/>
		<stop  offset="1" style="stop-color:#ADA7A7"/>
	</linearGradient>
	<path style="fill:none;stroke:url(#SVGID_00000181056206325259684710000013588077453361481353_);" d="M1404.5,481.2l90.1,51.4
		l-90.1,51.9l-0.7-0.4l-2.7-1.6l-9.6-5.7l-29.4-17.4c-20.4-12-41.2-24.4-45.4-26.8L1404.5,481.2z M1403.3,584.9l0.7,0.4l0.3,101.4
		l-87.1-51.3l-0.7-101.8L1403.3,584.9z M1405.3,686.7l-0.3-101.4l90.1-51.9l0.2,101L1405.3,686.7z"/>
</g>
<g class="st0">
	
		<linearGradient id="SVGID_00000135683690661857321620000006072900432064118448_" gradientUnits="userSpaceOnUse" x1="1731.8579" y1="-1110.1741" x2="1856.989" y2="-1042.7874" gradientTransform="matrix(1 0 0 1 0 1271.1929)">
		<stop  offset="0.368" style="stop-color:#111111"/>
		<stop  offset="1" style="stop-color:#ADA7A7"/>
	</linearGradient>
	<path style="fill:none;stroke:url(#SVGID_00000135683690661857321620000006072900432064118448_);" d="M1790.4,126.2l58,33.1
		l-58,33.4l-0.4-0.3l-1.7-1l-6.2-3.6l-18.9-11.2c-13.1-7.8-26.6-15.7-29.2-17.3L1790.4,126.2z M1789.6,193l0.5,0.3l0.2,65.3
		l-56.1-33l-0.5-65.6L1789.6,193z M1790.9,258.6l-0.2-65.3l58-33.4l0.1,65L1790.9,258.6z"/>
</g>
</svg>
