<svg width="270" height="313" viewBox="0 0 270 313" fill="none" xmlns="http://www.w3.org/2000/svg">
<path d="M4.93445 78.7377L132.666 2.81938C134.553 1.69779 136.902 1.69628 138.79 2.81545L265.059 77.6451C266.882 78.7255 268 80.6875 268 82.8068V229.832C268 231.949 266.884 233.91 265.063 234.991L138.383 310.207C136.518 311.315 134.2 311.329 132.322 310.245L5.00198 236.802C3.14446 235.73 2 233.749 2 231.605V83.8955C2 81.779 3.11508 79.8191 4.93445 78.7377Z" fill="#05050A" fill-opacity="0.7" stroke="#F6F4EF" stroke-width="2.5" stroke-linejoin="round" stroke-dasharray="12 12"/>
<path d="M69.7344 190.131H73.8848C73.752 191.714 73.3092 193.125 72.5566 194.364C71.804 195.593 70.7471 196.561 69.3857 197.27C68.0244 197.978 66.3698 198.332 64.4219 198.332C62.9277 198.332 61.583 198.066 60.3877 197.535C59.1924 196.993 58.1686 196.229 57.3164 195.244C56.4642 194.248 55.8112 193.047 55.3574 191.642C54.9147 190.236 54.6934 188.664 54.6934 186.927V184.918C54.6934 183.18 54.9202 181.609 55.374 180.203C55.8389 178.798 56.5029 177.597 57.3662 176.601C58.2295 175.593 59.2643 174.824 60.4707 174.293C61.6882 173.762 63.055 173.496 64.5713 173.496C66.4971 173.496 68.124 173.85 69.4521 174.559C70.7803 175.267 71.8096 176.246 72.54 177.497C73.2816 178.748 73.7354 180.181 73.9014 181.797H69.751C69.6403 180.757 69.3968 179.866 69.0205 179.124C68.6553 178.382 68.113 177.818 67.3936 177.431C66.6742 177.032 65.7334 176.833 64.5713 176.833C63.6195 176.833 62.7894 177.01 62.0811 177.364C61.3727 177.718 60.7806 178.239 60.3047 178.925C59.8288 179.611 59.4691 180.458 59.2256 181.465C58.9932 182.461 58.877 183.601 58.877 184.885V186.927C58.877 188.144 58.9821 189.251 59.1924 190.247C59.4137 191.232 59.7458 192.079 60.1885 192.787C60.6423 193.495 61.2178 194.043 61.915 194.431C62.6123 194.818 63.4479 195.012 64.4219 195.012C65.6061 195.012 66.5635 194.824 67.2939 194.447C68.0355 194.071 68.5944 193.523 68.9707 192.804C69.3581 192.073 69.6126 191.182 69.7344 190.131ZM96.9443 185.25V186.578C96.9443 188.404 96.7064 190.042 96.2305 191.492C95.7546 192.942 95.0739 194.176 94.1885 195.194C93.3141 196.213 92.2627 196.993 91.0342 197.535C89.8057 198.066 88.4443 198.332 86.9502 198.332C85.4671 198.332 84.1113 198.066 82.8828 197.535C81.6654 196.993 80.6084 196.213 79.7119 195.194C78.8154 194.176 78.1182 192.942 77.6201 191.492C77.1331 190.042 76.8896 188.404 76.8896 186.578V185.25C76.8896 183.424 77.1331 181.791 77.6201 180.353C78.1071 178.903 78.7933 177.669 79.6787 176.65C80.5752 175.621 81.6322 174.841 82.8496 174.31C84.0781 173.767 85.4339 173.496 86.917 173.496C88.4111 173.496 89.7725 173.767 91.001 174.31C92.2295 174.841 93.2865 175.621 94.1719 176.65C95.0573 177.669 95.738 178.903 96.2139 180.353C96.7008 181.791 96.9443 183.424 96.9443 185.25ZM92.7773 186.578V185.217C92.7773 183.867 92.6445 182.677 92.3789 181.647C92.1243 180.607 91.7425 179.738 91.2334 179.041C90.7354 178.333 90.1211 177.801 89.3906 177.447C88.6602 177.082 87.8356 176.899 86.917 176.899C85.9984 176.899 85.1794 177.082 84.46 177.447C83.7406 177.801 83.1263 178.333 82.6172 179.041C82.1191 179.738 81.7373 180.607 81.4717 181.647C81.2061 182.677 81.0732 183.867 81.0732 185.217V186.578C81.0732 187.928 81.2061 189.124 81.4717 190.164C81.7373 191.204 82.1247 192.084 82.6338 192.804C83.154 193.512 83.7738 194.049 84.4932 194.414C85.2126 194.768 86.0316 194.945 86.9502 194.945C87.8799 194.945 88.7044 194.768 89.4238 194.414C90.1432 194.049 90.752 193.512 91.25 192.804C91.748 192.084 92.1243 191.204 92.3789 190.164C92.6445 189.124 92.7773 187.928 92.7773 186.578ZM102.805 173.828H106.523L113.513 192.472L120.485 173.828H124.204L114.974 198H112.019L102.805 173.828ZM101.111 173.828H104.647L105.262 189.965V198H101.111V173.828ZM122.361 173.828H125.914V198H121.747V189.965L122.361 173.828ZM140.042 188.985H133.75V185.682H140.042C141.138 185.682 142.023 185.505 142.698 185.15C143.373 184.796 143.866 184.309 144.176 183.689C144.497 183.059 144.657 182.339 144.657 181.531C144.657 180.768 144.497 180.054 144.176 179.39C143.866 178.715 143.373 178.172 142.698 177.763C142.023 177.353 141.138 177.148 140.042 177.148H135.028V198H130.861V173.828H140.042C141.912 173.828 143.501 174.16 144.807 174.824C146.124 175.477 147.125 176.385 147.812 177.547C148.498 178.698 148.841 180.015 148.841 181.498C148.841 183.059 148.498 184.398 147.812 185.516C147.125 186.633 146.124 187.491 144.807 188.089C143.501 188.687 141.912 188.985 140.042 188.985ZM159.466 177.049L152.244 198H147.878L156.976 173.828H159.765L159.466 177.049ZM165.509 198L158.271 177.049L157.955 173.828H160.761L169.892 198H165.509ZM165.16 189.035V192.339H152.012V189.035H165.16ZM191.772 173.828V198H187.605L176.765 180.685V198H172.598V173.828H176.765L187.639 191.177V173.828H191.772ZM198.579 173.828L204.19 185.366L209.802 173.828H214.417L206.282 189.102V198H202.082V189.102L193.947 173.828H198.579Z" fill="#F6F4EF"/>
<path d="M60.9688 120.5L71.5312 142.219L82.0938 120.5H90.7812L75.4688 149.25V166H67.5625V149.25L52.25 120.5H60.9688ZM131.094 142V144.5C131.094 147.938 130.646 151.021 129.75 153.75C128.854 156.479 127.573 158.802 125.906 160.719C124.26 162.635 122.281 164.104 119.969 165.125C117.656 166.125 115.094 166.625 112.281 166.625C109.49 166.625 106.938 166.125 104.625 165.125C102.333 164.104 100.344 162.635 98.6562 160.719C96.9688 158.802 95.6562 156.479 94.7188 153.75C93.8021 151.021 93.3438 147.938 93.3438 144.5V142C93.3438 138.562 93.8021 135.49 94.7188 132.781C95.6354 130.052 96.9271 127.729 98.5938 125.812C100.281 123.875 102.271 122.406 104.562 121.406C106.875 120.385 109.427 119.875 112.219 119.875C115.031 119.875 117.594 120.385 119.906 121.406C122.219 122.406 124.208 123.875 125.875 125.812C127.542 127.729 128.823 130.052 129.719 132.781C130.635 135.49 131.094 138.562 131.094 142ZM123.25 144.5V141.938C123.25 139.396 123 137.156 122.5 135.219C122.021 133.26 121.302 131.625 120.344 130.312C119.406 128.979 118.25 127.979 116.875 127.312C115.5 126.625 113.948 126.281 112.219 126.281C110.49 126.281 108.948 126.625 107.594 127.312C106.24 127.979 105.083 128.979 104.125 130.312C103.188 131.625 102.469 133.26 101.969 135.219C101.469 137.156 101.219 139.396 101.219 141.938V144.5C101.219 147.042 101.469 149.292 101.969 151.25C102.469 153.208 103.198 154.865 104.156 156.219C105.135 157.552 106.302 158.562 107.656 159.25C109.01 159.917 110.552 160.25 112.281 160.25C114.031 160.25 115.583 159.917 116.938 159.25C118.292 158.562 119.438 157.552 120.375 156.219C121.312 154.865 122.021 153.208 122.5 151.25C123 149.292 123.25 147.042 123.25 144.5ZM164.469 120.5H172.281V150.906C172.281 154.365 171.531 157.26 170.031 159.594C168.531 161.927 166.49 163.688 163.906 164.875C161.344 166.042 158.479 166.625 155.312 166.625C152.042 166.625 149.125 166.042 146.562 164.875C144 163.688 141.979 161.927 140.5 159.594C139.042 157.26 138.312 154.365 138.312 150.906V120.5H146.125V150.906C146.125 153.094 146.5 154.896 147.25 156.312C148 157.708 149.062 158.74 150.438 159.406C151.812 160.073 153.438 160.406 155.312 160.406C157.188 160.406 158.802 160.073 160.156 159.406C161.531 158.74 162.594 157.708 163.344 156.312C164.094 154.896 164.469 153.094 164.469 150.906V120.5ZM180.812 120.5H196.906C200.365 120.5 203.312 121.021 205.75 122.062C208.188 123.104 210.052 124.646 211.344 126.688C212.656 128.708 213.312 131.208 213.312 134.188C213.312 136.458 212.896 138.458 212.062 140.188C211.229 141.917 210.052 143.375 208.531 144.562C207.01 145.729 205.198 146.635 203.094 147.281L200.719 148.438H186.25L186.188 142.219H197.031C198.906 142.219 200.469 141.885 201.719 141.219C202.969 140.552 203.906 139.646 204.531 138.5C205.177 137.333 205.5 136.021 205.5 134.562C205.5 132.979 205.188 131.604 204.562 130.438C203.958 129.25 203.021 128.344 201.75 127.719C200.479 127.073 198.865 126.75 196.906 126.75H188.656V166H180.812V120.5ZM206.781 166L196.094 145.562L204.312 145.531L215.156 165.594V166H206.781Z" fill="#F6F4EF"/>
</svg>
