<svg width="150" height="174" viewBox="0 0 150 174" fill="none" xmlns="http://www.w3.org/2000/svg">
<path d="M74.6359 1.73576L147.772 44.3212V129.514L74.6359 172.1L1.5 129.514V44.3212L74.6359 1.73576Z" fill="#282828" stroke="#00FF0A" stroke-width="3" stroke-linejoin="round"/>
<path d="M62.1162 78.5397L62.1389 78.5963C65.5477 78.5963 68.3563 80.3741 69.7832 83.4767L69.8851 83.7145L75.6268 81.8008L75.4909 81.5177C73.2712 76.2184 68.1298 72.912 62.1049 72.912C57.8694 72.912 54.404 74.2255 51.5728 76.9658C48.7416 79.6834 47.3146 83.0917 47.3146 87.0888C47.3146 91.0859 48.7416 94.449 51.5728 97.1666C54.4267 99.9068 57.8694 101.22 62.1049 101.22C68.1411 101.22 73.2712 97.9366 75.4909 92.6486L75.6268 92.3655L69.8625 90.4518L69.7605 90.7123C68.4695 93.7583 65.6043 95.5926 62.1162 95.5926C59.738 95.5926 57.7222 94.766 56.1141 93.1694C54.4946 91.5389 53.6792 89.5007 53.6792 87.1001C53.6792 84.6996 54.472 82.684 56.1141 80.9742C57.6995 79.3776 59.738 78.551 62.1162 78.551V78.5397ZM74.5057 45C51.6181 45 33 63.6156 33 86.5C33 109.384 50.9839 128 73.9394 128C74.2565 128 74.5623 127.932 74.8567 127.841C78.2542 127.321 81.244 124.207 82.7728 121.568L82.92 121.591L103.95 72.9007H97.3593L88.8769 93.328L80.3493 72.9007H73.3732L85.3209 100.779L78.0164 117.673L77.9031 117.628C77.0764 120.504 75.355 121.591 73.1806 121.965C53.951 121.568 39.0022 106.135 39.0022 86.4887C39.0022 66.8427 54.925 51.0014 74.5057 51.0014C94.0864 51.0014 110.009 66.922 110.009 86.5C110.009 100.213 102.342 112.453 89.9981 118.454C88.5032 119.179 87.8803 120.98 88.6051 122.463C89.3299 123.958 91.1192 124.569 92.6141 123.856C106.827 116.96 116 102.296 116 86.5113C116.011 63.6156 97.3932 45 74.5057 45Z" fill="#D2D2D2"/>
</svg>
