<svg width="359" height="938" viewBox="0 0 359 938" fill="none" xmlns="http://www.w3.org/2000/svg">
<g opacity="0.4">
<path d="M216 85.812L217.276 519.385L217.593 627.187L290.435 677.48L291 869.428" stroke="#585757"/>
<path d="M267.831 53.8506L269.199 518.794L269.515 626.504L270.016 796.68L270.311 896.962" stroke="#585757"/>
<path d="M240.72 16.4492L242.044 466.603M243.43 937.709L242.11 488.907" stroke="#757070"/>
<path d="M237 13.75V9.25L241 7L245 9.25V13.75L241 16L237 13.75Z" stroke="#757070" stroke-linejoin="round"/>
<path d="M264 51.75V47.25L268 45L272 47.25V51.75L268 54L264 51.75Z" fill="#757070" stroke="#757070" stroke-linejoin="round"/>
<path d="M266 900.75V896.25L270 894L274 896.25V900.75L270 903L266 900.75Z" fill="#757070" stroke="#757070" stroke-linejoin="round"/>
<path d="M287 875.75V871.25L291 869L295 871.25V875.75L291 878L287 875.75Z" stroke="#757070" stroke-linejoin="round"/>
</g>
<path d="M11.9701 1.5V4.5L9.48494 6L7 4.5V1.5L9.48494 0L11.9701 1.5Z" fill="url(#paint0_linear_30_289)"/>
<path d="M11.9701 14.5V17.5L9.48494 19L7 17.5V14.5L9.48494 13L11.9701 14.5Z" fill="url(#paint1_linear_30_289)"/>
<path d="M11.9701 27.5V30.5L9.48494 32L7 30.5V27.5L9.48494 26L11.9701 27.5Z" fill="url(#paint2_linear_30_289)"/>
<path d="M11.9701 40.5V43.5L9.48494 45L7 43.5V40.5L9.48494 39L11.9701 40.5Z" fill="url(#paint3_linear_30_289)"/>
<path d="M11.9701 53.5V56.5L9.48494 58L7 56.5V53.5L9.48494 52L11.9701 53.5Z" fill="url(#paint4_linear_30_289)"/>
<path d="M29.8623 1.5V4.5L27.3772 6L24.8922 4.5V1.5L27.3772 0L29.8623 1.5Z" fill="url(#paint5_linear_30_289)"/>
<path d="M29.8623 14.5V17.5L27.3772 19L24.8922 17.5V14.5L27.3772 13L29.8623 14.5Z" fill="url(#paint6_linear_30_289)"/>
<path d="M29.8623 27.5V30.5L27.3772 32L24.8922 30.5V27.5L27.3772 26L29.8623 27.5Z" fill="url(#paint7_linear_30_289)"/>
<path d="M29.8623 40.5V43.5L27.3772 45L24.8922 43.5V40.5L27.3772 39L29.8623 40.5Z" fill="url(#paint8_linear_30_289)"/>
<path d="M29.8623 53.5V56.5L27.3772 58L24.8922 56.5V53.5L27.3772 52L29.8623 53.5Z" fill="url(#paint9_linear_30_289)"/>
<path d="M47.7545 1.5V4.5L45.2694 6L42.7844 4.5V1.5L45.2694 0L47.7545 1.5Z" fill="url(#paint10_linear_30_289)"/>
<path d="M47.7545 14.5V17.5L45.2694 19L42.7844 17.5V14.5L45.2694 13L47.7545 14.5Z" fill="url(#paint11_linear_30_289)"/>
<path d="M47.7545 27.5V30.5L45.2694 32L42.7844 30.5V27.5L45.2694 26L47.7545 27.5Z" fill="url(#paint12_linear_30_289)"/>
<path d="M47.7545 40.5V43.5L45.2694 45L42.7844 43.5V40.5L45.2694 39L47.7545 40.5Z" fill="url(#paint13_linear_30_289)"/>
<path d="M47.7545 53.5V56.5L45.2694 58L42.7844 56.5V53.5L45.2694 52L47.7545 53.5Z" fill="url(#paint14_linear_30_289)"/>
<path d="M65.6467 1.5V4.5L63.1616 6L60.6766 4.5V1.5L63.1616 0L65.6467 1.5Z" fill="url(#paint15_linear_30_289)"/>
<path d="M65.6467 14.5V17.5L63.1616 19L60.6766 17.5V14.5L63.1616 13L65.6467 14.5Z" fill="url(#paint16_linear_30_289)"/>
<path d="M65.6467 27.5V30.5L63.1616 32L60.6766 30.5V27.5L63.1616 26L65.6467 27.5Z" fill="url(#paint17_linear_30_289)"/>
<path d="M65.6467 40.5V43.5L63.1616 45L60.6766 43.5V40.5L63.1616 39L65.6467 40.5Z" fill="url(#paint18_linear_30_289)"/>
<path d="M65.6467 53.5V56.5L63.1616 58L60.6766 56.5V53.5L63.1616 52L65.6467 53.5Z" fill="url(#paint19_linear_30_289)"/>
<path d="M83.5389 1.5V4.5L81.0538 6L78.5689 4.5V1.5L81.0538 0L83.5389 1.5Z" fill="url(#paint20_linear_30_289)"/>
<path d="M83.5389 14.5V17.5L81.0538 19L78.5689 17.5V14.5L81.0538 13L83.5389 14.5Z" fill="url(#paint21_linear_30_289)"/>
<path d="M83.5389 27.5V30.5L81.0538 32L78.5689 30.5V27.5L81.0538 26L83.5389 27.5Z" fill="url(#paint22_linear_30_289)"/>
<path d="M83.5389 40.5V43.5L81.0538 45L78.5689 43.5V40.5L81.0538 39L83.5389 40.5Z" fill="url(#paint23_linear_30_289)"/>
<path d="M83.5389 53.5V56.5L81.0538 58L78.5689 56.5V53.5L81.0538 52L83.5389 53.5Z" fill="url(#paint24_linear_30_289)"/>
<path d="M101.431 1.5V4.5L98.946 6L96.4611 4.5V1.5L98.946 0L101.431 1.5Z" fill="url(#paint25_linear_30_289)"/>
<path d="M101.431 14.5V17.5L98.946 19L96.4611 17.5V14.5L98.946 13L101.431 14.5Z" fill="url(#paint26_linear_30_289)"/>
<path d="M101.431 27.5V30.5L98.946 32L96.4611 30.5V27.5L98.946 26L101.431 27.5Z" fill="url(#paint27_linear_30_289)"/>
<path d="M101.431 40.5V43.5L98.946 45L96.4611 43.5V40.5L98.946 39L101.431 40.5Z" fill="url(#paint28_linear_30_289)"/>
<path d="M101.431 53.5V56.5L98.946 58L96.4611 56.5V53.5L98.946 52L101.431 53.5Z" fill="url(#paint29_linear_30_289)"/>
<path d="M119.323 1.5V4.5L116.838 6L114.353 4.5V1.5L116.838 0L119.323 1.5Z" fill="url(#paint30_linear_30_289)"/>
<path d="M119.323 14.5V17.5L116.838 19L114.353 17.5V14.5L116.838 13L119.323 14.5Z" fill="url(#paint31_linear_30_289)"/>
<path d="M119.323 27.5V30.5L116.838 32L114.353 30.5V27.5L116.838 26L119.323 27.5Z" fill="url(#paint32_linear_30_289)"/>
<path d="M119.323 40.5V43.5L116.838 45L114.353 43.5V40.5L116.838 39L119.323 40.5Z" fill="url(#paint33_linear_30_289)"/>
<path d="M119.323 53.5V56.5L116.838 58L114.353 56.5V53.5L116.838 52L119.323 53.5Z" fill="url(#paint34_linear_30_289)"/>
<path d="M137.216 1.5V4.5L134.73 6L132.246 4.5V1.5L134.73 0L137.216 1.5Z" fill="url(#paint35_linear_30_289)"/>
<path d="M137.216 14.5V17.5L134.73 19L132.246 17.5V14.5L134.73 13L137.216 14.5Z" fill="url(#paint36_linear_30_289)"/>
<path d="M137.216 27.5V30.5L134.73 32L132.246 30.5V27.5L134.73 26L137.216 27.5Z" fill="url(#paint37_linear_30_289)"/>
<path d="M137.216 40.5V43.5L134.73 45L132.246 43.5V40.5L134.73 39L137.216 40.5Z" fill="url(#paint38_linear_30_289)"/>
<path d="M137.216 53.5V56.5L134.73 58L132.246 56.5V53.5L134.73 52L137.216 53.5Z" fill="url(#paint39_linear_30_289)"/>
<path d="M155.108 1.5V4.5L152.623 6L150.138 4.5V1.5L152.623 0L155.108 1.5Z" fill="url(#paint40_linear_30_289)"/>
<path d="M155.108 14.5V17.5L152.623 19L150.138 17.5V14.5L152.623 13L155.108 14.5Z" fill="url(#paint41_linear_30_289)"/>
<path d="M155.108 27.5V30.5L152.623 32L150.138 30.5V27.5L152.623 26L155.108 27.5Z" fill="url(#paint42_linear_30_289)"/>
<path d="M155.108 40.5V43.5L152.623 45L150.138 43.5V40.5L152.623 39L155.108 40.5Z" fill="url(#paint43_linear_30_289)"/>
<path d="M155.108 53.5V56.5L152.623 58L150.138 56.5V53.5L152.623 52L155.108 53.5Z" fill="url(#paint44_linear_30_289)"/>
<path d="M173 1.5V4.5L170.515 6L168.03 4.5V1.5L170.515 0L173 1.5Z" fill="url(#paint45_linear_30_289)"/>
<path d="M173 14.5V17.5L170.515 19L168.03 17.5V14.5L170.515 13L173 14.5Z" fill="url(#paint46_linear_30_289)"/>
<path d="M173 27.5V30.5L170.515 32L168.03 30.5V27.5L170.515 26L173 27.5Z" fill="url(#paint47_linear_30_289)"/>
<path d="M173 40.5V43.5L170.515 45L168.03 43.5V40.5L170.515 39L173 40.5Z" fill="url(#paint48_linear_30_289)"/>
<path d="M173 53.5V56.5L170.515 58L168.03 56.5V53.5L170.515 52L173 53.5Z" fill="url(#paint49_linear_30_289)"/>
<path d="M310 335.75V311.25L330.001 299L350 311.25V335.75L330.001 348L310 335.75Z" fill="url(#paint50_radial_30_289)" stroke="#414040" stroke-opacity="0.37" stroke-width="4" stroke-linejoin="round"/>
<path d="M71 783C71 715.477 71 658.096 71 658.096M305 782C305 714.477 305 657.096 305 657.096M75.0506 651.083L188.156 586L300.949 651.077M75.0506 789L188.156 854.083L300.949 789.006" stroke="#757070"/>
<path d="M183 591.75V585.25L188.5 582L194 585.25V591.75L188.5 595L183 591.75Z" fill="#757070" stroke="#757070" stroke-width="2" stroke-linejoin="round"/>
<path d="M183 854.75V848.25L188.5 845L194 848.25V854.75L188.5 858L183 854.75Z" fill="#757070" stroke="#757070" stroke-width="2" stroke-linejoin="round"/>
<path d="M301 655.75V651.25L305 649L309 651.25V655.75L305 658L301 655.75Z" stroke="#757070" stroke-linejoin="round"/>
<path d="M301 788.75V784.25L305 782L309 784.25V788.75L305 791L301 788.75Z" stroke="#757070" stroke-linejoin="round"/>
<path d="M67 655.75V651.25L71.0001 649L75 651.25V655.75L71.0001 658L67 655.75Z" stroke="#757070" stroke-linejoin="round"/>
<path d="M67 788.75V784.25L71.0001 782L75 784.25V788.75L71.0001 791L67 788.75Z" stroke="#757070" stroke-linejoin="round"/>
<path d="M71 520C71 452.477 71 395.096 71 395.096M305 519C305 451.477 305 394.096 305 394.096M75.0506 388.083L188.156 323L300.949 388.077M75.0506 526L188.156 591.083L300.949 526.006" stroke="#757070"/>
<path d="M183 328.75V322.25L188.5 319L194 322.25V328.75L188.5 332L183 328.75Z" fill="#757070" stroke="#757070" stroke-width="2" stroke-linejoin="round"/>
<path d="M183 591.75V585.25L188.5 582L194 585.25V591.75L188.5 595L183 591.75Z" fill="#757070" stroke="#757070" stroke-width="2" stroke-linejoin="round"/>
<path d="M301 392.75V388.25L305 386L309 388.25V392.75L305 395L301 392.75Z" stroke="#757070" stroke-linejoin="round"/>
<path d="M301 525.75V521.25L305 519L309 521.25V525.75L305 528L301 525.75Z" stroke="#757070" stroke-linejoin="round"/>
<path d="M67 392.75V388.25L71.0001 386L75 388.25V392.75L71.0001 395L67 392.75Z" stroke="#757070" stroke-linejoin="round"/>
<path d="M67 525.75V521.25L71.0001 519L75 521.25V525.75L71.0001 528L67 525.75Z" stroke="#757070" stroke-linejoin="round"/>
<path d="M71 257C71 189.477 71 132.096 71 132.096M305 256C305 188.477 305 131.096 305 131.096M75.0506 125.083L188.156 60L300.949 125.077M75.0506 263L188.156 328.083L300.949 263.006" stroke="#757070"/>
<path d="M183 65.75V59.25L188.5 56L194 59.25V65.75L188.5 69L183 65.75Z" fill="#757070" stroke="#757070" stroke-width="2" stroke-linejoin="round"/>
<path d="M183 328.75V322.25L188.5 319L194 322.25V328.75L188.5 332L183 328.75Z" fill="#757070" stroke="#757070" stroke-width="2" stroke-linejoin="round"/>
<path d="M301 129.75V125.25L305 123L309 125.25V129.75L305 132L301 129.75Z" stroke="#757070" stroke-linejoin="round"/>
<path d="M301 262.75V258.25L305 256L309 258.25V262.75L305 265L301 262.75Z" stroke="#757070" stroke-linejoin="round"/>
<path d="M67 129.75V125.25L71.0001 123L75 125.25V129.75L71.0001 132L67 129.75Z" stroke="#757070" stroke-linejoin="round"/>
<path d="M67 262.75V258.25L71.0001 256L75 258.25V262.75L71.0001 265L67 262.75Z" stroke="#757070" stroke-linejoin="round"/>
<path d="M5 576V621L85 576" stroke="url(#paint51_linear_30_289)" stroke-width="2"/>
<path d="M84 577V573L87.5001 571L91 573V577L87.5001 579L84 577Z" fill="#757070"/>
<path d="M1 623V619L4.50013 617L8 619V623L4.50013 625L1 623Z" fill="#757070"/>
<path d="M1 574V570L4.50013 568L8 570V574L4.50013 576L1 574Z" stroke="#757070" stroke-linejoin="round"/>
<path d="M14 300.886V296.75L17.5001 294.682L21 296.75V300.886L17.5001 302.954L14 300.886Z" stroke="#757070" stroke-linejoin="round"/>
<path d="M18.1364 260V295.636M18.1364 369.773V303.273" stroke="#757070"/>
<g opacity="0.5">
<path d="M305.486 601.013C305.184 600.832 305 600.506 305 600.155V589.93C305 589.579 305.184 589.254 305.486 589.073L313.95 583.994C314.267 583.804 314.662 583.804 314.979 583.994L323.443 589.073C323.744 589.254 323.929 589.579 323.929 589.93V600.155C323.929 600.506 323.744 600.832 323.443 601.013L314.979 606.091C314.662 606.281 314.267 606.281 313.95 606.091L305.486 601.013Z" fill="#212121" stroke="#212121" stroke-linejoin="round"/>
<path d="M316.357 620.408V609.051L325.822 603.372L335.286 609.051V620.408L325.822 626.086L316.357 620.408Z" stroke="#757070" stroke-linejoin="round"/>
<path d="M316.357 581.036V569.679L325.822 564L335.286 569.679V581.036L325.822 586.714L316.357 581.036Z" fill="#757070" stroke="#757070" stroke-linejoin="round"/>
<path d="M339.071 581.036V569.679L348.536 564L358 569.679V581.036L348.536 586.714L339.071 581.036Z" fill="#757070" stroke="#757070" stroke-linejoin="round"/>
<path d="M327.714 600.721V589.364L337.179 583.686L346.643 589.364V600.721L337.179 606.4L327.714 600.721Z" stroke="#757070" stroke-linejoin="round"/>
</g>
<path d="M14 872V842L39.0009 827L64 842V872L39.0009 887L14 872Z" fill="url(#paint52_linear_30_289)"/>
<defs>
<linearGradient id="paint0_linear_30_289" x1="-16.1526" y1="29" x2="466.105" y2="29.3452" gradientUnits="userSpaceOnUse">
<stop offset="0.164182" stop-color="#111111"/>
<stop offset="1" stop-color="#606060"/>
</linearGradient>
<linearGradient id="paint1_linear_30_289" x1="-16.1526" y1="29" x2="466.105" y2="29.3452" gradientUnits="userSpaceOnUse">
<stop offset="0.164182" stop-color="#111111"/>
<stop offset="1" stop-color="#606060"/>
</linearGradient>
<linearGradient id="paint2_linear_30_289" x1="-16.1526" y1="29" x2="466.105" y2="29.3452" gradientUnits="userSpaceOnUse">
<stop offset="0.164182" stop-color="#111111"/>
<stop offset="1" stop-color="#606060"/>
</linearGradient>
<linearGradient id="paint3_linear_30_289" x1="-16.1526" y1="29" x2="466.105" y2="29.3452" gradientUnits="userSpaceOnUse">
<stop offset="0.164182" stop-color="#111111"/>
<stop offset="1" stop-color="#606060"/>
</linearGradient>
<linearGradient id="paint4_linear_30_289" x1="-16.1526" y1="29" x2="466.105" y2="29.3452" gradientUnits="userSpaceOnUse">
<stop offset="0.164182" stop-color="#111111"/>
<stop offset="1" stop-color="#606060"/>
</linearGradient>
<linearGradient id="paint5_linear_30_289" x1="-16.1526" y1="29" x2="466.105" y2="29.3452" gradientUnits="userSpaceOnUse">
<stop offset="0.164182" stop-color="#111111"/>
<stop offset="1" stop-color="#606060"/>
</linearGradient>
<linearGradient id="paint6_linear_30_289" x1="-16.1526" y1="29" x2="466.105" y2="29.3452" gradientUnits="userSpaceOnUse">
<stop offset="0.164182" stop-color="#111111"/>
<stop offset="1" stop-color="#606060"/>
</linearGradient>
<linearGradient id="paint7_linear_30_289" x1="-16.1526" y1="29" x2="466.105" y2="29.3452" gradientUnits="userSpaceOnUse">
<stop offset="0.164182" stop-color="#111111"/>
<stop offset="1" stop-color="#606060"/>
</linearGradient>
<linearGradient id="paint8_linear_30_289" x1="-16.1526" y1="29" x2="466.105" y2="29.3452" gradientUnits="userSpaceOnUse">
<stop offset="0.164182" stop-color="#111111"/>
<stop offset="1" stop-color="#606060"/>
</linearGradient>
<linearGradient id="paint9_linear_30_289" x1="-16.1526" y1="29" x2="466.105" y2="29.3452" gradientUnits="userSpaceOnUse">
<stop offset="0.164182" stop-color="#111111"/>
<stop offset="1" stop-color="#606060"/>
</linearGradient>
<linearGradient id="paint10_linear_30_289" x1="-16.1526" y1="29" x2="466.105" y2="29.3452" gradientUnits="userSpaceOnUse">
<stop offset="0.164182" stop-color="#111111"/>
<stop offset="1" stop-color="#606060"/>
</linearGradient>
<linearGradient id="paint11_linear_30_289" x1="-16.1526" y1="29" x2="466.105" y2="29.3452" gradientUnits="userSpaceOnUse">
<stop offset="0.164182" stop-color="#111111"/>
<stop offset="1" stop-color="#606060"/>
</linearGradient>
<linearGradient id="paint12_linear_30_289" x1="-16.1526" y1="29" x2="466.105" y2="29.3452" gradientUnits="userSpaceOnUse">
<stop offset="0.164182" stop-color="#111111"/>
<stop offset="1" stop-color="#606060"/>
</linearGradient>
<linearGradient id="paint13_linear_30_289" x1="-16.1526" y1="29" x2="466.105" y2="29.3452" gradientUnits="userSpaceOnUse">
<stop offset="0.164182" stop-color="#111111"/>
<stop offset="1" stop-color="#606060"/>
</linearGradient>
<linearGradient id="paint14_linear_30_289" x1="-16.1526" y1="29" x2="466.105" y2="29.3452" gradientUnits="userSpaceOnUse">
<stop offset="0.164182" stop-color="#111111"/>
<stop offset="1" stop-color="#606060"/>
</linearGradient>
<linearGradient id="paint15_linear_30_289" x1="-16.1526" y1="29" x2="466.105" y2="29.3452" gradientUnits="userSpaceOnUse">
<stop offset="0.164182" stop-color="#111111"/>
<stop offset="1" stop-color="#606060"/>
</linearGradient>
<linearGradient id="paint16_linear_30_289" x1="-16.1526" y1="29" x2="466.105" y2="29.3452" gradientUnits="userSpaceOnUse">
<stop offset="0.164182" stop-color="#111111"/>
<stop offset="1" stop-color="#606060"/>
</linearGradient>
<linearGradient id="paint17_linear_30_289" x1="-16.1526" y1="29" x2="466.105" y2="29.3452" gradientUnits="userSpaceOnUse">
<stop offset="0.164182" stop-color="#111111"/>
<stop offset="1" stop-color="#606060"/>
</linearGradient>
<linearGradient id="paint18_linear_30_289" x1="-16.1526" y1="29" x2="466.105" y2="29.3452" gradientUnits="userSpaceOnUse">
<stop offset="0.164182" stop-color="#111111"/>
<stop offset="1" stop-color="#606060"/>
</linearGradient>
<linearGradient id="paint19_linear_30_289" x1="-16.1526" y1="29" x2="466.105" y2="29.3452" gradientUnits="userSpaceOnUse">
<stop offset="0.164182" stop-color="#111111"/>
<stop offset="1" stop-color="#606060"/>
</linearGradient>
<linearGradient id="paint20_linear_30_289" x1="-16.1526" y1="29" x2="466.105" y2="29.3452" gradientUnits="userSpaceOnUse">
<stop offset="0.164182" stop-color="#111111"/>
<stop offset="1" stop-color="#606060"/>
</linearGradient>
<linearGradient id="paint21_linear_30_289" x1="-16.1526" y1="29" x2="466.105" y2="29.3452" gradientUnits="userSpaceOnUse">
<stop offset="0.164182" stop-color="#111111"/>
<stop offset="1" stop-color="#606060"/>
</linearGradient>
<linearGradient id="paint22_linear_30_289" x1="-16.1526" y1="29" x2="466.105" y2="29.3452" gradientUnits="userSpaceOnUse">
<stop offset="0.164182" stop-color="#111111"/>
<stop offset="1" stop-color="#606060"/>
</linearGradient>
<linearGradient id="paint23_linear_30_289" x1="-16.1526" y1="29" x2="466.105" y2="29.3452" gradientUnits="userSpaceOnUse">
<stop offset="0.164182" stop-color="#111111"/>
<stop offset="1" stop-color="#606060"/>
</linearGradient>
<linearGradient id="paint24_linear_30_289" x1="-16.1526" y1="29" x2="466.105" y2="29.3452" gradientUnits="userSpaceOnUse">
<stop offset="0.164182" stop-color="#111111"/>
<stop offset="1" stop-color="#606060"/>
</linearGradient>
<linearGradient id="paint25_linear_30_289" x1="-16.1526" y1="29" x2="466.105" y2="29.3452" gradientUnits="userSpaceOnUse">
<stop offset="0.164182" stop-color="#111111"/>
<stop offset="1" stop-color="#606060"/>
</linearGradient>
<linearGradient id="paint26_linear_30_289" x1="-16.1526" y1="29" x2="466.105" y2="29.3452" gradientUnits="userSpaceOnUse">
<stop offset="0.164182" stop-color="#111111"/>
<stop offset="1" stop-color="#606060"/>
</linearGradient>
<linearGradient id="paint27_linear_30_289" x1="-16.1526" y1="29" x2="466.105" y2="29.3452" gradientUnits="userSpaceOnUse">
<stop offset="0.164182" stop-color="#111111"/>
<stop offset="1" stop-color="#606060"/>
</linearGradient>
<linearGradient id="paint28_linear_30_289" x1="-16.1526" y1="29" x2="466.105" y2="29.3452" gradientUnits="userSpaceOnUse">
<stop offset="0.164182" stop-color="#111111"/>
<stop offset="1" stop-color="#606060"/>
</linearGradient>
<linearGradient id="paint29_linear_30_289" x1="-16.1526" y1="29" x2="466.105" y2="29.3452" gradientUnits="userSpaceOnUse">
<stop offset="0.164182" stop-color="#111111"/>
<stop offset="1" stop-color="#606060"/>
</linearGradient>
<linearGradient id="paint30_linear_30_289" x1="-16.1526" y1="29" x2="466.105" y2="29.3452" gradientUnits="userSpaceOnUse">
<stop offset="0.164182" stop-color="#111111"/>
<stop offset="1" stop-color="#606060"/>
</linearGradient>
<linearGradient id="paint31_linear_30_289" x1="-16.1526" y1="29" x2="466.105" y2="29.3452" gradientUnits="userSpaceOnUse">
<stop offset="0.164182" stop-color="#111111"/>
<stop offset="1" stop-color="#606060"/>
</linearGradient>
<linearGradient id="paint32_linear_30_289" x1="-16.1526" y1="29" x2="466.105" y2="29.3452" gradientUnits="userSpaceOnUse">
<stop offset="0.164182" stop-color="#111111"/>
<stop offset="1" stop-color="#606060"/>
</linearGradient>
<linearGradient id="paint33_linear_30_289" x1="-16.1526" y1="29" x2="466.105" y2="29.3452" gradientUnits="userSpaceOnUse">
<stop offset="0.164182" stop-color="#111111"/>
<stop offset="1" stop-color="#606060"/>
</linearGradient>
<linearGradient id="paint34_linear_30_289" x1="-16.1526" y1="29" x2="466.105" y2="29.3452" gradientUnits="userSpaceOnUse">
<stop offset="0.164182" stop-color="#111111"/>
<stop offset="1" stop-color="#606060"/>
</linearGradient>
<linearGradient id="paint35_linear_30_289" x1="-16.1526" y1="29" x2="466.105" y2="29.3452" gradientUnits="userSpaceOnUse">
<stop offset="0.164182" stop-color="#111111"/>
<stop offset="1" stop-color="#606060"/>
</linearGradient>
<linearGradient id="paint36_linear_30_289" x1="-16.1526" y1="29" x2="466.105" y2="29.3452" gradientUnits="userSpaceOnUse">
<stop offset="0.164182" stop-color="#111111"/>
<stop offset="1" stop-color="#606060"/>
</linearGradient>
<linearGradient id="paint37_linear_30_289" x1="-16.1526" y1="29" x2="466.105" y2="29.3452" gradientUnits="userSpaceOnUse">
<stop offset="0.164182" stop-color="#111111"/>
<stop offset="1" stop-color="#606060"/>
</linearGradient>
<linearGradient id="paint38_linear_30_289" x1="-16.1526" y1="29" x2="466.105" y2="29.3452" gradientUnits="userSpaceOnUse">
<stop offset="0.164182" stop-color="#111111"/>
<stop offset="1" stop-color="#606060"/>
</linearGradient>
<linearGradient id="paint39_linear_30_289" x1="-16.1526" y1="29" x2="466.105" y2="29.3452" gradientUnits="userSpaceOnUse">
<stop offset="0.164182" stop-color="#111111"/>
<stop offset="1" stop-color="#606060"/>
</linearGradient>
<linearGradient id="paint40_linear_30_289" x1="-16.1526" y1="29" x2="466.105" y2="29.3452" gradientUnits="userSpaceOnUse">
<stop offset="0.164182" stop-color="#111111"/>
<stop offset="1" stop-color="#606060"/>
</linearGradient>
<linearGradient id="paint41_linear_30_289" x1="-16.1526" y1="29" x2="466.105" y2="29.3452" gradientUnits="userSpaceOnUse">
<stop offset="0.164182" stop-color="#111111"/>
<stop offset="1" stop-color="#606060"/>
</linearGradient>
<linearGradient id="paint42_linear_30_289" x1="-16.1526" y1="29" x2="466.105" y2="29.3452" gradientUnits="userSpaceOnUse">
<stop offset="0.164182" stop-color="#111111"/>
<stop offset="1" stop-color="#606060"/>
</linearGradient>
<linearGradient id="paint43_linear_30_289" x1="-16.1526" y1="29" x2="466.105" y2="29.3452" gradientUnits="userSpaceOnUse">
<stop offset="0.164182" stop-color="#111111"/>
<stop offset="1" stop-color="#606060"/>
</linearGradient>
<linearGradient id="paint44_linear_30_289" x1="-16.1526" y1="29" x2="466.105" y2="29.3452" gradientUnits="userSpaceOnUse">
<stop offset="0.164182" stop-color="#111111"/>
<stop offset="1" stop-color="#606060"/>
</linearGradient>
<linearGradient id="paint45_linear_30_289" x1="-16.1526" y1="29" x2="466.105" y2="29.3452" gradientUnits="userSpaceOnUse">
<stop offset="0.164182" stop-color="#111111"/>
<stop offset="1" stop-color="#606060"/>
</linearGradient>
<linearGradient id="paint46_linear_30_289" x1="-16.1526" y1="29" x2="466.105" y2="29.3452" gradientUnits="userSpaceOnUse">
<stop offset="0.164182" stop-color="#111111"/>
<stop offset="1" stop-color="#606060"/>
</linearGradient>
<linearGradient id="paint47_linear_30_289" x1="-16.1526" y1="29" x2="466.105" y2="29.3452" gradientUnits="userSpaceOnUse">
<stop offset="0.164182" stop-color="#111111"/>
<stop offset="1" stop-color="#606060"/>
</linearGradient>
<linearGradient id="paint48_linear_30_289" x1="-16.1526" y1="29" x2="466.105" y2="29.3452" gradientUnits="userSpaceOnUse">
<stop offset="0.164182" stop-color="#111111"/>
<stop offset="1" stop-color="#606060"/>
</linearGradient>
<linearGradient id="paint49_linear_30_289" x1="-16.1526" y1="29" x2="466.105" y2="29.3452" gradientUnits="userSpaceOnUse">
<stop offset="0.164182" stop-color="#111111"/>
<stop offset="1" stop-color="#606060"/>
</linearGradient>
<radialGradient id="paint50_radial_30_289" cx="0" cy="0" r="1" gradientUnits="userSpaceOnUse" gradientTransform="translate(339.027 333.515) rotate(-147.906) scale(42.4103 35.1403)">
<stop stop-color="#272626"/>
<stop offset="1" stop-color="#060606"/>
</radialGradient>
<linearGradient id="paint51_linear_30_289" x1="-10.3333" y1="571.165" x2="11.728" y2="683.927" gradientUnits="userSpaceOnUse">
<stop stop-color="#161616"/>
<stop offset="1" stop-color="#632100"/>
</linearGradient>
<linearGradient id="paint52_linear_30_289" x1="114.943" y1="907.156" x2="-30.8647" y2="811.58" gradientUnits="userSpaceOnUse">
<stop stop-color="#272626"/>
<stop offset="1" stop-color="#060606"/>
</linearGradient>
</defs>
</svg>
