<svg width="1390" height="729" viewBox="0 0 1390 729" fill="none" xmlns="http://www.w3.org/2000/svg">
<path d="M117 495H758.5H918L992.5 438H1276.5" stroke="#585757" stroke-width="2"/>
<path d="M70 455H758.5H918H1170H1318.5" stroke="#585757" stroke-width="2"/>
<path d="M697 619.5L757.5 656M697 619.5L635.5 660M697 619.5V493.5M697 9V457.5" stroke="url(#paint0_linear_503_4526)" stroke-width="2"/>
<path d="M367 262.75V254.25L374 250L381 254.25V262.75L374 267L367 262.75Z" stroke="#757070" stroke-width="2" stroke-linejoin="round"/>
<path d="M1014 696.75V688.25L1021 684L1028 688.25V696.75L1021 701L1014 696.75Z" stroke="#757070" stroke-width="2" stroke-linejoin="round"/>
<path d="M502 118.75V110.25L509 106L516 110.25V118.75L509 123L502 118.75Z" stroke="#757070" stroke-width="2" stroke-linejoin="round"/>
<path d="M877 118.75V110.25L884 106L891 110.25V118.75L884 123L877 118.75Z" stroke="#757070" stroke-width="2" stroke-linejoin="round"/>
<path d="M367 696.75V688.25L374 684L381 688.25V696.75L374 701L367 696.75Z" fill="#757070" stroke="#757070" stroke-width="2" stroke-linejoin="round"/>
<path d="M1 479.75V471.25L8.00025 467L15 471.25V479.75L8.00025 484L1 479.75Z" fill="#757070" stroke="#757070" stroke-width="2" stroke-linejoin="round"/>
<path d="M1014 264.75V256.25L1021 252L1028 256.25V264.75L1021 269L1014 264.75Z" fill="#757070" stroke="#757070" stroke-width="2" stroke-linejoin="round"/>
<path d="M175 367V361L180 358L185 361V367L180 370L175 367Z" fill="#757070" stroke="#757070" stroke-width="2" stroke-linejoin="round"/>
<path d="M1204 208.75V140.25L1260.5 106L1317 140.25V208.75L1260.5 243L1204 208.75Z" fill="url(#paint1_radial_503_4526)" stroke="#414040" stroke-opacity="0.87" stroke-width="4" stroke-linejoin="round"/>
<path d="M15 658.25V608.75L56.0015 584L97 608.75V658.25L56.0015 683L15 658.25Z" fill="url(#paint2_linear_503_4526)"/>
<path d="M632 661.75V655.25L637.5 652L643 655.25V661.75L637.5 665L632 661.75Z" fill="#757070" stroke="#757070" stroke-width="2" stroke-linejoin="round"/>
<path d="M692 444.75V438.25L697.5 435L703 438.25V444.75L697.5 448L692 444.75Z" fill="#757070" stroke="#757070" stroke-width="2" stroke-linejoin="round"/>
<path d="M692 510.75V504.25L697.5 501L703 504.25V510.75L697.5 514L692 510.75Z" fill="#757070" stroke="#757070" stroke-width="2" stroke-linejoin="round"/>
<path d="M691 10.75V4.25L696.5 1L702 4.25V10.75L696.5 14L691 10.75Z" fill="#757070" stroke="#757070" stroke-width="2" stroke-linejoin="round"/>
<path d="M757 661.75V655.25L762.5 652L768 655.25V661.75L762.5 665L757 661.75Z" stroke="#757070" stroke-width="2" stroke-linejoin="round"/>
<path d="M564 626.75V620.25L569.5 617L575 620.25V626.75L569.5 630L564 626.75Z" stroke="#757070" stroke-width="2" stroke-linejoin="round"/>
<path d="M681 484.75V466.25L697.001 457L713 466.25V484.75L697.001 494L681 484.75Z" stroke="#757070" stroke-width="2" stroke-linejoin="round"/>
<path d="M1378 478.75V472.25L1383.5 469L1389 472.25V478.75L1383.5 482L1378 478.75Z" stroke="#757070" stroke-width="2" stroke-linejoin="round"/>
<path d="M922 191.5V262L1046.5 191.5" stroke="url(#paint3_linear_503_4526)" stroke-width="3"/>
<path d="M1045 195V189L1050 186L1055 189V195L1050 198L1045 195Z" fill="#757070" stroke="#757070" stroke-width="2" stroke-linejoin="round"/>
<path d="M1277 441V435L1282 432L1287 435V441L1282 444L1277 441Z" fill="#757070" stroke="#757070" stroke-width="2" stroke-linejoin="round"/>
<path d="M437 257V251L442 248L447 251V257L442 260L437 257Z" fill="#757070" stroke="#757070" stroke-width="2" stroke-linejoin="round"/>
<path d="M915 265.75V257.25L922 253L929 257.25V265.75L922 270L915 265.75Z" fill="#757070" stroke="#757070" stroke-width="2" stroke-linejoin="round"/>
<path d="M916 188.75V182.25L921.5 179L927 182.25V188.75L921.5 192L916 188.75Z" stroke="#757070" stroke-width="2" stroke-linejoin="round"/>
<path d="M1262.49 371.791C1262.18 371.611 1262 371.285 1262 370.934V357.066C1262 356.715 1262.18 356.389 1262.49 356.209L1273.99 349.309C1274.3 349.119 1274.7 349.119 1275.01 349.309L1286.51 356.209C1286.82 356.389 1287 356.715 1287 357.066V370.934C1287 371.285 1286.82 371.611 1286.51 371.791L1275.01 378.691C1274.7 378.881 1274.3 378.881 1273.99 378.691L1262.49 371.791Z" fill="#212121" stroke="#212121" stroke-linejoin="round"/>
<path d="M1277 397.5V382.5L1289.5 375L1302 382.5V397.5L1289.5 405L1277 397.5Z" stroke="#757070" stroke-width="2" stroke-linejoin="round"/>
<path d="M1277 345.5V330.5L1289.5 323L1302 330.5V345.5L1289.5 353L1277 345.5Z" fill="#757070" stroke="#757070" stroke-width="2" stroke-linejoin="round"/>
<path d="M1307 345.5V330.5L1319.5 323L1332 330.5V345.5L1319.5 353L1307 345.5Z" fill="#757070" stroke="#757070" stroke-width="2" stroke-linejoin="round"/>
<path d="M1292 371.5V356.5L1304.5 349L1317 356.5V371.5L1304.5 379L1292 371.5Z" stroke="#757070" stroke-width="2" stroke-linejoin="round"/>
<path d="M1166 177.75V171.25L1171.5 168L1177 171.25V177.75L1171.5 181L1166 177.75Z" stroke="#757070" stroke-width="2" stroke-linejoin="round"/>
<path d="M1172.5 113.5V169.5M1172.5 286V181.5" stroke="#757070" stroke-width="2"/>
<path d="M138.5 366.5V437H52.5" stroke="#757070" stroke-width="2"/>
<path d="M145 432.25V440.75L138 445L131 440.75V432.25L138 428L145 432.25Z" fill="#757070" stroke="#757070" stroke-width="2" stroke-linejoin="round"/>
<path d="M143 364.75V370.25L138.5 373L134 370.25V364.75L138.5 362L143 364.75Z" fill="#757070" stroke="#757070" stroke-width="2" stroke-linejoin="round"/>
<path d="M52 433.25V439.75L46.4998 443L41 439.75V433.25L46.4998 430L52 433.25Z" stroke="#757070" stroke-width="2" stroke-linejoin="round"/>
<path d="M374 693.5L696.5 505L1014.47 689.708M374 693.5L180.5 581.5V364L367 258.835M374 693.5V729M381 260.088L441.5 294.5M1027.5 689.708L1213 581.5V369L1021 258L826.3 369M441.5 294.5V171M441.5 294.5L569.5 369.371M569.5 369.371L696.5 443L826.3 369M569.5 369.371V618M826.3 369V580.4" stroke="#757070" stroke-width="2"/>
<path d="M15 475H681M1378 475H714" stroke="#757070" stroke-width="2"/>
<path d="M509 399L509 122M884.5 399V122M515.5 110.766L697 6.5L878 110.756" stroke="#757070" stroke-width="2"/>
<path d="M17.1557 88.1466V92.4397L13.5777 94.5862L10 92.4397V88.1466L13.5777 86L17.1557 88.1466Z" fill="url(#paint4_linear_503_4526)"/>
<path d="M17.1557 106.75V111.043L13.5777 113.19L10 111.043V106.75L13.5777 104.603L17.1557 106.75Z" fill="url(#paint5_linear_503_4526)"/>
<path d="M17.1557 125.353V129.647L13.5777 131.793L10 129.647V125.353L13.5777 123.207L17.1557 125.353Z" fill="url(#paint6_linear_503_4526)"/>
<path d="M17.1557 143.957V148.25L13.5777 150.397L10 148.25V143.957L13.5777 141.81L17.1557 143.957Z" fill="url(#paint7_linear_503_4526)"/>
<path d="M17.1557 162.56V166.853L13.5777 169L10 166.853V162.56L13.5777 160.414L17.1557 162.56Z" fill="url(#paint8_linear_503_4526)"/>
<path d="M42.9162 88.1466V92.4397L39.3382 94.5862L35.7605 92.4397V88.1466L39.3382 86L42.9162 88.1466Z" fill="url(#paint9_linear_503_4526)"/>
<path d="M42.9162 106.75V111.043L39.3382 113.19L35.7605 111.043V106.75L39.3382 104.603L42.9162 106.75Z" fill="url(#paint10_linear_503_4526)"/>
<path d="M42.9162 125.353V129.647L39.3382 131.793L35.7605 129.647V125.353L39.3382 123.207L42.9162 125.353Z" fill="url(#paint11_linear_503_4526)"/>
<path d="M42.9162 143.957V148.25L39.3382 150.397L35.7605 148.25V143.957L39.3382 141.81L42.9162 143.957Z" fill="url(#paint12_linear_503_4526)"/>
<path d="M42.9162 162.56V166.853L39.3382 169L35.7605 166.853V162.56L39.3382 160.414L42.9162 162.56Z" fill="url(#paint13_linear_503_4526)"/>
<path d="M68.6766 88.1466V92.4397L65.0987 94.5862L61.521 92.4397V88.1466L65.0987 86L68.6766 88.1466Z" fill="url(#paint14_linear_503_4526)"/>
<path d="M68.6766 106.75V111.043L65.0987 113.19L61.521 111.043V106.75L65.0987 104.603L68.6766 106.75Z" fill="url(#paint15_linear_503_4526)"/>
<path d="M68.6766 125.353V129.647L65.0987 131.793L61.521 129.647V125.353L65.0987 123.207L68.6766 125.353Z" fill="url(#paint16_linear_503_4526)"/>
<path d="M68.6766 143.957V148.25L65.0987 150.397L61.521 148.25V143.957L65.0987 141.81L68.6766 143.957Z" fill="url(#paint17_linear_503_4526)"/>
<path d="M68.6766 162.56V166.853L65.0987 169L61.521 166.853V162.56L65.0987 160.414L68.6766 162.56Z" fill="url(#paint18_linear_503_4526)"/>
<path d="M94.4371 88.1466V92.4397L90.8592 94.5862L87.2814 92.4397V88.1466L90.8592 86L94.4371 88.1466Z" fill="url(#paint19_linear_503_4526)"/>
<path d="M94.4371 106.75V111.043L90.8592 113.19L87.2814 111.043V106.75L90.8592 104.603L94.4371 106.75Z" fill="url(#paint20_linear_503_4526)"/>
<path d="M94.4371 125.353V129.647L90.8592 131.793L87.2814 129.647V125.353L90.8592 123.207L94.4371 125.353Z" fill="url(#paint21_linear_503_4526)"/>
<path d="M94.4371 143.957V148.25L90.8592 150.397L87.2814 148.25V143.957L90.8592 141.81L94.4371 143.957Z" fill="url(#paint22_linear_503_4526)"/>
<path d="M94.4371 162.56V166.853L90.8592 169L87.2814 166.853V162.56L90.8592 160.414L94.4371 162.56Z" fill="url(#paint23_linear_503_4526)"/>
<path d="M120.198 88.1466V92.4397L116.62 94.5862L113.042 92.4397V88.1466L116.62 86L120.198 88.1466Z" fill="url(#paint24_linear_503_4526)"/>
<path d="M120.198 106.75V111.043L116.62 113.19L113.042 111.043V106.75L116.62 104.603L120.198 106.75Z" fill="url(#paint25_linear_503_4526)"/>
<path d="M120.198 125.353V129.647L116.62 131.793L113.042 129.647V125.353L116.62 123.207L120.198 125.353Z" fill="url(#paint26_linear_503_4526)"/>
<path d="M120.198 143.957V148.25L116.62 150.397L113.042 148.25V143.957L116.62 141.81L120.198 143.957Z" fill="url(#paint27_linear_503_4526)"/>
<path d="M120.198 162.56V166.853L116.62 169L113.042 166.853V162.56L116.62 160.414L120.198 162.56Z" fill="url(#paint28_linear_503_4526)"/>
<path d="M145.958 88.1466V92.4397L142.38 94.5862L138.802 92.4397V88.1466L142.38 86L145.958 88.1466Z" fill="url(#paint29_linear_503_4526)"/>
<path d="M145.958 106.75V111.043L142.38 113.19L138.802 111.043V106.75L142.38 104.603L145.958 106.75Z" fill="url(#paint30_linear_503_4526)"/>
<path d="M145.958 125.353V129.647L142.38 131.793L138.802 129.647V125.353L142.38 123.207L145.958 125.353Z" fill="url(#paint31_linear_503_4526)"/>
<path d="M145.958 143.957V148.25L142.38 150.397L138.802 148.25V143.957L142.38 141.81L145.958 143.957Z" fill="url(#paint32_linear_503_4526)"/>
<path d="M145.958 162.56V166.853L142.38 169L138.802 166.853V162.56L142.38 160.414L145.958 162.56Z" fill="url(#paint33_linear_503_4526)"/>
<path d="M171.719 88.1466V92.4397L168.141 94.5862L164.563 92.4397V88.1466L168.141 86L171.719 88.1466Z" fill="url(#paint34_linear_503_4526)"/>
<path d="M171.719 106.75V111.043L168.141 113.19L164.563 111.043V106.75L168.141 104.603L171.719 106.75Z" fill="url(#paint35_linear_503_4526)"/>
<path d="M171.719 125.353V129.647L168.141 131.793L164.563 129.647V125.353L168.141 123.207L171.719 125.353Z" fill="url(#paint36_linear_503_4526)"/>
<path d="M171.719 143.957V148.25L168.141 150.397L164.563 148.25V143.957L168.141 141.81L171.719 143.957Z" fill="url(#paint37_linear_503_4526)"/>
<path d="M171.719 162.56V166.853L168.141 169L164.563 166.853V162.56L168.141 160.414L171.719 162.56Z" fill="url(#paint38_linear_503_4526)"/>
<path d="M197.479 88.1466V92.4397L193.901 94.5862L190.323 92.4397V88.1466L193.901 86L197.479 88.1466Z" fill="url(#paint39_linear_503_4526)"/>
<path d="M197.479 106.75V111.043L193.901 113.19L190.323 111.043V106.75L193.901 104.603L197.479 106.75Z" fill="url(#paint40_linear_503_4526)"/>
<path d="M197.479 125.353V129.647L193.901 131.793L190.323 129.647V125.353L193.901 123.207L197.479 125.353Z" fill="url(#paint41_linear_503_4526)"/>
<path d="M197.479 143.957V148.25L193.901 150.397L190.323 148.25V143.957L193.901 141.81L197.479 143.957Z" fill="url(#paint42_linear_503_4526)"/>
<path d="M197.479 162.56V166.853L193.901 169L190.323 166.853V162.56L193.901 160.414L197.479 162.56Z" fill="url(#paint43_linear_503_4526)"/>
<path d="M223.24 88.1466V92.4397L219.662 94.5862L216.084 92.4397V88.1466L219.662 86L223.24 88.1466Z" fill="url(#paint44_linear_503_4526)"/>
<path d="M223.24 106.75V111.043L219.662 113.19L216.084 111.043V106.75L219.662 104.603L223.24 106.75Z" fill="url(#paint45_linear_503_4526)"/>
<path d="M223.24 125.353V129.647L219.662 131.793L216.084 129.647V125.353L219.662 123.207L223.24 125.353Z" fill="url(#paint46_linear_503_4526)"/>
<path d="M223.24 143.957V148.25L219.662 150.397L216.084 148.25V143.957L219.662 141.81L223.24 143.957Z" fill="url(#paint47_linear_503_4526)"/>
<path d="M223.24 162.56V166.853L219.662 169L216.084 166.853V162.56L219.662 160.414L223.24 162.56Z" fill="url(#paint48_linear_503_4526)"/>
<path d="M249 88.1466V92.4397L245.422 94.5862L241.844 92.4397V88.1466L245.422 86L249 88.1466Z" fill="url(#paint49_linear_503_4526)"/>
<path d="M249 106.75V111.043L245.422 113.19L241.844 111.043V106.75L245.422 104.603L249 106.75Z" fill="url(#paint50_linear_503_4526)"/>
<path d="M249 125.353V129.647L245.422 131.793L241.844 129.647V125.353L245.422 123.207L249 125.353Z" fill="url(#paint51_linear_503_4526)"/>
<path d="M249 143.957V148.25L245.422 150.397L241.844 148.25V143.957L245.422 141.81L249 143.957Z" fill="url(#paint52_linear_503_4526)"/>
<path d="M249 162.56V166.853L245.422 169L241.844 166.853V162.56L245.422 160.414L249 162.56Z" fill="url(#paint53_linear_503_4526)"/>
<path d="M1260.5 581.5V511H1346.5" stroke="url(#paint54_linear_503_4526)" stroke-width="3"/>
<path d="M1347 514.75V508.25L1352.5 505L1358 508.25V514.75L1352.5 518L1347 514.75Z" stroke="#757070" stroke-width="2" stroke-linejoin="round"/>
<path d="M1254 515.75V507.25L1261 503L1268 507.25V515.75L1261 520L1254 515.75Z" fill="#757070" stroke="#757070" stroke-width="2" stroke-linejoin="round"/>
<path d="M1206 587.75V579.25L1213 575L1220 579.25V587.75L1213 592L1206 587.75Z" fill="#757070" stroke="#757070" stroke-width="2" stroke-linejoin="round"/>
<path d="M1256 583.25V577.75L1260.5 575L1265 577.75V583.25L1260.5 586L1256 583.25Z" fill="#757070" stroke="#757070" stroke-width="2" stroke-linejoin="round"/>
<defs>
<linearGradient id="paint0_linear_503_4526" x1="612.117" y1="-60.9421" x2="1319.38" y2="320.138" gradientUnits="userSpaceOnUse">
<stop stop-color="#161616"/>
<stop offset="1" stop-color="#632100"/>
</linearGradient>
<radialGradient id="paint1_radial_503_4526" cx="0" cy="0" r="1" gradientUnits="userSpaceOnUse" gradientTransform="translate(1286 202.5) rotate(-148.173) scale(119.462 98.5346)">
<stop stop-color="#272626"/>
<stop offset="1" stop-color="#060606"/>
</radialGradient>
<linearGradient id="paint2_linear_503_4526" x1="180.547" y1="716.258" x2="-59.4498" y2="559.894" gradientUnits="userSpaceOnUse">
<stop stop-color="#272626"/>
<stop offset="1" stop-color="#060606"/>
</linearGradient>
<linearGradient id="paint3_linear_503_4526" x1="898.137" y1="183.926" x2="932.914" y2="360.499" gradientUnits="userSpaceOnUse">
<stop stop-color="#161616"/>
<stop offset="1" stop-color="#632100"/>
</linearGradient>
<linearGradient id="paint4_linear_503_4526" x1="-23.3342" y1="127.5" x2="671" y2="128" gradientUnits="userSpaceOnUse">
<stop offset="0.164182" stop-color="#111111"/>
<stop offset="1" stop-color="#606060"/>
</linearGradient>
<linearGradient id="paint5_linear_503_4526" x1="-23.3342" y1="127.5" x2="671" y2="128" gradientUnits="userSpaceOnUse">
<stop offset="0.164182" stop-color="#111111"/>
<stop offset="1" stop-color="#606060"/>
</linearGradient>
<linearGradient id="paint6_linear_503_4526" x1="-23.3342" y1="127.5" x2="671" y2="128" gradientUnits="userSpaceOnUse">
<stop offset="0.164182" stop-color="#111111"/>
<stop offset="1" stop-color="#606060"/>
</linearGradient>
<linearGradient id="paint7_linear_503_4526" x1="-23.3342" y1="127.5" x2="671" y2="128" gradientUnits="userSpaceOnUse">
<stop offset="0.164182" stop-color="#111111"/>
<stop offset="1" stop-color="#606060"/>
</linearGradient>
<linearGradient id="paint8_linear_503_4526" x1="-23.3342" y1="127.5" x2="671" y2="128" gradientUnits="userSpaceOnUse">
<stop offset="0.164182" stop-color="#111111"/>
<stop offset="1" stop-color="#606060"/>
</linearGradient>
<linearGradient id="paint9_linear_503_4526" x1="-23.3342" y1="127.5" x2="671" y2="128" gradientUnits="userSpaceOnUse">
<stop offset="0.164182" stop-color="#111111"/>
<stop offset="1" stop-color="#606060"/>
</linearGradient>
<linearGradient id="paint10_linear_503_4526" x1="-23.3342" y1="127.5" x2="671" y2="128" gradientUnits="userSpaceOnUse">
<stop offset="0.164182" stop-color="#111111"/>
<stop offset="1" stop-color="#606060"/>
</linearGradient>
<linearGradient id="paint11_linear_503_4526" x1="-23.3342" y1="127.5" x2="671" y2="128" gradientUnits="userSpaceOnUse">
<stop offset="0.164182" stop-color="#111111"/>
<stop offset="1" stop-color="#606060"/>
</linearGradient>
<linearGradient id="paint12_linear_503_4526" x1="-23.3342" y1="127.5" x2="671" y2="128" gradientUnits="userSpaceOnUse">
<stop offset="0.164182" stop-color="#111111"/>
<stop offset="1" stop-color="#606060"/>
</linearGradient>
<linearGradient id="paint13_linear_503_4526" x1="-23.3342" y1="127.5" x2="671" y2="128" gradientUnits="userSpaceOnUse">
<stop offset="0.164182" stop-color="#111111"/>
<stop offset="1" stop-color="#606060"/>
</linearGradient>
<linearGradient id="paint14_linear_503_4526" x1="-23.3342" y1="127.5" x2="671" y2="128" gradientUnits="userSpaceOnUse">
<stop offset="0.164182" stop-color="#111111"/>
<stop offset="1" stop-color="#606060"/>
</linearGradient>
<linearGradient id="paint15_linear_503_4526" x1="-23.3342" y1="127.5" x2="671" y2="128" gradientUnits="userSpaceOnUse">
<stop offset="0.164182" stop-color="#111111"/>
<stop offset="1" stop-color="#606060"/>
</linearGradient>
<linearGradient id="paint16_linear_503_4526" x1="-23.3342" y1="127.5" x2="671" y2="128" gradientUnits="userSpaceOnUse">
<stop offset="0.164182" stop-color="#111111"/>
<stop offset="1" stop-color="#606060"/>
</linearGradient>
<linearGradient id="paint17_linear_503_4526" x1="-23.3342" y1="127.5" x2="671" y2="128" gradientUnits="userSpaceOnUse">
<stop offset="0.164182" stop-color="#111111"/>
<stop offset="1" stop-color="#606060"/>
</linearGradient>
<linearGradient id="paint18_linear_503_4526" x1="-23.3342" y1="127.5" x2="671" y2="128" gradientUnits="userSpaceOnUse">
<stop offset="0.164182" stop-color="#111111"/>
<stop offset="1" stop-color="#606060"/>
</linearGradient>
<linearGradient id="paint19_linear_503_4526" x1="-23.3342" y1="127.5" x2="671" y2="128" gradientUnits="userSpaceOnUse">
<stop offset="0.164182" stop-color="#111111"/>
<stop offset="1" stop-color="#606060"/>
</linearGradient>
<linearGradient id="paint20_linear_503_4526" x1="-23.3342" y1="127.5" x2="671" y2="128" gradientUnits="userSpaceOnUse">
<stop offset="0.164182" stop-color="#111111"/>
<stop offset="1" stop-color="#606060"/>
</linearGradient>
<linearGradient id="paint21_linear_503_4526" x1="-23.3342" y1="127.5" x2="671" y2="128" gradientUnits="userSpaceOnUse">
<stop offset="0.164182" stop-color="#111111"/>
<stop offset="1" stop-color="#606060"/>
</linearGradient>
<linearGradient id="paint22_linear_503_4526" x1="-23.3342" y1="127.5" x2="671" y2="128" gradientUnits="userSpaceOnUse">
<stop offset="0.164182" stop-color="#111111"/>
<stop offset="1" stop-color="#606060"/>
</linearGradient>
<linearGradient id="paint23_linear_503_4526" x1="-23.3342" y1="127.5" x2="671" y2="128" gradientUnits="userSpaceOnUse">
<stop offset="0.164182" stop-color="#111111"/>
<stop offset="1" stop-color="#606060"/>
</linearGradient>
<linearGradient id="paint24_linear_503_4526" x1="-23.3342" y1="127.5" x2="671" y2="128" gradientUnits="userSpaceOnUse">
<stop offset="0.164182" stop-color="#111111"/>
<stop offset="1" stop-color="#606060"/>
</linearGradient>
<linearGradient id="paint25_linear_503_4526" x1="-23.3342" y1="127.5" x2="671" y2="128" gradientUnits="userSpaceOnUse">
<stop offset="0.164182" stop-color="#111111"/>
<stop offset="1" stop-color="#606060"/>
</linearGradient>
<linearGradient id="paint26_linear_503_4526" x1="-23.3342" y1="127.5" x2="671" y2="128" gradientUnits="userSpaceOnUse">
<stop offset="0.164182" stop-color="#111111"/>
<stop offset="1" stop-color="#606060"/>
</linearGradient>
<linearGradient id="paint27_linear_503_4526" x1="-23.3342" y1="127.5" x2="671" y2="128" gradientUnits="userSpaceOnUse">
<stop offset="0.164182" stop-color="#111111"/>
<stop offset="1" stop-color="#606060"/>
</linearGradient>
<linearGradient id="paint28_linear_503_4526" x1="-23.3342" y1="127.5" x2="671" y2="128" gradientUnits="userSpaceOnUse">
<stop offset="0.164182" stop-color="#111111"/>
<stop offset="1" stop-color="#606060"/>
</linearGradient>
<linearGradient id="paint29_linear_503_4526" x1="-23.3342" y1="127.5" x2="671" y2="128" gradientUnits="userSpaceOnUse">
<stop offset="0.164182" stop-color="#111111"/>
<stop offset="1" stop-color="#606060"/>
</linearGradient>
<linearGradient id="paint30_linear_503_4526" x1="-23.3342" y1="127.5" x2="671" y2="128" gradientUnits="userSpaceOnUse">
<stop offset="0.164182" stop-color="#111111"/>
<stop offset="1" stop-color="#606060"/>
</linearGradient>
<linearGradient id="paint31_linear_503_4526" x1="-23.3342" y1="127.5" x2="671" y2="128" gradientUnits="userSpaceOnUse">
<stop offset="0.164182" stop-color="#111111"/>
<stop offset="1" stop-color="#606060"/>
</linearGradient>
<linearGradient id="paint32_linear_503_4526" x1="-23.3342" y1="127.5" x2="671" y2="128" gradientUnits="userSpaceOnUse">
<stop offset="0.164182" stop-color="#111111"/>
<stop offset="1" stop-color="#606060"/>
</linearGradient>
<linearGradient id="paint33_linear_503_4526" x1="-23.3342" y1="127.5" x2="671" y2="128" gradientUnits="userSpaceOnUse">
<stop offset="0.164182" stop-color="#111111"/>
<stop offset="1" stop-color="#606060"/>
</linearGradient>
<linearGradient id="paint34_linear_503_4526" x1="-23.3342" y1="127.5" x2="671" y2="128" gradientUnits="userSpaceOnUse">
<stop offset="0.164182" stop-color="#111111"/>
<stop offset="1" stop-color="#606060"/>
</linearGradient>
<linearGradient id="paint35_linear_503_4526" x1="-23.3342" y1="127.5" x2="671" y2="128" gradientUnits="userSpaceOnUse">
<stop offset="0.164182" stop-color="#111111"/>
<stop offset="1" stop-color="#606060"/>
</linearGradient>
<linearGradient id="paint36_linear_503_4526" x1="-23.3342" y1="127.5" x2="671" y2="128" gradientUnits="userSpaceOnUse">
<stop offset="0.164182" stop-color="#111111"/>
<stop offset="1" stop-color="#606060"/>
</linearGradient>
<linearGradient id="paint37_linear_503_4526" x1="-23.3342" y1="127.5" x2="671" y2="128" gradientUnits="userSpaceOnUse">
<stop offset="0.164182" stop-color="#111111"/>
<stop offset="1" stop-color="#606060"/>
</linearGradient>
<linearGradient id="paint38_linear_503_4526" x1="-23.3342" y1="127.5" x2="671" y2="128" gradientUnits="userSpaceOnUse">
<stop offset="0.164182" stop-color="#111111"/>
<stop offset="1" stop-color="#606060"/>
</linearGradient>
<linearGradient id="paint39_linear_503_4526" x1="-23.3342" y1="127.5" x2="671" y2="128" gradientUnits="userSpaceOnUse">
<stop offset="0.164182" stop-color="#111111"/>
<stop offset="1" stop-color="#606060"/>
</linearGradient>
<linearGradient id="paint40_linear_503_4526" x1="-23.3342" y1="127.5" x2="671" y2="128" gradientUnits="userSpaceOnUse">
<stop offset="0.164182" stop-color="#111111"/>
<stop offset="1" stop-color="#606060"/>
</linearGradient>
<linearGradient id="paint41_linear_503_4526" x1="-23.3342" y1="127.5" x2="671" y2="128" gradientUnits="userSpaceOnUse">
<stop offset="0.164182" stop-color="#111111"/>
<stop offset="1" stop-color="#606060"/>
</linearGradient>
<linearGradient id="paint42_linear_503_4526" x1="-23.3342" y1="127.5" x2="671" y2="128" gradientUnits="userSpaceOnUse">
<stop offset="0.164182" stop-color="#111111"/>
<stop offset="1" stop-color="#606060"/>
</linearGradient>
<linearGradient id="paint43_linear_503_4526" x1="-23.3342" y1="127.5" x2="671" y2="128" gradientUnits="userSpaceOnUse">
<stop offset="0.164182" stop-color="#111111"/>
<stop offset="1" stop-color="#606060"/>
</linearGradient>
<linearGradient id="paint44_linear_503_4526" x1="-23.3342" y1="127.5" x2="671" y2="128" gradientUnits="userSpaceOnUse">
<stop offset="0.164182" stop-color="#111111"/>
<stop offset="1" stop-color="#606060"/>
</linearGradient>
<linearGradient id="paint45_linear_503_4526" x1="-23.3342" y1="127.5" x2="671" y2="128" gradientUnits="userSpaceOnUse">
<stop offset="0.164182" stop-color="#111111"/>
<stop offset="1" stop-color="#606060"/>
</linearGradient>
<linearGradient id="paint46_linear_503_4526" x1="-23.3342" y1="127.5" x2="671" y2="128" gradientUnits="userSpaceOnUse">
<stop offset="0.164182" stop-color="#111111"/>
<stop offset="1" stop-color="#606060"/>
</linearGradient>
<linearGradient id="paint47_linear_503_4526" x1="-23.3342" y1="127.5" x2="671" y2="128" gradientUnits="userSpaceOnUse">
<stop offset="0.164182" stop-color="#111111"/>
<stop offset="1" stop-color="#606060"/>
</linearGradient>
<linearGradient id="paint48_linear_503_4526" x1="-23.3342" y1="127.5" x2="671" y2="128" gradientUnits="userSpaceOnUse">
<stop offset="0.164182" stop-color="#111111"/>
<stop offset="1" stop-color="#606060"/>
</linearGradient>
<linearGradient id="paint49_linear_503_4526" x1="-23.3342" y1="127.5" x2="671" y2="128" gradientUnits="userSpaceOnUse">
<stop offset="0.164182" stop-color="#111111"/>
<stop offset="1" stop-color="#606060"/>
</linearGradient>
<linearGradient id="paint50_linear_503_4526" x1="-23.3342" y1="127.5" x2="671" y2="128" gradientUnits="userSpaceOnUse">
<stop offset="0.164182" stop-color="#111111"/>
<stop offset="1" stop-color="#606060"/>
</linearGradient>
<linearGradient id="paint51_linear_503_4526" x1="-23.3342" y1="127.5" x2="671" y2="128" gradientUnits="userSpaceOnUse">
<stop offset="0.164182" stop-color="#111111"/>
<stop offset="1" stop-color="#606060"/>
</linearGradient>
<linearGradient id="paint52_linear_503_4526" x1="-23.3342" y1="127.5" x2="671" y2="128" gradientUnits="userSpaceOnUse">
<stop offset="0.164182" stop-color="#111111"/>
<stop offset="1" stop-color="#606060"/>
</linearGradient>
<linearGradient id="paint53_linear_503_4526" x1="-23.3342" y1="127.5" x2="671" y2="128" gradientUnits="userSpaceOnUse">
<stop offset="0.164182" stop-color="#111111"/>
<stop offset="1" stop-color="#606060"/>
</linearGradient>
<linearGradient id="paint54_linear_503_4526" x1="1421" y1="425.5" x2="1196.5" y2="590.5" gradientUnits="userSpaceOnUse">
<stop stop-color="#712601"/>
<stop offset="1" stop-color="#2C2C2C"/>
</linearGradient>
</defs>
</svg>
