<svg width="150" height="174" viewBox="0 0 150 174" fill="none" xmlns="http://www.w3.org/2000/svg">
<path d="M74.6359 1.73576L147.772 44.3212V129.514L74.6359 172.1L1.5 129.514V44.3212L74.6359 1.73576Z" fill="#282828" stroke="#CBE858" stroke-width="3" stroke-linejoin="round"/>
<path d="M110.857 76.9219C109.611 76.9219 108.365 77.0096 107.119 77.2288C106.451 73.3267 104.137 69.9069 100.755 67.8462L99.5094 67.1447L98.6639 68.3285C97.5959 69.9069 96.8394 71.7045 96.3944 73.5459C95.5044 76.8342 96.0384 80.3855 97.8629 83.2792C95.8159 84.1561 93.6355 84.6822 91.4105 84.8137H32.8051C31.2921 84.8137 30.0462 86.0414 30.0017 87.5321C29.9572 92.6179 30.8027 97.6161 32.5826 102.395C34.1846 107.086 37.2995 111.076 41.4825 113.794C47.5788 116.82 54.3427 118.267 61.1511 117.96C64.7555 118.003 68.36 117.74 71.9199 117.17C76.9038 116.294 81.7097 114.584 86.1151 112.128C89.764 109.936 93.0125 107.218 95.7714 104.017C99.8654 99.2383 103.069 93.8017 105.25 87.9266H106.095C109.789 88.0582 113.349 86.7429 116.019 84.2438C117.176 83.1915 118.066 81.8762 118.644 80.4294L119 79.4648L118.11 78.7633C115.974 77.4041 113.393 76.7465 110.857 76.9219Z" fill="#D2D2D2"/>
<path d="M46.0659 74.8612H38.234C37.878 74.8612 37.5665 75.1681 37.522 75.5189V82.4462C37.522 82.7969 37.878 83.1038 38.234 83.1038H46.0659C46.4219 83.1038 46.7334 82.7969 46.7779 82.4462V75.5189C46.7779 75.1681 46.4219 74.8612 46.0659 74.8612ZM56.9237 74.8612H49.0473C48.6913 74.8612 48.3798 75.1681 48.3353 75.5189V82.4462C48.3353 82.7969 48.6913 83.1038 49.0473 83.1038H56.9237C57.2797 83.1038 57.5912 82.7969 57.5912 82.4462V75.5189C57.5912 75.1681 57.2797 74.8612 56.9237 74.8612ZM67.915 74.8612H60.0386C59.6826 74.8612 59.3711 75.1681 59.3711 75.5189V82.4462C59.3711 82.7969 59.6826 83.1038 60.0386 83.1038H67.915C68.271 83.1038 68.5824 82.7969 68.5824 82.4462V75.5189C68.5824 75.1681 68.271 74.8612 67.915 74.8612ZM70.8964 74.8612C70.5404 74.7735 70.1844 74.9489 70.0954 75.2997C70.0954 75.3435 70.0954 75.4312 70.0954 75.5189V82.4462C70.0954 82.7969 70.4069 83.1038 70.7629 83.1038H78.9952C79.3512 83.1038 79.6627 82.7969 79.6627 82.4462V75.5189C79.6627 75.1681 79.3512 74.8612 78.9952 74.8612H70.8964ZM49.0473 64.9525H56.7012C57.1017 64.9525 57.4132 65.2594 57.4132 65.654V72.4937C57.5022 72.8882 57.2352 73.239 56.8347 73.3267C56.7902 73.3267 56.7457 73.3267 56.7012 73.3267H49.0473C48.6913 73.3267 48.3798 73.0198 48.3798 72.669V65.6102C48.3798 65.2594 48.6913 64.9525 49.0473 64.9525ZM60.0386 64.9525H67.915C68.271 64.9525 68.5824 65.2594 68.5824 65.6102V72.4937C68.5824 72.8882 68.271 73.1952 67.8705 73.1952H60.0386C59.6826 73.1952 59.3711 72.8882 59.3711 72.5375V65.6102C59.3711 65.2594 59.6826 64.9525 60.0386 64.9525ZM70.8964 64.9525H78.9507C79.3067 64.9525 79.6182 65.2594 79.6182 65.6102V72.4937C79.7072 72.8444 79.5292 73.1952 79.1732 73.2828C79.1287 73.2828 79.0397 73.2828 78.9507 73.2828H70.8964C70.4959 73.3705 70.1399 73.1075 70.0509 72.7567C70.0509 72.669 70.0509 72.5813 70.0509 72.4498V65.5663C70.0509 65.2156 70.3179 64.9087 70.6739 64.8648C70.7629 64.8648 70.8074 64.8648 70.8964 64.8648V64.9525Z" fill="#D2D2D2"/>
<path d="M78.7728 55H70.8964C70.5278 55 70.2289 55.2944 70.2289 55.6577V62.585C70.2289 62.9482 70.5278 63.2426 70.8964 63.2426H78.7728C79.1414 63.2426 79.4402 62.9482 79.4402 62.585V55.6577C79.4402 55.2944 79.1414 55 78.7728 55Z" fill="#D2D2D2"/>
<path d="M81.8432 74.8612C81.4872 74.8612 81.1757 75.1681 81.1757 75.5189V82.4462C81.1757 82.7969 81.4872 83.1038 81.8432 83.1038H89.7195C90.0755 83.1038 90.387 82.7969 90.387 82.4462V75.5189C90.387 75.1681 90.0755 74.8612 89.7195 74.8612H81.8432Z" fill="#D2D2D2"/>
</svg>
