<svg width="150" height="174" viewBox="0 0 150 174" fill="none" xmlns="http://www.w3.org/2000/svg">
<path d="M74.6359 1.73576L147.772 44.3212V129.514L74.6359 172.1L1.5 129.514V44.3212L74.6359 1.73576Z" fill="#282828" stroke="#FF9800" stroke-width="3" stroke-linejoin="round"/>
<path d="M85.9975 132H87.0802L104.751 123.067L105.045 122.647V51.3474L104.751 50.9251L87.0798 42H85.984L85.9972 132" fill="#D2D2D2"/>
<path d="M63.0021 132H61.9045L44.2494 123.067L43.8912 122.444L43.7093 51.7101L44.2494 50.9247L61.9045 42H63.0157L63.0021 132Z" fill="#B2B2B2"/>
<path d="M61.9355 42H87.0631V132H61.9355V42Z" fill="#BFBFBF"/>
<path d="M114 84.978L113.402 84.8442L104.877 84.0407L104.75 84.1042L87.0638 83.3891H61.9351L44.2487 84.1042V70.4705L44.2301 70.4806L44.2487 70.4405L61.9351 66.2977H87.0638L104.75 70.4405L111.252 73.9343V71.6883L113.999 71.3843L113.715 70.8235L105.015 64.5346L104.75 64.6215L87.0634 59.0816H61.9348L44.2483 64.6215V50.9251L35 61.879V71.4456L35.0717 71.3933L37.7479 71.6883V73.9804L35 75.4669V84.9856L35.0717 84.978L37.7479 85.018V89.0134L35.4391 89.0483L35.0004 89.0058V98.5284L37.7479 100.022V102.341L35.1152 102.635L35 102.547V112.112L44.249 123.067V109.372L61.9355 114.912H87.0641L104.802 109.356L105.038 109.46L113.624 103.264L114 102.647L111.252 102.341V100.068L110.892 99.9229L105.015 103.125L104.802 103.575L87.0641 107.693V107.698H61.9355V107.693L44.249 103.557V89.8731L61.9355 90.5857V90.603H87.0641L104.75 89.8731L105.153 90.0602L113.417 89.3408L114 89.053L111.252 89.013V85.0177L114 84.9776" fill="#A0A0A0"/>
<path d="M104.75 109.372V123.068L114 112.112V102.61L104.803 109.356L104.75 109.373M104.75 103.587L104.804 103.574L114 98.5742V89.013L104.751 89.8731V103.587M104.804 70.4532L104.75 70.4405V84.1042L114 84.978V75.4215L104.803 70.4528M104.804 64.6753L114 71.3843V61.8815L104.751 50.9254V64.6219L104.804 64.6406V64.6756" fill="#B2B2B2"/>
</svg>
