<?xml version="1.0" encoding="UTF-8"?>
<svg id="Camada_1" xmlns="http://www.w3.org/2000/svg" version="1.1" viewBox="0 0 34 34">
  <!-- Generator: Adobe Illustrator 29.2.1, SVG Export Plug-In . SVG Version: 2.1.0 Build 116)  -->
  <defs>
    <style>
      .st0 {
        fill: #2f3030;
      }

      .st1 {
        fill: #f6f4ef;
      }
    </style>
  </defs>
  <rect class="st1" x=".7" y=".7" width="32.7" height="32.7" rx="3.3" ry="3.3"/>
  <g id="Camada_2-2">
    <g>
      <path class="st0" d="M11.2,10.6c0,1.2-.9,2.2-2.1,2.2s-2.1-1-2.1-2.2.9-2.2,2.1-2.2,2.1,1,2.1,2.2ZM10.8,26.6h-3.4v-12.7h3.4v12.7Z"/>
      <path class="st0" d="M20.4,13.3c3.6,0,6.5,3.1,6.5,6.9s-2.9,6.9-6.5,6.9-3.2-.7-4.3-1.8l-2,2.1c-.1.1-.3.1-.4,0l-1.9-2.1c-.1-.2-.1-.4,0-.5l2.1-2.3V6.4l3.4,1.7v6c.9-.5,1.9-.9,3.1-.9h0ZM17.3,20.3c0,1.8,1.4,3.3,3.1,3.3s3.1-1.4,3.1-3.3-1.4-3.3-3.1-3.3-3.1,1.5-3.1,3.3Z"/>
    </g>
  </g>
</svg>