<?xml version="1.0" encoding="utf-8"?>
<!-- Generator: Adobe Illustrator 28.3.0, SVG Export Plug-In . SVG Version: 6.00 Build 0)  -->
<svg version="1.1" id="Camada_1" xmlns="http://www.w3.org/2000/svg" xmlns:xlink="http://www.w3.org/1999/xlink" x="0px" y="0px"
	 viewBox="0 0 32 32" style="enable-background:new 0 0 32 32;" xml:space="preserve">
<style type="text/css">
	.st0{enable-background:new    ;}
	.st1{fill:#882D00;}
	.st2{fill:#812B00;}
	.st3{fill:#581507;}
	.st4{fill:#531407;}
	.st5{fill:#9E250D;}
	.st6{fill:#F45100;}
	.st7{fill:#872D00;}
	.st8{clip-path:url(#SVGID_00000044166036220983107420000006109710683487135648_);enable-background:new    ;}
	.st9{fill:#852C00;}
</style>
<g>
	<g class="st0">
		<g>
			<polygon class="st1" points="22.2,11.6 19.9,12.1 25.9,7.2 28.1,6.6 			"/>
		</g>
		<g>
			<polygon class="st2" points="23.1,18.5 20.9,19.1 19.9,12.1 22.2,11.6 			"/>
		</g>
		<g>
			<polygon class="st3" points="16.2,8.7 14,9.2 19.9,4.3 22.1,3.8 			"/>
		</g>
		<g>
			<polygon class="st4" points="22.2,11.6 19.9,12.1 14,9.2 16.2,8.7 			"/>
		</g>
		<g>
			<polygon class="st5" points="22.1,3.8 28.1,6.6 22.2,11.6 16.2,8.7 			"/>
		</g>
		<g>
			<polygon class="st1" points="18.1,22.7 15.9,23.2 20.9,19.1 23.1,18.5 			"/>
		</g>
		<g>
			<path class="st6" d="M28.1,6.6l2,14.8c0,0.2,0,0.5-0.2,0.6l-10.6,9l-1.2-8.4l5-4.1l-1-7L28.1,6.6z"/>
		</g>
		<g>
			<polygon class="st2" points="19.3,31.1 17,31.6 15.9,23.2 18.1,22.7 			"/>
		</g>
		<g>
			<polygon class="st7" points="4.3,9.5 2,10 12.8,0.9 15.1,0.4 			"/>
		</g>
		<g class="st0">
			<defs>
				<path id="SVGID_1_" class="st0" d="M4.1,10l-2.3,0.5c0-0.2,0-0.4,0.2-0.6l2.3-0.5C4.2,9.6,4.1,9.8,4.1,10z"/>
			</defs>
			<clipPath id="SVGID_00000039825966091656512840000010119159078799496875_">
				<use xlink:href="#SVGID_1_"  style="overflow:visible;"/>
			</clipPath>
			<g style="clip-path:url(#SVGID_00000039825966091656512840000010119159078799496875_);enable-background:new    ;">
				<path class="st9" d="M4.1,10l-2.3,0.5c0-0.2,0-0.4,0.2-0.6l2.3-0.5C4.2,9.6,4.1,9.8,4.1,10"/>
			</g>
		</g>
		<g>
			<polygon class="st3" points="6.1,24.9 3.9,25.4 9.9,20.4 12.2,19.8 			"/>
		</g>
		<g>
			<polygon class="st2" points="6.1,24.9 3.9,25.4 1.8,10.6 4.1,10 			"/>
		</g>
		<g>
			<polygon class="st4" points="12.2,27.7 10,28.3 3.9,25.4 6.1,24.9 			"/>
		</g>
		<g>
			<polygon class="st5" points="12.2,19.8 18.1,22.7 12.2,27.7 6.1,24.9 			"/>
		</g>
		<g>
			<path class="st6" d="M15.1,0.4l1.1,8.3l-5,4.1l1,7l-6,5.1L4.1,10c0-0.2,0-0.4,0.2-0.6L15.1,0.4z"/>
		</g>
	</g>
</g>
</svg>
