<?xml version="1.0" encoding="UTF-8"?>
<svg id="Camada_1" xmlns="http://www.w3.org/2000/svg" version="1.1" viewBox="0 0 24 24">
  <!-- Generator: Adobe Illustrator 29.1.0, SVG Export Plug-In . SVG Version: 2.1.0 Build 142)  -->
  <defs>
    <style>
      .st0 {
        fill: #f6f4ef;
      }
    </style>
  </defs>
  <path class="st0" d="M19.6,8c0,.2,0,.3,0,.5,0,5.3-4.1,11.5-11.5,11.5s-4.4-.7-6.2-1.8c.3,0,.6,0,1,0,1.8,0,3.6-.6,5-1.7-1.7,0-3.2-1.2-3.8-2.8.2,0,.5,0,.8,0s.7,0,1.1-.1c-1.9-.4-3.2-2-3.2-4h0c.5.2,1.2.4,1.8.5-1.1-.7-1.8-2-1.8-3.4,0-.7.2-1.4.5-2,2,2.5,5.1,4,8.3,4.2,0-.3-.1-.6-.1-.9,0-2.2,1.8-4,4-4,0,0,0,0,0,0,1.2,0,2.2.5,2.9,1.3.9-.2,1.8-.5,2.6-1-.3.9-.9,1.7-1.8,2.2.8,0,1.6-.3,2.3-.6-.6.8-1.2,1.5-2,2.1Z"/>
</svg>