<svg width="24" height="24" viewBox="0 0 24 24" fill="none" xmlns="http://www.w3.org/2000/svg">
<path d="M22.6667 0H1.33333C0.6 0 0 0.6 0 1.33333V22.6667C0 23.4 0.6 24 1.33333 24H22.6667C23.4 24 24 23.4 24 22.6667V1.33333C24 0.6 23.4 0 22.6667 0ZM7.12 20.4533H3.56V9H7.12V20.4533ZM5.33333 7.44C4.2 7.44 3.26667 6.52 3.26667 5.37333C3.26667 4.24 4.18667 3.30667 5.33333 3.30667C6.46667 3.30667 7.4 4.22667 7.4 5.37333C7.4 6.50667 6.48 7.44 5.33333 7.44ZM20.44 20.4533H16.88V14.88C16.88 13.5467 16.8533 11.84 15.0267 11.84C13.2 11.84 12.8933 13.2933 12.8933 14.7867V20.4533H9.33333V9H12.7467V10.56H12.8C13.2667 9.65333 14.44 8.70667 16.16 8.70667C19.76 8.70667 20.4267 11.08 20.4267 14.16V20.44L20.44 20.4533Z" fill="#D9D9D9"/>
</svg>
