<svg width="1390" height="729" viewBox="0 0 1390 729" fill="none" xmlns="http://www.w3.org/2000/svg">
<path d="M117 495H758.5H918L992.5 438H1276.5" stroke="#585757" stroke-width="2"/>
<path d="M70 455H758.5H918H1170H1318.5" stroke="#585757" stroke-width="2"/>
<path d="M697 619.5L757.5 656M697 619.5L635.5 660M697 619.5V493.5M697 9V457.5" stroke="url(#paint0_linear_624_3256)" stroke-width="2"/>
<path d="M367 262.75V254.25L374 250L381 254.25V262.75L374 267L367 262.75Z" stroke="#757070" stroke-width="2" stroke-linejoin="round"/>
<path d="M1014 696.75V688.25L1021 684L1028 688.25V696.75L1021 701L1014 696.75Z" stroke="#757070" stroke-width="2" stroke-linejoin="round"/>
<path d="M502 118.75V110.25L509 106L516 110.25V118.75L509 123L502 118.75Z" stroke="#757070" stroke-width="2" stroke-linejoin="round"/>
<path d="M877 118.75V110.25L884 106L891 110.25V118.75L884 123L877 118.75Z" stroke="#757070" stroke-width="2" stroke-linejoin="round"/>
<path d="M367 696.75V688.25L374 684L381 688.25V696.75L374 701L367 696.75Z" fill="#757070" stroke="#757070" stroke-width="2" stroke-linejoin="round"/>
<path d="M1 479.75V471.25L8.00025 467L15 471.25V479.75L8.00025 484L1 479.75Z" fill="#757070" stroke="#757070" stroke-width="2" stroke-linejoin="round"/>
<path d="M1014 264.75V256.25L1021 252L1028 256.25V264.75L1021 269L1014 264.75Z" fill="#757070" stroke="#757070" stroke-width="2" stroke-linejoin="round"/>
<path d="M175 367V361L180 358L185 361V367L180 370L175 367Z" fill="#757070" stroke="#757070" stroke-width="2" stroke-linejoin="round"/>
<path d="M1204 208.75V140.25L1260.5 106L1317 140.25V208.75L1260.5 243L1204 208.75Z" fill="url(#paint1_radial_624_3256)" stroke="#414040" stroke-opacity="0.87" stroke-width="4" stroke-linejoin="round"/>
<path d="M15 658.25V608.75L56.0015 584L97 608.75V658.25L56.0015 683L15 658.25Z" fill="url(#paint2_linear_624_3256)"/>
<path d="M632 661.75V655.25L637.5 652L643 655.25V661.75L637.5 665L632 661.75Z" fill="#757070" stroke="#757070" stroke-width="2" stroke-linejoin="round"/>
<path d="M692 444.75V438.25L697.5 435L703 438.25V444.75L697.5 448L692 444.75Z" fill="#757070" stroke="#757070" stroke-width="2" stroke-linejoin="round"/>
<path d="M692 510.75V504.25L697.5 501L703 504.25V510.75L697.5 514L692 510.75Z" fill="#757070" stroke="#757070" stroke-width="2" stroke-linejoin="round"/>
<path d="M691 10.75V4.25L696.5 1L702 4.25V10.75L696.5 14L691 10.75Z" fill="#757070" stroke="#757070" stroke-width="2" stroke-linejoin="round"/>
<path d="M757 661.75V655.25L762.5 652L768 655.25V661.75L762.5 665L757 661.75Z" stroke="#757070" stroke-width="2" stroke-linejoin="round"/>
<path d="M564 626.75V620.25L569.5 617L575 620.25V626.75L569.5 630L564 626.75Z" stroke="#757070" stroke-width="2" stroke-linejoin="round"/>
<path d="M681 484.75V466.25L697.001 457L713 466.25V484.75L697.001 494L681 484.75Z" stroke="#757070" stroke-width="2" stroke-linejoin="round"/>
<path d="M1378 478.75V472.25L1383.5 469L1389 472.25V478.75L1383.5 482L1378 478.75Z" stroke="#757070" stroke-width="2" stroke-linejoin="round"/>
<path d="M922 191.5V262L1046.5 191.5" stroke="url(#paint3_linear_624_3256)" stroke-width="3"/>
<path d="M1045 195V189L1050 186L1055 189V195L1050 198L1045 195Z" fill="#757070" stroke="#757070" stroke-width="2" stroke-linejoin="round"/>
<path d="M1277 441V435L1282 432L1287 435V441L1282 444L1277 441Z" fill="#757070" stroke="#757070" stroke-width="2" stroke-linejoin="round"/>
<path d="M437 257V251L442 248L447 251V257L442 260L437 257Z" fill="#757070" stroke="#757070" stroke-width="2" stroke-linejoin="round"/>
<path d="M915 265.75V257.25L922 253L929 257.25V265.75L922 270L915 265.75Z" fill="#757070" stroke="#757070" stroke-width="2" stroke-linejoin="round"/>
<path d="M916 188.75V182.25L921.5 179L927 182.25V188.75L921.5 192L916 188.75Z" stroke="#757070" stroke-width="2" stroke-linejoin="round"/>
<path d="M1262.49 371.791C1262.18 371.611 1262 371.285 1262 370.934V357.066C1262 356.715 1262.18 356.389 1262.49 356.209L1273.99 349.309C1274.3 349.119 1274.7 349.119 1275.01 349.309L1286.51 356.209C1286.82 356.389 1287 356.715 1287 357.066V370.934C1287 371.285 1286.82 371.611 1286.51 371.791L1275.01 378.691C1274.7 378.881 1274.3 378.881 1273.99 378.691L1262.49 371.791Z" fill="#212121" stroke="#212121" stroke-linejoin="round"/>
<path d="M1277 397.5V382.5L1289.5 375L1302 382.5V397.5L1289.5 405L1277 397.5Z" stroke="#757070" stroke-width="2" stroke-linejoin="round"/>
<path d="M1277 345.5V330.5L1289.5 323L1302 330.5V345.5L1289.5 353L1277 345.5Z" fill="#757070" stroke="#757070" stroke-width="2" stroke-linejoin="round"/>
<path d="M1307 345.5V330.5L1319.5 323L1332 330.5V345.5L1319.5 353L1307 345.5Z" fill="#757070" stroke="#757070" stroke-width="2" stroke-linejoin="round"/>
<path d="M1292 371.5V356.5L1304.5 349L1317 356.5V371.5L1304.5 379L1292 371.5Z" stroke="#757070" stroke-width="2" stroke-linejoin="round"/>
<path d="M1166 177.75V171.25L1171.5 168L1177 171.25V177.75L1171.5 181L1166 177.75Z" stroke="#757070" stroke-width="2" stroke-linejoin="round"/>
<path d="M1172.5 113.5V169.5M1172.5 286V181.5" stroke="#757070" stroke-width="2"/>
<path d="M138.5 366.5V437H52.5" stroke="#757070" stroke-width="2"/>
<path d="M145 432.25V440.75L138 445L131 440.75V432.25L138 428L145 432.25Z" fill="#757070" stroke="#757070" stroke-width="2" stroke-linejoin="round"/>
<path d="M143 364.75V370.25L138.5 373L134 370.25V364.75L138.5 362L143 364.75Z" fill="#757070" stroke="#757070" stroke-width="2" stroke-linejoin="round"/>
<path d="M52 433.25V439.75L46.4998 443L41 439.75V433.25L46.4998 430L52 433.25Z" stroke="#757070" stroke-width="2" stroke-linejoin="round"/>
<path d="M374 693.5L696.5 505L1014.47 689.708M374 693.5L180.5 581.5V364L367 258.835M374 693.5V729M381 260.088L441.5 294.5M1027.5 689.708L1213 581.5V369L1021 258L826.3 369M441.5 294.5V171M441.5 294.5L569.5 369.371M569.5 369.371L696.5 443L826.3 369M569.5 369.371V618M826.3 369V580.4" stroke="#757070" stroke-width="2"/>
<path d="M15 475H681M1378 475H714" stroke="#757070" stroke-width="2"/>
<path d="M509 399L509 122M884.5 399V122M515.5 110.766L697 6.5L878 110.756" stroke="#757070" stroke-width="2"/>
<path d="M17.1557 88.1466V92.4397L13.5777 94.5862L10 92.4397V88.1466L13.5777 86L17.1557 88.1466Z" fill="url(#paint4_linear_624_3256)"/>
<path d="M17.1557 106.75V111.043L13.5777 113.19L10 111.043V106.75L13.5777 104.603L17.1557 106.75Z" fill="url(#paint5_linear_624_3256)"/>
<path d="M17.1557 125.353V129.647L13.5777 131.793L10 129.647V125.353L13.5777 123.207L17.1557 125.353Z" fill="url(#paint6_linear_624_3256)"/>
<path d="M17.1557 143.957V148.25L13.5777 150.397L10 148.25V143.957L13.5777 141.81L17.1557 143.957Z" fill="url(#paint7_linear_624_3256)"/>
<path d="M17.1557 162.56V166.853L13.5777 169L10 166.853V162.56L13.5777 160.414L17.1557 162.56Z" fill="url(#paint8_linear_624_3256)"/>
<path d="M42.9162 88.1466V92.4397L39.3382 94.5862L35.7605 92.4397V88.1466L39.3382 86L42.9162 88.1466Z" fill="url(#paint9_linear_624_3256)"/>
<path d="M42.9162 106.75V111.043L39.3382 113.19L35.7605 111.043V106.75L39.3382 104.603L42.9162 106.75Z" fill="url(#paint10_linear_624_3256)"/>
<path d="M42.9162 125.353V129.647L39.3382 131.793L35.7605 129.647V125.353L39.3382 123.207L42.9162 125.353Z" fill="url(#paint11_linear_624_3256)"/>
<path d="M42.9162 143.957V148.25L39.3382 150.397L35.7605 148.25V143.957L39.3382 141.81L42.9162 143.957Z" fill="url(#paint12_linear_624_3256)"/>
<path d="M42.9162 162.56V166.853L39.3382 169L35.7605 166.853V162.56L39.3382 160.414L42.9162 162.56Z" fill="url(#paint13_linear_624_3256)"/>
<path d="M68.6766 88.1466V92.4397L65.0987 94.5862L61.521 92.4397V88.1466L65.0987 86L68.6766 88.1466Z" fill="url(#paint14_linear_624_3256)"/>
<path d="M68.6766 106.75V111.043L65.0987 113.19L61.521 111.043V106.75L65.0987 104.603L68.6766 106.75Z" fill="url(#paint15_linear_624_3256)"/>
<path d="M68.6766 125.353V129.647L65.0987 131.793L61.521 129.647V125.353L65.0987 123.207L68.6766 125.353Z" fill="url(#paint16_linear_624_3256)"/>
<path d="M68.6766 143.957V148.25L65.0987 150.397L61.521 148.25V143.957L65.0987 141.81L68.6766 143.957Z" fill="url(#paint17_linear_624_3256)"/>
<path d="M68.6766 162.56V166.853L65.0987 169L61.521 166.853V162.56L65.0987 160.414L68.6766 162.56Z" fill="url(#paint18_linear_624_3256)"/>
<path d="M94.4371 88.1466V92.4397L90.8592 94.5862L87.2814 92.4397V88.1466L90.8592 86L94.4371 88.1466Z" fill="url(#paint19_linear_624_3256)"/>
<path d="M94.4371 106.75V111.043L90.8592 113.19L87.2814 111.043V106.75L90.8592 104.603L94.4371 106.75Z" fill="url(#paint20_linear_624_3256)"/>
<path d="M94.4371 125.353V129.647L90.8592 131.793L87.2814 129.647V125.353L90.8592 123.207L94.4371 125.353Z" fill="url(#paint21_linear_624_3256)"/>
<path d="M94.4371 143.957V148.25L90.8592 150.397L87.2814 148.25V143.957L90.8592 141.81L94.4371 143.957Z" fill="url(#paint22_linear_624_3256)"/>
<path d="M94.4371 162.56V166.853L90.8592 169L87.2814 166.853V162.56L90.8592 160.414L94.4371 162.56Z" fill="url(#paint23_linear_624_3256)"/>
<path d="M120.198 88.1466V92.4397L116.62 94.5862L113.042 92.4397V88.1466L116.62 86L120.198 88.1466Z" fill="url(#paint24_linear_624_3256)"/>
<path d="M120.198 106.75V111.043L116.62 113.19L113.042 111.043V106.75L116.62 104.603L120.198 106.75Z" fill="url(#paint25_linear_624_3256)"/>
<path d="M120.198 125.353V129.647L116.62 131.793L113.042 129.647V125.353L116.62 123.207L120.198 125.353Z" fill="url(#paint26_linear_624_3256)"/>
<path d="M120.198 143.957V148.25L116.62 150.397L113.042 148.25V143.957L116.62 141.81L120.198 143.957Z" fill="url(#paint27_linear_624_3256)"/>
<path d="M120.198 162.56V166.853L116.62 169L113.042 166.853V162.56L116.62 160.414L120.198 162.56Z" fill="url(#paint28_linear_624_3256)"/>
<path d="M145.958 88.1466V92.4397L142.38 94.5862L138.802 92.4397V88.1466L142.38 86L145.958 88.1466Z" fill="url(#paint29_linear_624_3256)"/>
<path d="M145.958 106.75V111.043L142.38 113.19L138.802 111.043V106.75L142.38 104.603L145.958 106.75Z" fill="url(#paint30_linear_624_3256)"/>
<path d="M145.958 125.353V129.647L142.38 131.793L138.802 129.647V125.353L142.38 123.207L145.958 125.353Z" fill="url(#paint31_linear_624_3256)"/>
<path d="M145.958 143.957V148.25L142.38 150.397L138.802 148.25V143.957L142.38 141.81L145.958 143.957Z" fill="url(#paint32_linear_624_3256)"/>
<path d="M145.958 162.56V166.853L142.38 169L138.802 166.853V162.56L142.38 160.414L145.958 162.56Z" fill="url(#paint33_linear_624_3256)"/>
<path d="M171.719 88.1466V92.4397L168.141 94.5862L164.563 92.4397V88.1466L168.141 86L171.719 88.1466Z" fill="url(#paint34_linear_624_3256)"/>
<path d="M171.719 106.75V111.043L168.141 113.19L164.563 111.043V106.75L168.141 104.603L171.719 106.75Z" fill="url(#paint35_linear_624_3256)"/>
<path d="M171.719 125.353V129.647L168.141 131.793L164.563 129.647V125.353L168.141 123.207L171.719 125.353Z" fill="url(#paint36_linear_624_3256)"/>
<path d="M171.719 143.957V148.25L168.141 150.397L164.563 148.25V143.957L168.141 141.81L171.719 143.957Z" fill="url(#paint37_linear_624_3256)"/>
<path d="M171.719 162.56V166.853L168.141 169L164.563 166.853V162.56L168.141 160.414L171.719 162.56Z" fill="url(#paint38_linear_624_3256)"/>
<path d="M197.479 88.1466V92.4397L193.901 94.5862L190.323 92.4397V88.1466L193.901 86L197.479 88.1466Z" fill="url(#paint39_linear_624_3256)"/>
<path d="M197.479 106.75V111.043L193.901 113.19L190.323 111.043V106.75L193.901 104.603L197.479 106.75Z" fill="url(#paint40_linear_624_3256)"/>
<path d="M197.479 125.353V129.647L193.901 131.793L190.323 129.647V125.353L193.901 123.207L197.479 125.353Z" fill="url(#paint41_linear_624_3256)"/>
<path d="M197.479 143.957V148.25L193.901 150.397L190.323 148.25V143.957L193.901 141.81L197.479 143.957Z" fill="url(#paint42_linear_624_3256)"/>
<path d="M197.479 162.56V166.853L193.901 169L190.323 166.853V162.56L193.901 160.414L197.479 162.56Z" fill="url(#paint43_linear_624_3256)"/>
<path d="M223.24 88.1466V92.4397L219.662 94.5862L216.084 92.4397V88.1466L219.662 86L223.24 88.1466Z" fill="url(#paint44_linear_624_3256)"/>
<path d="M223.24 106.75V111.043L219.662 113.19L216.084 111.043V106.75L219.662 104.603L223.24 106.75Z" fill="url(#paint45_linear_624_3256)"/>
<path d="M223.24 125.353V129.647L219.662 131.793L216.084 129.647V125.353L219.662 123.207L223.24 125.353Z" fill="url(#paint46_linear_624_3256)"/>
<path d="M223.24 143.957V148.25L219.662 150.397L216.084 148.25V143.957L219.662 141.81L223.24 143.957Z" fill="url(#paint47_linear_624_3256)"/>
<path d="M223.24 162.56V166.853L219.662 169L216.084 166.853V162.56L219.662 160.414L223.24 162.56Z" fill="url(#paint48_linear_624_3256)"/>
<path d="M249 88.1466V92.4397L245.422 94.5862L241.844 92.4397V88.1466L245.422 86L249 88.1466Z" fill="url(#paint49_linear_624_3256)"/>
<path d="M249 106.75V111.043L245.422 113.19L241.844 111.043V106.75L245.422 104.603L249 106.75Z" fill="url(#paint50_linear_624_3256)"/>
<path d="M249 125.353V129.647L245.422 131.793L241.844 129.647V125.353L245.422 123.207L249 125.353Z" fill="url(#paint51_linear_624_3256)"/>
<path d="M249 143.957V148.25L245.422 150.397L241.844 148.25V143.957L245.422 141.81L249 143.957Z" fill="url(#paint52_linear_624_3256)"/>
<path d="M249 162.56V166.853L245.422 169L241.844 166.853V162.56L245.422 160.414L249 162.56Z" fill="url(#paint53_linear_624_3256)"/>
<path d="M1260.5 581.5V511H1346.5" stroke="url(#paint54_linear_624_3256)" stroke-width="3"/>
<path d="M1347 514.75V508.25L1352.5 505L1358 508.25V514.75L1352.5 518L1347 514.75Z" stroke="#757070" stroke-width="2" stroke-linejoin="round"/>
<path d="M1254 515.75V507.25L1261 503L1268 507.25V515.75L1261 520L1254 515.75Z" fill="#757070" stroke="#757070" stroke-width="2" stroke-linejoin="round"/>
<path d="M1206 587.75V579.25L1213 575L1220 579.25V587.75L1213 592L1206 587.75Z" fill="#757070" stroke="#757070" stroke-width="2" stroke-linejoin="round"/>
<path d="M1256 583.25V577.75L1260.5 575L1265 577.75V583.25L1260.5 586L1256 583.25Z" fill="#757070" stroke="#757070" stroke-width="2" stroke-linejoin="round"/>
<path d="M530.005 566.486C533.107 564.702 535.019 561.396 535.019 557.818V386.77C535.019 383.192 533.107 379.886 530.005 378.102L381.243 292.545C378.156 290.769 374.358 290.769 371.272 292.545L222.521 378.102C219.419 379.886 217.507 383.192 217.507 386.77V557.818C217.507 561.397 219.419 564.702 222.521 566.486L371.272 652.043C374.358 653.819 378.156 653.819 381.243 652.043L530.005 566.486Z" fill="#444444" stroke="#F6F4EF" stroke-opacity="0.36" stroke-width="13" stroke-linejoin="round"/>
<g filter="url(#filter0_f_624_3256)">
<path d="M483 539.75V427.25L385.5 371L288 427.25V539.75L385.5 596L483 539.75Z" fill="#05050A" fill-opacity="0.8"/>
<path d="M483 539.75V427.25L385.5 371L288 427.25V539.75L385.5 596L483 539.75Z" stroke="#05050A" stroke-width="1.5" stroke-linejoin="round"/>
</g>
<path d="M475 532.5V419.5L376.5 363L278 419.5V532.5L376.5 589L475 532.5Z" fill="#EAE4DF"/>
<path d="M249 528.5V404L330 358" stroke="url(#paint55_linear_624_3256)" stroke-width="2" stroke-linecap="round" stroke-linejoin="round"/>
<path d="M260.5 410L376 345" stroke="url(#paint56_linear_624_3256)" stroke-width="2"/>
<path d="M354 445.987C354 447.352 355.031 448.461 356.299 448.461H395.92C397.188 448.461 398.219 447.352 398.219 445.987V440.317C398.219 431.795 391.775 424.86 383.857 424.86H368.362C360.444 424.86 354 431.795 354 440.317V445.987Z" fill="#404040"/>
<path d="M375.557 421.489C369.765 421.489 365.055 416.7 365.055 410.812C365.055 404.924 369.765 400.135 375.557 400.135C381.348 400.135 386.059 404.924 386.059 410.812C386.059 416.7 381.348 421.489 375.557 421.489Z" fill="#404040"/>
<path d="M323.422 520.562H319.415L319.441 518.493H323.422C324.793 518.493 325.936 518.207 326.85 517.636C327.764 517.056 328.45 516.247 328.907 515.21C329.373 514.164 329.605 512.942 329.605 511.545V510.371C329.605 509.273 329.474 508.297 329.21 507.445C328.946 506.583 328.56 505.858 328.05 505.269C327.54 504.672 326.916 504.219 326.178 503.911C325.448 503.604 324.609 503.45 323.66 503.45H319.335V501.367H323.66C324.917 501.367 326.063 501.578 327.101 502C328.138 502.413 329.03 503.015 329.777 503.806C330.533 504.588 331.113 505.537 331.517 506.654C331.921 507.761 332.124 509.009 332.124 510.398V511.545C332.124 512.933 331.921 514.186 331.517 515.302C331.113 516.41 330.528 517.354 329.764 518.137C329.008 518.919 328.094 519.521 327.021 519.943C325.958 520.356 324.758 520.562 323.422 520.562ZM320.772 501.367V520.562H318.228V501.367H320.772ZM341.497 520.826C340.504 520.826 339.603 520.659 338.794 520.325C337.995 519.982 337.305 519.503 336.725 518.888C336.153 518.273 335.714 517.543 335.406 516.7C335.099 515.856 334.945 514.933 334.945 513.931V513.377C334.945 512.217 335.116 511.184 335.459 510.279C335.802 509.365 336.268 508.592 336.856 507.959C337.445 507.326 338.113 506.847 338.86 506.522C339.607 506.197 340.381 506.034 341.181 506.034C342.2 506.034 343.079 506.21 343.817 506.561C344.564 506.913 345.175 507.405 345.65 508.038C346.125 508.662 346.476 509.4 346.705 510.253C346.933 511.097 347.047 512.019 347.047 513.021V514.116H336.395V512.125H344.608V511.94C344.573 511.307 344.441 510.692 344.213 510.095C343.993 509.497 343.642 509.005 343.158 508.618C342.675 508.231 342.016 508.038 341.181 508.038C340.627 508.038 340.117 508.157 339.651 508.394C339.186 508.622 338.786 508.965 338.452 509.422C338.118 509.879 337.858 510.437 337.674 511.097C337.489 511.756 337.397 512.516 337.397 513.377V513.931C337.397 514.608 337.489 515.245 337.674 515.843C337.867 516.432 338.144 516.95 338.504 517.398C338.874 517.847 339.317 518.198 339.836 518.453C340.363 518.708 340.961 518.835 341.629 518.835C342.49 518.835 343.22 518.66 343.817 518.308C344.415 517.956 344.938 517.486 345.386 516.897L346.863 518.071C346.555 518.536 346.164 518.98 345.689 519.402C345.215 519.824 344.63 520.167 343.936 520.431C343.25 520.694 342.438 520.826 341.497 520.826ZM354.048 518.361L357.95 506.298H360.442L355.313 520.562H353.679L354.048 518.361ZM350.792 506.298L354.812 518.427L355.089 520.562H353.455L348.287 506.298H350.792ZM368.523 520.826C367.53 520.826 366.629 520.659 365.821 520.325C365.021 519.982 364.331 519.503 363.751 518.888C363.18 518.273 362.74 517.543 362.433 516.7C362.125 515.856 361.971 514.933 361.971 513.931V513.377C361.971 512.217 362.143 511.184 362.485 510.279C362.828 509.365 363.294 508.592 363.883 507.959C364.472 507.326 365.14 506.847 365.887 506.522C366.634 506.197 367.407 506.034 368.207 506.034C369.227 506.034 370.105 506.21 370.844 506.561C371.591 506.913 372.202 507.405 372.676 508.038C373.151 508.662 373.502 509.4 373.731 510.253C373.959 511.097 374.074 512.019 374.074 513.021V514.116H363.421V512.125H371.635V511.94C371.6 511.307 371.468 510.692 371.239 510.095C371.02 509.497 370.668 509.005 370.185 508.618C369.701 508.231 369.042 508.038 368.207 508.038C367.653 508.038 367.144 508.157 366.678 508.394C366.212 508.622 365.812 508.965 365.478 509.422C365.144 509.879 364.885 510.437 364.7 511.097C364.516 511.756 364.423 512.516 364.423 513.377V513.931C364.423 514.608 364.516 515.245 364.7 515.843C364.894 516.432 365.17 516.95 365.531 517.398C365.9 517.847 366.344 518.198 366.862 518.453C367.39 518.708 367.987 518.835 368.655 518.835C369.517 518.835 370.246 518.66 370.844 518.308C371.441 517.956 371.964 517.486 372.413 516.897L373.889 518.071C373.582 518.536 373.19 518.98 372.716 519.402C372.241 519.824 371.657 520.167 370.962 520.431C370.277 520.694 369.464 520.826 368.523 520.826ZM379.571 500.312V520.562H377.119V500.312H379.571ZM382.841 513.588V513.285C382.841 512.257 382.99 511.303 383.289 510.424C383.588 509.536 384.019 508.767 384.581 508.117C385.144 507.458 385.825 506.948 386.625 506.588C387.424 506.219 388.321 506.034 389.314 506.034C390.316 506.034 391.217 506.219 392.017 506.588C392.825 506.948 393.511 507.458 394.073 508.117C394.645 508.767 395.08 509.536 395.378 510.424C395.677 511.303 395.827 512.257 395.827 513.285V513.588C395.827 514.617 395.677 515.57 395.378 516.449C395.08 517.328 394.645 518.097 394.073 518.756C393.511 519.407 392.83 519.916 392.03 520.286C391.239 520.646 390.342 520.826 389.34 520.826C388.338 520.826 387.438 520.646 386.638 520.286C385.838 519.916 385.152 519.407 384.581 518.756C384.019 518.097 383.588 517.328 383.289 516.449C382.99 515.57 382.841 514.617 382.841 513.588ZM385.28 513.285V513.588C385.28 514.3 385.363 514.973 385.53 515.605C385.697 516.229 385.948 516.783 386.282 517.266C386.625 517.75 387.051 518.132 387.561 518.413C388.07 518.686 388.664 518.822 389.34 518.822C390.008 518.822 390.593 518.686 391.094 518.413C391.604 518.132 392.025 517.75 392.359 517.266C392.693 516.783 392.944 516.229 393.111 515.605C393.287 514.973 393.375 514.3 393.375 513.588V513.285C393.375 512.582 393.287 511.918 393.111 511.294C392.944 510.661 392.689 510.103 392.346 509.62C392.012 509.128 391.59 508.741 391.081 508.46C390.58 508.179 389.991 508.038 389.314 508.038C388.646 508.038 388.057 508.179 387.547 508.46C387.046 508.741 386.625 509.128 386.282 509.62C385.948 510.103 385.697 510.661 385.53 511.294C385.363 511.918 385.28 512.582 385.28 513.285ZM401.324 509.04V526.047H398.872V506.298H401.113L401.324 509.04ZM410.935 513.311V513.588C410.935 514.625 410.812 515.588 410.566 516.475C410.32 517.354 409.959 518.119 409.485 518.769C409.019 519.42 408.443 519.925 407.758 520.286C407.072 520.646 406.286 520.826 405.398 520.826C404.493 520.826 403.693 520.677 402.999 520.378C402.304 520.079 401.715 519.644 401.232 519.073C400.749 518.501 400.362 517.816 400.072 517.016C399.791 516.216 399.597 515.315 399.492 514.313V512.837C399.597 511.782 399.795 510.837 400.085 510.002C400.375 509.167 400.757 508.455 401.232 507.867C401.715 507.269 402.3 506.816 402.985 506.509C403.671 506.192 404.462 506.034 405.358 506.034C406.255 506.034 407.05 506.21 407.745 506.561C408.439 506.904 409.023 507.396 409.498 508.038C409.973 508.68 410.329 509.449 410.566 510.345C410.812 511.233 410.935 512.222 410.935 513.311ZM408.483 513.588V513.311C408.483 512.599 408.408 511.932 408.259 511.307C408.109 510.675 407.876 510.121 407.56 509.646C407.252 509.163 406.857 508.785 406.374 508.513C405.89 508.231 405.314 508.091 404.646 508.091C404.031 508.091 403.495 508.196 403.038 508.407C402.59 508.618 402.208 508.904 401.891 509.264C401.575 509.616 401.315 510.02 401.113 510.477C400.92 510.925 400.775 511.391 400.678 511.874V515.289C400.854 515.904 401.1 516.484 401.417 517.029C401.733 517.565 402.155 518 402.682 518.334C403.209 518.66 403.873 518.822 404.673 518.822C405.332 518.822 405.899 518.686 406.374 518.413C406.857 518.132 407.252 517.75 407.56 517.266C407.876 516.783 408.109 516.229 408.259 515.605C408.408 514.973 408.483 514.3 408.483 513.588ZM419.966 520.826C418.973 520.826 418.072 520.659 417.263 520.325C416.463 519.982 415.773 519.503 415.193 518.888C414.622 518.273 414.183 517.543 413.875 516.7C413.567 515.856 413.414 514.933 413.414 513.931V513.377C413.414 512.217 413.585 511.184 413.928 510.279C414.271 509.365 414.736 508.592 415.325 507.959C415.914 507.326 416.582 506.847 417.329 506.522C418.076 506.197 418.85 506.034 419.649 506.034C420.669 506.034 421.548 506.21 422.286 506.561C423.033 506.913 423.644 507.405 424.119 508.038C424.593 508.662 424.945 509.4 425.173 510.253C425.402 511.097 425.516 512.019 425.516 513.021V514.116H414.864V512.125H423.077V511.94C423.042 511.307 422.91 510.692 422.682 510.095C422.462 509.497 422.11 509.005 421.627 508.618C421.144 508.231 420.484 508.038 419.649 508.038C419.096 508.038 418.586 508.157 418.12 508.394C417.654 508.622 417.254 508.965 416.92 509.422C416.586 509.879 416.327 510.437 416.143 511.097C415.958 511.756 415.866 512.516 415.866 513.377V513.931C415.866 514.608 415.958 515.245 416.143 515.843C416.336 516.432 416.613 516.95 416.973 517.398C417.342 517.847 417.786 518.198 418.305 518.453C418.832 518.708 419.43 518.835 420.098 518.835C420.959 518.835 421.688 518.66 422.286 518.308C422.884 517.956 423.407 517.486 423.855 516.897L425.332 518.071C425.024 518.536 424.633 518.98 424.158 519.402C423.684 519.824 423.099 520.167 422.405 520.431C421.719 520.694 420.906 520.826 419.966 520.826ZM430.803 508.539V520.562H428.364V506.298H430.737L430.803 508.539ZM435.259 506.219L435.246 508.486C435.043 508.442 434.85 508.416 434.666 508.407C434.49 508.39 434.288 508.381 434.059 508.381C433.497 508.381 433 508.469 432.569 508.644C432.139 508.82 431.774 509.066 431.475 509.383C431.176 509.699 430.939 510.077 430.763 510.516C430.596 510.947 430.486 511.422 430.434 511.94L429.748 512.336C429.748 511.474 429.832 510.666 429.999 509.91C430.174 509.154 430.442 508.486 430.803 507.906C431.163 507.317 431.62 506.86 432.174 506.535C432.736 506.201 433.404 506.034 434.178 506.034C434.354 506.034 434.556 506.056 434.784 506.1C435.013 506.135 435.171 506.175 435.259 506.219Z" fill="#262626"/>
<path d="M338.758 482.045C338.758 481.648 338.697 481.294 338.574 480.983C338.461 480.662 338.249 480.374 337.937 480.119C337.635 479.855 337.205 479.6 336.648 479.354C336.101 479.099 335.393 478.835 334.524 478.561C333.562 478.259 332.665 477.919 331.834 477.542C331.003 477.164 330.272 476.725 329.639 476.225C329.016 475.725 328.53 475.149 328.181 474.497C327.831 473.837 327.657 473.072 327.657 472.203C327.657 471.354 327.836 470.58 328.195 469.881C328.563 469.183 329.082 468.583 329.752 468.083C330.423 467.573 331.211 467.181 332.117 466.908C333.033 466.634 334.043 466.497 335.147 466.497C336.677 466.497 337.998 466.775 339.112 467.332C340.236 467.889 341.104 468.645 341.718 469.598C342.331 470.551 342.638 471.623 342.638 472.812H338.758C338.758 472.17 338.621 471.604 338.348 471.113C338.083 470.622 337.677 470.235 337.13 469.952C336.592 469.669 335.912 469.527 335.091 469.527C334.298 469.527 333.637 469.645 333.108 469.881C332.589 470.117 332.197 470.438 331.933 470.844C331.678 471.25 331.551 471.703 331.551 472.203C331.551 472.581 331.64 472.921 331.82 473.223C331.999 473.516 332.268 473.794 332.627 474.058C332.986 474.313 333.429 474.554 333.958 474.781C334.496 474.998 335.119 475.215 335.827 475.432C336.96 475.772 337.951 476.149 338.801 476.565C339.66 476.98 340.373 477.452 340.939 477.981C341.515 478.509 341.944 479.104 342.228 479.765C342.52 480.426 342.667 481.176 342.667 482.016C342.667 482.904 342.492 483.697 342.143 484.395C341.793 485.094 341.293 485.689 340.642 486.18C339.99 486.67 339.207 487.043 338.291 487.298C337.385 487.553 336.37 487.681 335.247 487.681C334.246 487.681 333.255 487.548 332.273 487.284C331.301 487.01 330.418 486.604 329.625 486.066C328.832 485.519 328.2 484.83 327.728 483.999C327.256 483.159 327.02 482.177 327.02 481.054H330.928C330.928 481.705 331.032 482.262 331.239 482.724C331.456 483.178 331.758 483.55 332.146 483.843C332.542 484.126 333.005 484.334 333.533 484.466C334.062 484.598 334.633 484.664 335.247 484.664C336.04 484.664 336.691 484.556 337.201 484.339C337.72 484.112 338.107 483.801 338.362 483.404C338.626 483.008 338.758 482.555 338.758 482.045ZM349.817 466.78V487.397H345.923V466.78H349.817ZM370.59 466.78V487.397H366.682L357.917 473.096V487.397H354.023V466.78H357.917L366.71 481.096V466.78H370.59ZM390.641 476.735V484.764C390.339 485.151 389.862 485.571 389.211 486.024C388.569 486.477 387.729 486.869 386.69 487.199C385.652 487.52 384.378 487.681 382.867 487.681C381.555 487.681 380.356 487.463 379.271 487.029C378.185 486.585 377.25 485.939 376.467 485.089C375.683 484.24 375.079 483.201 374.654 481.974C374.229 480.747 374.017 479.345 374.017 477.768V476.409C374.017 474.833 374.215 473.431 374.612 472.203C375.018 470.976 375.594 469.938 376.339 469.088C377.095 468.239 377.996 467.592 379.044 467.148C380.101 466.705 381.281 466.483 382.584 466.483C384.33 466.483 385.765 466.771 386.889 467.347C388.021 467.922 388.89 468.715 389.494 469.725C390.098 470.726 390.476 471.878 390.627 473.181H386.832C386.728 472.463 386.521 471.835 386.209 471.297C385.897 470.75 385.454 470.325 384.878 470.023C384.312 469.711 383.575 469.556 382.669 469.556C381.904 469.556 381.229 469.707 380.644 470.009C380.059 470.311 379.568 470.75 379.171 471.326C378.775 471.901 378.473 472.614 378.265 473.464C378.067 474.313 377.968 475.286 377.968 476.381V477.768C377.968 478.873 378.081 479.855 378.308 480.714C378.534 481.563 378.86 482.281 379.285 482.866C379.719 483.442 380.252 483.881 380.885 484.183C381.527 484.476 382.254 484.622 383.065 484.622C383.802 484.622 384.411 484.561 384.892 484.438C385.383 484.306 385.775 484.15 386.067 483.971C386.36 483.791 386.587 483.617 386.747 483.447V479.581H382.655V476.735H390.641ZM407.407 484.339V487.397H397.042V484.339H407.407ZM398.217 466.78V487.397H394.323V466.78H398.217ZM423.677 484.339V487.397H412.717V484.339H423.677ZM413.906 466.78V487.397H410.012V466.78H413.906ZM422.247 475.29V478.278H412.717V475.29H422.247ZM423.634 466.78V469.853H412.717V466.78H423.634Z" fill="#363636"/>
<path d="M851.005 318.486C854.107 316.702 856.019 313.396 856.019 309.818V138.77C856.019 135.192 854.107 131.886 851.005 130.102L702.243 44.5447C699.156 42.7694 695.358 42.7695 692.272 44.5448L543.521 130.102C540.419 131.886 538.507 135.192 538.507 138.77V309.818C538.507 313.397 540.419 316.702 543.521 318.486L692.272 404.043C695.358 405.819 699.156 405.819 702.243 404.043L851.005 318.486Z" fill="#610000" stroke="#F6F4EF" stroke-opacity="0.36" stroke-width="13" stroke-linejoin="round"/>
<g filter="url(#filter1_f_624_3256)">
<path d="M802 289.75V177.25L704.5 121L607 177.25V289.75L704.5 346L802 289.75Z" fill="#05050A" fill-opacity="0.8"/>
<path d="M802 289.75V177.25L704.5 121L607 177.25V289.75L704.5 346L802 289.75Z" stroke="#05050A" stroke-width="1.5" stroke-linejoin="round"/>
</g>
<path d="M796 284.5V171.5L697.5 115L599 171.5V284.5L697.5 341L796 284.5Z" fill="#EAE4DF"/>
<path d="M633.772 253.367V272.562H631.228V253.367H633.772ZM641.814 262.002V264.085H633.219V262.002H641.814ZM643.12 253.367V255.45H633.219V253.367H643.12ZM654.22 269.266V258.298H656.672V272.562H654.339L654.22 269.266ZM654.682 266.261L655.697 266.234C655.697 267.183 655.596 268.062 655.394 268.871C655.2 269.671 654.884 270.365 654.444 270.954C654.005 271.543 653.429 272.004 652.717 272.338C652.005 272.663 651.14 272.826 650.12 272.826C649.426 272.826 648.789 272.725 648.208 272.523C647.637 272.321 647.145 272.009 646.732 271.587C646.319 271.165 645.998 270.616 645.77 269.939C645.55 269.262 645.44 268.449 645.44 267.5V258.298H647.879V267.526C647.879 268.168 647.949 268.7 648.09 269.121C648.239 269.535 648.437 269.864 648.683 270.11C648.938 270.348 649.219 270.515 649.527 270.611C649.843 270.708 650.168 270.756 650.502 270.756C651.54 270.756 652.361 270.558 652.968 270.163C653.574 269.759 654.009 269.218 654.273 268.541C654.545 267.856 654.682 267.096 654.682 266.261ZM663.04 252.312V272.562H660.588V252.312H663.04ZM669.605 252.312V272.562H667.153V252.312H669.605ZM687.667 265.035H682.539V262.965H687.667C688.66 262.965 689.464 262.807 690.08 262.49C690.695 262.174 691.143 261.734 691.424 261.172C691.714 260.609 691.859 259.968 691.859 259.247C691.859 258.588 691.714 257.968 691.424 257.388C691.143 256.808 690.695 256.342 690.08 255.991C689.464 255.63 688.66 255.45 687.667 255.45H683.132V272.562H680.587V253.367H687.667C689.117 253.367 690.343 253.618 691.345 254.119C692.347 254.62 693.107 255.314 693.626 256.202C694.145 257.08 694.404 258.087 694.404 259.221C694.404 260.451 694.145 261.501 693.626 262.371C693.107 263.242 692.347 263.905 691.345 264.362C690.343 264.81 689.117 265.035 687.667 265.035ZM699.69 260.539V272.562H697.251V258.298H699.625L699.69 260.539ZM704.146 258.219L704.133 260.486C703.931 260.442 703.738 260.416 703.553 260.407C703.377 260.39 703.175 260.381 702.947 260.381C702.384 260.381 701.888 260.469 701.457 260.644C701.026 260.82 700.662 261.066 700.363 261.383C700.064 261.699 699.827 262.077 699.651 262.516C699.484 262.947 699.374 263.422 699.321 263.94L698.636 264.336C698.636 263.474 698.719 262.666 698.886 261.91C699.062 261.154 699.33 260.486 699.69 259.906C700.051 259.317 700.508 258.86 701.062 258.535C701.624 258.201 702.292 258.034 703.065 258.034C703.241 258.034 703.443 258.056 703.672 258.1C703.9 258.135 704.059 258.175 704.146 258.219ZM705.491 265.588V265.285C705.491 264.257 705.641 263.303 705.939 262.424C706.238 261.536 706.669 260.767 707.231 260.117C707.794 259.458 708.475 258.948 709.275 258.588C710.075 258.219 710.971 258.034 711.964 258.034C712.966 258.034 713.867 258.219 714.667 258.588C715.476 258.948 716.161 259.458 716.724 260.117C717.295 260.767 717.73 261.536 718.029 262.424C718.328 263.303 718.477 264.257 718.477 265.285V265.588C718.477 266.617 718.328 267.57 718.029 268.449C717.73 269.328 717.295 270.097 716.724 270.756C716.161 271.407 715.48 271.916 714.68 272.286C713.889 272.646 712.993 272.826 711.991 272.826C710.989 272.826 710.088 272.646 709.288 272.286C708.488 271.916 707.803 271.407 707.231 270.756C706.669 270.097 706.238 269.328 705.939 268.449C705.641 267.57 705.491 266.617 705.491 265.588ZM707.93 265.285V265.588C707.93 266.3 708.014 266.973 708.181 267.605C708.348 268.229 708.598 268.783 708.932 269.266C709.275 269.75 709.701 270.132 710.211 270.413C710.721 270.686 711.314 270.822 711.991 270.822C712.659 270.822 713.243 270.686 713.744 270.413C714.254 270.132 714.676 269.75 715.01 269.266C715.344 268.783 715.594 268.229 715.761 267.605C715.937 266.973 716.025 266.3 716.025 265.588V265.285C716.025 264.582 715.937 263.918 715.761 263.294C715.594 262.661 715.339 262.103 714.997 261.62C714.663 261.128 714.241 260.741 713.731 260.46C713.23 260.179 712.641 260.038 711.964 260.038C711.296 260.038 710.708 260.179 710.198 260.46C709.697 260.741 709.275 261.128 708.932 261.62C708.598 262.103 708.348 262.661 708.181 263.294C708.014 263.918 707.93 264.582 707.93 265.285ZM721.602 258.298H724.054V274.263C724.054 275.133 723.913 275.871 723.632 276.478C723.359 277.084 722.946 277.541 722.393 277.849C721.848 278.165 721.158 278.324 720.323 278.324C720.103 278.324 719.848 278.302 719.558 278.258C719.259 278.214 719.009 278.161 718.807 278.099L718.82 276.135C718.987 276.17 719.176 276.197 719.387 276.214C719.598 276.241 719.782 276.254 719.94 276.254C720.301 276.254 720.604 276.188 720.85 276.056C721.096 275.924 721.281 275.713 721.404 275.423C721.536 275.133 721.602 274.746 721.602 274.263V258.298ZM721.351 254.514C721.351 254.119 721.474 253.785 721.72 253.512C721.966 253.24 722.322 253.103 722.788 253.103C723.263 253.103 723.623 253.24 723.869 253.512C724.115 253.785 724.238 254.119 724.238 254.514C724.238 254.892 724.115 255.217 723.869 255.49C723.623 255.753 723.263 255.885 722.788 255.885C722.322 255.885 721.966 255.753 721.72 255.49C721.474 255.217 721.351 254.892 721.351 254.514ZM733.915 272.826C732.922 272.826 732.021 272.659 731.212 272.325C730.413 271.982 729.723 271.503 729.143 270.888C728.571 270.273 728.132 269.543 727.824 268.7C727.517 267.856 727.363 266.933 727.363 265.931V265.377C727.363 264.217 727.534 263.184 727.877 262.279C728.22 261.365 728.686 260.592 729.274 259.959C729.863 259.326 730.531 258.847 731.278 258.522C732.025 258.197 732.799 258.034 733.599 258.034C734.618 258.034 735.497 258.21 736.235 258.561C736.982 258.913 737.593 259.405 738.068 260.038C738.542 260.662 738.894 261.4 739.123 262.253C739.351 263.097 739.465 264.019 739.465 265.021V266.116H728.813V264.125H737.026V263.94C736.991 263.307 736.859 262.692 736.631 262.095C736.411 261.497 736.06 261.005 735.576 260.618C735.093 260.231 734.434 260.038 733.599 260.038C733.045 260.038 732.535 260.157 732.069 260.394C731.604 260.622 731.204 260.965 730.87 261.422C730.536 261.879 730.276 262.437 730.092 263.097C729.907 263.756 729.815 264.516 729.815 265.377V265.931C729.815 266.608 729.907 267.245 730.092 267.843C730.285 268.432 730.562 268.95 730.922 269.398C731.292 269.847 731.735 270.198 732.254 270.453C732.781 270.708 733.379 270.835 734.047 270.835C734.908 270.835 735.638 270.66 736.235 270.308C736.833 269.956 737.356 269.486 737.804 268.897L739.281 270.071C738.973 270.536 738.582 270.98 738.107 271.402C737.633 271.824 737.048 272.167 736.354 272.431C735.668 272.694 734.855 272.826 733.915 272.826ZM748.021 270.822C748.602 270.822 749.138 270.703 749.63 270.466C750.122 270.229 750.526 269.904 750.843 269.491C751.159 269.069 751.339 268.59 751.383 268.054H753.704C753.66 268.897 753.374 269.684 752.847 270.413C752.328 271.134 751.647 271.719 750.803 272.167C749.959 272.606 749.032 272.826 748.021 272.826C746.949 272.826 746.013 272.637 745.213 272.259C744.422 271.881 743.763 271.363 743.236 270.703C742.717 270.044 742.326 269.288 742.062 268.436C741.808 267.575 741.68 266.665 741.68 265.707V265.153C741.68 264.195 741.808 263.29 742.062 262.437C742.326 261.576 742.717 260.816 743.236 260.157C743.763 259.497 744.422 258.979 745.213 258.601C746.013 258.223 746.949 258.034 748.021 258.034C749.138 258.034 750.113 258.263 750.948 258.72C751.783 259.168 752.438 259.783 752.913 260.565C753.396 261.339 753.66 262.218 753.704 263.202H751.383C751.339 262.613 751.172 262.081 750.882 261.607C750.601 261.132 750.214 260.754 749.722 260.473C749.239 260.183 748.672 260.038 748.021 260.038C747.274 260.038 746.646 260.187 746.136 260.486C745.635 260.776 745.235 261.172 744.937 261.673C744.646 262.165 744.436 262.714 744.304 263.321C744.181 263.918 744.119 264.529 744.119 265.153V265.707C744.119 266.331 744.181 266.946 744.304 267.553C744.427 268.159 744.633 268.708 744.923 269.201C745.222 269.693 745.622 270.088 746.123 270.387C746.633 270.677 747.266 270.822 748.021 270.822ZM762.418 258.298V260.17H754.706V258.298H762.418ZM757.316 254.83H759.755V269.029C759.755 269.513 759.83 269.877 759.979 270.123C760.128 270.37 760.322 270.532 760.559 270.611C760.796 270.69 761.051 270.73 761.324 270.73C761.526 270.73 761.737 270.712 761.957 270.677C762.185 270.633 762.356 270.598 762.471 270.572L762.484 272.562C762.291 272.624 762.036 272.681 761.719 272.734C761.412 272.795 761.038 272.826 760.599 272.826C760.001 272.826 759.452 272.707 758.951 272.47C758.45 272.233 758.05 271.837 757.751 271.284C757.461 270.721 757.316 269.965 757.316 269.016V254.83Z" fill="#262626"/>
<path d="M658.052 236.339V239.397H647.687V236.339H658.052ZM648.862 218.78V239.397H644.968V218.78H648.862ZM674.322 236.339V239.397H663.362V236.339H674.322ZM664.552 218.78V239.397H660.658V218.78H664.552ZM672.892 227.29V230.278H663.362V227.29H672.892ZM674.28 218.78V221.853H663.362V218.78H674.28ZM693.113 228.735V236.764C692.811 237.151 692.334 237.571 691.683 238.024C691.041 238.477 690.201 238.869 689.162 239.199C688.124 239.52 686.849 239.681 685.339 239.681C684.027 239.681 682.828 239.463 681.742 239.029C680.657 238.585 679.722 237.939 678.938 237.089C678.155 236.24 677.551 235.201 677.126 233.974C676.701 232.747 676.489 231.345 676.489 229.768V228.409C676.489 226.833 676.687 225.431 677.083 224.203C677.489 222.976 678.065 221.938 678.811 221.088C679.566 220.239 680.468 219.592 681.516 219.148C682.573 218.705 683.753 218.483 685.056 218.483C686.802 218.483 688.237 218.771 689.36 219.347C690.493 219.922 691.362 220.715 691.966 221.725C692.57 222.726 692.948 223.878 693.099 225.181H689.304C689.2 224.463 688.992 223.835 688.681 223.297C688.369 222.75 687.925 222.325 687.35 222.023C686.783 221.711 686.047 221.556 685.141 221.556C684.376 221.556 683.701 221.707 683.116 222.009C682.53 222.311 682.04 222.75 681.643 223.326C681.247 223.901 680.944 224.614 680.737 225.464C680.539 226.313 680.439 227.286 680.439 228.381V229.768C680.439 230.873 680.553 231.855 680.779 232.714C681.006 233.563 681.332 234.281 681.756 234.866C682.191 235.442 682.724 235.881 683.356 236.183C683.998 236.476 684.725 236.622 685.537 236.622C686.273 236.622 686.882 236.561 687.364 236.438C687.855 236.306 688.246 236.15 688.539 235.971C688.832 235.791 689.058 235.617 689.219 235.447V231.581H685.126V228.735H693.113ZM704.993 221.91L699.117 239.397H694.996L702.699 218.78H705.333L704.993 221.91ZM709.907 239.397L704.002 221.91L703.648 218.78H706.296L714.042 239.397H709.907ZM709.638 231.737V234.809H698.579V231.737H709.638ZM727.975 232.615H731.869C731.765 233.993 731.383 235.215 730.722 236.282C730.061 237.339 729.141 238.17 727.961 238.774C726.781 239.378 725.351 239.681 723.67 239.681C722.377 239.681 721.211 239.454 720.173 239.001C719.144 238.538 718.261 237.882 717.525 237.033C716.798 236.174 716.241 235.145 715.854 233.946C715.467 232.737 715.273 231.383 715.273 229.882V228.31C715.273 226.809 715.472 225.454 715.868 224.246C716.265 223.038 716.831 222.009 717.567 221.159C718.313 220.3 719.205 219.639 720.244 219.177C721.292 218.714 722.462 218.483 723.755 218.483C725.436 218.483 726.856 218.794 728.018 219.417C729.179 220.031 730.08 220.876 730.722 221.952C731.364 223.028 731.751 224.265 731.883 225.662H727.989C727.914 224.793 727.725 224.057 727.423 223.453C727.13 222.849 726.687 222.391 726.092 222.079C725.507 221.759 724.728 221.598 723.755 221.598C723 221.598 722.335 221.74 721.759 222.023C721.192 222.306 720.72 222.731 720.343 223.297C719.965 223.854 719.682 224.553 719.493 225.393C719.304 226.224 719.21 227.187 719.21 228.282V229.882C719.21 230.93 719.295 231.869 719.465 232.7C719.635 233.53 719.899 234.234 720.258 234.809C720.617 235.385 721.079 235.824 721.646 236.126C722.212 236.428 722.887 236.579 723.67 236.579C724.624 236.579 725.398 236.428 725.993 236.126C726.597 235.824 727.055 235.381 727.366 234.795C727.687 234.21 727.89 233.483 727.975 232.615ZM737.292 218.78L741.824 228.395L746.383 218.78H750.66L743.806 231.85V239.397H739.855V231.85L732.988 218.78H737.292Z" fill="#363636"/>
<path d="M704.487 157.829C698.031 173.902 690.286 193.682 690.286 193.682M682.762 164.353L671.414 174.792C670.862 175.299 670.862 176.248 671.414 176.756L682.762 187.195M713.238 164.353L724.586 174.792C725.138 175.299 725.138 176.248 724.586 176.756L713.238 187.195" stroke="#404040" stroke-width="6" stroke-linecap="round"/>
<path d="M591.288 307.724L694.712 369.276" stroke="url(#paint57_linear_624_3256)" stroke-width="2"/>
<path d="M819.944 270.952L820.433 150.6L783 129" stroke="url(#paint58_linear_624_3256)" stroke-width="2"/>
<path d="M1175 569.486C1178.11 567.702 1180.02 564.396 1180.02 560.818V389.77C1180.02 386.192 1178.11 382.886 1175 381.102L1026.24 295.545C1023.16 293.769 1019.36 293.769 1016.27 295.545L867.521 381.102C864.419 382.886 862.507 386.192 862.507 389.77V560.818C862.507 564.397 864.419 567.702 867.521 569.486L1016.27 655.043C1019.36 656.819 1023.16 656.819 1026.24 655.043L1175 569.486Z" fill="#440101" stroke="#F6F4EF" stroke-opacity="0.36" stroke-width="13" stroke-linejoin="round"/>
<g filter="url(#filter2_f_624_3256)">
<path d="M1126 540.75V428.25L1028.5 372L931 428.25V540.75L1028.5 597L1126 540.75Z" fill="#05050A" fill-opacity="0.8"/>
<path d="M1126 540.75V428.25L1028.5 372L931 428.25V540.75L1028.5 597L1126 540.75Z" stroke="#05050A" stroke-width="1.5" stroke-linejoin="round"/>
</g>
<path d="M1120 535.5V422.5L1021.5 366L923 422.5V535.5L1021.5 592L1120 535.5Z" fill="#EAE4DF"/>
<path d="M971.07 514.584H966.206L966.179 512.541H970.596C971.325 512.541 971.962 512.418 972.507 512.172C973.052 511.926 973.474 511.574 973.773 511.117C974.081 510.651 974.234 510.098 974.234 509.456C974.234 508.753 974.098 508.182 973.826 507.742C973.562 507.294 973.153 506.969 972.6 506.766C972.055 506.556 971.36 506.45 970.517 506.45H966.772V523.562H964.228V504.367H970.517C971.501 504.367 972.38 504.468 973.153 504.67C973.927 504.864 974.582 505.171 975.118 505.593C975.663 506.006 976.076 506.534 976.357 507.175C976.638 507.817 976.779 508.586 976.779 509.482C976.779 510.273 976.577 510.99 976.172 511.631C975.768 512.264 975.206 512.783 974.485 513.187C973.773 513.591 972.938 513.85 971.98 513.965L971.07 514.584ZM970.952 523.562H965.204L966.641 521.493H970.952C971.76 521.493 972.446 521.352 973.008 521.071C973.58 520.789 974.015 520.394 974.313 519.884C974.612 519.366 974.762 518.755 974.762 518.052C974.762 517.34 974.634 516.724 974.379 516.206C974.125 515.687 973.725 515.287 973.18 515.006C972.635 514.725 971.932 514.584 971.07 514.584H967.445L967.471 512.541H972.428L972.969 513.279C973.892 513.358 974.674 513.622 975.315 514.07C975.957 514.51 976.445 515.072 976.779 515.758C977.122 516.443 977.293 517.199 977.293 518.025C977.293 519.221 977.029 520.231 976.502 521.057C975.983 521.875 975.25 522.499 974.3 522.93C973.351 523.351 972.235 523.562 970.952 523.562ZM989.409 520.266V509.298H991.861V523.562H989.527L989.409 520.266ZM989.87 517.261L990.885 517.234C990.885 518.183 990.784 519.062 990.582 519.871C990.389 520.671 990.072 521.365 989.633 521.954C989.193 522.543 988.618 523.004 987.906 523.338C987.194 523.663 986.328 523.826 985.309 523.826C984.614 523.826 983.977 523.725 983.397 523.523C982.826 523.321 982.333 523.009 981.92 522.587C981.507 522.165 981.187 521.616 980.958 520.939C980.738 520.262 980.628 519.449 980.628 518.5V509.298H983.067V518.526C983.067 519.168 983.138 519.7 983.278 520.121C983.428 520.535 983.625 520.864 983.872 521.11C984.126 521.348 984.408 521.515 984.715 521.611C985.032 521.708 985.357 521.756 985.691 521.756C986.728 521.756 987.55 521.558 988.156 521.163C988.763 520.759 989.198 520.218 989.461 519.541C989.734 518.856 989.87 518.096 989.87 517.261ZM998.229 509.298V523.562H995.776V509.298H998.229ZM995.592 505.514C995.592 505.119 995.71 504.785 995.948 504.512C996.194 504.24 996.554 504.103 997.029 504.103C997.495 504.103 997.851 504.24 998.097 504.512C998.352 504.785 998.479 505.119 998.479 505.514C998.479 505.892 998.352 506.217 998.097 506.49C997.851 506.753 997.495 506.885 997.029 506.885C996.554 506.885 996.194 506.753 995.948 506.49C995.71 506.217 995.592 505.892 995.592 505.514ZM1004.79 503.312V523.562H1002.34V503.312H1004.79ZM1017.7 520.794V503.312H1020.15V523.562H1017.91L1017.7 520.794ZM1008.1 516.588V516.311C1008.1 515.222 1008.23 514.233 1008.5 513.345C1008.77 512.449 1009.15 511.68 1009.65 511.038C1010.15 510.396 1010.74 509.904 1011.43 509.561C1012.12 509.21 1012.89 509.034 1013.75 509.034C1014.64 509.034 1015.42 509.192 1016.09 509.509C1016.77 509.816 1017.34 510.269 1017.81 510.867C1018.28 511.455 1018.65 512.167 1018.93 513.002C1019.2 513.837 1019.39 514.782 1019.49 515.837V517.05C1019.4 518.096 1019.21 519.036 1018.93 519.871C1018.65 520.706 1018.28 521.418 1017.81 522.007C1017.34 522.596 1016.77 523.048 1016.09 523.365C1015.42 523.672 1014.62 523.826 1013.72 523.826C1012.88 523.826 1012.12 523.646 1011.43 523.286C1010.74 522.925 1010.15 522.42 1009.65 521.769C1009.15 521.119 1008.77 520.354 1008.5 519.475C1008.23 518.588 1008.1 517.625 1008.1 516.588ZM1010.56 516.311V516.588C1010.56 517.3 1010.63 517.968 1010.77 518.592C1010.92 519.216 1011.14 519.766 1011.45 520.24C1011.76 520.715 1012.15 521.088 1012.62 521.361C1013.1 521.624 1013.67 521.756 1014.33 521.756C1015.13 521.756 1015.8 521.585 1016.32 521.242C1016.84 520.899 1017.27 520.447 1017.58 519.884C1017.9 519.322 1018.14 518.711 1018.32 518.052V514.874C1018.21 514.391 1018.06 513.925 1017.86 513.477C1017.67 513.02 1017.41 512.616 1017.09 512.264C1016.79 511.904 1016.4 511.618 1015.95 511.407C1015.5 511.196 1014.97 511.091 1014.35 511.091C1013.68 511.091 1013.11 511.231 1012.62 511.513C1012.15 511.785 1011.76 512.163 1011.45 512.646C1011.14 513.121 1010.92 513.675 1010.77 514.307C1010.63 514.932 1010.56 515.599 1010.56 516.311ZM1033.56 504.367V523.562H1031.02V504.367H1033.56ZM1041.6 513.002V515.085H1033.01V513.002H1041.6ZM1042.91 504.367V506.45H1033.01V504.367H1042.91ZM1053.53 521.123V513.78C1053.53 513.218 1053.42 512.73 1053.19 512.317C1052.97 511.895 1052.64 511.57 1052.19 511.341C1051.74 511.113 1051.19 510.998 1050.53 510.998C1049.91 510.998 1049.37 511.104 1048.91 511.315C1048.45 511.526 1048.09 511.803 1047.83 512.145C1047.57 512.488 1047.44 512.857 1047.44 513.253H1045C1045 512.743 1045.14 512.238 1045.4 511.737C1045.66 511.236 1046.04 510.783 1046.53 510.379C1047.03 509.966 1047.63 509.641 1048.33 509.403C1049.03 509.157 1049.81 509.034 1050.67 509.034C1051.71 509.034 1052.62 509.21 1053.42 509.561C1054.21 509.913 1054.84 510.445 1055.29 511.157C1055.74 511.86 1055.97 512.743 1055.97 513.807V520.451C1055.97 520.926 1056.01 521.431 1056.09 521.967C1056.18 522.503 1056.31 522.965 1056.47 523.351V523.562H1053.93C1053.81 523.281 1053.71 522.908 1053.64 522.442C1053.57 521.967 1053.53 521.528 1053.53 521.123ZM1053.96 514.914L1053.98 516.628H1051.52C1050.82 516.628 1050.2 516.685 1049.66 516.799C1049.11 516.905 1048.66 517.067 1048.29 517.287C1047.92 517.507 1047.64 517.784 1047.44 518.118C1047.25 518.443 1047.15 518.825 1047.15 519.265C1047.15 519.713 1047.25 520.121 1047.46 520.491C1047.66 520.86 1047.96 521.154 1048.37 521.374C1048.78 521.585 1049.28 521.69 1049.88 521.69C1050.63 521.69 1051.29 521.532 1051.86 521.216C1052.43 520.899 1052.88 520.513 1053.22 520.056C1053.56 519.599 1053.74 519.155 1053.77 518.724L1054.81 519.897C1054.75 520.266 1054.58 520.675 1054.31 521.123C1054.04 521.572 1053.67 522.002 1053.22 522.415C1052.77 522.82 1052.23 523.158 1051.61 523.431C1050.99 523.694 1050.3 523.826 1049.53 523.826C1048.56 523.826 1047.71 523.637 1046.98 523.259C1046.26 522.881 1045.7 522.376 1045.29 521.743C1044.9 521.101 1044.7 520.385 1044.7 519.594C1044.7 518.829 1044.85 518.157 1045.15 517.577C1045.45 516.988 1045.88 516.5 1046.44 516.114C1047 515.718 1047.68 515.419 1048.47 515.217C1049.26 515.015 1050.15 514.914 1051.12 514.914H1053.96ZM1068.11 519.779C1068.11 519.427 1068.04 519.102 1067.88 518.803C1067.73 518.495 1067.42 518.219 1066.94 517.973C1066.48 517.718 1065.77 517.498 1064.83 517.313C1064.04 517.146 1063.32 516.949 1062.68 516.72C1062.05 516.492 1061.51 516.215 1061.06 515.89C1060.62 515.564 1060.28 515.182 1060.05 514.743C1059.81 514.303 1059.69 513.789 1059.69 513.2C1059.69 512.638 1059.81 512.106 1060.06 511.605C1060.31 511.104 1060.67 510.66 1061.13 510.273C1061.59 509.887 1062.15 509.583 1062.8 509.364C1063.45 509.144 1064.18 509.034 1064.98 509.034C1066.12 509.034 1067.1 509.236 1067.9 509.641C1068.71 510.045 1069.33 510.585 1069.76 511.262C1070.19 511.93 1070.41 512.673 1070.41 513.49H1067.97C1067.97 513.095 1067.85 512.712 1067.61 512.343C1067.39 511.965 1067.05 511.653 1066.6 511.407C1066.16 511.161 1065.62 511.038 1064.98 511.038C1064.3 511.038 1063.75 511.143 1063.33 511.354C1062.92 511.557 1062.61 511.816 1062.42 512.132C1062.23 512.449 1062.14 512.783 1062.14 513.134C1062.14 513.398 1062.19 513.635 1062.27 513.846C1062.37 514.048 1062.54 514.237 1062.78 514.413C1063.01 514.58 1063.35 514.738 1063.78 514.888C1064.21 515.037 1064.76 515.186 1065.43 515.336C1066.59 515.599 1067.56 515.916 1068.31 516.285C1069.07 516.654 1069.63 517.107 1070 517.643C1070.37 518.179 1070.55 518.829 1070.55 519.594C1070.55 520.218 1070.42 520.789 1070.16 521.308C1069.9 521.827 1069.53 522.275 1069.04 522.653C1068.55 523.022 1067.97 523.312 1067.3 523.523C1066.63 523.725 1065.88 523.826 1065.04 523.826C1063.79 523.826 1062.72 523.602 1061.85 523.154C1060.98 522.705 1060.32 522.125 1059.88 521.413C1059.43 520.702 1059.2 519.95 1059.2 519.159H1061.65C1061.69 519.827 1061.88 520.359 1062.23 520.754C1062.59 521.141 1063.02 521.418 1063.53 521.585C1064.04 521.743 1064.54 521.822 1065.04 521.822C1065.71 521.822 1066.27 521.734 1066.72 521.558C1067.17 521.383 1067.52 521.141 1067.76 520.833C1068 520.526 1068.11 520.174 1068.11 519.779ZM1079.73 509.298V511.17H1072.02V509.298H1079.73ZM1074.63 505.83H1077.07V520.029C1077.07 520.513 1077.14 520.877 1077.29 521.123C1077.44 521.37 1077.63 521.532 1077.87 521.611C1078.11 521.69 1078.36 521.73 1078.64 521.73C1078.84 521.73 1079.05 521.712 1079.27 521.677C1079.5 521.633 1079.67 521.598 1079.78 521.572L1079.8 523.562C1079.6 523.624 1079.35 523.681 1079.03 523.734C1078.72 523.795 1078.35 523.826 1077.91 523.826C1077.31 523.826 1076.76 523.707 1076.26 523.47C1075.76 523.233 1075.36 522.837 1075.06 522.284C1074.77 521.721 1074.63 520.965 1074.63 520.016V505.83Z" fill="#262626"/>
<path d="M969.438 469.78H973.332V483.473C973.332 485.05 972.992 486.376 972.312 487.452C971.633 488.519 970.708 489.326 969.537 489.873C968.367 490.411 967.035 490.681 965.544 490.681C964.034 490.681 962.688 490.411 961.508 489.873C960.328 489.326 959.403 488.519 958.733 487.452C958.063 486.376 957.728 485.05 957.728 483.473V469.78H961.622V483.473C961.622 484.436 961.782 485.224 962.103 485.838C962.424 486.442 962.877 486.89 963.462 487.183C964.048 487.476 964.742 487.622 965.544 487.622C966.356 487.622 967.05 487.476 967.625 487.183C968.211 486.89 968.659 486.442 968.971 485.838C969.282 485.224 969.438 484.436 969.438 483.473V469.78ZM977.028 469.78H984.519C986.086 469.78 987.431 470.016 988.554 470.488C989.678 470.96 990.541 471.659 991.146 472.584C991.75 473.509 992.052 474.647 992.052 475.996C992.052 477.063 991.863 477.988 991.485 478.772C991.108 479.555 990.574 480.211 989.885 480.74C989.206 481.269 988.403 481.684 987.478 481.986L986.26 482.609H979.647L979.619 479.536H984.561C985.363 479.536 986.029 479.395 986.558 479.112C987.086 478.828 987.483 478.437 987.747 477.936C988.021 477.436 988.158 476.865 988.158 476.223C988.158 475.534 988.026 474.939 987.761 474.439C987.497 473.929 987.096 473.537 986.558 473.264C986.02 472.99 985.34 472.853 984.519 472.853H980.922V490.397H977.028V469.78ZM988.667 490.397L983.896 481.165L988.016 481.151L992.845 490.199V490.397H988.667ZM1011.55 479.735V487.764C1011.25 488.151 1010.77 488.571 1010.12 489.024C1009.48 489.477 1008.64 489.869 1007.6 490.199C1006.56 490.52 1005.29 490.681 1003.78 490.681C1002.46 490.681 1001.27 490.463 1000.18 490.029C999.094 489.585 998.16 488.939 997.376 488.089C996.592 487.24 995.988 486.201 995.563 484.974C995.139 483.747 994.926 482.345 994.926 480.768V479.409C994.926 477.833 995.125 476.431 995.521 475.203C995.927 473.976 996.503 472.938 997.249 472.088C998.004 471.239 998.905 470.592 999.953 470.148C1001.01 469.705 1002.19 469.483 1003.49 469.483C1005.24 469.483 1006.67 469.771 1007.8 470.347C1008.93 470.922 1009.8 471.715 1010.4 472.725C1011.01 473.726 1011.39 474.878 1011.54 476.181H1007.74C1007.64 475.463 1007.43 474.835 1007.12 474.297C1006.81 473.75 1006.36 473.325 1005.79 473.023C1005.22 472.711 1004.48 472.556 1003.58 472.556C1002.81 472.556 1002.14 472.707 1001.55 473.009C1000.97 473.311 1000.48 473.75 1000.08 474.326C999.684 474.901 999.382 475.614 999.174 476.464C998.976 477.313 998.877 478.286 998.877 479.381V480.768C998.877 481.873 998.99 482.855 999.217 483.714C999.443 484.563 999.769 485.281 1000.19 485.866C1000.63 486.442 1001.16 486.881 1001.79 487.183C1002.44 487.476 1003.16 487.622 1003.97 487.622C1004.71 487.622 1005.32 487.561 1005.8 487.438C1006.29 487.306 1006.68 487.15 1006.98 486.971C1007.27 486.791 1007.5 486.617 1007.66 486.447V482.581H1003.56V479.735H1011.55ZM1028.9 487.339V490.397H1017.94V487.339H1028.9ZM1019.13 469.78V490.397H1015.23V469.78H1019.13ZM1027.47 478.29V481.278H1017.94V478.29H1027.47ZM1028.85 469.78V472.853H1017.94V469.78H1028.85ZM1048.17 469.78V490.397H1044.26L1035.5 476.096V490.397H1031.6V469.78H1035.5L1044.29 484.096V469.78H1048.17ZM1064.2 483.615H1068.09C1067.99 484.993 1067.61 486.215 1066.94 487.282C1066.28 488.339 1065.36 489.17 1064.18 489.774C1063 490.378 1061.57 490.681 1059.89 490.681C1058.6 490.681 1057.43 490.454 1056.4 490.001C1055.37 489.538 1054.48 488.882 1053.75 488.033C1053.02 487.174 1052.46 486.145 1052.08 484.946C1051.69 483.737 1051.5 482.383 1051.5 480.882V479.31C1051.5 477.809 1051.69 476.454 1052.09 475.246C1052.49 474.038 1053.05 473.009 1053.79 472.159C1054.54 471.3 1055.43 470.639 1056.47 470.177C1057.51 469.714 1058.68 469.483 1059.98 469.483C1061.66 469.483 1063.08 469.794 1064.24 470.417C1065.4 471.031 1066.3 471.876 1066.94 472.952C1067.59 474.028 1067.97 475.265 1068.11 476.662H1064.21C1064.14 475.793 1063.95 475.057 1063.65 474.453C1063.35 473.849 1062.91 473.391 1062.31 473.079C1061.73 472.759 1060.95 472.598 1059.98 472.598C1059.22 472.598 1058.56 472.74 1057.98 473.023C1057.42 473.306 1056.94 473.731 1056.57 474.297C1056.19 474.854 1055.9 475.553 1055.72 476.393C1055.53 477.224 1055.43 478.187 1055.43 479.282V480.882C1055.43 481.93 1055.52 482.869 1055.69 483.7C1055.86 484.53 1056.12 485.234 1056.48 485.809C1056.84 486.385 1057.3 486.824 1057.87 487.126C1058.43 487.428 1059.11 487.579 1059.89 487.579C1060.85 487.579 1061.62 487.428 1062.22 487.126C1062.82 486.824 1063.28 486.381 1063.59 485.795C1063.91 485.21 1064.11 484.483 1064.2 483.615ZM1073.52 469.78L1078.05 479.395L1082.61 469.78H1086.88L1080.03 482.85V490.397H1076.08V482.85L1069.21 469.78H1073.52Z" fill="#363636"/>
<path d="M1147.08 524.354L1147.24 404" stroke="url(#paint59_linear_624_3256)" stroke-width="2"/>
<path d="M1001.67 424.272L1034.73 396.87L1022.79 420.657L1039.99 423.519L1007.49 451.013L1017.76 426.948L1001.67 424.272Z" fill="#404040" stroke="#404040" stroke-width="4" stroke-linejoin="round"/>
<path d="M897.202 426.242L896.713 546.595L934.146 568.195" stroke="url(#paint60_linear_624_3256)" stroke-width="2"/>
<defs>
<filter id="filter0_f_624_3256" x="269.25" y="352.25" width="232.5" height="262.5" filterUnits="userSpaceOnUse" color-interpolation-filters="sRGB">
<feFlood flood-opacity="0" result="BackgroundImageFix"/>
<feBlend mode="normal" in="SourceGraphic" in2="BackgroundImageFix" result="shape"/>
<feGaussianBlur stdDeviation="9" result="effect1_foregroundBlur_624_3256"/>
</filter>
<filter id="filter1_f_624_3256" x="588.25" y="102.25" width="232.5" height="262.5" filterUnits="userSpaceOnUse" color-interpolation-filters="sRGB">
<feFlood flood-opacity="0" result="BackgroundImageFix"/>
<feBlend mode="normal" in="SourceGraphic" in2="BackgroundImageFix" result="shape"/>
<feGaussianBlur stdDeviation="9" result="effect1_foregroundBlur_624_3256"/>
</filter>
<filter id="filter2_f_624_3256" x="912.25" y="353.25" width="232.5" height="262.5" filterUnits="userSpaceOnUse" color-interpolation-filters="sRGB">
<feFlood flood-opacity="0" result="BackgroundImageFix"/>
<feBlend mode="normal" in="SourceGraphic" in2="BackgroundImageFix" result="shape"/>
<feGaussianBlur stdDeviation="9" result="effect1_foregroundBlur_624_3256"/>
</filter>
<linearGradient id="paint0_linear_624_3256" x1="612.117" y1="-60.9421" x2="1319.38" y2="320.138" gradientUnits="userSpaceOnUse">
<stop stop-color="#161616"/>
<stop offset="1" stop-color="#632100"/>
</linearGradient>
<radialGradient id="paint1_radial_624_3256" cx="0" cy="0" r="1" gradientUnits="userSpaceOnUse" gradientTransform="translate(1286 202.5) rotate(-148.173) scale(119.462 98.5346)">
<stop stop-color="#272626"/>
<stop offset="1" stop-color="#060606"/>
</radialGradient>
<linearGradient id="paint2_linear_624_3256" x1="180.547" y1="716.258" x2="-59.4498" y2="559.894" gradientUnits="userSpaceOnUse">
<stop stop-color="#272626"/>
<stop offset="1" stop-color="#060606"/>
</linearGradient>
<linearGradient id="paint3_linear_624_3256" x1="898.137" y1="183.926" x2="932.914" y2="360.499" gradientUnits="userSpaceOnUse">
<stop stop-color="#161616"/>
<stop offset="1" stop-color="#632100"/>
</linearGradient>
<linearGradient id="paint4_linear_624_3256" x1="-23.3342" y1="127.5" x2="671" y2="128" gradientUnits="userSpaceOnUse">
<stop offset="0.164182" stop-color="#111111"/>
<stop offset="1" stop-color="#606060"/>
</linearGradient>
<linearGradient id="paint5_linear_624_3256" x1="-23.3342" y1="127.5" x2="671" y2="128" gradientUnits="userSpaceOnUse">
<stop offset="0.164182" stop-color="#111111"/>
<stop offset="1" stop-color="#606060"/>
</linearGradient>
<linearGradient id="paint6_linear_624_3256" x1="-23.3342" y1="127.5" x2="671" y2="128" gradientUnits="userSpaceOnUse">
<stop offset="0.164182" stop-color="#111111"/>
<stop offset="1" stop-color="#606060"/>
</linearGradient>
<linearGradient id="paint7_linear_624_3256" x1="-23.3342" y1="127.5" x2="671" y2="128" gradientUnits="userSpaceOnUse">
<stop offset="0.164182" stop-color="#111111"/>
<stop offset="1" stop-color="#606060"/>
</linearGradient>
<linearGradient id="paint8_linear_624_3256" x1="-23.3342" y1="127.5" x2="671" y2="128" gradientUnits="userSpaceOnUse">
<stop offset="0.164182" stop-color="#111111"/>
<stop offset="1" stop-color="#606060"/>
</linearGradient>
<linearGradient id="paint9_linear_624_3256" x1="-23.3342" y1="127.5" x2="671" y2="128" gradientUnits="userSpaceOnUse">
<stop offset="0.164182" stop-color="#111111"/>
<stop offset="1" stop-color="#606060"/>
</linearGradient>
<linearGradient id="paint10_linear_624_3256" x1="-23.3342" y1="127.5" x2="671" y2="128" gradientUnits="userSpaceOnUse">
<stop offset="0.164182" stop-color="#111111"/>
<stop offset="1" stop-color="#606060"/>
</linearGradient>
<linearGradient id="paint11_linear_624_3256" x1="-23.3342" y1="127.5" x2="671" y2="128" gradientUnits="userSpaceOnUse">
<stop offset="0.164182" stop-color="#111111"/>
<stop offset="1" stop-color="#606060"/>
</linearGradient>
<linearGradient id="paint12_linear_624_3256" x1="-23.3342" y1="127.5" x2="671" y2="128" gradientUnits="userSpaceOnUse">
<stop offset="0.164182" stop-color="#111111"/>
<stop offset="1" stop-color="#606060"/>
</linearGradient>
<linearGradient id="paint13_linear_624_3256" x1="-23.3342" y1="127.5" x2="671" y2="128" gradientUnits="userSpaceOnUse">
<stop offset="0.164182" stop-color="#111111"/>
<stop offset="1" stop-color="#606060"/>
</linearGradient>
<linearGradient id="paint14_linear_624_3256" x1="-23.3342" y1="127.5" x2="671" y2="128" gradientUnits="userSpaceOnUse">
<stop offset="0.164182" stop-color="#111111"/>
<stop offset="1" stop-color="#606060"/>
</linearGradient>
<linearGradient id="paint15_linear_624_3256" x1="-23.3342" y1="127.5" x2="671" y2="128" gradientUnits="userSpaceOnUse">
<stop offset="0.164182" stop-color="#111111"/>
<stop offset="1" stop-color="#606060"/>
</linearGradient>
<linearGradient id="paint16_linear_624_3256" x1="-23.3342" y1="127.5" x2="671" y2="128" gradientUnits="userSpaceOnUse">
<stop offset="0.164182" stop-color="#111111"/>
<stop offset="1" stop-color="#606060"/>
</linearGradient>
<linearGradient id="paint17_linear_624_3256" x1="-23.3342" y1="127.5" x2="671" y2="128" gradientUnits="userSpaceOnUse">
<stop offset="0.164182" stop-color="#111111"/>
<stop offset="1" stop-color="#606060"/>
</linearGradient>
<linearGradient id="paint18_linear_624_3256" x1="-23.3342" y1="127.5" x2="671" y2="128" gradientUnits="userSpaceOnUse">
<stop offset="0.164182" stop-color="#111111"/>
<stop offset="1" stop-color="#606060"/>
</linearGradient>
<linearGradient id="paint19_linear_624_3256" x1="-23.3342" y1="127.5" x2="671" y2="128" gradientUnits="userSpaceOnUse">
<stop offset="0.164182" stop-color="#111111"/>
<stop offset="1" stop-color="#606060"/>
</linearGradient>
<linearGradient id="paint20_linear_624_3256" x1="-23.3342" y1="127.5" x2="671" y2="128" gradientUnits="userSpaceOnUse">
<stop offset="0.164182" stop-color="#111111"/>
<stop offset="1" stop-color="#606060"/>
</linearGradient>
<linearGradient id="paint21_linear_624_3256" x1="-23.3342" y1="127.5" x2="671" y2="128" gradientUnits="userSpaceOnUse">
<stop offset="0.164182" stop-color="#111111"/>
<stop offset="1" stop-color="#606060"/>
</linearGradient>
<linearGradient id="paint22_linear_624_3256" x1="-23.3342" y1="127.5" x2="671" y2="128" gradientUnits="userSpaceOnUse">
<stop offset="0.164182" stop-color="#111111"/>
<stop offset="1" stop-color="#606060"/>
</linearGradient>
<linearGradient id="paint23_linear_624_3256" x1="-23.3342" y1="127.5" x2="671" y2="128" gradientUnits="userSpaceOnUse">
<stop offset="0.164182" stop-color="#111111"/>
<stop offset="1" stop-color="#606060"/>
</linearGradient>
<linearGradient id="paint24_linear_624_3256" x1="-23.3342" y1="127.5" x2="671" y2="128" gradientUnits="userSpaceOnUse">
<stop offset="0.164182" stop-color="#111111"/>
<stop offset="1" stop-color="#606060"/>
</linearGradient>
<linearGradient id="paint25_linear_624_3256" x1="-23.3342" y1="127.5" x2="671" y2="128" gradientUnits="userSpaceOnUse">
<stop offset="0.164182" stop-color="#111111"/>
<stop offset="1" stop-color="#606060"/>
</linearGradient>
<linearGradient id="paint26_linear_624_3256" x1="-23.3342" y1="127.5" x2="671" y2="128" gradientUnits="userSpaceOnUse">
<stop offset="0.164182" stop-color="#111111"/>
<stop offset="1" stop-color="#606060"/>
</linearGradient>
<linearGradient id="paint27_linear_624_3256" x1="-23.3342" y1="127.5" x2="671" y2="128" gradientUnits="userSpaceOnUse">
<stop offset="0.164182" stop-color="#111111"/>
<stop offset="1" stop-color="#606060"/>
</linearGradient>
<linearGradient id="paint28_linear_624_3256" x1="-23.3342" y1="127.5" x2="671" y2="128" gradientUnits="userSpaceOnUse">
<stop offset="0.164182" stop-color="#111111"/>
<stop offset="1" stop-color="#606060"/>
</linearGradient>
<linearGradient id="paint29_linear_624_3256" x1="-23.3342" y1="127.5" x2="671" y2="128" gradientUnits="userSpaceOnUse">
<stop offset="0.164182" stop-color="#111111"/>
<stop offset="1" stop-color="#606060"/>
</linearGradient>
<linearGradient id="paint30_linear_624_3256" x1="-23.3342" y1="127.5" x2="671" y2="128" gradientUnits="userSpaceOnUse">
<stop offset="0.164182" stop-color="#111111"/>
<stop offset="1" stop-color="#606060"/>
</linearGradient>
<linearGradient id="paint31_linear_624_3256" x1="-23.3342" y1="127.5" x2="671" y2="128" gradientUnits="userSpaceOnUse">
<stop offset="0.164182" stop-color="#111111"/>
<stop offset="1" stop-color="#606060"/>
</linearGradient>
<linearGradient id="paint32_linear_624_3256" x1="-23.3342" y1="127.5" x2="671" y2="128" gradientUnits="userSpaceOnUse">
<stop offset="0.164182" stop-color="#111111"/>
<stop offset="1" stop-color="#606060"/>
</linearGradient>
<linearGradient id="paint33_linear_624_3256" x1="-23.3342" y1="127.5" x2="671" y2="128" gradientUnits="userSpaceOnUse">
<stop offset="0.164182" stop-color="#111111"/>
<stop offset="1" stop-color="#606060"/>
</linearGradient>
<linearGradient id="paint34_linear_624_3256" x1="-23.3342" y1="127.5" x2="671" y2="128" gradientUnits="userSpaceOnUse">
<stop offset="0.164182" stop-color="#111111"/>
<stop offset="1" stop-color="#606060"/>
</linearGradient>
<linearGradient id="paint35_linear_624_3256" x1="-23.3342" y1="127.5" x2="671" y2="128" gradientUnits="userSpaceOnUse">
<stop offset="0.164182" stop-color="#111111"/>
<stop offset="1" stop-color="#606060"/>
</linearGradient>
<linearGradient id="paint36_linear_624_3256" x1="-23.3342" y1="127.5" x2="671" y2="128" gradientUnits="userSpaceOnUse">
<stop offset="0.164182" stop-color="#111111"/>
<stop offset="1" stop-color="#606060"/>
</linearGradient>
<linearGradient id="paint37_linear_624_3256" x1="-23.3342" y1="127.5" x2="671" y2="128" gradientUnits="userSpaceOnUse">
<stop offset="0.164182" stop-color="#111111"/>
<stop offset="1" stop-color="#606060"/>
</linearGradient>
<linearGradient id="paint38_linear_624_3256" x1="-23.3342" y1="127.5" x2="671" y2="128" gradientUnits="userSpaceOnUse">
<stop offset="0.164182" stop-color="#111111"/>
<stop offset="1" stop-color="#606060"/>
</linearGradient>
<linearGradient id="paint39_linear_624_3256" x1="-23.3342" y1="127.5" x2="671" y2="128" gradientUnits="userSpaceOnUse">
<stop offset="0.164182" stop-color="#111111"/>
<stop offset="1" stop-color="#606060"/>
</linearGradient>
<linearGradient id="paint40_linear_624_3256" x1="-23.3342" y1="127.5" x2="671" y2="128" gradientUnits="userSpaceOnUse">
<stop offset="0.164182" stop-color="#111111"/>
<stop offset="1" stop-color="#606060"/>
</linearGradient>
<linearGradient id="paint41_linear_624_3256" x1="-23.3342" y1="127.5" x2="671" y2="128" gradientUnits="userSpaceOnUse">
<stop offset="0.164182" stop-color="#111111"/>
<stop offset="1" stop-color="#606060"/>
</linearGradient>
<linearGradient id="paint42_linear_624_3256" x1="-23.3342" y1="127.5" x2="671" y2="128" gradientUnits="userSpaceOnUse">
<stop offset="0.164182" stop-color="#111111"/>
<stop offset="1" stop-color="#606060"/>
</linearGradient>
<linearGradient id="paint43_linear_624_3256" x1="-23.3342" y1="127.5" x2="671" y2="128" gradientUnits="userSpaceOnUse">
<stop offset="0.164182" stop-color="#111111"/>
<stop offset="1" stop-color="#606060"/>
</linearGradient>
<linearGradient id="paint44_linear_624_3256" x1="-23.3342" y1="127.5" x2="671" y2="128" gradientUnits="userSpaceOnUse">
<stop offset="0.164182" stop-color="#111111"/>
<stop offset="1" stop-color="#606060"/>
</linearGradient>
<linearGradient id="paint45_linear_624_3256" x1="-23.3342" y1="127.5" x2="671" y2="128" gradientUnits="userSpaceOnUse">
<stop offset="0.164182" stop-color="#111111"/>
<stop offset="1" stop-color="#606060"/>
</linearGradient>
<linearGradient id="paint46_linear_624_3256" x1="-23.3342" y1="127.5" x2="671" y2="128" gradientUnits="userSpaceOnUse">
<stop offset="0.164182" stop-color="#111111"/>
<stop offset="1" stop-color="#606060"/>
</linearGradient>
<linearGradient id="paint47_linear_624_3256" x1="-23.3342" y1="127.5" x2="671" y2="128" gradientUnits="userSpaceOnUse">
<stop offset="0.164182" stop-color="#111111"/>
<stop offset="1" stop-color="#606060"/>
</linearGradient>
<linearGradient id="paint48_linear_624_3256" x1="-23.3342" y1="127.5" x2="671" y2="128" gradientUnits="userSpaceOnUse">
<stop offset="0.164182" stop-color="#111111"/>
<stop offset="1" stop-color="#606060"/>
</linearGradient>
<linearGradient id="paint49_linear_624_3256" x1="-23.3342" y1="127.5" x2="671" y2="128" gradientUnits="userSpaceOnUse">
<stop offset="0.164182" stop-color="#111111"/>
<stop offset="1" stop-color="#606060"/>
</linearGradient>
<linearGradient id="paint50_linear_624_3256" x1="-23.3342" y1="127.5" x2="671" y2="128" gradientUnits="userSpaceOnUse">
<stop offset="0.164182" stop-color="#111111"/>
<stop offset="1" stop-color="#606060"/>
</linearGradient>
<linearGradient id="paint51_linear_624_3256" x1="-23.3342" y1="127.5" x2="671" y2="128" gradientUnits="userSpaceOnUse">
<stop offset="0.164182" stop-color="#111111"/>
<stop offset="1" stop-color="#606060"/>
</linearGradient>
<linearGradient id="paint52_linear_624_3256" x1="-23.3342" y1="127.5" x2="671" y2="128" gradientUnits="userSpaceOnUse">
<stop offset="0.164182" stop-color="#111111"/>
<stop offset="1" stop-color="#606060"/>
</linearGradient>
<linearGradient id="paint53_linear_624_3256" x1="-23.3342" y1="127.5" x2="671" y2="128" gradientUnits="userSpaceOnUse">
<stop offset="0.164182" stop-color="#111111"/>
<stop offset="1" stop-color="#606060"/>
</linearGradient>
<linearGradient id="paint54_linear_624_3256" x1="1421" y1="425.5" x2="1196.5" y2="590.5" gradientUnits="userSpaceOnUse">
<stop stop-color="#712601"/>
<stop offset="1" stop-color="#2C2C2C"/>
</linearGradient>
<linearGradient id="paint55_linear_624_3256" x1="313.5" y1="358" x2="253" y2="498.5" gradientUnits="userSpaceOnUse">
<stop stop-color="#929191"/>
<stop offset="1" stop-color="#4B4B4B"/>
</linearGradient>
<linearGradient id="paint56_linear_624_3256" x1="367.5" y1="336.5" x2="274.5" y2="429" gradientUnits="userSpaceOnUse">
<stop stop-color="#3C3C3C"/>
<stop offset="1" stop-color="#666666"/>
</linearGradient>
<linearGradient id="paint57_linear_624_3256" x1="720.188" y1="370.384" x2="569" y2="319.5" gradientUnits="userSpaceOnUse">
<stop stop-color="#FBB090"/>
<stop offset="1" stop-color="#4E1800"/>
</linearGradient>
<linearGradient id="paint58_linear_624_3256" x1="831.93" y1="293.46" x2="776.5" y2="130.5" gradientUnits="userSpaceOnUse">
<stop stop-color="#FBB090"/>
<stop offset="1" stop-color="#4E1800"/>
</linearGradient>
<linearGradient id="paint59_linear_624_3256" x1="1135.19" y1="381.525" x2="1168.58" y2="537.512" gradientUnits="userSpaceOnUse">
<stop stop-color="#FBB090"/>
<stop offset="1" stop-color="#4E1800"/>
</linearGradient>
<linearGradient id="paint60_linear_624_3256" x1="885.216" y1="403.735" x2="940.646" y2="566.695" gradientUnits="userSpaceOnUse">
<stop stop-color="#FBB090"/>
<stop offset="1" stop-color="#4E1800"/>
</linearGradient>
</defs>
</svg>
