<svg width="151" height="175" viewBox="0 0 151 175" fill="none" xmlns="http://www.w3.org/2000/svg">
<path d="M75.3063 1.94083L148.808 44.5306V129.719L75.3063 172.309L1.80469 129.719V44.5306L75.3063 1.94083Z" fill="#282828" stroke="#A5270E" stroke-width="3" stroke-linejoin="round"/>
<path d="M41 54.7833C41 49.9324 44.9324 46 49.7833 46H100.217C105.068 46 109 49.9324 109 54.7833V105.217C109 110.068 105.068 114 100.217 114H49.7833C44.9324 114 41 110.068 41 105.217V54.7833ZM103.409 97.7949C103.409 97.7939 103.409 97.7928 103.409 97.7917C102.917 94.6947 100.877 92.0885 94.9089 89.6711C92.8311 88.6889 90.4889 88.0089 89.8089 86.46C89.5444 85.5156 89.5067 85.0244 89.6956 84.4578C90.1111 82.6444 92.3022 82.0778 94.0022 82.6067C94.2366 82.6794 94.4676 82.7746 94.6921 82.8931C96.1498 83.6621 98.2211 84.2055 99.6127 83.3226C100.894 82.5094 101.158 80.8465 100.084 79.7733C98.3089 77.7711 95.9289 76.7511 92.0378 76.8644L90.0356 77.1289C88.1089 77.5822 86.2956 78.64 85.2 79.9622C81.9511 83.6267 82.8956 89.9733 86.8244 92.6178C90.6778 95.5267 96.3444 96.1311 97.0622 98.8511C97.7422 102.176 94.6067 103.233 91.4711 102.856C90.2129 102.567 89.2701 102.098 88.4396 101.387C87.1398 100.275 85.3375 99.7392 83.8555 100.594C82.4079 101.429 81.8526 103.226 82.9673 104.471C83.1671 104.695 83.3815 104.932 83.6133 105.198C88.5622 110.184 100.878 109.92 103.069 102.364C103.143 102.104 103.729 100.418 103.317 97.8101C103.313 97.7831 103.349 97.7689 103.363 97.7924L103.371 97.8055C103.382 97.8233 103.409 97.8157 103.409 97.7949ZM77.9278 77.2611C77.9347 77.2681 77.9298 77.28 77.92 77.28H73.4322C72.3994 77.28 71.5622 78.1172 71.5622 79.15C71.5622 84.0044 71.5622 88.8589 71.5622 93.7133C71.5622 97.1889 71.7511 100.4 71.1844 101.382C70.4085 102.996 68.6378 103.106 67.4232 102.905C66.9529 102.827 66.5015 102.651 66.1101 102.379C65.3639 101.86 64.8983 101.201 64.3844 100.324C64.1455 99.9422 63.8033 99.8825 63.419 100.118L62.781 100.509C60.5415 101.882 59.5951 104.918 61.633 106.576C61.9303 106.818 62.243 107.039 62.5711 107.238C64.9889 108.673 68.2378 109.164 71.6378 108.409C73.8667 107.767 75.7933 106.444 76.7756 104.404C78.2111 101.76 77.9089 98.5489 77.9089 94.9222C77.9089 89.1044 77.9089 83.2867 77.9089 77.3933V77.2689C77.9089 77.2591 77.9208 77.2541 77.9278 77.2611Z" fill="#D2D2D2"/>
<path d="M57 128C57 125.791 58.7909 124 61 124H89C91.2091 124 93 125.791 93 128V150C93 152.209 91.2091 154 89 154H61C58.7909 154 57 152.209 57 150V128Z" fill="#A5270E"/>
<path d="M71.5371 140.493L67.6113 139.57L68.9004 128.672H81.3662V132.51H72.9287L72.4453 136.743C72.6797 136.606 73.0752 136.445 73.6318 136.26C74.1982 136.064 74.8232 135.967 75.5068 135.967C76.5615 135.967 77.4941 136.128 78.3047 136.45C79.125 136.763 79.8184 137.227 80.3848 137.842C80.9512 138.447 81.376 139.194 81.6592 140.083C81.9521 140.972 82.0986 141.987 82.0986 143.13C82.0986 144.048 81.9473 144.937 81.6445 145.796C81.3516 146.646 80.8975 147.412 80.2822 148.096C79.6768 148.77 78.9102 149.307 77.9824 149.707C77.0547 150.098 75.9561 150.293 74.6865 150.293C73.7393 150.293 72.8164 150.146 71.918 149.854C71.0195 149.561 70.209 149.141 69.4863 148.594C68.7734 148.037 68.207 147.368 67.7871 146.587C67.377 145.796 67.1768 144.912 67.1865 143.936H72.1523C72.1816 144.453 72.3037 144.902 72.5186 145.283C72.7334 145.664 73.0215 145.962 73.3828 146.177C73.7539 146.382 74.1787 146.484 74.6572 146.484C75.1455 146.484 75.5508 146.387 75.873 146.191C76.1953 145.996 76.4492 145.728 76.6348 145.386C76.8203 145.044 76.9521 144.653 77.0303 144.214C77.1084 143.765 77.1475 143.291 77.1475 142.793C77.1475 142.266 77.0889 141.792 76.9717 141.372C76.8643 140.952 76.6885 140.596 76.4443 140.303C76.2002 140 75.8828 139.771 75.4922 139.614C75.1113 139.458 74.6523 139.38 74.1152 139.38C73.4023 139.38 72.8408 139.502 72.4307 139.746C72.0205 139.99 71.7227 140.239 71.5371 140.493Z" fill="#D9D9D9"/>
</svg>
