<svg width="152" height="175" viewBox="0 0 152 175" fill="none" xmlns="http://www.w3.org/2000/svg">
<path d="M76.0852 2.06772L149.784 44.7715V130.189L76.0852 172.892L2.38672 130.189V44.7715L76.0852 2.06772Z" fill="#282828" stroke="#FCD0C2" stroke-width="3" stroke-linejoin="round"/>
<path d="M66.4951 92.3282C54.6327 95.6733 73.674 102.597 88.7611 96.2179C87.3023 95.6344 85.8819 94.9343 84.5383 94.1175C79.3173 95.3233 73.9043 95.5566 68.5681 94.8176C63.5391 94.2342 66.4951 92.3282 66.4951 92.3282ZM86.9568 85.7937C80.2002 87.2717 73.2517 87.6218 66.3799 86.805C61.3509 86.2604 64.6524 83.8099 64.6524 83.8099C51.5999 88.1663 71.908 93.1451 90.1432 87.6996C88.9531 87.3106 87.8782 86.6494 86.9568 85.7937ZM93.9437 47.9475C93.9437 47.9475 67.57 54.5988 80.1618 69.3016C82.1581 71.7132 81.851 75.3305 79.4324 77.3531C79.3556 77.4309 79.2789 77.4698 79.2021 77.5476C79.2021 77.5476 88.646 72.6078 84.3079 66.4233C79.9699 60.2388 77.1674 57.7883 93.9437 47.9475Z" fill="#D9D9D9"/>
<path d="M100.124 98.6684C100.124 98.6684 102.274 100.458 97.7056 101.858C88.9911 104.542 61.5041 105.359 53.8645 101.858C51.1004 100.652 56.2447 98.9795 57.7035 98.6295C58.5864 98.3961 59.4694 98.2794 60.3524 98.3183C57.2812 96.1401 40.5817 102.597 51.8682 104.464C82.772 109.793 108.071 102.286 100.124 98.6684ZM89.5286 79.6869C90.6419 78.9479 91.832 78.3256 93.0604 77.781C93.0604 77.781 87.2636 78.8312 81.5435 79.3369C75.4012 79.9203 69.2204 79.9981 63.0397 79.5313C53.9029 78.3256 67.9152 74.786 67.9152 74.786C63.6923 74.786 59.5462 75.7584 55.784 77.7032C47.8757 81.7095 75.3244 83.4599 89.5286 79.6869ZM93.022 89.1776C93.022 89.1776 92.8301 89.411 92.7149 89.5277C111.91 84.3934 104.923 71.4409 95.7093 74.7082C95.2103 74.9027 94.7496 75.2527 94.4425 75.6806C94.4425 75.6806 94.9799 75.4861 96.0932 75.2138C100.777 74.2414 107.303 81.554 93.022 89.1776ZM76.5912 74.786C73.7504 68.2903 64.0762 62.5725 76.5912 52.5762C92.2926 40.0904 84.2692 32 84.2692 32C87.4939 44.8747 72.7523 48.7643 67.608 56.777C64.0378 62.2614 69.4124 68.1347 76.5912 74.786Z" fill="#D9D9D9"/>
<path d="M93.5215 107.148C81.9278 109.17 70.1037 109.326 58.4332 107.692C58.4332 107.692 60.1992 109.17 69.3359 109.754C83.1946 110.648 104.463 109.287 105 102.636C105 102.636 104.002 105.125 93.5215 107.148Z" fill="#D9D9D9"/>
<rect x="58" y="124" width="36" height="30" rx="4" fill="#FCD0C2"/>
<path d="M83.2012 146.191V150H68.3184V146.777L75.1738 139.57C75.7793 138.877 76.2676 138.257 76.6387 137.71C77.0098 137.153 77.2783 136.65 77.4443 136.201C77.6201 135.752 77.708 135.347 77.708 134.985C77.708 134.37 77.6152 133.857 77.4297 133.447C77.2539 133.027 76.9902 132.71 76.6387 132.495C76.2969 132.28 75.8721 132.173 75.3643 132.173C74.8564 132.173 74.4121 132.319 74.0312 132.612C73.6504 132.905 73.3525 133.306 73.1377 133.813C72.9326 134.321 72.8301 134.893 72.8301 135.527H67.8789C67.8789 134.219 68.1963 133.022 68.8311 131.938C69.4756 130.854 70.3691 129.99 71.5117 129.346C72.6543 128.691 73.9775 128.364 75.4814 128.364C77.0537 128.364 78.3721 128.608 79.4365 129.097C80.501 129.585 81.3018 130.293 81.8389 131.221C82.3857 132.139 82.6592 133.247 82.6592 134.546C82.6592 135.288 82.542 136.001 82.3076 136.685C82.0732 137.368 81.7363 138.047 81.2969 138.721C80.8574 139.385 80.3203 140.068 79.6855 140.771C79.0605 141.475 78.3477 142.222 77.5469 143.013L74.793 146.191H83.2012Z" fill="#242424"/>
</svg>
