<svg width="95" height="109" viewBox="0 0 95 109" fill="none" xmlns="http://www.w3.org/2000/svg">
<path d="M92.6048 80.75V28.25L47.3024 2L2 28.25V80.75L47.3024 107L92.6048 80.75Z" fill="#FCD0C2" stroke="#282828" stroke-width="3" stroke-linejoin="round"/>
<path fill-rule="evenodd" clip-rule="evenodd" d="M29.3946 76.1723C30.4017 76.9859 31.8798 76.8352 32.6911 75.8247C33.5071 74.8183 33.3545 73.3384 32.3473 72.5207C31.3415 71.705 29.8655 71.8619 29.0474 72.8683C28.274 73.8237 28.3736 75.2018 29.2447 76.0415L28.7875 75.6389C23.3893 70.6119 20 63.4449 20 55.4959C20 40.3351 32.3198 28 47.4653 28C55.1652 28 62.126 31.1953 67.1193 36.3221C68.2536 34.7767 69.2367 33.049 70.0411 31.1333C73.5404 41.6615 75.5981 50.5102 74.8453 57.4797C73.8278 71.718 61.9411 83 47.466 83C40.7423 83 34.5824 80.5633 29.8043 76.5351L29.3953 76.1737L29.3946 76.1723ZM69.9222 67.599C76.8143 58.4165 72.9726 43.5669 69.7764 34.0767C66.9288 40.0192 59.9144 44.5636 53.8576 46.0022C48.181 47.3583 43.1568 46.2466 37.903 48.2703C25.9234 52.8822 26.1125 67.186 32.7124 70.4006C32.7158 70.4006 33.1077 70.6139 33.1022 70.6071C33.1022 70.6036 42.8027 68.6763 48.1651 66.6938C56.0025 63.7959 64.6065 56.653 67.4376 48.355C65.9299 56.9848 58.5311 65.2882 51.098 69.1017C47.1415 71.1357 44.0649 71.588 37.5544 73.8443C36.7569 74.1162 36.1313 74.3847 36.1313 74.3847C37.7813 74.1094 39.4258 74.0199 39.4258 74.0199C48.6945 73.5814 63.1559 76.6287 69.9249 67.6011L69.9222 67.599Z" fill="#282828"/>
</svg>
