<svg width="95" height="109" viewBox="0 0 95 109" fill="none" xmlns="http://www.w3.org/2000/svg">
<path d="M92.6048 80.75V28.25L47.3024 2L2 28.25V80.75L47.3024 107L92.6048 80.75Z" fill="#FCD0C2" stroke="#282828" stroke-width="3" stroke-linejoin="round"/>
<path d="M62.5401 32C66.6573 32.015 69.9887 35.3493 70 39.4655V69.5345C69.9887 73.6507 66.6536 76.9887 62.5326 77H58.0619L56.0127 72.023H62.5401C63.905 72.0042 65.0104 70.9028 65.0292 69.5345V39.4655C65.0104 38.101 63.9088 36.9958 62.5401 36.977H32.4674C31.1025 36.9958 29.9971 38.0972 29.9783 39.4655V69.5345C29.9971 70.899 31.0988 72.0042 32.4674 72.023H43.473L47.5038 63.5011L53.0648 77H32.4674C28.3502 76.9887 25.0113 73.6544 25 69.5345V39.4655C25.0113 35.3456 28.3464 32.0113 32.4674 32H62.5439H62.5401ZM54.8095 56.5581V64.5574L47.8798 60.5578L54.8095 56.5581ZM40.198 48.5588V56.5581L33.2683 52.5584L40.198 48.5588ZM54.4335 39.9054V47.9047L47.5038 43.905L54.4335 39.9054Z" fill="#282828"/>
<path d="M40.198 56.5581L47.1278 60.5578L40.198 64.5574V56.5581ZM54.8095 48.5588L61.7392 52.5584L54.8095 56.5581V48.5588ZM40.574 39.9054L47.5038 43.905L40.574 47.9047V39.9054Z" fill="#7A7879"/>
<path d="M40.198 48.5588L47.1278 52.5584V60.5578L40.198 56.5581V48.5588ZM54.8095 48.5588V56.5581L47.8798 60.5578V52.5584L54.8095 48.5588ZM47.5038 43.905L54.4335 47.9047L47.5038 51.9044L40.574 47.9047L47.5038 43.905Z" fill="black"/>
</svg>
