<?xml version="1.0" encoding="UTF-8"?>
<svg id="Camada_1" data-name="Camada 1" xmlns="http://www.w3.org/2000/svg" version="1.1" viewBox="0 0 95 109">
  <defs>
    <style>
      .cls-1 {
        fill: #f6f4ef;
        stroke-width: 0px;
      }

      .cls-2 {
        fill: #a5270e;
        stroke: #0b0b11;
        stroke-linejoin: round;
        stroke-width: 3px;
      }
    </style>
  </defs>
  <path class="cls-2" d="M92.6,80.8V28.2L47.3,2,2,28.2v52.5l45.3,26.2,45.3-26.2Z"/>
  <path class="cls-1" d="M26.9,42.5c-4.1,5.9-3.6,13.7-.5,20l.2.4s0,.2.1.3c0,0,0,.1,0,.2.1.3.3.5.5.8l.2.3c.2.3.3.5.5.8.2.3.3.5.5.8h0c.1.3.3.5.5.7l.2.2.4.5.2.2c.2.2.4.4.6.7,0,0,0,0,0,0,.2.2.4.4.6.6l.8.8c.2.2.4.4.6.6h.1c.2.3.4.5.6.6l.3.2c.4.4.9.7,1.3,1,0,0,.1,0,.2.1h0c.2.2.3.3.5.4,0,0,.2.1.2.2.7.4,1.3.8,2.1,1.2.1,0,.3.2.4.2h.1s.2.1.2.1c.2.1.5.2.7.3h.2c.3.2.6.3.8.4h.2c.3.2.6.3.9.4.3,0,.6.2.9.3h.2c.3.2.6.3.9.3,19.7,3.7,25.4-12,25.4-12-4.8,6.4-13.3,8-21.4,6.2-.3,0-.6-.2-.9-.3h-.2c-.6-.3-1.2-.5-1.8-.7h-.2c-.3-.2-.6-.3-.8-.4h-.2c-.2-.2-.5-.3-.7-.4h-.2c-.2-.2-.3-.3-.5-.4-.1,0-.2-.1-.3-.2-.2-.1-.4-.2-.6-.4h-.2c-.3-.3-.6-.5-.8-.6l-.2-.2c-.2-.1-.4-.3-.6-.4h-.2c-.2-.3-.4-.4-.6-.6-.3-.2-.5-.4-.8-.6l-.2-.2c-.2-.2-.4-.4-.6-.5-.3-.2-.5-.4-.7-.7,0,0-.1-.1-.2-.2-.2-.2-.3-.3-.5-.5l-.2-.2c-.2-.2-.4-.4-.6-.6h0c-.2-.3-.4-.5-.6-.7l-.2-.2c-.2-.2-.4-.5-.6-.7-.2-.2-.3-.4-.5-.7-4.5-6.2-6.1-14.8-2.5-21.8"/>
  <path class="cls-1" d="M39.6,37.5c-2.9,4.3-2.8,10.1-.5,14.6.4.8.8,1.5,1.3,2.2.4.6.9,1.4,1.5,1.9.2.2.4.5.6.7l.2.2c.2.2.4.4.7.6h0c.3.3.5.5.8.7h.2c.3.4.6.6.9.8.1,0,.3.2.4.3,0,0,.1,0,.2.1.2.1.5.3.7.4.2,0,.3.2.5.3,0,0,.1,0,.2,0,.1,0,.3.1.4.2.3.1.6.3.8.4h.2c.2.2.4.3.6.3h.3c.2.2.4.2.6.3h.3c.3.2.6.3.9.4,15.2,2.6,18.7-9.3,18.7-9.3-3.2,4.6-9.3,6.8-15.8,5.1-.6-.2-1.2-.3-1.7-.5h-.3c-.3-.2-.6-.3-.8-.4-.3-.1-.5-.2-.8-.4-.1,0-.3-.1-.4-.2h-.2c-.4-.4-.8-.6-1.2-.8h-.2c-.5-.4-1-.8-1.4-1.2-2.9-2.3-5.1-5.4-6.2-9-1.1-3.7-.9-7.8,1.1-11.2"/>
  <path class="cls-1" d="M50.2,33.8c-1.7,2.6-1.9,5.8-.7,8.7,1.3,3,3.9,5.4,6.9,6.6.2,0,.4.1.5.2.2,0,.3.1.5.2,8.4,1.7,10.7-4.4,11.3-5.3-2,2.9-5.4,3.6-9.5,2.6-.7-.2-1.5-.5-2.2-.8-.7-.4-1.4-.8-2.1-1.3-3.7-2.8-6-8.3-3.6-12.7"/>
</svg>