<?xml version="1.0" encoding="UTF-8"?>
<svg id="Camada_1" data-name="Camada 1" xmlns="http://www.w3.org/2000/svg" version="1.1" viewBox="0 0 95 109">
  <defs>
    <style>
      .cls-1 {
        fill: #f6f4ef;
        stroke-width: 0px;
      }

      .cls-2 {
        fill: #a5270e;
        stroke: #0b0b11;
        stroke-linejoin: round;
        stroke-width: 3px;
      }
    </style>
  </defs>
  <path class="cls-2" d="M92.6,80.8V28.2L47.3,2,2,28.2v52.5l45.3,26.2,45.3-26.2Z"/>
  <path class="cls-1" d="M47.5,59.4c2.7,0,4.9-2.2,4.9-4.9s-2.2-4.9-4.9-4.9-4.9,2.2-4.9,4.9,2.2,4.9,4.9,4.9Z"/>
  <path class="cls-1" d="M33.8,64.3l-1.1-.3c-8-2-12.7-5.5-12.7-9.5s4.6-7.5,12.7-9.5l1.1-.3.3,1.1c.8,2.8,1.9,5.6,3.1,8.2l.2.5-.2.5c-1.3,2.6-2.3,5.4-3.1,8.2l-.3,1.1ZM32.2,47.5c-6.1,1.7-9.9,4.4-9.9,7s3.8,5.3,9.9,7c.7-2.4,1.6-4.7,2.7-7-1-2.3-2-4.6-2.7-7ZM61.2,64.2l-.3-1.1c-.8-2.8-1.9-5.6-3.1-8.2l-.2-.5.2-.5c1.3-2.6,2.3-5.4,3.1-8.2l.3-1.1,1.1.3c8,2,12.7,5.5,12.7,9.5s-4.6,7.5-12.7,9.5l-1.1.3ZM60.1,54.5c1.1,2.4,2,4.7,2.7,7,6.1-1.7,9.9-4.4,9.9-7s-3.8-5.3-9.9-7c-.7,2.4-1.6,4.7-2.7,7Z"/>
  <path class="cls-1" d="M32.2,47.5l-.3-1.1c-2.3-8-1.6-13.7,1.9-15.7,3.4-2,8.8.4,14.6,6.2l.8.8-.8.8c-2,2.1-3.9,4.4-5.5,6.8l-.3.4h-.5c-2.9.3-5.8.7-8.7,1.5l-1.1.3ZM36.5,32.3c-.6,0-1.2.1-1.6.4-2.3,1.3-2.7,5.9-1.1,12,2.4-.5,4.9-.9,7.4-1.2,1.4-2,3-4,4.7-5.8-3.6-3.5-7-5.5-9.4-5.5h0ZM58.5,79c-3.3,0-7.4-2.5-11.8-6.9l-.8-.8.8-.8c2-2.1,3.9-4.4,5.5-6.8l.3-.4h.5c2.9-.3,5.8-.7,8.7-1.5l1.1-.3.3,1.1c2.3,8,1.6,13.7-1.9,15.7-.9.5-1.8.7-2.8.7h0ZM49.1,71.2c3.6,3.5,7,5.5,9.4,5.5s1.2-.1,1.6-.4c2.3-1.3,2.7-5.9,1.1-12-2.4.5-4.9.9-7.4,1.2-1.4,2.1-3,4-4.7,5.8h0Z"/>
  <path class="cls-1" d="M62.8,47.5l-1.1-.3c-2.9-.7-5.7-1.2-8.7-1.4h-.5c0,0-.3-.5-.3-.5-1.7-2.4-3.5-4.7-5.5-6.8l-.8-.8.8-.8c5.7-5.9,11.2-8.2,14.6-6.2,3.5,2,4.1,7.7,1.9,15.7l-.3,1.1ZM53.8,43.6c2.6.2,5.1.6,7.4,1.2,1.6-6.2,1.2-10.7-1.1-12-2.3-1.3-6.5.7-11,5.1,1.7,1.8,3.3,3.8,4.7,5.8h0ZM36.5,79c-1,0-1.9-.2-2.8-.7-3.5-2-4.1-7.7-1.9-15.7l.3-1.1,1.1.3c2.6.7,5.6,1.1,8.7,1.4h.5c0,0,.3.5.3.5,1.6,2.4,3.5,4.7,5.5,6.8l.8.8-.8.8c-4.3,4.5-8.5,6.9-11.8,6.9h0ZM33.8,64.3c-1.6,6.2-1.2,10.8,1.1,12,2.3,1.3,6.5-.7,11-5.1-1.7-1.8-3.3-3.8-4.7-5.8-2.5-.2-5-.6-7.4-1.2h0Z"/>
  <path class="cls-1" d="M47.5,65.7c-1.9,0-3.8,0-5.8-.2h-.5c0,0-.3-.5-.3-.5-1.1-1.6-2.1-3.2-3.1-4.9-1-1.7-1.8-3.4-2.7-5.1l-.2-.5.2-.5c.8-1.7,1.7-3.4,2.7-5.1,1-1.7,2-3.3,3.1-4.9l.3-.4h.5c3.8-.4,7.7-.4,11.5,0h.5c0,0,.3.5.3.5,2.2,3.2,4.1,6.5,5.8,10l.2.5-.2.5c-1.6,3.5-3.6,6.8-5.8,10l-.3.4h-.5c-2,.2-3.9.3-5.8.3ZM42.5,63.2c3.4.2,6.7.2,10.1,0,1.9-2.8,3.6-5.7,5-8.7-1.5-3-3.1-5.9-5-8.7-3.4-.2-6.7-.2-10.1,0-1.9,2.8-3.6,5.7-5,8.7,1.5,3,3.1,5.9,5,8.7Z"/>
</svg>