<?xml version="1.0" encoding="UTF-8"?>
<svg id="Camada_1" data-name="Camada 1" xmlns="http://www.w3.org/2000/svg" version="1.1" viewBox="0 0 95 109">
  <defs>
    <style>
      .cls-1 {
        fill: #f6f4ef;
        stroke-width: 0px;
      }

      .cls-2 {
        fill: #a5270e;
        stroke: #0b0b11;
        stroke-linejoin: round;
        stroke-width: 3px;
      }
    </style>
  </defs>
  <path class="cls-2" d="M92.6,80.8V28.2L47.3,2,2,28.2v52.5l45.3,26.2,45.3-26.2Z"/>
  <path class="cls-1" d="M62.2,56.9h0s5.8,0,5.8,0v7.2h-8.4c-.7,0-1.7-.3-2.2-.6l-2-1.2c-.6-.3-1.5-.3-2.1,0l-2.6,1.5c-.6.3-.6.9,0,1.2l5.5,3.2c.6.3,1.6.6,2.2.6h9.6v4.8c0,.7-.5,1.2-1.2,1.2H28.2c-.7,0-1.2-.5-1.2-1.2v-4.8h9.6c.8,0,1.6-.2,2.2-.6l18.4-10.8c.6-.3,1.6-.6,2.2-.6h2.7ZM62.2,45.1h5.8v7.3h-9.6c-.8,0-1.6.2-2.2.6l-18.4,10.9c-.7.4-1.5.6-2.2.6h-8.4v-7.3h9.6c.8,0,1.6-.2,2.2-.6l18.4-10.9c.7-.4,1.5-.6,2.2-.6h2.7ZM66.8,34c.7,0,1.2.5,1.2,1.2v4.8h-9.6c-.8,0-1.6.2-2.2.6l-18.4,10.8c-.6.3-1.6.6-2.2.6h-8.4v-7.2h8.4c.7,0,1.7.3,2.2.6l2,1.2c.6.3,1.5.3,2.1,0l2.6-1.5c.6-.3.6-.9,0-1.2l-5.5-3.2c-.7-.4-1.5-.6-2.2-.6h-9.6v-4.8c0-.7.5-1.2,1.2-1.2h38.6Z"/>
</svg>