<svg width="356" height="409" viewBox="0 0 356 409" fill="none" xmlns="http://www.w3.org/2000/svg">
<path d="M332.005 299.486C335.107 297.702 337.019 294.396 337.019 290.818V119.77C337.019 116.192 335.107 112.886 332.005 111.102L183.243 25.5447C180.156 23.7694 176.358 23.7695 173.272 25.5448L24.521 111.102C21.419 112.886 19.5069 116.192 19.5069 119.77V290.818C19.5069 294.397 21.419 297.702 24.521 299.486L173.272 385.043C176.358 386.819 180.156 386.819 183.243 385.043L332.005 299.486Z" fill="#610000" stroke="#F6F4EF" stroke-opacity="0.36" stroke-width="13" stroke-linejoin="round"/>
<g filter="url(#filter0_f_503_4597)">
<path d="M283 270.75V158.25L185.5 102L88 158.25V270.75L185.5 327L283 270.75Z" fill="#05050A" fill-opacity="0.8"/>
<path d="M283 270.75V158.25L185.5 102L88 158.25V270.75L185.5 327L283 270.75Z" stroke="#05050A" stroke-width="1.5" stroke-linejoin="round"/>
</g>
<path d="M277 265.5V152.5L178.5 96L80 152.5V265.5L178.5 322L277 265.5Z" fill="#EAE4DF"/>
<path d="M114.772 234.367V253.562H112.228V234.367H114.772ZM122.814 243.002V245.085H114.219V243.002H122.814ZM124.12 234.367V236.45H114.219V234.367H124.12ZM135.22 250.266V239.298H137.672V253.562H135.339L135.22 250.266ZM135.682 247.261L136.697 247.234C136.697 248.183 136.596 249.062 136.394 249.871C136.2 250.671 135.884 251.365 135.444 251.954C135.005 252.543 134.429 253.004 133.717 253.338C133.005 253.663 132.14 253.826 131.12 253.826C130.426 253.826 129.789 253.725 129.208 253.523C128.637 253.321 128.145 253.009 127.732 252.587C127.319 252.165 126.998 251.616 126.77 250.939C126.55 250.262 126.44 249.449 126.44 248.5V239.298H128.879V248.526C128.879 249.168 128.949 249.7 129.09 250.121C129.239 250.535 129.437 250.864 129.683 251.11C129.938 251.348 130.219 251.515 130.527 251.611C130.843 251.708 131.168 251.756 131.502 251.756C132.54 251.756 133.361 251.558 133.968 251.163C134.574 250.759 135.009 250.218 135.273 249.541C135.545 248.856 135.682 248.096 135.682 247.261ZM144.04 233.312V253.562H141.588V233.312H144.04ZM150.605 233.312V253.562H148.153V233.312H150.605ZM168.667 246.035H163.539V243.965H168.667C169.66 243.965 170.464 243.807 171.08 243.49C171.695 243.174 172.143 242.734 172.424 242.172C172.714 241.609 172.859 240.968 172.859 240.247C172.859 239.588 172.714 238.968 172.424 238.388C172.143 237.808 171.695 237.342 171.08 236.991C170.464 236.63 169.66 236.45 168.667 236.45H164.132V253.562H161.587V234.367H168.667C170.117 234.367 171.343 234.618 172.345 235.119C173.347 235.62 174.107 236.314 174.626 237.202C175.145 238.08 175.404 239.087 175.404 240.221C175.404 241.451 175.145 242.501 174.626 243.371C174.107 244.242 173.347 244.905 172.345 245.362C171.343 245.81 170.117 246.035 168.667 246.035ZM180.69 241.539V253.562H178.251V239.298H180.625L180.69 241.539ZM185.146 239.219L185.133 241.486C184.931 241.442 184.738 241.416 184.553 241.407C184.377 241.39 184.175 241.381 183.947 241.381C183.384 241.381 182.888 241.469 182.457 241.644C182.026 241.82 181.662 242.066 181.363 242.383C181.064 242.699 180.827 243.077 180.651 243.516C180.484 243.947 180.374 244.422 180.321 244.94L179.636 245.336C179.636 244.474 179.719 243.666 179.886 242.91C180.062 242.154 180.33 241.486 180.69 240.906C181.051 240.317 181.508 239.86 182.062 239.535C182.624 239.201 183.292 239.034 184.065 239.034C184.241 239.034 184.443 239.056 184.672 239.1C184.9 239.135 185.059 239.175 185.146 239.219ZM186.491 246.588V246.285C186.491 245.257 186.641 244.303 186.939 243.424C187.238 242.536 187.669 241.767 188.231 241.117C188.794 240.458 189.475 239.948 190.275 239.588C191.075 239.219 191.971 239.034 192.964 239.034C193.966 239.034 194.867 239.219 195.667 239.588C196.476 239.948 197.161 240.458 197.724 241.117C198.295 241.767 198.73 242.536 199.029 243.424C199.328 244.303 199.477 245.257 199.477 246.285V246.588C199.477 247.617 199.328 248.57 199.029 249.449C198.73 250.328 198.295 251.097 197.724 251.756C197.161 252.407 196.48 252.916 195.68 253.286C194.889 253.646 193.993 253.826 192.991 253.826C191.989 253.826 191.088 253.646 190.288 253.286C189.488 252.916 188.803 252.407 188.231 251.756C187.669 251.097 187.238 250.328 186.939 249.449C186.641 248.57 186.491 247.617 186.491 246.588ZM188.93 246.285V246.588C188.93 247.3 189.014 247.973 189.181 248.605C189.348 249.229 189.598 249.783 189.932 250.266C190.275 250.75 190.701 251.132 191.211 251.413C191.721 251.686 192.314 251.822 192.991 251.822C193.659 251.822 194.243 251.686 194.744 251.413C195.254 251.132 195.676 250.75 196.01 250.266C196.344 249.783 196.594 249.229 196.761 248.605C196.937 247.973 197.025 247.3 197.025 246.588V246.285C197.025 245.582 196.937 244.918 196.761 244.294C196.594 243.661 196.339 243.103 195.997 242.62C195.663 242.128 195.241 241.741 194.731 241.46C194.23 241.179 193.641 241.038 192.964 241.038C192.296 241.038 191.708 241.179 191.198 241.46C190.697 241.741 190.275 242.128 189.932 242.62C189.598 243.103 189.348 243.661 189.181 244.294C189.014 244.918 188.93 245.582 188.93 246.285ZM202.602 239.298H205.054V255.263C205.054 256.133 204.913 256.871 204.632 257.478C204.359 258.084 203.946 258.541 203.393 258.849C202.848 259.165 202.158 259.324 201.323 259.324C201.103 259.324 200.848 259.302 200.558 259.258C200.259 259.214 200.009 259.161 199.807 259.099L199.82 257.135C199.987 257.17 200.176 257.197 200.387 257.214C200.598 257.241 200.782 257.254 200.94 257.254C201.301 257.254 201.604 257.188 201.85 257.056C202.096 256.924 202.281 256.713 202.404 256.423C202.536 256.133 202.602 255.746 202.602 255.263V239.298ZM202.351 235.514C202.351 235.119 202.474 234.785 202.72 234.512C202.966 234.24 203.322 234.103 203.788 234.103C204.263 234.103 204.623 234.24 204.869 234.512C205.115 234.785 205.238 235.119 205.238 235.514C205.238 235.892 205.115 236.217 204.869 236.49C204.623 236.753 204.263 236.885 203.788 236.885C203.322 236.885 202.966 236.753 202.72 236.49C202.474 236.217 202.351 235.892 202.351 235.514ZM214.915 253.826C213.922 253.826 213.021 253.659 212.212 253.325C211.413 252.982 210.723 252.503 210.143 251.888C209.571 251.273 209.132 250.543 208.824 249.7C208.517 248.856 208.363 247.933 208.363 246.931V246.377C208.363 245.217 208.534 244.184 208.877 243.279C209.22 242.365 209.686 241.592 210.274 240.959C210.863 240.326 211.531 239.847 212.278 239.522C213.025 239.197 213.799 239.034 214.599 239.034C215.618 239.034 216.497 239.21 217.235 239.561C217.982 239.913 218.593 240.405 219.068 241.038C219.542 241.662 219.894 242.4 220.123 243.253C220.351 244.097 220.465 245.019 220.465 246.021V247.116H209.813V245.125H218.026V244.94C217.991 244.307 217.859 243.692 217.631 243.095C217.411 242.497 217.06 242.005 216.576 241.618C216.093 241.231 215.434 241.038 214.599 241.038C214.045 241.038 213.535 241.157 213.069 241.394C212.604 241.622 212.204 241.965 211.87 242.422C211.536 242.879 211.276 243.437 211.092 244.097C210.907 244.756 210.815 245.516 210.815 246.377V246.931C210.815 247.608 210.907 248.245 211.092 248.843C211.285 249.432 211.562 249.95 211.922 250.398C212.292 250.847 212.735 251.198 213.254 251.453C213.781 251.708 214.379 251.835 215.047 251.835C215.908 251.835 216.638 251.66 217.235 251.308C217.833 250.956 218.356 250.486 218.804 249.897L220.281 251.071C219.973 251.536 219.582 251.98 219.107 252.402C218.633 252.824 218.048 253.167 217.354 253.431C216.668 253.694 215.855 253.826 214.915 253.826ZM229.021 251.822C229.602 251.822 230.138 251.703 230.63 251.466C231.122 251.229 231.526 250.904 231.843 250.491C232.159 250.069 232.339 249.59 232.383 249.054H234.704C234.66 249.897 234.374 250.684 233.847 251.413C233.328 252.134 232.647 252.719 231.803 253.167C230.959 253.606 230.032 253.826 229.021 253.826C227.949 253.826 227.013 253.637 226.213 253.259C225.422 252.881 224.763 252.363 224.236 251.703C223.717 251.044 223.326 250.288 223.062 249.436C222.808 248.575 222.68 247.665 222.68 246.707V246.153C222.68 245.195 222.808 244.29 223.062 243.437C223.326 242.576 223.717 241.816 224.236 241.157C224.763 240.497 225.422 239.979 226.213 239.601C227.013 239.223 227.949 239.034 229.021 239.034C230.138 239.034 231.113 239.263 231.948 239.72C232.783 240.168 233.438 240.783 233.913 241.565C234.396 242.339 234.66 243.218 234.704 244.202H232.383C232.339 243.613 232.172 243.081 231.882 242.607C231.601 242.132 231.214 241.754 230.722 241.473C230.239 241.183 229.672 241.038 229.021 241.038C228.274 241.038 227.646 241.187 227.136 241.486C226.635 241.776 226.235 242.172 225.937 242.673C225.646 243.165 225.436 243.714 225.304 244.321C225.181 244.918 225.119 245.529 225.119 246.153V246.707C225.119 247.331 225.181 247.946 225.304 248.553C225.427 249.159 225.633 249.708 225.923 250.201C226.222 250.693 226.622 251.088 227.123 251.387C227.633 251.677 228.266 251.822 229.021 251.822ZM243.418 239.298V241.17H235.706V239.298H243.418ZM238.316 235.83H240.755V250.029C240.755 250.513 240.83 250.877 240.979 251.123C241.128 251.37 241.322 251.532 241.559 251.611C241.796 251.69 242.051 251.73 242.324 251.73C242.526 251.73 242.737 251.712 242.957 251.677C243.185 251.633 243.356 251.598 243.471 251.572L243.484 253.562C243.291 253.624 243.036 253.681 242.719 253.734C242.412 253.795 242.038 253.826 241.599 253.826C241.001 253.826 240.452 253.707 239.951 253.47C239.45 253.233 239.05 252.837 238.751 252.284C238.461 251.721 238.316 250.965 238.316 250.016V235.83Z" fill="#262626"/>
<path d="M139.052 217.339V220.397H128.687V217.339H139.052ZM129.862 199.78V220.397H125.968V199.78H129.862ZM155.322 217.339V220.397H144.362V217.339H155.322ZM145.552 199.78V220.397H141.658V199.78H145.552ZM153.892 208.29V211.278H144.362V208.29H153.892ZM155.28 199.78V202.853H144.362V199.78H155.28ZM174.113 209.735V217.764C173.811 218.151 173.334 218.571 172.683 219.024C172.041 219.477 171.201 219.869 170.162 220.199C169.124 220.52 167.849 220.681 166.339 220.681C165.027 220.681 163.828 220.463 162.742 220.029C161.657 219.585 160.722 218.939 159.938 218.089C159.155 217.24 158.551 216.201 158.126 214.974C157.701 213.747 157.489 212.345 157.489 210.768V209.409C157.489 207.833 157.687 206.431 158.083 205.203C158.489 203.976 159.065 202.938 159.811 202.088C160.566 201.239 161.468 200.592 162.516 200.148C163.573 199.705 164.753 199.483 166.056 199.483C167.802 199.483 169.237 199.771 170.36 200.347C171.493 200.922 172.362 201.715 172.966 202.725C173.57 203.726 173.948 204.878 174.099 206.181H170.304C170.2 205.463 169.992 204.835 169.681 204.297C169.369 203.75 168.925 203.325 168.35 203.023C167.783 202.711 167.047 202.556 166.141 202.556C165.376 202.556 164.701 202.707 164.116 203.009C163.53 203.311 163.04 203.75 162.643 204.326C162.247 204.901 161.944 205.614 161.737 206.464C161.539 207.313 161.439 208.286 161.439 209.381V210.768C161.439 211.873 161.553 212.855 161.779 213.714C162.006 214.563 162.332 215.281 162.756 215.866C163.191 216.442 163.724 216.881 164.356 217.183C164.998 217.476 165.725 217.622 166.537 217.622C167.273 217.622 167.882 217.561 168.364 217.438C168.855 217.306 169.246 217.15 169.539 216.971C169.832 216.791 170.058 216.617 170.219 216.447V212.581H166.126V209.735H174.113ZM185.993 202.91L180.117 220.397H175.996L183.699 199.78H186.333L185.993 202.91ZM190.907 220.397L185.002 202.91L184.648 199.78H187.296L195.042 220.397H190.907ZM190.638 212.737V215.809H179.579V212.737H190.638ZM208.975 213.615H212.869C212.765 214.993 212.383 216.215 211.722 217.282C211.061 218.339 210.141 219.17 208.961 219.774C207.781 220.378 206.351 220.681 204.67 220.681C203.377 220.681 202.211 220.454 201.173 220.001C200.144 219.538 199.261 218.882 198.525 218.033C197.798 217.174 197.241 216.145 196.854 214.946C196.467 213.737 196.273 212.383 196.273 210.882V209.31C196.273 207.809 196.472 206.454 196.868 205.246C197.265 204.038 197.831 203.009 198.567 202.159C199.313 201.3 200.205 200.639 201.244 200.177C202.292 199.714 203.462 199.483 204.755 199.483C206.436 199.483 207.856 199.794 209.018 200.417C210.179 201.031 211.08 201.876 211.722 202.952C212.364 204.028 212.751 205.265 212.883 206.662H208.989C208.914 205.793 208.725 205.057 208.423 204.453C208.13 203.849 207.687 203.391 207.092 203.079C206.507 202.759 205.728 202.598 204.755 202.598C204 202.598 203.335 202.74 202.759 203.023C202.192 203.306 201.72 203.731 201.343 204.297C200.965 204.854 200.682 205.553 200.493 206.393C200.304 207.224 200.21 208.187 200.21 209.282V210.882C200.21 211.93 200.295 212.869 200.465 213.7C200.635 214.53 200.899 215.234 201.258 215.809C201.617 216.385 202.079 216.824 202.646 217.126C203.212 217.428 203.887 217.579 204.67 217.579C205.624 217.579 206.398 217.428 206.993 217.126C207.597 216.824 208.055 216.381 208.366 215.795C208.687 215.21 208.89 214.483 208.975 213.615ZM218.292 199.78L222.824 209.395L227.383 199.78H231.66L224.806 212.85V220.397H220.855V212.85L213.988 199.78H218.292Z" fill="#363636"/>
<path d="M185.487 138.829C179.031 154.902 171.286 174.682 171.286 174.682M163.762 145.353L152.414 155.792C151.862 156.299 151.862 157.248 152.414 157.756L163.762 168.195M194.238 145.353L205.586 155.792C206.138 156.299 206.138 157.248 205.586 157.756L194.238 168.195" stroke="#404040" stroke-width="6" stroke-linecap="round"/>
<path d="M72.2884 288.724L175.712 350.276" stroke="url(#paint0_linear_503_4597)" stroke-width="2"/>
<path d="M300.944 251.952L301.433 131.6L264 110" stroke="url(#paint1_linear_503_4597)" stroke-width="2"/>
<defs>
<filter id="filter0_f_503_4597" x="69.25" y="83.25" width="232.5" height="262.5" filterUnits="userSpaceOnUse" color-interpolation-filters="sRGB">
<feFlood flood-opacity="0" result="BackgroundImageFix"/>
<feBlend mode="normal" in="SourceGraphic" in2="BackgroundImageFix" result="shape"/>
<feGaussianBlur stdDeviation="9" result="effect1_foregroundBlur_503_4597"/>
</filter>
<linearGradient id="paint0_linear_503_4597" x1="201.188" y1="351.384" x2="50" y2="300.5" gradientUnits="userSpaceOnUse">
<stop stop-color="#FBB090"/>
<stop offset="1" stop-color="#4E1800"/>
</linearGradient>
<linearGradient id="paint1_linear_503_4597" x1="312.93" y1="274.46" x2="257.5" y2="111.5" gradientUnits="userSpaceOnUse">
<stop stop-color="#FBB090"/>
<stop offset="1" stop-color="#4E1800"/>
</linearGradient>
</defs>
</svg>
