<svg width="164" height="52" viewBox="0 0 164 52" fill="none" xmlns="http://www.w3.org/2000/svg">
<path d="M22.3326 0V14.1263L12.2244 20.0223L12.2265 31.8195L0 39.0705V13.9405C0 13.5606 0.198262 13.2092 0.521741 13.0161L22.3326 0Z" fill="#FF5400"/>
<path d="M12.2265 31.8195L22.3326 37.7187L10.3221 45.0034L0 39.0705L12.2265 31.8195Z" fill="#A5270E"/>
<path d="M22.3326 51.9999V37.7174L32.4377 31.8172V20.0169L44.4617 12.9769V38.0805C44.4617 38.4773 44.2551 38.8445 43.917 39.0471L22.3326 51.9999Z" fill="#FF5400"/>
<path d="M32.4377 20.0169L22.3326 14.1189L34.3013 7.04729L44.4617 12.9781L32.4377 20.0169Z" fill="#A5270E"/>
<path d="M54.7193 18.3125H65.772V20.5235H57.4886V24.9203H65.1626V27.1061H57.4886V34.033H54.7193V18.3125Z" fill="#F2F2F2"/>
<path d="M66.6946 26.8898V18.3125H69.508V26.768C69.508 29.9755 70.2691 31.6769 73.5895 31.6769C76.9098 31.6769 77.6955 29.9755 77.6955 26.768V18.3125H80.5089V26.8898C80.5089 31.9675 78.5317 34.033 73.588 34.033C68.6442 34.033 66.693 31.9675 66.693 26.8898H66.6946Z" fill="#F2F2F2"/>
<path d="M83.2721 18.3125H86.6251L94.4719 30.4965V18.3125H97.088V34.033H93.8542L85.8882 21.751V34.033H83.2721V18.3125Z" fill="#F2F2F2"/>
<path d="M99.8512 26.1727C99.8512 21.966 101.199 18.3125 106.83 18.3125C111.798 18.3125 113.667 21.1485 113.667 24.346H110.995C110.853 22.1824 109.764 20.5008 106.831 20.5008C103.26 20.5008 102.502 23.0246 102.502 26.1727C102.502 29.3209 103.26 31.8214 106.831 31.8214C109.788 31.8214 110.853 30.2357 110.995 27.9516H113.667C113.667 31.3408 111.822 34.033 106.83 34.033C101.176 34.033 99.8512 30.3795 99.8512 26.1727Z" fill="#F2F2F2"/>
<path d="M117.949 20.5235H113.667V18.3125H124.72V20.5235H120.438V34.033H117.948V20.5235H117.949Z" fill="#F2F2F2"/>
<path d="M126.562 18.3125H129.325V34.033H126.562V18.3125Z" fill="#F2F2F2"/>
<path d="M132.088 26.1488C132.088 21.9417 133.538 18.3125 139.457 18.3125C145.376 18.3125 146.825 21.9416 146.825 26.1967C146.825 30.4518 145.424 34.033 139.457 34.033C133.49 34.033 132.088 30.3559 132.088 26.1488ZM139.457 31.8459C143.347 31.8459 144.144 29.3219 144.144 26.1967C144.144 23.0715 143.347 20.4996 139.457 20.4996C135.567 20.4996 134.793 22.9989 134.793 26.1488C134.793 29.2987 135.615 31.8459 139.457 31.8459Z" fill="#F2F2F2"/>
<path d="M149.588 18.3125H152.941L160.788 30.4965V18.3125H163.404V34.033H160.17L152.204 21.751V34.033H149.588V18.3125Z" fill="#F2F2F2"/>
</svg>
