<?xml version="1.0" encoding="UTF-8"?>
<svg id="Camada_1" xmlns="http://www.w3.org/2000/svg" xmlns:xlink="http://www.w3.org/1999/xlink" version="1.1" viewBox="0 0 700 700">
  <!-- Generator: Adobe Illustrator 29.1.0, SVG Export Plug-In . SVG Version: 2.1.0 Build 142)  -->
  <defs>
    <style>
      .st0 {
        fill: url(#Gradiente_sem_nome_4);
      }

      .st1 {
        fill: #fff;
      }
    </style>
    <linearGradient id="Gradiente_sem_nome_4" data-name="Gradiente sem nome 4" x1="732.6" y1="573.2" x2="-22" y2="133" gradientUnits="userSpaceOnUse">
      <stop offset="0" stop-color="#3fa9f5"/>
      <stop offset="0" stop-color="#3da1e9"/>
      <stop offset="0" stop-color="#3585be"/>
      <stop offset=".1" stop-color="#2e6b96"/>
      <stop offset=".2" stop-color="#285474"/>
      <stop offset=".3" stop-color="#234257"/>
      <stop offset=".3" stop-color="#1f3240"/>
      <stop offset=".4" stop-color="#1c272e"/>
      <stop offset=".5" stop-color="#1a1f22"/>
      <stop offset=".7" stop-color="#191a1b"/>
      <stop offset="1" stop-color="#191919"/>
    </linearGradient>
  </defs>
  <circle class="st0" cx="350" cy="350" r="323.6"/>
  <path class="st1" d="M403.9,171c8.9-11.5,19.7-19.9,32.6-25.2,12.8-5.3,26.4-8.8,40.8-10.4,14.4-1.7,29.1-2.3,44.1-1.8,15,.5,29,.8,41.9,1.1-7.7,5-15.2,11.5-22.7,19.2-7.4,7.8-14.8,16.5-22.1,26.1-7.3,9.6-14.6,20-21.8,31.1-7.2,11.2-14.4,22.6-21.6,34.4-7.9,13-16,26-24.1,39.2-8.2,13.2-16.1,26.1-23.7,38.7-7.7,12.6-15.2,24.6-22.5,36-7.3,11.4-14.2,21.8-20.7,31.1,2.2,4.6,3.9,9.1,5.2,13.7,1.3,4.6,2.2,9.7,2.7,15.5.7,9.8,0,19.2-2.2,28.2-2.2,9-5,17-8.5,24.1-3.5,7.1-7.3,13.1-11.3,18.2-4.1,5-7.6,8.5-10.4,10.4,11-15.1,18.7-29.1,23-41.9,4.3-12.8,6-25.6,5-38.3-.5-5-1.3-9.5-2.3-13.3s-2.6-7.8-4.5-11.9c-15.1,21.8-31.5,42.1-49.1,61-17.6,18.8-37,34.6-58.1,47.3-21.1,12.7-44.1,21.5-68.9,26.4-24.8,4.9-52.1,4.4-81.8-1.6-9.6-1.9-19.2-5.3-29-10.1-9.7-4.8-18.3-10.9-25.9-18.2-7.6-7.3-13.5-15.9-17.8-25.7-4.3-9.8-5.9-20.7-4.7-32.7,1-12.2,4.6-24.5,11-36.7,6.4-12.2,15-23.7,26.1-34.4,11-10.7,24.2-20.1,39.6-28.2,15.3-8.2,32.6-14.3,51.8-18.3,16.1-3.6,32.7-5.4,50-5.4s34.3,1.8,51.1,5.4c16.8,3.6,32.9,9.1,48.4,16.4,15.5,7.3,29.3,16.6,41.6,27.9,14.4-20.4,29.6-42.4,45.5-66,15.9-23.6,32.3-47.1,49.1-70.3,13.2-18.2,26.4-35.5,39.8-51.8,13.3-16.3,28-30.2,44.1-41.7-11.8-.2-23.7-.4-36-.4s-24.1,1.1-35.6,3.4c-11.5,2.3-22.3,6.1-32.4,11.5-10.1,5.4-18.8,13.5-26.3,24.3-4.6,6.7-7.7,13.7-9.4,21-1.7,7.3-2,14.3-.9,21,1.1,6.7,3.6,12.8,7.6,18.3,4,5.5,9.2,9.8,15.7,13-9.1-2.6-16.5-6.8-22.1-12.6-5.6-5.8-9.4-12.4-11.3-19.8-1.9-7.4-2-15.3-.2-23.6s5.6-16.1,11.3-23.6ZM125.8,520.4c16.8,2.4,33,2.3,48.6-.4,15.6-2.6,30.5-7.2,44.8-13.7,14.3-6.5,27.9-14.5,41-24.1,13.1-9.6,25.5-20.2,37.2-31.8,11.7-11.6,23-24,33.6-37.1,10.7-13.1,20.8-26.3,30.4-39.8-11-10.8-24.1-19.5-39.2-26.3-15.1-6.7-30.9-11.6-47.5-14.6-16.5-3-33.3-4.3-50.4-3.8-17,.5-32.9,2.4-47.5,5.8-17.5,4.1-33.8,9.9-48.9,17.4-15.1,7.6-28.3,16.1-39.6,25.7-11.3,9.6-20.3,20-27,31.1-6.7,11.2-10.6,22.4-11.5,33.6-.7,11,1,21,5,30,4.1,9,9.7,16.8,16.9,23.4,7.2,6.6,15.5,11.9,25,16,9.5,4.1,19.1,6.8,29,8.3Z"/>
</svg>