<?xml version="1.0" encoding="UTF-8"?>
<svg id="Camada_2" data-name="Camada 2" xmlns="http://www.w3.org/2000/svg" viewBox="0 0 659.08 682.43">
  <defs>
    <style>
      .cls-1 {
        fill: #2f3030;
      }

      .cls-2 {
        fill: #f6f4ef;
      }
    </style>
  </defs>
  <g id="Camada_2-2" data-name="Camada 2">
    <polygon class="cls-2" points="340.82 175.23 251.81 175.22 251.81 131.19 0 0 0 175.2 0 181.67 0 682.43 659.08 338.85 340.82 175.23"/>
    <g>
      <path class="cls-1" d="M209.79,195.04c0,18.4-14.21,33.45-31.58,33.45s-31.9-15.05-31.9-33.45,14.53-33.45,31.9-33.45,31.58,15.05,31.58,33.45ZM204.42,440.24h-52.75v-195.02h52.75v195.02Z"/>
      <path class="cls-1" d="M351.92,236.85c55.27,0,100.12,47.17,100.12,105.71s-44.85,106.04-100.12,106.04c-25.58,0-49.27-10.37-66.64-27.1l-30.13,31.91c-1.81,1.92-4.87,1.91-6.68-.01l-29.46-31.47c-2.16-2.31-2.16-5.91.02-8.21l32.77-34.71v-247.83l52.75,26.08v92.62c13.9-8.36,29.69-13.05,47.38-13.05ZM304.54,342.89c0,27.76,21.16,49.84,47.38,49.84s47.38-22.08,47.38-49.84-21.16-50.18-47.38-50.18-47.38,22.41-47.38,50.18Z"/>
    </g>
  </g>
</svg>