<svg width="471" height="481" viewBox="0 0 471 481" fill="none" xmlns="http://www.w3.org/2000/svg">
<path d="M318.504 154.561L284.884 169.178L363.067 76.138L396.67 61.5239L318.504 154.561Z" fill="#882D00"/>
<path d="M352.813 260.072L319.213 274.704L284.884 169.178L318.504 154.561L352.813 260.072Z" fill="#812B00"/>
<path d="M296.086 33.9306L396.67 61.5239L318.504 154.561L218.455 127.126L296.086 33.9306Z" fill="#9E250D"/>
<path d="M318.504 154.561L284.884 169.178L184.835 141.743L218.455 127.126L318.504 154.561Z" fill="#531407"/>
<path d="M218.455 127.126L184.835 141.743L262.465 48.5478L296.086 33.9306L218.455 127.126Z" fill="#581507"/>
<path d="M287.069 338.13L253.452 352.765L319.213 274.704L352.813 260.072L287.069 338.13Z" fill="#882D00"/>
<path d="M328.597 465.824L294.98 480.458L253.452 352.765L287.069 338.13L328.597 465.824Z" fill="#812B00"/>
<path d="M396.67 61.5239L469.661 285.971C470.809 289.527 470.19 293.328 468.004 295.976L328.58 465.827L287.052 338.133L352.795 260.075L318.483 154.547L396.649 61.5095L396.67 61.5239Z" fill="#F45100"/>
<path d="M36.3045 171.88L2.6873 186.515L143.791 15.5253L177.408 0.890424L36.3045 171.88Z" fill="#872D00"/>
<path d="M34.7328 181.451L1.11248 196.068C0.0109978 192.668 0.605986 189.034 2.70484 186.512L36.322 171.877C34.2439 174.414 33.6313 178.051 34.7296 181.433L34.7328 181.451Z" fill="black"/>
<path d="M34.7328 181.451L1.11248 196.068C0.0109978 192.668 0.605986 189.034 2.70484 186.512L36.322 171.877C34.2439 174.414 33.6313 178.051 34.7296 181.433" fill="#852C00"/>
<path d="M187.021 310.695L287.069 338.13L209.73 433.345L107.786 406.142L187.021 310.695Z" fill="#9E250D"/>
<path d="M209.73 433.345L176.11 447.962L74.1863 420.773L107.786 406.142L209.73 433.345Z" fill="#531407"/>
<path d="M107.786 406.142L74.1863 420.773L153.403 325.329L187.021 310.695L107.786 406.142Z" fill="#581507"/>
<path d="M107.786 406.142L74.1863 420.773L1.11248 196.068L34.7328 181.451L107.786 406.142Z" fill="#812B00"/>
<path d="M177.408 0.890424L218.486 127.193L152.698 205.204L187.038 310.691L107.821 406.135L34.7328 181.451C33.6313 178.051 34.2263 174.417 36.3252 171.894L177.408 0.890424Z" fill="#F45100"/>
</svg>
