<?xml version="1.0" encoding="UTF-8"?>
<svg id="Camada_2" data-name="Camada 2" xmlns="http://www.w3.org/2000/svg" viewBox="0 0 226.57 297.33">
  <defs>
    <style>
      .cls-1 {
        fill: #fff;
      }
    </style>
  </defs>
  <g id="Camada_1-2" data-name="Camada 1">
    <g>
      <path class="cls-1" d="M111.66,108.48v42.91s2.23,0,2.23,0h44.67c10.72,0,12.56-4.58,14.2-6.64,5.86-7.34,3.17-31.92,2.24-41.03-.65-6.31-3.35-10.48-11.97-10.35h-42.43l43.95-77.34c2.98-3.14,2.63-.97,1.58,1.58-4.87,11.78-10.81,23.51-14.26,35.59h14.07s6.41.05,11.51,1.08c6.38,1.28,11.85,3.64,13.11,4.15,22.46,9.03,31.31,28.98,32.84,51.99,1.6,24.09-.8,52.44-28.34,58.84l13.92,6.14c20.85,11.36,17.39,45.16,17.39,66.05,0,84.03-122.09,49.62-155.19,45.15-6.82-.92-6.42-15.78-6.42-15.78l-.43-81.18c15.75-23.93,27.91-53.15,44.01-76.47.66-.96,3.32-4.69,3.32-4.69ZM111.66,254.03h55.83c9.06,0,12.32-9.67,12.32-12.99,0-6.25,1.15-33.3-.36-39.13-1.29-4.99-3.39-11.86-13.44-11.86h-54.35v63.97Z"/>
      <path class="cls-1" d="M56.25,186.03L0,282.29l16.35-39.43c-6.62-1.53-6.94-4.18-7.5-10.33l.4-225.86c.07-.2-.09-1.98.22-3.19.28-1.11,1.03-1.67,1.16-1.73,5.28-2.26,42.04-2.5,44.86.31,1.68,2.32,1.13,4.1,1.13,8.67l-.37,175.3Z"/>
    </g>
  </g>
</svg>