<svg width="150" height="174" viewBox="0 0 150 174" fill="none" xmlns="http://www.w3.org/2000/svg">
<path d="M74.6359 1.73576L147.772 44.3212V129.514L74.6359 172.1L1.5 129.514V44.3212L74.6359 1.73576Z" fill="#282828" stroke="#FF9800" stroke-width="3" stroke-linejoin="round"/>
<path d="M83.1951 47.2166C78.9556 42.1641 75.2713 37.1116 74.5647 36H74.4133C73.7067 37.061 70.0224 42.1641 65.7829 47.2166C29.4442 93.6493 71.5365 124.975 71.5365 124.975L71.8898 125.228C72.1926 130.028 73.0001 137 73.0001 137H76.1293C76.1293 137 76.8863 130.078 77.1891 125.228L77.5424 124.924C77.5424 124.924 119.534 93.6493 83.1951 47.2166ZM74.4133 124.268C73.5048 123.56 72.6973 122.752 71.9907 121.842L74.4133 71.3172L76.6844 121.842C76.0283 122.701 75.2208 123.51 74.4133 124.268Z" fill="#D2D2D2"/>
</svg>
