<svg width="150" height="174" viewBox="0 0 150 174" fill="none" xmlns="http://www.w3.org/2000/svg">
<path d="M74.6359 1.73576L147.772 44.3212V129.514L74.6359 172.1L1.5 129.514V44.3212L74.6359 1.73576Z" fill="#282828" stroke="#FF9800" stroke-width="3" stroke-linejoin="round"/>
<path d="M84.617 83.6815L67.7385 89.2401L53.055 95.7756L48.9476 96.8699C47.9007 97.8738 46.8042 98.8911 45.6178 99.92C44.3168 101.053 43.1037 102.082 42.1733 102.827C41.1398 103.65 39.6095 105.195 38.8301 106.172C37.6686 107.638 36.7496 109.195 36.3542 110.392C35.6531 112.553 35.9969 114.74 37.3495 116.761C39.0842 119.336 42.542 121.96 46.573 123.748C48.6267 124.661 52.0845 125.832 54.6865 126.488C59.0117 127.593 67.3793 128.79 71.9853 128.971C72.9157 129.01 74.167 129.01 74.2186 128.971C74.3199 128.906 75.0343 127.53 75.8654 125.819C78.6966 119.991 80.7388 114.523 81.8488 109.852C82.5117 107.022 83.0352 103.251 83.379 98.787C83.4688 97.5385 83.507 93.3575 83.4306 91.9414C83.316 89.6255 83.1116 87.7469 82.7925 85.9069C82.741 85.6371 82.7276 85.3925 82.7543 85.379C82.8059 85.3404 82.9587 85.2884 85.0373 84.6834L84.617 83.6796V83.6815ZM80.7637 85.9589C80.9165 85.9589 81.3253 89.9087 81.4266 92.4057C81.4514 92.9337 81.44 93.2805 81.4132 93.2805C81.312 93.2805 79.2564 92.0589 77.7911 91.1322C76.5149 90.321 74.0906 88.7006 73.7085 88.3924C73.5805 88.3018 73.5939 88.2902 74.6389 87.93C76.4118 87.325 80.6223 85.9608 80.7618 85.9608L80.7637 85.9589ZM72.1649 88.8143C72.2795 88.8143 72.5737 88.9819 73.2749 89.4193C75.9036 91.0782 79.4741 93.0859 81.0063 93.7564C81.4782 93.9625 81.5298 93.8855 80.4446 94.6311C78.1235 96.2264 75.2273 97.7967 71.6797 99.3785C71.055 99.6618 70.5315 99.8795 70.5181 99.8795C70.4933 99.8795 70.5697 99.5577 70.671 99.1724C71.5249 95.9682 72.0102 92.7256 72.0369 90.1264C72.0458 89.2684 72.0885 88.8265 72.1649 88.8008C72.1401 88.8143 72.1515 88.8143 72.1649 88.8143ZM70.392 89.4964C70.4685 89.5734 70.4169 92.4558 70.3156 93.24C70.0864 95.1186 69.7291 96.868 69.1426 98.8371C69.0032 99.313 68.8752 99.7119 68.8484 99.7369C68.7968 99.8005 67.0488 98.078 66.4757 97.4075C65.4804 96.2495 64.7028 95.0916 64.1278 93.9587C63.8336 93.3787 63.3751 92.2477 63.4133 92.2092C63.6177 92.0686 70.3405 89.4424 70.392 89.4944V89.4964ZM62.0493 92.8046C62.0626 92.8046 62.0741 92.8046 62.0875 92.8181C62.1123 92.8431 62.2021 93.0493 62.2785 93.2805C62.6873 94.3999 63.6043 96.0472 64.3952 97.1012C65.2626 98.2591 66.3974 99.4941 67.343 100.305C67.6487 100.563 67.9295 100.806 67.9677 100.845C68.0441 100.922 68.069 100.908 65.9904 101.706C63.5795 102.633 60.9508 103.56 57.94 104.536C57.2216 104.77 56.5014 105.007 55.785 105.243C55.6704 105.282 55.7086 105.218 56.0391 104.691C57.5311 102.336 59.8026 97.7177 61.0788 94.4481C61.2966 93.8816 61.5124 93.3151 61.5506 93.188C61.6022 93.0069 61.6653 92.9433 61.8315 92.8527C61.9213 92.8277 62.0111 92.8007 62.0493 92.8007V92.8046ZM59.4969 93.872C59.5352 93.897 58.8837 95.2746 58.2456 96.5347C57.0077 98.9662 55.6551 101.359 53.844 104.267C53.5384 104.768 53.2442 105.232 53.2059 105.284C53.1429 105.375 53.1162 105.348 52.9117 104.949C52.4781 104.087 52.1208 102.98 51.9298 101.964C51.7388 100.96 51.777 99.2109 51.9928 98.13C52.159 97.3324 52.1457 97.3458 52.5278 97.1512C54.1612 96.3151 59.4415 93.818 59.4931 93.87L59.4969 93.872ZM81.5049 94.7717V95.3112C81.5049 98.1801 81.1993 102.118 80.7522 104.987C80.6758 105.488 80.6108 105.901 80.5994 105.914C80.5994 105.914 80.2288 105.812 79.7951 105.683C77.8809 105.078 75.8023 104.19 73.9263 103.149C72.6884 102.467 70.8907 101.348 70.9403 101.296C70.9537 101.282 71.4886 100.999 72.1133 100.666C74.6141 99.3535 77.0116 97.9374 79.0921 96.5347C79.8696 96.0068 81.0445 95.159 81.2986 94.9259L81.503 94.7717H81.5049ZM49.8646 98.5809C49.9162 98.5809 49.9028 98.683 49.8264 99.1473C49.7748 99.4826 49.7118 100.099 49.687 100.523C49.5838 102.402 49.8914 103.791 50.8103 105.696C51.0663 106.224 51.2688 106.662 51.2573 106.673C51.1675 106.75 42.7235 109.247 40.068 109.979C39.2771 110.197 38.5875 110.392 38.5378 110.403C38.448 110.428 38.4365 110.417 38.4747 110.197C38.769 108.305 40.1979 105.835 42.1867 103.75C43.5144 102.361 44.5728 101.55 46.3839 100.508C47.6849 99.762 49.6889 98.6425 49.8417 98.5905C49.8417 98.577 49.8551 98.577 49.8665 98.577L49.8646 98.5809ZM69.7673 102.17C69.7807 102.157 70.0864 102.325 70.457 102.544C73.187 104.139 76.9887 105.619 80.2288 106.378L80.523 106.442L80.1141 106.673C78.4177 107.625 72.8431 109.968 67.1405 112.116C66.3114 112.424 65.4956 112.735 65.3409 112.798C65.1881 112.862 65.0467 112.9 65.0467 112.889C65.0467 112.877 65.2759 112.426 65.5702 111.871C67.1653 108.86 68.772 105.193 69.5897 102.646C69.6928 102.402 69.7559 102.184 69.7692 102.17H69.7673ZM67.7385 102.839C67.7518 102.852 67.6487 103.122 67.5207 103.43C66.4107 106.145 64.9569 109.105 63.0943 112.424C62.6224 113.274 62.2269 113.956 62.2136 113.956C62.2002 113.956 61.8181 113.725 61.3596 113.442C58.6545 111.769 56.2569 109.71 54.6884 107.715L54.4592 107.432L55.6207 107.11C59.7797 105.966 63.314 104.731 66.8215 103.213C67.3182 103.007 67.727 102.839 67.7404 102.839H67.7385ZM80.3434 107.278C80.3568 107.575 79.7053 110.224 79.1704 112.141C78.7234 113.75 78.3413 115.01 77.6402 117.235C77.3345 118.214 77.067 119.023 77.0537 119.023C77.0403 119.023 76.9639 119.01 76.8874 118.985C73.0991 118.289 69.7043 117.324 66.5158 116.039C65.6217 115.679 64.3475 115.099 64.2711 115.035C64.2462 115.01 65.0104 114.65 65.9809 114.224C71.7847 111.663 77.8064 108.756 79.8734 107.507C80.116 107.353 80.3071 107.276 80.3453 107.276L80.3434 107.278ZM51.244 108.282C51.2688 108.307 49.6488 110.661 47.3792 113.866C46.5883 114.985 45.6694 116.297 45.3255 116.786C44.9816 117.276 44.4582 118.047 44.164 118.511L43.6271 119.347L43.0521 118.858C42.3758 118.291 41.2028 117.081 40.6794 116.413C39.5828 115.037 38.8415 113.582 38.5493 112.257C38.4098 111.638 38.4098 111.33 38.5359 111.291C38.7269 111.239 42.1332 110.43 45.3236 109.683C47.0964 109.27 49.1501 108.783 49.8914 108.602C50.6307 108.421 51.2306 108.28 51.244 108.28V108.282ZM52.8754 108.912L53.2843 109.374C55.1221 111.446 56.9962 112.977 59.2677 114.315C59.6765 114.546 59.9822 114.752 59.9574 114.765C59.8676 114.829 52.0731 117.621 48.4624 118.883C46.4335 119.603 44.7619 120.181 44.7505 120.181C44.739 120.181 44.6225 120.104 44.4945 120.014L44.2652 119.846L44.6358 119.307C45.8356 117.557 47.341 115.64 50.6192 111.652L52.8774 108.912H52.8754ZM63.056 116.259C63.0694 116.245 63.6292 116.451 64.3188 116.709C65.9771 117.339 67.2914 117.738 69.0528 118.189C71.2212 118.742 74.36 119.284 76.2093 119.438C76.4901 119.463 76.6429 119.49 76.5913 119.528C76.5015 119.58 74.6274 120.21 73.2481 120.648C71.053 121.343 64.3551 123.337 58.8952 124.919C57.8865 125.216 57.0191 125.459 56.9695 125.472C56.8415 125.497 56.4212 125.382 56.4212 125.332C56.4212 125.306 56.7268 124.908 57.0975 124.47C58.9353 122.256 60.7597 119.786 62.2766 117.445C62.6969 116.802 63.0541 116.274 63.0541 116.262L63.056 116.259ZM60.8113 116.324C60.8247 116.338 59.9191 117.804 58.3373 120.326C57.661 121.393 56.9083 122.603 56.6409 123.027C56.3849 123.439 56.0028 124.083 55.7869 124.443L55.4163 125.1L55.2253 125.048C54.7668 124.919 51.5382 123.775 50.6842 123.428C49.6258 123.004 48.5273 122.49 47.7116 122.052C46.6914 121.499 45.4153 120.675 45.5165 120.65C45.5414 120.636 47.2894 120.16 49.3947 119.582C54.9826 118.05 58.0832 117.164 60.1121 116.521C60.4827 116.405 60.8018 116.314 60.8132 116.328L60.8113 116.324ZM76.6945 120.081H76.7079C76.7594 120.21 74.6924 126 73.9397 127.827C73.7735 128.239 73.7104 128.341 73.6206 128.328C73.4029 128.314 70.4054 127.89 68.581 127.62C65.4039 127.131 60.072 126.193 58.7328 125.883L58.4271 125.819L60.328 125.382C64.4105 124.455 66.3744 123.954 68.3651 123.335C70.8792 122.563 73.3666 121.598 75.8787 120.415C76.2742 120.233 76.6066 120.093 76.6945 120.079V120.081Z" fill="#D2D2D2"/>
<path d="M67.215 44.0007C66.9342 43.9621 62.4046 45.6095 59.4836 46.806C55.5405 48.4283 52.48 49.9716 50.5925 51.3087C49.8914 51.8116 49.0107 52.6979 48.8712 53.0466C48.8196 53.1757 48.7948 53.3299 48.7948 53.484L50.5046 55.1179L54.5738 56.43L64.2577 58.1794L75.3305 60.0965L75.4451 59.1312C75.4069 59.1312 75.382 59.1177 75.3438 59.1177L73.89 58.8865L73.5977 58.3586C72.0923 55.6824 70.4341 52.3626 69.4636 50.1238C68.7109 48.3859 67.9964 46.3802 67.6009 44.939C67.3831 44.0642 67.3583 44.0122 67.2188 44.0007H67.215ZM67.0106 44.6577H67.024C67.0373 44.6712 67.087 45.0315 67.1386 45.4553C67.3545 47.2568 67.7518 48.9928 68.3766 50.8714C68.8484 52.2875 68.8484 52.2104 68.3001 52.0428C66.9991 51.6825 61.1686 50.6671 56.9465 50.0737C56.2703 49.9831 55.6971 49.8945 55.6971 49.881C55.6455 49.829 58.7462 48.1951 60.1121 47.5516C61.8601 46.7405 66.6572 44.7213 67.0144 44.6557L67.0106 44.6577ZM54.7133 50.4224L55.2119 50.5901C57.917 51.5168 64.7162 52.8289 68.4663 53.1372C68.8866 53.1757 69.2439 53.2143 69.2573 53.2143C69.2706 53.2277 68.9134 53.4204 68.453 53.6381C66.6419 54.5514 64.6512 55.6708 63.2738 56.534C62.865 56.7903 62.4963 56.9964 62.4447 56.9964C62.3931 56.9964 62.1257 56.9444 61.8448 56.9059L61.3348 56.8288L60.0586 55.5687C57.8139 53.3684 56.0525 51.671 55.3762 51.0274L54.7133 50.4224ZM54.2032 50.8213L56.0028 53.0852C56.9848 54.3337 57.9801 55.5552 58.1979 55.825C58.4137 56.0947 58.5933 56.3144 58.5799 56.3278C58.5284 56.3664 55.978 55.8654 54.6254 55.5552C53.2346 55.2335 52.6615 55.0793 51.8056 54.8096L51.1045 54.5784V54.3973C51.1179 53.536 52.2011 52.249 54.0389 50.9369L54.2051 50.8213H54.2032ZM69.4865 53.9079C69.5381 53.9079 69.6011 54.0235 69.754 54.3703C70.1876 55.3356 71.5402 57.9347 71.8707 58.4357C71.9739 58.6033 72.1515 58.6168 70.3519 58.3201C66.0267 57.613 64.636 57.3818 64.636 57.3548C64.636 57.3413 64.764 57.2527 64.9302 57.1621C66.2694 56.4165 67.6219 55.4647 68.8217 54.4474C69.1159 54.2027 69.3833 53.9715 69.433 53.9329C69.4464 53.9079 69.4712 53.8944 69.4846 53.9079H69.4865Z" fill="#D2D2D2"/>
<path d="M48.9591 52.8655C48.9591 52.8655 48.6783 53.3164 48.9457 53.9849C49.1119 54.3973 49.5972 54.8982 50.1455 55.4126C50.1455 55.4126 55.8232 60.9963 56.511 61.794C59.6498 65.447 61.0138 69.05 61.1418 74.0171C61.2182 77.2077 60.6184 80.0131 59.1263 83.2673C56.4728 89.1091 50.8714 95.554 42.2344 102.708L43.4972 102.284C44.313 101.666 45.4229 101.01 48.0268 99.5693C54.0351 96.2495 60.7979 93.1996 69.0891 90.0609C81.0292 85.5312 100.664 80.2308 111.838 78.5064L113 78.3252L112.82 78.042C111.8 76.4467 111.097 75.4563 110.257 74.4005C107.807 71.3389 104.835 68.8554 101.199 66.7957C96.1979 63.9789 89.7293 61.7785 81.5393 60.1447C79.9957 59.8364 76.6028 59.2449 73.8461 58.8191C68.0021 57.9058 64.2271 57.2758 60.0682 56.5552C58.5761 56.297 56.3429 55.9117 54.8623 55.5899C54.0962 55.4223 52.629 55.0755 51.4808 54.6766C50.5619 54.3163 49.2361 53.956 48.9553 52.8617L48.9591 52.8655ZM52.2507 56.0831C52.2641 56.0697 52.4666 56.1467 52.736 56.2373C53.2212 56.4049 53.8459 56.5976 54.5853 56.8037C55.145 56.9598 55.7067 57.1101 56.2683 57.2546C57.0344 57.4473 57.6725 57.6284 57.684 57.6284C57.7738 57.7189 59.0614 61.8749 59.495 63.4702C59.6612 64.0752 59.7892 64.5896 59.7759 64.5896C59.7625 64.6031 59.623 64.3835 59.4568 64.0887C57.9648 61.4375 55.6035 58.7497 52.8735 56.5879C52.5163 56.3317 52.2488 56.0986 52.2488 56.087L52.2507 56.0831ZM58.5284 57.8326C58.5914 57.8326 58.8722 57.8711 59.218 57.9482C61.3863 58.4376 65.2779 59.1832 67.7652 59.6071C68.1855 59.6707 68.5179 59.7497 68.5179 59.7747C68.5179 59.7998 68.3651 59.8903 68.174 59.9944C67.7538 60.2121 66.0573 61.2294 65.4956 61.6148C64.08 62.5666 62.8039 63.5954 61.885 64.5222C61.5143 64.896 61.1953 65.2043 61.1953 65.2043C61.1953 65.2043 61.1189 64.9865 61.0558 64.7149C60.5973 62.9269 59.6402 60.2757 58.7729 58.4106C58.6334 58.1139 58.5169 57.8442 58.5169 57.8191C58.5169 57.8442 58.5169 57.8326 58.5303 57.8326H58.5284ZM69.5763 59.9559C69.6527 59.9809 69.7807 60.4183 70.0348 61.3836C70.5067 63.2486 70.7244 65.3333 70.648 67.2774C70.6232 67.8169 70.5965 68.3198 70.5716 68.3833L70.5334 68.5124L69.8705 68.2947C68.5045 67.8573 66.2866 67.2003 64.3857 66.6609C63.3006 66.3641 62.4218 66.0944 62.4218 66.0694C62.4218 65.9923 64.0036 64.397 64.6799 63.792C65.9675 62.6475 69.4636 59.9192 69.5782 59.9578L69.5763 59.9559ZM70.4551 60.0849C70.4933 60.0464 75.7374 60.9597 78.1216 61.424C79.8944 61.7708 82.4716 62.3122 82.6244 62.3758C82.7008 62.4009 82.4334 62.555 81.5775 62.9423C78.2095 64.474 75.7087 65.8497 73.2214 67.5221C72.5699 67.9595 72.0216 68.3198 72.0102 68.3198C71.9987 68.3198 71.9853 67.946 71.9853 67.4971C71.9853 65.052 71.5001 62.582 70.6079 60.4973C70.5181 60.2911 70.4417 60.0984 70.4551 60.0849ZM84.0171 62.7862C84.0553 62.8247 83.8891 63.8671 83.7363 64.4837C83.2778 66.4007 82.0398 69.2446 80.5211 71.9208C80.2536 72.3967 80.011 72.7821 79.9842 72.7955C79.9594 72.809 79.6136 72.6144 79.2182 72.3832C77.7376 71.5085 76.0545 70.6858 74.2167 69.9132C73.7066 69.6954 73.2596 69.5143 73.2481 69.4893C73.1583 69.4122 77.2657 66.6705 79.4359 65.3584C81.1591 64.3025 83.9655 62.7342 84.0152 62.7843L84.0171 62.7862ZM84.9876 62.9404C85.1022 62.9404 87.4253 63.5839 88.6365 63.9442C91.6339 64.844 95.0784 66.1194 97.3251 67.1483L98.2554 67.5722L97.6059 67.7263C92.1211 68.9999 87.4253 70.4661 82.8957 72.3196C82.5251 72.4738 82.1946 72.6029 82.1678 72.6029C82.1411 72.6029 82.2691 72.3062 82.4353 71.9459C83.8012 69.0249 84.68 65.9749 84.8978 63.3758C84.9112 63.1311 84.9494 62.9384 84.9876 62.9384V62.9404ZM61.8697 68.2928C61.9079 68.2543 63.6808 68.6781 64.6379 68.9479C66.0917 69.3602 69.1789 70.4026 69.1789 70.4796C69.1789 70.4931 68.835 70.7879 68.4262 71.1482C66.7546 72.5508 65.148 74.0306 63.2203 75.9091C62.6453 76.4621 62.162 76.913 62.1352 76.913C62.1085 76.913 62.097 76.8359 62.1104 76.7318C62.4046 74.5701 62.3396 71.7917 61.9327 68.9729C61.8945 68.6126 61.8563 68.3044 61.8697 68.2909V68.2928ZM99.1342 68.3313C99.1591 68.3564 98.3185 69.6954 97.7816 70.4546C97.0156 71.5605 95.8942 73.0287 93.3552 76.2444C92.016 77.9418 90.5106 79.8589 90.0139 80.5024C89.5038 81.146 89.0816 81.6854 89.0702 81.6854C89.0587 81.6854 88.8925 81.4542 88.7129 81.171C87.2839 79.0092 85.5741 77.1172 83.5452 75.4197C83.1632 75.098 82.741 74.7512 82.6015 74.6471C82.462 74.545 82.3455 74.441 82.3455 74.4294C82.3455 74.3909 84.5138 73.4506 86.1606 72.7821C89.0434 71.599 92.9731 70.1829 95.9209 69.2696C97.4645 68.7803 99.1113 68.3043 99.1361 68.3313H99.1342ZM100.118 68.5895C100.17 68.576 100.475 68.7321 100.846 68.9498C103.947 70.7378 106.982 73.0422 109.382 75.4082C110.058 76.0768 111.73 77.8262 111.703 77.8397C111.703 77.8397 111.116 77.8917 110.427 77.9418C105.056 78.3541 98.179 79.4986 91.5709 81.1074C91.1239 81.2095 90.7284 81.3001 90.7036 81.3001C90.6787 81.3001 91.1754 80.7992 91.8001 80.1942C95.6783 76.4236 97.4511 74.0441 99.543 69.7976C99.8372 69.1675 100.091 68.6261 100.116 68.5876C100.107 68.5876 100.107 68.5876 100.116 68.5876L100.118 68.5895ZM71.7064 71.522C71.886 71.5605 73.5442 72.3447 74.7936 72.9767C75.9418 73.5547 77.665 74.4814 77.7529 74.5585C77.7662 74.572 77.153 74.8937 76.4003 75.2656C74.0008 76.4756 71.9471 77.6201 69.8036 78.9322C69.1904 79.3059 68.6803 79.6142 68.6688 79.6142C68.6173 79.6142 68.6306 79.5622 68.9745 78.9322C70.1227 76.8224 71.0416 74.3003 71.565 71.8437C71.6166 71.6511 71.6663 71.522 71.7045 71.522H71.7064ZM70.0482 71.8322C70.0864 71.8707 69.6527 73.4526 69.3853 74.3157C68.8618 75.9496 67.9811 77.9958 67.1271 79.5391C66.9227 79.8994 66.6171 80.4273 66.4509 80.7221L66.1318 81.2365L65.4173 80.541C64.5882 79.7298 63.9119 79.2289 63.0446 78.778C62.7007 78.5988 62.4313 78.4428 62.4313 78.4177C62.4313 78.3156 64.613 76.3214 66.2846 74.8803C67.4844 73.8379 70.01 71.7917 70.0482 71.8303V71.8322ZM80.1906 76.0382L80.8153 76.4505C82.2442 77.3908 83.9273 78.6374 85.2169 79.7318C85.9447 80.3367 87.347 81.6103 87.6278 81.9186L87.7806 82.0862L86.7471 82.3829C80.9031 84.0168 76.3888 85.4715 71.1199 87.4271C70.5334 87.6448 70.0348 87.8259 69.9966 87.8259C69.9202 87.8259 69.8571 87.8895 71.1696 86.668C74.5376 83.5409 77.5236 80.094 79.7435 76.7357L80.1906 76.0401V76.0382ZM77.5236 76.7087C77.5485 76.7338 75.8004 79.2173 74.7554 80.62C73.506 82.2924 71.2861 85.0977 69.754 86.9242C69.1159 87.6833 68.5676 88.3134 68.5428 88.3269C68.5045 88.3404 68.4912 88.1477 68.4912 87.851C68.4912 86.2942 68.0957 84.6333 67.4061 83.2191C67.1119 82.6276 67.0622 82.485 67.1252 82.4215C67.3679 82.2018 71.0798 80.067 73.4277 78.7934C75.0095 77.9437 77.4835 76.6837 77.5236 76.7087ZM61.3978 80.697C61.436 80.697 61.7302 80.8512 62.0607 81.0323C62.8765 81.4831 63.6043 81.9841 64.2558 82.5255C64.2806 82.5505 63.9501 82.8222 63.5165 83.1421C62.3053 84.0168 60.4674 85.4194 59.3957 86.2807C58.2724 87.1805 58.2342 87.2074 58.3622 87.0148C59.2047 85.7162 59.6249 84.9821 60.072 84.0418C60.4674 83.2056 60.8629 82.2153 61.1437 81.3521C61.245 80.9783 61.373 80.6951 61.3997 80.6951L61.3978 80.697ZM65.6982 84.0939C65.7612 84.0804 65.8376 84.196 66.1834 84.7123C66.9113 85.8067 67.471 87.2729 67.6124 88.456L67.6372 88.7141L65.8892 89.3962C62.7638 90.6177 59.8809 91.8277 57.9285 92.7275C57.3802 92.9857 56.4231 93.4481 55.7984 93.7564C55.1737 94.0781 54.6636 94.3228 54.6636 94.3093C54.6636 94.2958 55.0591 94.0011 55.5443 93.6408C59.3594 90.8489 62.6625 87.7874 65.1384 84.7239C65.4059 84.4021 65.6485 84.1054 65.6733 84.0939H65.6982ZM63.7209 84.5813C63.7725 84.6333 62.3167 86.2922 61.3233 87.3096C58.8608 89.8451 56.425 91.8258 53.4008 93.7564C53.0187 94.0011 52.6729 94.2188 52.6347 94.2458C52.5449 94.2978 52.6596 94.1687 53.9873 92.714C54.8298 91.8007 55.4679 91.0281 56.1938 90.0763C56.6791 89.4463 56.7689 89.3557 57.47 88.8548C59.346 87.4907 63.6693 84.5312 63.7209 84.5832V84.5813Z" fill="#E2E0E0"/>
</svg>
