<svg width="150" height="174" viewBox="0 0 150 174" fill="none" xmlns="http://www.w3.org/2000/svg">
<path d="M74.6359 1.73576L147.772 44.3212V129.514L74.6359 172.1L1.5 129.514V44.3212L74.6359 1.73576Z" fill="#282828" stroke="#FF9800" stroke-width="3" stroke-linejoin="round"/>
<path fill-rule="evenodd" clip-rule="evenodd" d="M108.597 108.119C104.193 107.993 100.776 108.448 97.9158 109.65C97.0932 109.979 95.7644 109.979 95.6632 111.017C96.1061 111.447 96.1567 112.169 96.549 112.763C97.2071 113.864 98.3713 115.332 99.409 116.104L102.94 118.622C105.091 119.938 107.508 120.698 109.609 122.014C110.824 122.786 112.039 123.76 113.241 124.583C113.861 125.026 114.228 125.734 115 126V125.835C114.62 125.342 114.506 124.633 114.114 124.089L112.456 122.507C110.862 120.369 108.875 118.509 106.724 116.977C104.965 115.775 101.105 114.13 100.396 112.105L100.282 111.979C101.497 111.852 102.927 111.435 104.079 111.106C105.952 110.612 107.66 110.726 109.584 110.232L112.229 109.461V108.967C111.241 107.98 110.52 106.664 109.47 105.74C106.66 103.336 103.573 100.982 100.383 99.0079C98.6751 97.9196 96.4731 97.1983 94.6508 96.2745C93.9927 95.9455 92.8917 95.781 92.4994 95.2368C91.4997 94.0346 90.9555 92.4402 90.2342 91.0229L85.7163 81.494C84.7292 79.3554 84.1218 77.2294 82.9069 75.2553C77.2375 65.9542 71.0619 60.3103 61.5833 54.7803C59.5458 53.6287 57.1287 53.1352 54.5471 52.5404L50.4216 52.3253C49.5357 51.9457 48.6625 50.908 47.8906 50.4145C44.7648 48.4403 36.6656 44.1758 34.3497 49.7944C32.8564 53.3503 36.5517 56.8556 37.8045 58.6652C38.741 59.918 39.9559 61.348 40.6139 62.7653C40.9809 63.6891 41.1075 64.6761 41.4998 65.6632C42.3856 68.0675 43.2082 70.7503 44.3598 73.0028C44.9799 74.1544 45.6253 75.3565 46.3973 76.3942C46.8402 77.0016 47.6121 77.2674 47.7767 78.2544C47.0047 79.3554 46.9541 80.9878 46.5112 82.3672C44.5243 88.5552 45.2963 96.2112 48.1057 100.767C48.9915 102.134 51.067 105.145 53.889 103.994C56.3694 103.007 55.8126 99.8937 56.5339 97.1477C56.6984 96.4896 56.5845 96.0594 56.9136 95.6165V95.743L59.1788 100.286C60.8872 102.969 63.8612 105.765 66.3415 107.626C67.6577 108.613 68.708 110.308 70.3658 110.916V110.751H70.2519C69.9229 110.258 69.4294 110.043 68.9864 109.663C67.9993 108.676 66.8984 107.474 66.1264 106.373C63.8105 103.31 61.7731 99.919 59.9634 96.4137C59.0776 94.718 58.3056 92.8578 57.5969 91.1621C57.2679 90.504 57.2679 89.517 56.7111 89.188C55.8885 90.3901 54.6736 91.4278 54.0662 92.9084C53.0158 95.2621 52.9146 98.16 52.5223 101.172C52.2945 101.222 52.3957 101.172 52.2945 101.298C50.5354 100.855 49.928 99.0585 49.2699 97.5273C47.6121 93.6423 47.3464 87.4037 48.7764 82.9113C49.1561 81.7597 50.8139 78.1532 50.1558 77.0523C49.8268 76.0146 48.7258 75.4072 48.1183 74.5846C47.397 73.5469 46.6377 72.2309 46.1315 71.0793C44.8154 68.0169 44.1447 64.6255 42.7147 61.5504C42.0566 60.1331 40.8923 58.6526 39.9559 57.3365C38.9055 55.8559 37.7539 54.8182 36.9313 53.0719C36.6529 52.4645 36.2733 51.4901 36.7162 50.8321C36.8301 50.3891 37.0452 50.2246 37.4881 50.1234C38.2095 49.516 40.2469 50.2879 40.9556 50.6169C42.9931 51.4395 44.7015 52.1987 46.4099 53.3503C47.1819 53.8944 48.0044 54.9321 49.0042 55.2105H50.1685C51.9275 55.5902 53.9143 55.3371 55.5595 55.8179C58.4828 56.7544 61.1277 58.1211 63.4942 59.6016C70.7075 64.1446 76.6554 70.5984 80.6796 78.3177C81.3377 79.5705 81.6161 80.7221 82.2236 82.0381C83.3878 84.7209 84.8178 87.4543 85.9694 90.0864C87.1337 92.6553 88.2347 95.2874 89.8798 97.4261C90.7024 98.5776 94.0054 99.1724 95.4986 99.7798C96.5996 100.273 98.3081 100.716 99.2952 101.311C101.168 102.463 103.041 103.779 104.8 105.031C105.686 105.689 108.432 107.056 108.597 108.144V108.119ZM52.421 60.5507C51.6617 60.5507 50.9024 60.6393 50.1685 60.8291V60.9557H50.2823C50.7253 61.8288 51.4972 62.4363 52.0414 63.1955L53.3069 65.8277L53.4208 65.7011C54.1927 65.157 54.585 64.2838 54.585 62.9678C54.256 62.5881 54.2054 62.1958 53.927 61.8162C53.598 61.272 52.8766 60.9936 52.4337 60.5634L52.421 60.5507Z" fill="#D2D2D2"/>
</svg>
