<svg width="149" height="173" viewBox="0 0 149 173" fill="none" xmlns="http://www.w3.org/2000/svg">
<path d="M74.2219 1.73362L146.944 43.8715V128.157L74.2219 170.295L1.5 128.157V43.8715L74.2219 1.73362Z" fill="#282828" stroke="#CBE858" stroke-width="3" stroke-linejoin="round"/>
<path d="M113.6 62.5016C101.497 55.5831 89.392 48.6671 77.2888 41.7539C76.2374 41.1121 75.1526 40.5275 74.0383 40H73.8216C72.698 40.5182 71.6412 41.1666 70.5644 41.7778C58.4759 48.6911 46.3874 55.6003 34.3003 62.5056C33.4522 62.9162 32.9412 63.7958 33.0054 64.7299V108.455C32.9613 109.393 33.4883 110.266 34.3431 110.667C47.2047 118.032 60.0784 125.385 72.9642 132.724C73.6531 133.133 74.5225 133.084 75.1606 132.601C88.033 125.25 100.905 117.893 113.776 110.532C114.381 110.149 114.809 109.543 114.967 108.848C114.983 94.2763 114.956 79.6991 114.983 65.1205C115.106 64.0482 114.556 63.0105 113.598 62.503L113.6 62.5016ZM97.307 104.828C97.0716 107.093 95.3741 108.941 93.1241 109.382C89.9699 110.043 86.694 109.063 84.4293 106.785C76.4073 97.311 68.4027 87.8241 60.4142 78.3238C60.3981 87.0269 60.4142 95.7299 60.4142 104.433C60.4142 106.154 59.5554 107.761 58.1241 108.727C55.9531 110.141 53.0824 109.855 51.2351 108.043C50.2907 107.078 49.7757 105.778 49.8065 104.433V68.3612C49.9122 65.7729 51.9066 63.6483 54.499 63.3626C57.8713 62.8484 61.2596 64.1851 63.3584 66.8571C71.173 76.0783 78.9221 85.3461 86.7675 94.5341C86.714 85.6955 86.7675 76.8623 86.7675 68.0197C86.9909 65.4793 89.0188 63.4636 91.5778 63.2417C94.4885 62.9893 97.0542 65.1285 97.3083 68.0197C97.3257 80.2877 97.3257 92.5583 97.3083 104.829L97.307 104.828Z" fill="#D2D2D2"/>
</svg>
