<svg width="95" height="109" viewBox="0 0 95 109" fill="none" xmlns="http://www.w3.org/2000/svg">
<path d="M92.6048 80.75V28.25L47.3024 2L2 28.25V80.75L47.3024 107L92.6048 80.75Z" fill="#FCD0C2" stroke="#282828" stroke-width="3" stroke-linejoin="round"/>
<path fill-rule="evenodd" clip-rule="evenodd" d="M51.2634 31C50.9164 31 50.5941 31.0748 50.2965 31.1742C50.9289 31.5974 51.2759 32.1575 51.4495 32.7918C51.4619 32.8792 51.4867 32.9412 51.499 33.0283C51.5115 33.1031 51.5239 33.1777 51.5239 33.2522C51.5735 34.3474 51.2387 34.4842 51.0031 35.1314C50.6436 35.9653 50.7428 36.8612 51.1767 37.5829C51.2139 37.67 51.2634 37.7694 51.3254 37.8565C50.8544 34.7082 53.4699 34.2353 53.9534 33.252C53.9907 32.3933 53.2838 31.8209 52.7262 31.4226C52.1929 31.0996 51.7095 31 51.2634 31ZM55.2056 31.7094C55.1557 31.9958 55.1931 31.921 55.1806 32.0703C55.1684 32.17 55.1684 32.2943 55.1559 32.3939C55.1311 32.4936 55.1064 32.593 55.0691 32.6926C55.0442 32.7923 55.0071 32.8917 54.9699 32.9913C54.9201 33.091 54.8831 33.1781 54.8336 33.2775C54.7961 33.3274 54.7714 33.3772 54.7341 33.4269L54.6596 33.5388C54.5976 33.6261 54.5356 33.713 54.4738 33.7878C54.3993 33.8626 54.3375 33.9495 54.2508 34.0118V34.0243C54.1763 34.0865 54.102 34.1611 54.0152 34.2234C53.7549 34.4222 53.4574 34.5718 53.1846 34.7583C53.0978 34.8206 53.0113 34.8705 52.9368 34.9451C52.85 35.0073 52.7757 35.0696 52.7014 35.1439C52.6145 35.2187 52.5527 35.2933 52.4782 35.3804C52.4162 35.4552 52.3419 35.5421 52.2924 35.6294C52.2304 35.7165 52.1683 35.8034 52.1188 35.8907C52.0693 35.9903 52.0321 36.0772 51.9825 36.1769C51.9453 36.2765 51.908 36.3636 51.8833 36.463C51.8503 36.5657 51.8213 36.6693 51.7963 36.7743C51.784 36.824 51.784 36.8863 51.7716 36.936C51.7591 36.9857 51.7591 37.0356 51.7468 37.0853C51.7468 37.185 51.7343 37.2969 51.7343 37.3966C51.7343 37.4711 51.7343 37.5459 51.7468 37.6205C51.7468 37.7201 51.7593 37.8196 51.784 37.9315C51.7965 38.0312 51.8213 38.1306 51.846 38.2302C51.8833 38.3299 51.908 38.4293 51.9453 38.5287C51.9703 38.5912 52.0073 38.6532 52.0321 38.7032L49.181 37.5954C48.6977 37.4586 48.2264 37.3341 47.743 37.2221L46.9621 37.0354C46.2161 36.886 45.4632 36.7741 44.7062 36.6995C44.6812 36.6995 44.6687 36.687 44.6439 36.687C43.9003 36.6122 43.1687 36.575 42.425 36.575C41.8797 36.575 41.3343 36.5999 40.8012 36.6373C40.0451 36.687 39.2887 36.7866 38.5328 36.9109C38.3468 36.936 38.1605 36.9732 37.9749 37.0105C37.5904 37.0853 37.2188 37.1722 36.8592 37.2595L36.3014 37.4089C36.1154 37.4837 35.9418 37.5706 35.7683 37.6454L35.3592 37.8321C35.3343 37.8444 35.3095 37.8444 35.2972 37.8567C35.1732 37.919 35.0617 37.9689 34.9499 38.031C34.9129 38.0435 34.8879 38.056 34.8632 38.0684C34.7269 38.1306 34.5906 38.2052 34.4789 38.2674C34.3921 38.3048 34.3053 38.3545 34.2311 38.3919C34.1938 38.417 34.1441 38.4418 34.1193 38.4542C34.0076 38.5164 33.8963 38.5787 33.797 38.6409C33.6853 38.703 33.5862 38.7654 33.4995 38.8275C33.4127 38.8895 33.3259 38.9394 33.2516 39.0015C33.2392 39.014 33.2267 39.014 33.2144 39.0265C33.1399 39.0762 33.0533 39.1385 32.9789 39.2005L32.9539 39.2256L32.7683 39.3749C32.7433 39.3873 32.7183 39.4123 32.6938 39.4247C32.6318 39.4746 32.5698 39.5368 32.5078 39.5863C32.4955 39.6114 32.4707 39.6237 32.4583 39.6363C32.3838 39.711 32.3095 39.7731 32.2352 39.8477C32.2227 39.8477 32.2227 39.8602 32.2102 39.8727C32.1359 39.935 32.0614 40.0095 31.9872 40.0841C31.9749 40.0967 31.9749 40.1092 31.9624 40.1092C31.8974 40.1725 31.8354 40.239 31.7766 40.308C31.7516 40.3331 31.7146 40.358 31.6898 40.3828C31.6278 40.4576 31.5535 40.5322 31.4791 40.6068C31.4666 40.6318 31.4418 40.6441 31.4295 40.669C31.3303 40.7686 31.2435 40.8681 31.1443 40.9677L31.1072 41.0051C30.9089 41.2165 30.6981 41.4283 30.4749 41.6149C30.255 41.8118 30.0233 41.9945 29.7805 42.1623C29.5401 42.3317 29.2919 42.4895 29.0369 42.6353C28.784 42.7746 28.523 42.8993 28.256 43.0088C27.9923 43.1212 27.7235 43.2208 27.4503 43.3073C26.9297 43.4194 26.3966 43.6308 25.9378 43.6682C25.8386 43.6682 25.7272 43.6933 25.628 43.7056C25.5162 43.7307 25.4172 43.7555 25.318 43.7804L25.0206 43.8926C24.9212 43.9298 24.8221 43.9797 24.7229 44.0294C24.6361 44.0916 24.537 44.1416 24.4503 44.2036C24.3633 44.2659 24.2767 44.3404 24.2023 44.4152C24.1155 44.4775 24.0289 44.5646 23.9544 44.6391C23.8799 44.7262 23.8057 44.8008 23.7437 44.8879C23.6817 44.9876 23.6074 45.0747 23.5578 45.1741C23.4958 45.2614 23.4338 45.3608 23.3845 45.4605C23.3346 45.5724 23.2853 45.6719 23.2482 45.7841C23.2091 45.8911 23.1718 45.9991 23.1365 46.1076C23.1117 46.2073 23.087 46.3067 23.0745 46.4061C23.0745 46.4189 23.062 46.4312 23.062 46.4437C23.0372 46.5557 23.0372 46.705 23.0248 46.7796C23.0125 46.8669 23 46.9413 23 47.0286C23 47.0783 23 47.1406 23.0125 47.1903C23.025 47.2774 23.0375 47.352 23.0622 47.4267C23.087 47.5013 23.1117 47.5761 23.149 47.6507V47.663C23.1862 47.7378 23.2358 47.8124 23.2853 47.8871C23.3352 47.9617 23.3847 48.0365 23.4463 48.1111C23.5085 48.1733 23.5828 48.2479 23.6573 48.3101C23.7316 48.3847 23.8061 48.447 23.8926 48.5092C24.1902 48.7705 24.2647 48.8576 24.6488 49.0567C24.7108 49.0941 24.7728 49.1189 24.8471 49.1563C24.8596 49.1563 24.8718 49.1687 24.8843 49.1687C24.8843 49.1937 24.8843 49.2061 24.8966 49.2311C24.9091 49.3308 24.9338 49.4302 24.9588 49.5296C24.9823 49.632 25.0155 49.7321 25.0579 49.8283C25.0951 49.9031 25.1201 49.9777 25.1571 50.0525C25.1696 50.0773 25.1821 50.1022 25.1944 50.1147C25.2441 50.2144 25.2936 50.3013 25.3431 50.3884L25.5289 50.6497C25.591 50.7245 25.6652 50.8114 25.7397 50.8861C25.814 50.9609 25.8885 51.023 25.9751 51.0977C25.9751 51.0977 25.9875 51.1101 26 51.1101C26.0743 51.1723 26.1488 51.2346 26.2231 51.2843C26.3098 51.3465 26.3964 51.3965 26.4957 51.446C26.5826 51.4959 26.6817 51.5456 26.7809 51.5828C26.8552 51.6204 26.942 51.6452 27.0287 51.6701C27.0412 51.6826 27.0535 51.6826 27.0783 51.6952C27.1282 51.7075 27.19 51.72 27.2393 51.7323C27.2023 52.4046 27.1898 53.0389 27.2893 53.2631C27.4006 53.5121 27.9461 52.753 28.4915 51.8819C28.417 52.7404 28.3675 53.7485 28.4915 54.047C28.6278 54.3583 29.3717 53.3876 30.0163 52.3172C38.8054 50.2764 46.8256 56.3745 47.6685 64.9859C47.5075 63.6419 45.8585 62.8951 45.1023 63.0819C44.7305 64.0029 44.0984 65.1852 43.0817 65.9194C43.1706 65.0883 43.1287 64.2484 42.9577 63.4305C42.6851 64.5754 42.152 65.6455 41.4204 66.5665C40.243 66.6536 39.0652 66.0813 38.4456 65.2223C38.3959 65.1852 38.3836 65.1106 38.3464 65.0607C38.3091 64.9736 38.2719 64.8867 38.2471 64.7996C38.2109 64.7161 38.1859 64.6283 38.1726 64.5382C38.1601 64.4509 38.1601 64.364 38.1601 64.2644V64.0776C38.1726 63.9905 38.1974 63.9036 38.2221 63.8165C38.2471 63.7292 38.2719 63.6423 38.3091 63.5552C38.3586 63.4679 38.3959 63.381 38.4579 63.2939C38.6687 62.6965 38.6687 62.2112 38.2846 61.925C38.2101 61.8762 38.1313 61.8345 38.049 61.8006C37.9993 61.7882 37.9373 61.7634 37.888 61.7508C37.8507 61.7383 37.826 61.7258 37.7887 61.7134C37.7017 61.6884 37.6152 61.6635 37.5284 61.6512C37.4438 61.6266 37.3561 61.614 37.2681 61.6138C37.1811 61.6013 37.0821 61.5887 36.9953 61.5887C36.9333 61.5887 36.8713 61.6015 36.8093 61.6015C36.7103 61.6015 36.6237 61.6138 36.5369 61.6387C36.45 61.6512 36.3634 61.6637 36.2764 61.6886C36.1897 61.7137 36.1029 61.7385 36.0161 61.7757C35.9294 61.8131 35.8551 61.8505 35.7683 61.8879C35.6938 61.9253 35.6195 61.975 35.5328 62.0124C32.6445 63.9038 34.3676 68.3344 36.3384 69.6161C35.5948 69.7529 34.8384 69.9146 34.6279 70.0763L34.6029 70.1013C35.1362 70.4249 35.6938 70.6988 36.2764 70.9352C37.0698 71.1963 37.9127 71.4328 38.2848 71.5324V71.545C39.3118 71.7564 40.3621 71.8318 41.4086 71.7689C46.9001 71.3831 51.3999 67.1892 52.2181 61.6639C52.2431 61.7759 52.2678 61.8753 52.2926 61.9875C52.3298 62.2114 52.3793 62.4477 52.4041 62.6846V62.6969C52.4291 62.8091 52.4413 62.921 52.4538 63.0205V63.0706C52.4663 63.1824 52.4788 63.2943 52.4788 63.3942C52.4911 63.531 52.5034 63.6676 52.5034 63.8048V64.0039C52.5034 64.0662 52.5158 64.1407 52.5158 64.2028C52.5158 64.2776 52.5034 64.3521 52.5034 64.4269V64.6009C52.5034 64.6882 52.4909 64.7626 52.4909 64.8499C52.4909 64.8996 52.4909 64.9496 52.4786 65.0116C52.4786 65.0987 52.4661 65.1856 52.4661 65.2852C52.4536 65.3226 52.4536 65.36 52.4536 65.3974C52.4414 65.497 52.4289 65.5842 52.4164 65.6836C52.4164 65.721 52.4164 65.7584 52.4041 65.7958C52.3916 65.9203 52.3669 66.0322 52.3544 66.1567V66.1816C52.3296 66.2937 52.3049 66.418 52.2799 66.5302V66.5674L52.2056 66.9035C52.2056 66.916 52.1931 66.9409 52.1931 66.9534C52.1681 67.0654 52.1434 67.1773 52.1063 67.2893V67.3267C52.0691 67.4512 52.0319 67.5632 52.0071 67.6753C51.9946 67.6877 51.9946 67.7002 51.9946 67.7002L51.8829 68.0735C51.8333 68.198 51.7961 68.3099 51.7466 68.4344C51.6968 68.5589 51.6596 68.6834 51.6103 68.7954C51.5606 68.9199 51.511 69.0319 51.4615 69.1564H51.4492C51.3993 69.2685 51.35 69.3928 51.2882 69.505C51.2757 69.5424 51.2632 69.5672 51.2509 69.5921C51.2385 69.6046 51.2385 69.6172 51.226 69.6295C50.4203 71.2597 49.2303 72.6907 47.7426 73.8108C47.6433 73.8731 47.5443 73.9476 47.4453 74.0224C47.4203 74.0473 47.383 74.0596 47.3583 74.0847C47.2715 74.1469 47.1847 74.2092 47.0857 74.2712L47.1227 74.346H47.1352L47.6558 74.2712H47.6683C47.9906 74.2213 48.3129 74.159 48.6352 74.097C48.722 74.0844 48.8213 74.0596 48.908 74.0347C48.97 74.0222 49.0196 74.0099 49.0813 73.9973C49.1683 73.985 49.2549 73.9599 49.3416 73.9476C49.4161 73.9226 49.4904 73.9102 49.5649 73.8854C50.8046 73.5867 52.0069 73.176 53.1598 72.6905C51.1887 75.391 48.5483 77.5689 45.4615 79C46.8872 78.9004 48.3127 78.6641 49.6887 78.266C54.6844 76.785 58.8867 73.4125 61.4029 68.8702C60.8923 71.7515 59.7535 74.4839 58.0685 76.8721C59.2699 76.0764 60.3799 75.1501 61.3782 74.1095C64.1549 71.1974 65.9772 67.5013 66.5969 63.5314C67.0197 65.5009 67.141 67.5236 66.9564 69.5299C75.9064 56.998 67.7001 44.0058 64.2664 40.5836C64.2542 40.5585 64.2417 40.5462 64.2417 40.5213C64.2335 40.5296 64.2294 40.5378 64.2294 40.5462C64.2294 40.5378 64.2252 40.5295 64.2169 40.5211C64.2169 40.6705 64.2044 40.8198 64.1919 40.9692C64.1549 41.2554 64.1177 41.5292 64.0679 41.8031C64.0059 42.0767 63.9316 42.3506 63.8574 42.6242C63.7691 42.8936 63.6699 43.1594 63.56 43.4207C63.446 43.6786 63.3219 43.9319 63.1878 44.1798C63.0515 44.4161 62.9027 44.6651 62.7417 44.8892C62.5823 45.1208 62.4126 45.3449 62.2333 45.5614C62.0475 45.7853 61.8492 45.9846 61.6509 46.1835C61.5341 46.2908 61.4143 46.3946 61.2914 46.4947C61.1921 46.5818 61.1054 46.6564 61.0061 46.7435C60.7831 46.9177 60.56 47.0796 60.312 47.2287C60.0764 47.3781 59.8286 47.5275 59.5806 47.652C59.3203 47.7764 59.06 47.8882 58.7999 48.0004C58.5394 48.1 58.2666 48.1871 57.994 48.2617C57.72 48.3358 57.4427 48.3981 57.1634 48.4484C56.8783 48.4982 56.5933 48.523 56.3205 48.5479C56.1222 48.5604 55.9237 48.5729 55.7254 48.5729C55.4403 48.5729 55.1553 48.5479 54.8825 48.5228C54.5974 48.4982 54.3123 48.4608 54.0396 48.3985C53.7545 48.3484 53.4817 48.274 53.2089 48.1869H53.1966C53.4694 48.1618 53.742 48.137 54.0148 48.0873C54.2944 48.0382 54.5716 47.9759 54.8454 47.9005C55.118 47.8266 55.387 47.7395 55.6511 47.6394C55.9237 47.5398 56.184 47.4155 56.4318 47.2908C56.6923 47.1663 56.9278 47.0295 57.1757 46.8801C57.4112 46.7184 57.6465 46.5565 57.87 46.3823C58.092 46.209 58.3032 46.022 58.5021 45.8223C58.7129 45.6355 58.8989 45.4239 59.0847 45.2125C59.2659 44.9946 59.4396 44.7704 59.6053 44.5403C59.6303 44.5032 59.6551 44.4532 59.6798 44.4158C59.8039 44.2168 59.9277 44.0175 60.0394 43.8184C60.1757 43.5718 60.2999 43.3185 60.4114 43.0595C60.5234 42.7991 60.6226 42.5333 60.7088 42.263C60.7957 42.0017 60.8575 41.7279 60.9196 41.4542C60.9693 41.1681 61.0188 40.8942 61.0436 40.6204C61.0685 40.3342 61.0933 40.048 61.0933 39.7741C61.0933 39.5751 61.0808 39.3758 61.0683 39.1767C61.0438 38.8906 61.0065 38.6169 60.9693 38.3428C60.9204 38.0622 60.8584 37.7839 60.7833 37.5092C60.6965 37.2479 60.6099 36.9742 60.5107 36.7129C60.4114 36.4516 60.2876 36.1903 60.1634 35.9413C60.0271 35.6925 59.8908 35.4437 59.7418 35.2072C59.5836 34.974 59.4183 34.7458 59.2462 34.5227C59.0596 34.3081 58.8693 34.0965 58.6759 33.8879C58.5716 33.781 58.464 33.6773 58.3536 33.5769C57.7983 33.1439 57.2233 32.7368 56.6305 32.3572C56.5437 32.3072 56.4695 32.2701 56.3825 32.2327C55.9734 31.9713 55.5893 31.8343 55.205 31.71L55.2056 31.7094Z" fill="#282828"/>
</svg>
