<svg width="151" height="175" viewBox="0 0 151 175" fill="none" xmlns="http://www.w3.org/2000/svg">
<path d="M75.1985 1.73362L148.897 44.4374V129.854L75.1985 172.558L1.5 129.854V44.4374L75.1985 1.73362Z" fill="#282828" stroke="#FCD0C2" stroke-width="3" stroke-linejoin="round"/>
<g clip-path="url(#clip0_405_16929)">
<path d="M75 117.999C73.9334 117.999 72.9063 117.715 71.9582 117.188L62.3194 111.307C60.8973 110.496 61.6084 110.171 62.0429 110.049C64.0181 109.36 64.3736 109.238 66.3883 108.062C66.6253 107.9 66.9018 107.981 67.1388 108.143L74.526 112.686C74.8025 112.848 75.1975 112.848 75.395 112.686L104.312 95.4881C104.588 95.3259 104.746 95.042 104.746 94.6769V60.3219C104.746 59.9568 104.588 59.6729 104.312 59.5107L75.3555 42.394C75.079 42.2318 74.7235 42.2318 74.4865 42.394L45.57 59.5107C45.2935 59.6729 45.1354 60.038 45.1354 60.3219V94.6364C45.1354 94.9203 45.2935 95.3259 45.57 95.4476L53.4707 100.153C57.737 102.383 60.4233 99.7876 60.4233 97.1511V63.3234C60.4233 62.8772 60.7788 62.4311 61.2923 62.4311H65.0056C65.4402 62.4311 65.8747 62.7961 65.8747 63.3234V97.1917C65.8747 103.073 62.754 106.48 57.342 106.48C55.6828 106.48 54.3792 106.48 50.6659 104.614L43.0813 100.153C41.1456 99.0169 40 96.9483 40 94.7175V60.403C40 58.1722 41.1456 56.1036 43.0418 54.9679L71.9582 37.7701C73.8544 36.7155 76.1456 36.7155 78.0418 37.7701L106.958 54.9679C108.854 56.063 110 58.1722 110 60.403V94.7175C110 96.9483 108.854 99.0169 106.958 100.153L78.0418 117.35C77.0937 117.797 75.9876 118.04 75 118.04V117.999ZM83.9278 94.393C71.2472 94.393 68.64 88.4306 68.64 83.401C68.64 82.9548 68.9955 82.5087 69.509 82.5087H73.2619C73.6964 82.5087 74.0519 82.7926 74.0519 83.2388C74.6445 87.1732 76.3036 89.1201 83.9673 89.1201C90.0508 89.1201 92.658 87.7005 92.658 84.3339C92.658 82.387 91.947 81.0079 82.4266 80.0345C74.526 79.2232 69.588 77.4386 69.588 70.9488C69.588 64.9458 74.526 61.3359 82.7822 61.3359C92.0655 61.3359 96.6084 64.6213 97.2009 71.76C97.2009 72.0034 97.1219 72.2468 96.9639 72.409C96.8059 72.5713 96.6084 72.6929 96.3713 72.6929H92.6185C92.2235 72.6929 91.9075 72.409 91.8284 72.044C90.9594 67.9473 88.7077 66.6088 82.7822 66.6088C76.1061 66.6088 75.316 69.0019 75.316 70.7866C75.316 72.9363 76.2641 73.6258 85.2314 74.8021C94.1591 75.9784 98.3465 77.7225 98.3465 84.0905C98.2675 90.6208 93.0531 94.3524 83.8488 94.3524L83.9278 94.393Z" fill="#D2D2D2"/>
</g>
<rect x="57" y="125" width="36" height="30" rx="4" fill="#FCD0C2"/>
<path d="M82.2012 147.191V151H67.3184V147.777L74.1738 140.57C74.7793 139.877 75.2676 139.257 75.6387 138.71C76.0098 138.153 76.2783 137.65 76.4443 137.201C76.6201 136.752 76.708 136.347 76.708 135.985C76.708 135.37 76.6152 134.857 76.4297 134.447C76.2539 134.027 75.9902 133.71 75.6387 133.495C75.2969 133.28 74.8721 133.173 74.3643 133.173C73.8564 133.173 73.4121 133.319 73.0312 133.612C72.6504 133.905 72.3525 134.306 72.1377 134.813C71.9326 135.321 71.8301 135.893 71.8301 136.527H66.8789C66.8789 135.219 67.1963 134.022 67.8311 132.938C68.4756 131.854 69.3691 130.99 70.5117 130.346C71.6543 129.691 72.9775 129.364 74.4814 129.364C76.0537 129.364 77.3721 129.608 78.4365 130.097C79.501 130.585 80.3018 131.293 80.8389 132.221C81.3857 133.139 81.6592 134.247 81.6592 135.546C81.6592 136.288 81.542 137.001 81.3076 137.685C81.0732 138.368 80.7363 139.047 80.2969 139.721C79.8574 140.385 79.3203 141.068 78.6855 141.771C78.0605 142.475 77.3477 143.222 76.5469 144.013L73.793 147.191H82.2012Z" fill="#242424"/>
<defs>
<clipPath id="clip0_405_16929">
<rect width="70" height="81" fill="white" transform="translate(40 37)"/>
</clipPath>
</defs>
</svg>
