<svg width="150" height="174" viewBox="0 0 150 174" fill="none" xmlns="http://www.w3.org/2000/svg">
<path d="M74.6359 1.73576L147.772 44.3212V129.514L74.6359 172.1L1.5 129.514V44.3212L74.6359 1.73576Z" fill="#282828" stroke="#FF9800" stroke-width="3" stroke-linejoin="round"/>
<path d="M58.775 114C43.2788 114 31 101.783 31 87C31 72.2168 43.5675 60 58.775 60H91.225C106.721 60 119 72.2168 119 87C119 101.783 106.433 114 91.225 114H58.775ZM90.6475 104.336C100.589 104.336 108.77 96.3832 108.77 86.7193C108.77 77.0554 100.589 69.1025 90.6475 69.1025H59.655C49.7138 69.1025 41.5325 77.0554 41.5325 86.7193C41.5325 96.3832 49.7138 104.336 59.655 104.336H90.6475Z" fill="#D2D2D2"/>
</svg>
