<svg width="151" height="175" viewBox="0 0 151 175" fill="none" xmlns="http://www.w3.org/2000/svg">
<path d="M75.8106 1.94083L149.509 44.6446V130.062L75.8106 172.765L2.11206 130.062V44.6446L75.8106 1.94083Z" fill="#282828" stroke="#FCD0C2" stroke-width="3" stroke-linejoin="round"/>
<path d="M25.8093 105.987H33.8059C34.1625 105.987 34.4681 105.73 34.519 105.369L36.3017 96.0016H42.5156C45.1133 96.0531 47.7109 95.7443 50.2067 94.9722C52.244 94.3031 54.0776 93.1708 55.6057 91.6781C56.9809 90.4428 58.1524 88.9502 59.0182 87.3032C59.8841 85.7076 60.4953 83.9576 60.8519 82.1561C61.9724 78.3473 61.1575 74.1782 58.7636 71.0385C55.9622 68.1562 52.0912 66.715 48.1184 67.0238H32.8382C32.4816 67.0238 32.1251 67.3327 32.0742 67.693L25.0453 105.06C25.0453 105.06 24.9434 105.524 25.0453 105.73C25.249 105.935 25.5037 106.038 25.8093 105.987ZM40.3255 74.2812H45.4189C47.3544 74.0238 49.3408 74.5385 50.9197 75.7738C51.7856 76.7003 51.9384 78.4503 51.48 80.9208C51.2253 83.1341 50.2067 85.1929 48.5768 86.6855C46.5394 87.9723 44.1965 88.5899 41.8026 88.384H37.7278L40.3255 74.2812ZM90.2408 69.3915C87.4903 67.3327 84.0778 66.4062 80.6652 66.7665H74.604L76.2849 57.7077C76.2849 57.7077 76.3867 57.2445 76.2849 57.0386C76.0811 56.9871 75.9283 56.9871 75.7246 57.0386H67.728C67.3714 57.0386 67.0658 57.296 67.0149 57.6562L59.986 95.0752C59.986 95.0752 59.8841 95.4869 59.986 95.6928C60.0879 95.8987 60.3425 96.0016 60.5463 96.0016H68.3901C68.7466 96.0016 69.0522 95.6928 69.1032 95.3325L73.0251 74.3841H78.6788C80.9708 74.3841 81.7857 74.8988 82.0404 75.2076C82.4479 76.237 82.4479 77.3694 82.0404 78.3988L78.9334 95.0752C78.9334 95.0752 78.8316 95.4869 78.9334 95.6928C79.0862 95.8987 79.29 96.0016 79.4937 96.0016H87.4394C87.7959 96.0016 88.1525 95.6928 88.2034 95.3325L91.4632 77.8326C92.5328 75.0017 92.0744 71.8106 90.2408 69.3915ZM113.263 66.7665H97.3206C96.9131 66.7665 96.6075 67.0238 96.5566 67.4356L89.1202 105.06C89.1202 105.06 89.0184 105.524 89.1202 105.73C89.273 105.884 89.4768 105.987 89.6805 105.987H97.9827C98.3393 105.987 98.6958 105.73 98.7467 105.369L100.631 96.0016H107.1C109.799 96.0531 112.448 95.6928 115.046 94.9722C117.287 94.3546 119.324 93.2222 121.056 91.6781C122.482 90.4428 123.704 88.9502 124.621 87.3032C125.487 85.7076 126.149 83.9576 126.506 82.1561C127.626 78.2958 126.811 74.1782 124.367 71.0385C121.463 68.0533 117.389 66.5091 113.263 66.7665ZM116.421 81.0238C116.115 83.237 115.046 85.2958 113.365 86.7884C111.277 88.0752 108.832 88.6929 106.387 88.487H102.312L105.063 74.2812H110.156C112.193 74.0238 114.231 74.5385 115.911 75.7738C116.726 76.7003 116.726 78.4503 116.421 81.0238Z" fill="#D9D9D9"/>
<rect x="58" y="124" width="36" height="30" rx="4" fill="#FCD0C2"/>
<path d="M72.5371 140.493L68.6113 139.57L69.9004 128.672H82.3662V132.51H73.9287L73.4453 136.743C73.6797 136.606 74.0752 136.445 74.6318 136.26C75.1982 136.064 75.8232 135.967 76.5068 135.967C77.5615 135.967 78.4941 136.128 79.3047 136.45C80.125 136.763 80.8184 137.227 81.3848 137.842C81.9512 138.447 82.376 139.194 82.6592 140.083C82.9521 140.972 83.0986 141.987 83.0986 143.13C83.0986 144.048 82.9473 144.937 82.6445 145.796C82.3516 146.646 81.8975 147.412 81.2822 148.096C80.6768 148.77 79.9102 149.307 78.9824 149.707C78.0547 150.098 76.9561 150.293 75.6865 150.293C74.7393 150.293 73.8164 150.146 72.918 149.854C72.0195 149.561 71.209 149.141 70.4863 148.594C69.7734 148.037 69.207 147.368 68.7871 146.587C68.377 145.796 68.1768 144.912 68.1865 143.936H73.1523C73.1816 144.453 73.3037 144.902 73.5186 145.283C73.7334 145.664 74.0215 145.962 74.3828 146.177C74.7539 146.382 75.1787 146.484 75.6572 146.484C76.1455 146.484 76.5508 146.387 76.873 146.191C77.1953 145.996 77.4492 145.728 77.6348 145.386C77.8203 145.044 77.9521 144.653 78.0303 144.214C78.1084 143.765 78.1475 143.291 78.1475 142.793C78.1475 142.266 78.0889 141.792 77.9717 141.372C77.8643 140.952 77.6885 140.596 77.4443 140.303C77.2002 140 76.8828 139.771 76.4922 139.614C76.1113 139.458 75.6523 139.38 75.1152 139.38C74.4023 139.38 73.8408 139.502 73.4307 139.746C73.0205 139.99 72.7227 140.239 72.5371 140.493Z" fill="#242424"/>
</svg>
