<svg width="95" height="109" viewBox="0 0 95 109" fill="none" xmlns="http://www.w3.org/2000/svg">
<path d="M92.6048 80.75V28.25L47.3024 2L2 28.25V80.75L47.3024 107L92.6048 80.75Z" fill="#FCD0C2" stroke="#282828" stroke-width="3" stroke-linejoin="round"/>
<path d="M56.0549 70.9435C56.0549 72.0542 55.6751 73.02 54.8917 73.8168C54.1084 74.6137 53.1826 75 52.0669 75C50.9513 75 50.0255 74.6137 49.2421 73.8168C48.4588 73.02 48.0552 72.0783 48.0552 70.9435C48.0552 69.8086 48.4588 68.8669 49.2421 68.0701C50.0255 67.2733 50.975 66.8628 52.0669 66.8628C53.1589 66.8628 54.1084 67.2733 54.8917 68.0701C55.6514 68.8669 56.0549 69.8327 56.0549 70.9435ZM37.8479 70.9435C37.8479 72.0542 37.4444 73.02 36.661 73.8168C35.8777 74.6137 34.9281 75 33.8362 75C32.7443 75 31.7947 74.6137 31.0114 73.8168C30.228 73.02 29.8482 72.0783 29.8482 70.9435C29.8482 69.8086 30.228 68.8669 31.0114 68.0701C31.7947 67.2733 32.7205 66.8628 33.8362 66.8628C34.9519 66.8628 35.8777 67.2733 36.661 68.0701C37.4444 68.8669 37.8479 69.8327 37.8479 70.9435ZM19 34C19.9258 34.99 20.8278 35.8592 21.6824 36.5836C22.5607 37.308 23.5339 37.9841 24.6259 38.6119C25.7178 39.2397 26.8098 39.7468 27.9255 40.1814C29.0411 40.5919 30.3705 40.9782 31.9609 41.2921C33.5513 41.6302 35.1655 41.8958 36.8272 42.0648C38.4888 42.258 40.5066 42.4028 42.9041 42.5236C45.3016 42.6443 47.7466 42.7167 50.2866 42.765C52.8265 42.8133 55.8413 42.8133 59.3307 42.8375C61.5858 42.8375 63.5561 42.8857 65.2652 42.9582C66.9743 43.0306 68.4461 43.1755 69.6567 43.3687C70.8674 43.5618 71.8881 43.7792 72.6715 44.0448C73.4548 44.3104 74.0245 44.6243 74.4043 45.0106C74.7604 45.3969 74.974 45.8316 74.9978 46.2903C75.0215 46.7491 74.8553 47.2803 74.523 47.8598C74.1907 48.4635 73.7397 49.0913 73.1462 49.7674C72.5528 50.4435 71.8406 51.192 70.9623 52.013C70.084 52.8339 69.1582 53.7032 68.1375 54.5966C67.1405 55.49 66.0011 56.48 64.7667 57.5424C61.7757 60.126 59.4494 62.1543 57.8115 63.6514C58.2863 62.8062 58.9035 61.9128 59.6631 60.947C60.4464 59.9812 61.206 59.1119 61.9419 58.3392C62.7015 57.5665 63.4611 56.7456 64.2445 55.9005C65.0278 55.0554 65.6925 54.3068 66.2622 53.6307C66.8319 52.9788 67.2592 52.3027 67.5678 51.6508C67.8764 50.9988 67.9951 50.4193 67.8764 49.9122C67.7814 49.4293 67.4016 48.9706 66.7844 48.5359C66.1435 48.1013 65.194 47.7633 63.9596 47.5218C62.7253 47.2803 61.0636 47.063 58.9984 46.9423C56.9332 46.7974 54.4882 46.7733 51.6159 46.8216C48.886 46.8457 46.3461 46.7974 43.996 46.6767C41.6222 46.5318 39.557 46.3628 37.7767 46.0972C35.9964 45.8557 34.3347 45.5177 32.7917 45.083C31.2488 44.6484 30.0144 44.2379 28.9699 43.8274C27.9255 43.417 26.9285 42.8857 26.0027 42.2821C25.0769 41.6784 24.3173 41.1231 23.7713 40.6402C23.2254 40.1572 22.6794 39.5536 22.1097 38.8775C21.5637 38.1773 21.1602 37.6219 20.8753 37.1631C20.5904 36.7044 20.2818 36.149 19.902 35.4729C19.5222 34.7968 19.2136 34.3139 19 34Z" fill="#282828"/>
</svg>
