<svg width="95" height="109" viewBox="0 0 95 109" fill="none" xmlns="http://www.w3.org/2000/svg">
<path d="M92.6048 80.75V28.25L47.3024 2L2 28.25V80.75L47.3024 107L92.6048 80.75Z" fill="#FCD0C2" stroke="#282828" stroke-width="3" stroke-linejoin="round"/>
<path fill-rule="evenodd" clip-rule="evenodd" d="M38.0821 83.9904C34.4816 82.4637 31.1156 78.5748 31.1058 74.5996C31.096 70.2642 33.8905 66.5818 37.3689 64.1669C36.9487 65.7176 36.724 67.1387 37.7597 68.5262C38.7221 69.8177 40.4076 70.4419 42.0002 70.1058C45.718 69.304 45.889 65.2855 43.6857 62.9426C41.5068 60.6237 39.3963 58.0024 40.2268 54.6416C40.6421 52.9565 41.6973 51.3769 43.0311 50.2487C42.0051 52.8989 44.9217 55.5106 46.8417 56.8117C50.1735 59.0682 53.8278 60.7774 56.891 63.4227C60.1104 66.2025 62.4896 69.9618 62.0109 74.3259C61.4881 79.0549 57.6677 82.3388 53.3832 84C62.4408 82.0364 71.8061 75.1229 71.9966 65.2519C72.1579 57.1286 66.4859 50.8776 59.4607 47.296L59.0943 47.0992C59.2848 47.5601 59.3483 47.949 59.3434 48.2995C59.407 48.0402 59.4509 47.7761 59.4607 47.5025C59.4607 47.829 59.4167 48.1506 59.3337 48.4675L59.3434 48.2995C59.2408 48.7315 59.065 49.1444 58.8256 49.5189L58.9282 49.4085C57.5261 51.6938 53.735 52.1883 51.859 49.8214C48.8447 46.019 51.9225 41.9141 52.3524 37.886C52.88 32.8353 49.6557 27.9334 45.6594 25C47.8578 28.5 44.9608 33.1282 42.6402 35.7111C40.3929 38.2173 37.6571 40.3153 35.1753 42.591C32.5079 45.0395 29.9431 47.6177 27.7544 50.4887C23.3673 56.2404 20.6852 63.4755 22.6589 70.6483C24.6277 77.8163 30.9446 82.3772 38.0821 83.9904Z" fill="#282828"/>
</svg>
