<svg width="95" height="109" viewBox="0 0 95 109" fill="none" xmlns="http://www.w3.org/2000/svg">
<path d="M92.6048 80.75V28.25L47.3024 2L2 28.25V80.75L47.3024 107L92.6048 80.75Z" fill="#FCD0C2" stroke="#282828" stroke-width="3" stroke-linejoin="round"/>
<path d="M72.9707 39.9898C72.9899 40.0604 72.9998 40.1334 73 40.2066V51.5828C73 51.8799 72.8395 52.1544 72.579 52.3025L62.935 57.7998V68.6961C62.935 68.9926 62.7758 69.2665 62.5162 69.4158L42.3849 80.8895C42.3388 80.9155 42.2886 80.932 42.2382 80.9497C42.2195 80.9558 42.2016 80.9674 42.1815 80.9725C42.0409 81.0092 41.8929 81.0092 41.7522 80.9725C41.7291 80.9663 41.7082 80.9537 41.6863 80.9456C41.6401 80.929 41.5921 80.9145 41.5479 80.8895L21.421 69.4158C21.1607 69.2678 21.0002 68.9935 21 68.6961V34.5672C21 34.4925 21.0106 34.42 21.0293 34.3494C21.0355 34.3255 21.0502 34.3038 21.0586 34.2799C21.0743 34.2364 21.089 34.1918 21.112 34.1512C21.1278 34.1244 21.1508 34.1026 21.1695 34.0777C21.1937 34.0444 21.2157 34.0103 21.2439 33.9812C21.268 33.9574 21.2995 33.9399 21.3266 33.919C21.357 33.894 21.3841 33.8671 21.4188 33.8475H21.4199L31.484 28.1109C31.7434 27.963 32.0625 27.963 32.3219 28.1109L42.386 33.8477H42.3881C42.4218 33.8684 42.45 33.8944 42.4804 33.9183C42.5075 33.939 42.5379 33.9578 42.562 33.9806C42.5913 34.0107 42.6122 34.0448 42.6374 34.0781C42.6553 34.103 42.6792 34.1248 42.6941 34.1517C42.7182 34.1931 42.7318 34.2368 42.7486 34.2803C42.757 34.3042 42.7716 34.3259 42.7779 34.3509C42.797 34.4215 42.807 34.4944 42.8072 34.5676V55.8842L51.1935 51.1033V40.2059C51.1935 40.1334 51.204 40.0598 51.2228 39.9903C51.2301 39.9653 51.2437 39.9436 51.2521 39.9197C51.2689 39.8762 51.2835 39.8316 51.3066 39.7911C51.3223 39.7642 51.3454 39.7424 51.3632 39.7175C51.3885 39.6842 51.4093 39.6501 51.4386 39.6211C51.4628 39.5972 51.4932 39.5797 51.5203 39.5588C51.5518 39.5338 51.5789 39.5069 51.6125 39.4873H51.6136L61.6786 33.7505C61.9377 33.6024 62.257 33.6024 62.5164 33.7505L72.5805 39.4873C72.6161 39.508 72.6435 39.534 72.6747 39.5579C72.701 39.5786 72.7314 39.5974 72.7553 39.6202C72.7846 39.6503 72.8055 39.6844 72.8307 39.7177C72.8496 39.7426 72.8725 39.7644 72.8873 39.7913C72.9115 39.8318 72.925 39.8764 72.9418 39.9199C72.9513 39.9438 72.9649 39.9655 72.9711 39.9905L72.9707 39.9898ZM71.3224 51.1029V41.6427L67.8004 43.65L62.935 46.4236V55.8837L71.3235 51.1029H71.3224ZM61.2583 68.216V58.7496L56.4723 61.4557L42.8057 69.1782V78.7337L61.258 68.216H61.2583ZM22.6776 36.0033V68.2162L41.1281 78.7329V69.1792L31.4892 63.7783L31.486 63.7762L31.4819 63.7741C31.4493 63.7553 31.4222 63.7284 31.3918 63.7056C31.3655 63.6849 31.3354 63.6683 31.3123 63.6454L31.3102 63.6422C31.283 63.6162 31.2641 63.5842 31.241 63.5552C31.2201 63.5273 31.1949 63.5034 31.1781 63.4744L31.177 63.4712C31.1583 63.44 31.1466 63.4027 31.1331 63.3675C31.1195 63.3364 31.1016 63.3074 31.0932 63.2743V63.2732C31.0827 63.2338 31.0807 63.1924 31.0764 63.1519C31.0723 63.1207 31.0639 63.0896 31.0639 63.0587V40.7842L26.1994 38.0096L22.6774 36.0044V36.0033H22.6776ZM31.9039 29.7884L23.5187 34.5672L31.902 39.3461L40.2861 34.5663L31.9018 29.7884H31.9039ZM36.2646 59.6124L41.1291 56.84V36.0033L37.6072 38.0107L32.7417 40.7842V61.6206L36.2648 59.6122L36.2646 59.6124ZM62.0972 35.4278L53.713 40.2068L62.0972 44.9857L70.4805 40.2059L62.0972 35.428V35.4278ZM61.2583 46.4236L56.3928 43.65L52.8709 41.6427V51.1029L57.7354 53.8753L61.2585 55.8837V46.4236H61.2583ZM41.9659 67.7423L54.2637 60.7913L60.4109 57.318L52.033 52.5422L42.3869 58.0406L33.5953 63.0516L41.9659 67.7423Z" fill="#282828"/>
</svg>
