<svg width="95" height="109" viewBox="0 0 95 109" fill="none" xmlns="http://www.w3.org/2000/svg">
<path d="M92.6048 80.75V28.25L47.3024 2L2 28.25V80.75L47.3024 107L92.6048 80.75Z" fill="#FCD0C2" stroke="#282828" stroke-width="3" stroke-linejoin="round"/>
<path d="M24.6955 54.9992C24.6955 63.8273 29.8261 71.4577 37.2656 75.0736L26.6264 45.9214C25.3888 48.6948 24.6955 51.7646 24.6955 54.9992Z" fill="#282828"/>
<path d="M62.0557 53.8742C62.0557 51.1181 61.066 49.2079 60.2167 47.7224C59.0865 45.885 58.0257 44.3284 58.0257 42.4927C58.0257 40.4421 59.5805 38.5337 61.7715 38.5337C61.8703 38.5337 61.9639 38.5458 62.0609 38.551C58.0933 34.9161 52.8067 32.6956 47 32.6956C39.2087 32.6956 32.3533 36.6928 28.3649 42.7493C28.8884 42.7649 29.3807 42.7753 29.8001 42.7753C32.1332 42.7753 35.7437 42.4927 35.7437 42.4927C36.9467 42.4217 37.0871 44.188 35.8876 44.3301C35.8876 44.3301 34.6795 44.4723 33.3344 44.5433L41.4568 68.7033L46.3379 54.0648L42.8625 44.5433C41.6613 44.4723 40.5243 44.3301 40.5243 44.3301C39.3231 44.2591 39.4635 42.4217 40.6647 42.4927C40.6647 42.4927 44.348 42.7753 46.5389 42.7753C48.872 42.7753 52.4825 42.4927 52.4825 42.4927C53.6855 42.4217 53.8276 44.188 52.6264 44.3301C52.6264 44.3301 51.4148 44.4723 50.0732 44.5433L58.1332 68.5196L60.3571 61.0851C61.3208 57.9996 62.0557 55.7844 62.0557 53.8742Z" fill="#282828"/>
<path d="M47.39 56.9509L40.6976 76.3978C42.6961 76.9855 44.809 77.3061 46.9982 77.3061C49.5948 77.3061 52.0856 76.8572 54.4048 76.0425C54.3441 75.9472 54.2904 75.8449 54.2453 75.7357L47.3882 56.9527L47.39 56.9509Z" fill="#282828"/>
<path d="M66.5693 44.2989C66.6647 45.0096 66.7201 45.7723 66.7201 46.5922C66.7201 48.856 66.2972 51.4006 65.0249 54.5814L58.2129 74.2796C64.8429 70.4124 69.3045 63.2293 69.3045 55.0009C69.3045 51.1233 68.3148 47.4762 66.5728 44.2989H66.5693Z" fill="#282828"/>
<path d="M47 29C32.6636 29 21 40.664 21 54.9991C21 69.3343 32.6636 81 47 81C61.3364 81 73 69.3377 73 54.9991C73 40.664 61.3347 29 47 29ZM47 79.8074C33.3223 79.8074 22.1925 68.6773 22.1925 54.9991C22.1925 41.3209 33.3205 30.1926 47 30.1926C60.6795 30.1926 71.8057 41.3209 71.8057 54.9991C71.8057 68.6773 60.6777 79.8074 47 79.8074Z" fill="#282828"/>
</svg>
