<svg width="150" height="174" viewBox="0 0 150 174" fill="none" xmlns="http://www.w3.org/2000/svg">
<path d="M74.6359 1.73576L147.772 44.3212V129.514L74.6359 172.1L1.5 129.514V44.3212L74.6359 1.73576Z" fill="#282828" stroke="#FF9800" stroke-width="3" stroke-linejoin="round"/>
<path d="M69.9758 90.5382V90.0985C70.2167 89.4989 70.4576 88.9392 70.7387 88.3796C72.9472 83.7026 73.3488 78.386 71.7827 73.4291C71.6221 71.99 70.5379 70.7908 69.1325 70.471C66.1611 70.2711 63.1896 71.1106 60.7803 72.9095V73.629C61.0614 76.827 60.9811 80.0649 60.5394 83.2629C60.0575 86.181 60.9811 89.1391 63.029 91.2578C64.5147 92.8568 66.6028 93.7362 68.7711 93.7762C69.1325 92.6569 69.5341 91.5776 69.9758 90.5382ZM67.0043 73.3092C66.7634 73.0693 66.6429 72.7096 66.6429 72.3898C66.6831 72.1899 66.8035 72.03 67.0043 71.9101C67.6066 71.5903 68.2893 71.5103 68.9317 71.6303C69.9356 71.6303 70.9395 72.2699 70.8592 72.9894C70.5379 73.7889 69.775 74.3485 68.8916 74.3086H68.6507C68.0082 74.1886 67.4059 73.8289 67.0043 73.3092Z" fill="#D2D2D2"/>
<path d="M58.4915 82.983C58.8529 79.945 58.9332 76.8669 58.7324 73.7889V72.6696C58.5718 66.0738 60.7803 59.6379 64.9162 54.4812C60.9008 53.202 51.2636 50.4837 45.3609 54.8809C41.7469 57.4393 40.0604 62.2363 40.4218 69.0719C41.2249 75.0281 42.55 80.9443 44.4373 86.6607C47.1678 95.5351 50.2597 101.131 52.91 102.051C53.3115 102.051 54.5563 102.571 56.3633 100.412C58.9332 97.3739 61.3023 94.7755 62.3865 93.6163L61.6235 92.8568C59.0536 90.2584 57.9293 86.5808 58.4915 82.983ZM72.5456 96.5744C71.9032 96.3345 71.5819 96.1746 70.8591 97.0141C70.4174 97.4538 70.056 97.8936 69.6947 98.4132C68.2892 100.132 67.6869 100.732 63.6313 101.571C63.0691 101.651 62.5471 101.811 62.0251 102.011C62.4668 102.331 62.9888 102.531 63.5108 102.651C67.2051 103.89 71.2607 102.611 73.5495 99.4526C73.7503 99.0128 73.7503 98.4932 73.5495 98.0535C73.429 97.4538 73.0676 96.9342 72.5456 96.5744ZM97.803 73.3092C98.0038 72.2699 98.0841 71.1906 98.1242 70.1512C95.474 69.8314 92.4222 69.8714 91.2176 71.5903C88.8886 74.9082 93.4663 83.103 95.2331 86.5808C95.6346 87.1804 95.9559 87.82 96.2771 88.4995C96.4377 88.9393 96.6385 89.339 96.8794 89.7387C97.9234 87.0205 98.1644 84.0624 97.5219 81.2242C97.3211 79.8251 97.2408 78.4259 97.2408 77.0268C97.3211 75.7876 97.5219 74.5484 97.803 73.3092ZM95.5543 72.6696C95.1929 73.0294 94.7512 73.2692 94.2694 73.3492H94.0284C93.2655 73.3492 92.5427 72.8695 92.2616 72.1499C92.2616 71.5903 93.0647 71.1906 94.0284 71.0307C94.9921 70.8708 95.9559 71.0307 96.0362 71.6303C96.0362 72.03 95.8354 72.3898 95.5543 72.6696Z" fill="#D2D2D2"/>
<path d="M95.1126 58.5187C97.7628 61.4368 99.6501 64.9546 100.614 68.7921C100.614 68.992 100.614 69.1919 100.614 69.3917C100.614 70.8308 100.493 72.2299 100.252 73.629C100.052 74.7483 99.9312 75.9076 99.891 77.0668C99.891 78.386 99.9713 79.7451 100.172 81.0643C100.975 84.742 100.453 88.5795 98.7266 91.8974L99.0076 92.2172C107.922 78.2661 111.054 62.0764 108.203 58.5187C104.509 53.8816 98.847 51.2433 92.9041 51.3232C90.6956 51.3232 88.5272 51.5231 86.3589 51.9628C89.7319 53.4819 92.7033 55.7204 95.1126 58.5187Z" fill="#D2D2D2"/>
<path d="M113.785 94.9749C113.503 94.1754 112.299 91.5771 107.882 92.4965C106.557 92.7763 105.232 92.9362 103.866 93.0162C107.48 86.9001 110.291 80.3442 112.138 73.5086C113.624 67.7123 114.788 59.9572 111.697 55.9997C107.079 50.2034 100.011 46.8456 92.5829 47.0055C89.25 47.0055 85.9172 47.4452 82.7048 48.4046C80.7774 48.0848 78.8499 47.8849 76.8823 47.8449C73.429 47.765 70.0159 48.6444 67.0043 50.3234C64.6753 49.5638 62.3062 48.9642 59.8969 48.5645C54.1146 47.0854 47.9709 48.0448 42.9114 51.2028C37.9322 54.6806 35.6434 60.7567 36.0449 69.2713C36.8079 75.5873 38.1732 81.8633 40.0604 87.9394C41.1848 91.737 42.6705 95.4546 44.5176 98.9724C45.8427 102.21 48.3323 104.849 51.5447 106.288C53.9138 107.047 56.5239 106.488 58.3308 104.809C59.415 105.968 60.8204 106.807 62.3463 107.167C65.4784 108.007 68.7711 107.807 71.7827 106.608V109.845C71.7827 113.043 72.1842 116.201 73.0275 119.279C73.0275 119.439 73.0275 119.639 73.0275 119.799C73.5495 121.638 74.5534 123.357 75.8785 124.756C77.4847 126.275 79.653 127.074 81.8615 126.995C82.8252 126.995 83.7488 126.875 84.6724 126.675C88.206 126.235 91.4184 124.396 93.5466 121.598C96.2771 116.721 97.5219 111.165 97.2007 105.608V104.569H97.8833C101.176 104.809 104.469 104.249 107.52 102.97C109.327 102.05 115.19 98.9724 113.785 94.9749ZM106.517 100.851C104.228 101.771 101.778 102.25 99.2887 102.21C98.2045 102.21 97.1605 102.09 96.1165 101.811C95.7149 105.568 94.8315 112.564 94.3095 115.482C93.9883 120.359 90.1334 124.236 85.2747 124.676C84.3913 124.876 83.5079 124.956 82.6245 124.956C79.0507 124.876 75.9186 122.437 75.0352 118.96C73.9912 113.603 73.6298 108.167 73.9109 102.73C71.9433 104.489 69.4136 105.448 66.7633 105.368C65.4784 105.368 64.2336 105.168 62.9888 104.849C62.6274 104.849 59.4953 103.929 59.5355 101.93C59.5756 99.9318 62.1857 99.572 63.1494 99.3721C66.6027 98.6526 66.8437 98.3728 67.9278 97.0136C68.1688 96.6938 68.4097 96.374 68.6908 96.0542C67.1247 96.0143 65.5989 95.5745 64.2336 94.855C63.31 95.8544 60.7803 98.5726 58.0498 101.811C57.0459 103.29 55.3995 104.249 53.5926 104.329C53.1107 104.409 52.669 104.409 52.1872 104.329C48.6535 102.97 45.3207 97.1735 42.2689 86.98C40.3817 81.0638 39.0164 75.0276 38.2535 68.8715C37.8519 61.1964 39.8597 55.7599 44.1562 52.8817C51.8659 47.4452 64.2336 51.6425 67.0444 52.6419C69.8954 50.7631 73.3086 49.8437 76.7217 50.0036C78.609 50.0036 80.4963 50.2434 82.3434 50.7231C85.5558 49.6438 88.9689 49.0841 92.3821 49.1241C99.0879 48.9242 105.513 51.8824 109.729 57.119C112.5 60.6368 110.652 69.1114 109.729 72.6691C107.681 80.3442 104.388 87.6596 100.052 94.2954C100.694 94.7351 102.662 95.5346 108.083 94.2954C109.93 93.8956 111.014 94.2954 111.375 95.2947C112.259 97.4933 108.564 99.8118 106.517 100.771V100.851Z" fill="#D2D2D2"/>
<path d="M96.8393 93.3366C95.8354 92.1373 94.9922 90.7782 94.3497 89.3391C94.3497 89.0593 93.8678 88.3797 93.4261 87.6202C91.0972 83.6227 86.2384 74.7484 89.4107 70.2713C91.579 67.9527 94.8316 67.0333 97.9235 67.8328C96.8794 64.9946 95.3536 62.3563 93.386 60.0777C89.3303 55.0809 83.267 52.1628 76.8021 52.0828C72.9874 51.843 69.2931 53.2421 66.5626 55.8804C63.1494 59.8779 61.1819 64.9147 61.0212 70.1913L61.6236 69.8715C63.3101 68.9921 65.117 68.3925 67.0043 68.1926C70.1364 67.473 73.2684 69.4318 73.9912 72.5498C73.9912 72.6697 74.0314 72.8296 74.0715 72.9495C75.7179 78.3461 75.3163 84.1824 72.9071 89.2991C72.626 89.8188 72.4252 90.3385 72.2244 90.8581V91.2979C71.8229 92.3772 71.4615 93.3765 71.2206 94.216C71.9835 94.0561 72.7866 94.176 73.5094 94.4958C74.714 95.0555 75.6376 96.1348 75.999 97.4539V98.0935C75.999 98.0935 75.999 98.3334 75.999 98.4533C75.5573 105.009 75.8785 111.565 76.8824 118.041C77.565 121.279 80.7774 123.357 84.0299 122.638C84.3512 122.558 84.6322 122.478 84.9133 122.398C88.8886 122.118 91.9806 118.92 92.101 114.963C92.7034 111.445 93.908 101.571 94.0686 99.4527C94.0686 95.2154 96.1567 94.3759 97.4416 94.0161L96.8393 93.3366Z" fill="#D2D2D2"/>
<path d="M99.1281 96.2945L98.8068 96.0547H98.325C97.2809 96.3345 96.3172 96.6143 96.4377 99.2527C97.6423 99.7324 98.8871 99.8923 100.172 99.7324C102.059 99.6524 103.947 99.2527 105.713 98.5731C106.878 98.0534 107.962 97.3339 108.886 96.4944C105.713 97.6137 102.26 97.5338 99.1281 96.2945Z" fill="#D2D2D2"/>
</svg>
