<svg width="270" height="311" viewBox="0 0 270 311" fill="none" xmlns="http://www.w3.org/2000/svg">
<path d="M7.37983 76.2843L130.115 3.33553C133.574 1.27928 137.881 1.27651 141.343 3.32832L262.608 75.1926C265.95 77.1734 268 80.7705 268 84.6557V225.986C268 229.868 265.954 233.462 262.616 235.444L140.899 307.713C137.48 309.743 133.231 309.77 129.787 307.783L7.50363 237.245C4.09817 235.281 2 231.648 2 227.717V85.7402C2 81.86 4.04431 78.2668 7.37983 76.2843Z" fill="#05050A" fill-opacity="0.7" stroke="#F6F4EF" stroke-width="2.5" stroke-linejoin="round" stroke-dasharray="12 12"/>
<path d="M96 221.083V123C96 120.791 97.7909 119 100 119H158.213C159.142 119 160.042 119.323 160.758 119.915L173.084 130.083C174.005 130.843 174.538 131.975 174.538 133.169V221.083C174.538 223.292 172.748 225.083 170.538 225.083H100C97.7909 225.083 96 223.292 96 221.083Z" stroke="#F6F4EF" stroke-width="3"/>
<path d="M158.533 119V132.4H174.539" stroke="#F6F4EF" stroke-width="3"/>
<path d="M108.656 194.561H129.5M108.656 203.866H159.277M108.656 212.799H160.394" stroke="#F6F4EF" stroke-width="3"/>
<path d="M113.046 143.924C114.152 144.576 135.027 156.899 135.027 156.899L157.66 143.896L135.027 131L113 143.897L113.046 143.924Z" fill="#A5270E"/>
<path d="M157.659 143.897L157.705 169.226L135.094 182.328L135.027 156.899L157.659 143.897Z" fill="#600606"/>
<path d="M113.046 143.924L135.027 156.899L135.094 182.328L113.224 169.463L113.046 143.924Z" fill="#FF5500"/>
<rect x="145.361" y="198.475" width="54.6394" height="38.9098" rx="6" fill="#D9D9D9"/>
<path d="M157.287 217.465L165.514 220.44V223.945L154.338 219.211V216.727L157.287 217.465ZM165.514 215.033L157.274 218.06L154.338 218.758V216.275L165.514 211.54V215.033Z" fill="#05050A"/>
<path d="M176.639 206.961L169.731 227.412H166.963L173.87 206.961H176.639Z" fill="#05050A"/>
<path d="M186.806 217.982L178.514 215.02V211.54L189.781 216.275V218.771L186.806 217.982ZM178.514 220.466L186.819 217.439L189.781 216.727V219.211L178.514 223.945V220.466Z" fill="#05050A"/>
<path d="M72.2954 96.2505H66.1885V93.0439H72.2954C73.3589 93.0439 74.2183 92.8721 74.8735 92.5283C75.5288 92.1846 76.0068 91.7119 76.3076 91.1104C76.6191 90.498 76.7749 89.7998 76.7749 89.0156C76.7749 88.2744 76.6191 87.5815 76.3076 86.937C76.0068 86.2817 75.5288 85.7554 74.8735 85.3579C74.2183 84.9604 73.3589 84.7617 72.2954 84.7617H67.4292V105H63.3848V81.5391H72.2954C74.1108 81.5391 75.6523 81.8613 76.9199 82.5059C78.1982 83.1396 79.1704 84.0205 79.8364 85.1484C80.5024 86.2656 80.8354 87.5439 80.8354 88.9834C80.8354 90.498 80.5024 91.7979 79.8364 92.8828C79.1704 93.9678 78.1982 94.8003 76.9199 95.3804C75.6523 95.9604 74.1108 96.2505 72.2954 96.2505ZM84.4609 81.5391H92.7593C94.5425 81.5391 96.0625 81.8076 97.3193 82.3447C98.5762 82.8818 99.5376 83.6768 100.204 84.7295C100.88 85.7715 101.219 87.0605 101.219 88.5967C101.219 89.7676 101.004 90.7988 100.574 91.6904C100.145 92.582 99.5376 93.334 98.7534 93.9463C97.9692 94.5479 97.0347 95.0151 95.9497 95.3481L94.7251 95.9443H87.2646L87.2324 92.7378H92.8237C93.7905 92.7378 94.5962 92.5659 95.2407 92.2222C95.8853 91.8784 96.3687 91.4111 96.6909 90.8203C97.0239 90.2188 97.1904 89.542 97.1904 88.79C97.1904 87.9736 97.0293 87.2646 96.707 86.6631C96.3955 86.0508 95.9121 85.5835 95.2568 85.2612C94.6016 84.9282 93.769 84.7617 92.7593 84.7617H88.5054V105H84.4609V81.5391ZM97.8511 105L92.3403 94.4619L96.5781 94.4458L102.169 104.791V105H97.8511ZM123.955 92.625V93.9141C123.955 95.6865 123.724 97.2764 123.262 98.6836C122.8 100.091 122.139 101.289 121.28 102.277C120.431 103.265 119.411 104.022 118.218 104.549C117.026 105.064 115.705 105.322 114.254 105.322C112.815 105.322 111.499 105.064 110.307 104.549C109.125 104.022 108.099 103.265 107.229 102.277C106.359 101.289 105.682 100.091 105.199 98.6836C104.726 97.2764 104.49 95.6865 104.49 93.9141V92.625C104.49 90.8525 104.726 89.2681 105.199 87.8716C105.671 86.4644 106.337 85.2666 107.197 84.2783C108.067 83.2793 109.093 82.522 110.274 82.0063C111.467 81.48 112.783 81.2168 114.222 81.2168C115.672 81.2168 116.994 81.48 118.186 82.0063C119.378 82.522 120.404 83.2793 121.264 84.2783C122.123 85.2666 122.784 86.4644 123.246 87.8716C123.718 89.2681 123.955 90.8525 123.955 92.625ZM119.91 93.9141V92.5928C119.91 91.2822 119.781 90.1274 119.523 89.1284C119.276 88.1187 118.906 87.2754 118.412 86.5986C117.928 85.9111 117.332 85.3955 116.623 85.0518C115.914 84.6973 115.114 84.52 114.222 84.52C113.331 84.52 112.536 84.6973 111.837 85.0518C111.139 85.3955 110.543 85.9111 110.049 86.5986C109.565 87.2754 109.195 88.1187 108.937 89.1284C108.679 90.1274 108.55 91.2822 108.55 92.5928V93.9141C108.55 95.2246 108.679 96.3848 108.937 97.3945C109.195 98.4043 109.571 99.2583 110.065 99.9565C110.57 100.644 111.171 101.165 111.87 101.52C112.568 101.863 113.363 102.035 114.254 102.035C115.157 102.035 115.957 101.863 116.655 101.52C117.354 101.165 117.944 100.644 118.428 99.9565C118.911 99.2583 119.276 98.4043 119.523 97.3945C119.781 96.3848 119.91 95.2246 119.91 93.9141ZM134.815 105H129.804L129.836 101.793H134.815C136.265 101.793 137.479 101.477 138.457 100.843C139.445 100.209 140.186 99.3013 140.68 98.1196C141.185 96.938 141.438 95.5308 141.438 93.8979V92.625C141.438 91.3574 141.292 90.2349 141.002 89.2573C140.723 88.2798 140.304 87.458 139.746 86.792C139.198 86.126 138.521 85.6211 137.715 85.2773C136.92 84.9336 136.002 84.7617 134.96 84.7617H129.707V81.5391H134.96C136.518 81.5391 137.941 81.8022 139.23 82.3286C140.519 82.8442 141.631 83.5908 142.565 84.5684C143.511 85.5459 144.236 86.7168 144.741 88.0811C145.246 89.4453 145.498 90.9707 145.498 92.6572V93.8979C145.498 95.5845 145.246 97.1099 144.741 98.4741C144.236 99.8384 143.511 101.009 142.565 101.987C141.62 102.954 140.492 103.7 139.182 104.227C137.882 104.742 136.426 105 134.815 105ZM132.043 81.5391V105H127.999V81.5391H132.043ZM162.723 81.5391H166.751V97.2173C166.751 99.0005 166.365 100.494 165.591 101.697C164.818 102.9 163.765 103.808 162.433 104.42C161.112 105.021 159.635 105.322 158.002 105.322C156.315 105.322 154.812 105.021 153.49 104.42C152.169 103.808 151.127 102.9 150.364 101.697C149.612 100.494 149.236 99.0005 149.236 97.2173V81.5391H153.265V97.2173C153.265 98.3452 153.458 99.2744 153.845 100.005C154.231 100.725 154.779 101.256 155.488 101.6C156.197 101.944 157.035 102.116 158.002 102.116C158.969 102.116 159.801 101.944 160.5 101.6C161.208 101.256 161.756 100.725 162.143 100.005C162.53 99.2744 162.723 98.3452 162.723 97.2173V81.5391ZM185.008 97.3623H189.036C188.907 98.8984 188.478 100.268 187.747 101.471C187.017 102.664 185.991 103.604 184.669 104.291C183.348 104.979 181.742 105.322 179.852 105.322C178.401 105.322 177.096 105.064 175.936 104.549C174.776 104.022 173.782 103.281 172.955 102.325C172.128 101.358 171.494 100.193 171.054 98.8286C170.624 97.4644 170.409 95.939 170.409 94.2524V92.3027C170.409 90.6162 170.629 89.0908 171.07 87.7266C171.521 86.3623 172.166 85.1968 173.003 84.23C173.841 83.2524 174.846 82.5059 176.017 81.9902C177.198 81.4746 178.525 81.2168 179.997 81.2168C181.866 81.2168 183.445 81.5605 184.734 82.248C186.023 82.9355 187.022 83.8862 187.731 85.1001C188.451 86.314 188.891 87.7051 189.052 89.2734H185.024C184.917 88.2637 184.68 87.3989 184.315 86.6792C183.96 85.9595 183.434 85.4116 182.736 85.0356C182.038 84.6489 181.125 84.4556 179.997 84.4556C179.073 84.4556 178.267 84.6274 177.58 84.9712C176.892 85.3149 176.317 85.8198 175.855 86.4858C175.394 87.1519 175.044 87.9736 174.808 88.9512C174.583 89.918 174.47 91.0244 174.47 92.2705V94.2524C174.47 95.4341 174.572 96.5083 174.776 97.4751C174.991 98.4312 175.313 99.2529 175.743 99.9404C176.183 100.628 176.742 101.16 177.418 101.536C178.095 101.912 178.906 102.1 179.852 102.1C181.001 102.1 181.93 101.917 182.639 101.552C183.359 101.187 183.901 100.655 184.267 99.9565C184.643 99.2476 184.89 98.3828 185.008 97.3623ZM201.878 81.5391V105H197.866V81.5391H201.878ZM209.242 81.5391V84.7617H190.567V81.5391H209.242Z" fill="#F6F4EF"/>
</svg>
