<svg width="95" height="109" viewBox="0 0 95 109" fill="none" xmlns="http://www.w3.org/2000/svg">
<path d="M92.8387 80.9533V28.3178L47.4194 2L2 28.3178V80.9533L47.4194 107.271L92.8387 80.9533Z" fill="#FCD0C2" stroke="#282828" stroke-width="3" stroke-linejoin="round"/>
<path d="M33.9015 55.1759C33.8744 60.4306 37.7954 63.5888 44.096 62.1556V48.1962C37.7413 46.2853 33.9285 50.1335 33.9015 55.1759ZM44.2853 28H52.9385V68.18C44.6369 69.5069 36.7138 70.3562 31.0351 67.2511C23.7069 63.2172 23.112 50.4785 28.9259 44.7992C31.8734 41.9064 37.7684 39.8895 44.1231 41.2164V28.5573C44.1231 28.2919 44.096 28.0265 44.3124 28M67 36.864H58.3468V28H67V36.864Z" fill="#282828"/>
<path d="M66.973 41.3492C66.973 47.6124 66.973 52.0975 66.973 59.6876C66.5944 67.1451 66.7026 73.0898 63.8903 76.6725C63.3495 77.3891 62.1867 78.3976 61.1862 79.1141C60.3749 79.7245 58.8065 80.9453 57.9142 80.9984C57.0218 81.0515 54.7233 79.7776 53.6957 79.2999C52.3166 78.663 51.0727 77.8403 49.6666 77.4156C52.9656 75.4252 56.0754 73.9125 57.3463 69.8786C58.455 66.3489 58.2928 61.2534 58.2928 56.2906C58.2928 51.3278 58.2928 45.675 58.2928 41.3492H66.973Z" fill="#282828"/>
</svg>
