<svg width="152" height="175" viewBox="0 0 152 175" fill="none" xmlns="http://www.w3.org/2000/svg">
<path d="M75.9241 1.73362L149.623 44.4374V129.854L75.9241 172.558L2.22559 129.854V44.4374L75.9241 1.73362Z" fill="#282828" stroke="#FCD0C2" stroke-width="3" stroke-linejoin="round"/>
<path d="M65.5092 75.8459H84.2413C84.2413 75.8459 94.7537 76.0201 94.7537 65.6114V48.4087C94.7537 48.4087 96.3544 38 75.6755 38C54.9967 38 57.1165 46.6231 57.1165 46.6231V55.5946H76.0216V58.2948H49.6755C49.6755 58.2948 37 56.8576 37 76.9347C37 97.0117 48.0749 96.3149 48.0749 96.3149H54.6506V86.995C54.6506 86.995 54.3045 75.8894 65.5092 75.8894V75.8459ZM65.2496 50.8476C63.3894 50.8476 61.8752 49.3233 61.8752 47.4506C61.8752 45.5779 63.3894 44.0101 65.2496 44.0101C67.1098 44.0101 68.624 45.5343 68.624 47.4506C68.624 49.3668 67.1098 50.8476 65.2496 50.8476Z" fill="#D9D9D9"/>
<path d="M97.3061 57.7286V67.0486C97.3061 67.0486 97.6522 78.1541 86.4476 78.1541H67.7155C67.7155 78.1541 57.203 77.9799 57.203 88.3886V105.591C57.203 105.591 55.6023 116 76.2812 116C96.9601 116 94.8403 107.377 94.8403 107.377V98.4489H75.9351V95.7487H102.324C102.324 95.7487 115 97.1859 115 77.1089C115 57.0318 103.925 57.7286 103.968 57.7286H97.3061ZM86.6639 103.196C88.5241 103.196 90.0383 104.72 90.0383 106.593C90.0383 108.466 88.5241 109.99 86.6639 109.99C84.8037 109.99 83.2895 108.466 83.2895 106.593C83.2895 104.72 84.8037 103.196 86.6639 103.196Z" fill="#D9D9D9"/>
<rect x="58" y="123" width="36" height="30" rx="4" fill="#FCD0C2"/>
<path d="M72.5371 139.493L68.6113 138.57L69.9004 127.672H82.3662V131.51H73.9287L73.4453 135.743C73.6797 135.606 74.0752 135.445 74.6318 135.26C75.1982 135.064 75.8232 134.967 76.5068 134.967C77.5615 134.967 78.4941 135.128 79.3047 135.45C80.125 135.763 80.8184 136.227 81.3848 136.842C81.9512 137.447 82.376 138.194 82.6592 139.083C82.9521 139.972 83.0986 140.987 83.0986 142.13C83.0986 143.048 82.9473 143.937 82.6445 144.796C82.3516 145.646 81.8975 146.412 81.2822 147.096C80.6768 147.77 79.9102 148.307 78.9824 148.707C78.0547 149.098 76.9561 149.293 75.6865 149.293C74.7393 149.293 73.8164 149.146 72.918 148.854C72.0195 148.561 71.209 148.141 70.4863 147.594C69.7734 147.037 69.207 146.368 68.7871 145.587C68.377 144.796 68.1768 143.912 68.1865 142.936H73.1523C73.1816 143.453 73.3037 143.902 73.5186 144.283C73.7334 144.664 74.0215 144.962 74.3828 145.177C74.7539 145.382 75.1787 145.484 75.6572 145.484C76.1455 145.484 76.5508 145.387 76.873 145.191C77.1953 144.996 77.4492 144.728 77.6348 144.386C77.8203 144.044 77.9521 143.653 78.0303 143.214C78.1084 142.765 78.1475 142.291 78.1475 141.793C78.1475 141.266 78.0889 140.792 77.9717 140.372C77.8643 139.952 77.6885 139.596 77.4443 139.303C77.2002 139 76.8828 138.771 76.4922 138.614C76.1113 138.458 75.6523 138.38 75.1152 138.38C74.4023 138.38 73.8408 138.502 73.4307 138.746C73.0205 138.99 72.7227 139.239 72.5371 139.493Z" fill="#242424"/>
</svg>
