<svg width="94" height="108" viewBox="0 0 94 108" fill="none" xmlns="http://www.w3.org/2000/svg">
<path d="M92 80.2243V28.0748L47 2L2 28.0748V80.2243L47 106.299L92 80.2243Z" fill="#FCD0C2" stroke="#282828" stroke-width="3" stroke-linejoin="round"/>
<path d="M51.652 71C52.0419 71 51.652 71.3158 51.652 71ZM42.9449 63.8949C43.9585 64.3423 42.1391 62.316 42.9449 63.8949ZM29.8711 64.6317C30.261 65.3159 29.8711 64.3159 29.8711 64.6317ZM44.4264 65.658C43.7246 64.5528 43.9066 65.8159 44.4264 66.5001C45.674 67.7369 44.8942 65.8159 44.4264 65.658Z" fill="#282828"/>
<path d="M68.4428 73.0264C67.0652 74.6843 65.8436 72.8422 64.2061 73.3685C61.3471 73.3685 64.4401 72.0527 64.3621 70.737C62.8546 69.5528 61.1391 72.3422 60.1515 73.1053C57.7602 72.6843 55.421 71.9475 53.2117 70.9212C50.6386 69.7107 48.3513 67.9738 46.4539 65.816C44.3486 63.6844 42.6852 61.1319 41.5935 58.3424C40.19 53.4215 39.4622 48.3426 39.4102 43.2374C39.5922 39.8164 43.153 43.6058 44.6085 42.369C44.0627 40.6059 41.2556 40.0533 39.6961 39.3164C38.1886 39.3164 37.6428 37.8691 36.0573 37.7638C36.0573 35.8428 33.1203 36.8954 32.0026 35.5533C33.0943 32.7113 28.4418 35.5533 28.8057 33.1586C30.3132 30.0008 24.1792 30.5271 26.7264 33.3165C29.1956 34.7375 24.3091 35.7638 25.7387 36.7112C26.1286 37.4743 25.8426 38.4217 25.0889 38.7901C24.855 38.8954 24.621 38.9743 24.3611 38.9743C22.4378 39.1585 22.6197 41.8427 24.5171 40.4217C26.6224 39.7638 24.881 40.7111 23.8673 40.8953C22.0219 41.1848 20.7743 42.9216 21.0342 44.79C21.0862 45.1847 21.2162 45.5532 21.3981 45.8953C22.4118 48.8426 23.2695 51.8425 23.9973 54.8951C25.6087 59.5003 27.974 63.816 31.015 67.6054C32.6004 69.6317 34.4978 71.4212 36.6291 72.8685C38.5785 74.2369 40.7098 75.3158 42.9451 76.079C46.9478 77.2632 51.0804 77.9211 55.2391 78C57.7602 78 60.2814 77.8158 62.7766 77.3684C65.0379 77.6053 66.6493 75.6579 68.6507 76.6842C69.8983 75.579 71.6657 76.079 72.8873 75.2632C73.719 72.0527 69.7163 74.5527 68.4428 73.0264ZM63.9202 71.0791C64.0502 70.1843 63.3484 71.0791 63.9202 71.0791ZM44.0887 42.1322C43.8288 42.1322 43.8808 41.8164 43.6728 41.7374C41.5935 40.7638 44.6865 41.1322 44.0887 42.2374V42.1322ZM61.659 72.1054C62.3867 71.4475 60.7493 71.8948 61.659 72.1054ZM54.3554 72.3948C54.8232 72.0264 53.7575 72.3948 54.3554 72.3948ZM49.4689 69.2896C49.4689 68.9475 49.1311 69.2896 49.4689 69.2896ZM48.8971 68.8423C48.6632 68.237 47.9614 68.8423 48.8971 68.8423ZM47.8055 67.8949C47.8055 67.0002 46.9478 68.1054 47.8055 67.8949ZM32.2106 37.2112C30.833 36.4744 32.4965 38.0796 31.3269 38.0533C30.7031 38.0533 29.5334 36.6849 29.9233 36.0007C30.7031 36.4217 32.0806 36.5533 32.3145 37.3165L32.2106 37.2112ZM29.8194 35.0796H29.5334C29.4555 34.3691 31.7947 34.9218 29.9233 35.1849L29.8194 35.0796ZM27.1682 33.0007C26.0766 32.5007 27.1682 30.5534 28.3118 31.4744C29.6374 33.3955 25.8426 31.2639 27.1682 33.0007ZM28.4418 34.8165C28.8577 34.2639 27.74 35.106 28.4418 34.8165ZM29.6894 37.2375C31.2489 38.448 28.8057 37.2375 27.818 38.0007C26.2325 38.1585 29.5334 37.1059 29.6894 37.2375ZM30.1313 38.8164C31.041 38.8164 35.0177 37.0007 33.6921 38.6322C34.9137 40.0796 33.952 39.6059 33.1463 38.6322C33.874 39.1322 33.3022 41.2638 32.1846 39.8164C31.0669 38.3691 30.885 39.3427 31.7427 40.369C30.911 38.6585 28.5198 39.3954 26.7783 39.9743C25.6607 39.869 29.7154 39.0006 30.1313 38.8164ZM25.1409 42.6322C24.725 43.6848 25.7647 44.0269 26.7524 44.2111C28.3638 43.7637 25.6867 43.4742 26.9083 43.0532C27.5841 43.0532 24.777 42.369 27.1162 42.0532C29.4555 41.7374 31.6647 40.6848 34.03 40.1848C36.0313 39.7375 38.0847 39.5796 40.138 39.6848C40.9177 40.6059 39.5402 42.1585 38.1366 42.3164C36.4472 42.869 34.7058 43.2111 32.9383 43.3427C30.859 43.0795 29.3775 44.9479 27.2462 45.1847C27.818 44.1321 26.7783 44.8163 25.7127 44.7637C26.2585 46.9216 21.8919 44.2111 24.4651 43.6848C22.5417 43.0006 22.5157 45.0532 22.7237 46.3163C21.0342 43.9216 22.9056 42.9216 25.1409 42.6322ZM30.0273 45.4742C30.4691 44.9479 29.4555 45.3426 30.0273 45.4742ZM28.1559 47.79C28.1559 47.79 27.2722 47.5794 27.6361 47.3426C30.2352 47.6847 25.2968 46.4742 27.974 46.7637C29.6894 46.711 29.1176 47.711 28.1559 47.79ZM29.0136 48.2373C29.0136 47.6058 28.7017 48.5531 29.0136 48.2373ZM27.1682 48.2373C27.714 47.6584 26.0246 48.0005 27.1682 48.2373ZM27.0123 52.0004C26.8303 52.2636 26.7524 51.7899 27.0123 52.0004ZM26.2325 51.5531C26.2325 51.0004 24.803 51.0531 26.2325 51.5531ZM25.9206 54.9214C25.2448 54.6846 25.2708 53.6057 24.9589 53.0267C23.9713 50.3162 26.0246 54.0793 25.8167 54.9214H25.9206ZM26.5184 51.0004C26.3885 49.711 24.725 50.7899 26.5184 51.0004ZM26.5184 50.1057H26.2845C24.3091 49.1847 27.4541 49.6584 26.2325 50.1057H26.5184ZM26.2325 48.0268C27.74 47.0795 24.647 47.211 26.2325 48.0268ZM26.7783 48.711C26.9083 47.8689 25.8946 48.8689 26.7783 48.711ZM23.3994 48.8952C23.3994 48.29 23.0875 49.1057 23.3994 48.8952ZM23.6334 48.5268C23.6334 47.8163 23.2175 48.5268 23.6334 48.5268ZM23.8413 45.8953C24.699 45.2374 22.8016 45.6321 23.8413 45.8953ZM24.5171 51.1583C24.2052 49.4478 23.3735 50.8952 24.5171 51.1583ZM25.2968 54.4478C26.3885 55.7898 25.9726 56.5267 27.0902 58.1582C25.6347 57.2372 25.3488 55.0004 24.4911 53.553C23.4254 51.1846 25.0889 53.5267 25.2968 54.4478ZM35.9274 71.237C35.0436 71.0527 34.4458 70.1054 33.822 69.5001C32.0546 68.1844 30.6511 66.4212 29.7414 64.395C28.2339 62.4476 26.9603 60.3687 25.9466 58.1319C24.881 55.7109 26.5964 58.3161 26.8563 59.2371C27.4021 61.0266 29.1436 62.0529 29.2995 63.2371C31.2229 64.3423 30.2352 66.1844 31.8987 66.6844C32.6004 66.316 32.6784 68.8949 34.2119 68.3686C33.3542 68.7633 34.5498 69.237 34.9917 69.9738C35.9014 69.8422 38.0327 72.1317 35.9274 71.3422V71.237ZM27.844 54.4478C28.7017 54.1583 27.0383 54.2635 27.844 54.4478ZM28.3638 55.6846C29.7154 55.1583 26.9343 55.3162 28.3638 55.6846ZM31.9766 56.9214C33.0163 56.474 32.3925 58.974 33.4062 59.2898C35.3815 61.9213 32.0286 59.2898 30.807 59.1056C30.963 59.1056 29.8194 58.7898 30.3132 58.6845C29.9493 58.2898 29.1436 56.9477 30.989 57.8424C32.5485 58.474 32.6784 58.0003 31.9766 56.8161V56.9214ZM35.3815 61.5529C35.3815 61.9476 33.5101 61.895 35.2256 62.6581C34.2379 62.6581 33.926 62.6581 35.2256 63.4476C34.6538 63.895 36.3432 64.2634 35.7714 64.9476C37.4869 66.316 35.4595 65.2897 34.7317 64.7371C34.004 64.1844 32.5225 63.816 32.7824 63.4213C34.8877 64.5265 33.3282 63.4213 32.3925 62.6318C34.082 63.0529 31.0669 61.3687 32.6524 61.8161C33.1463 61.9476 31.9507 60.8161 33.5101 61.6318C32.1066 60.2634 34.7318 61.3161 35.3815 61.4476V61.5529ZM36.6291 61.1055C36.6291 60.2108 35.0436 60.7371 36.6291 61.1055ZM36.1873 66.3686C37.2009 66.3686 34.6018 65.6844 36.1873 66.3686ZM35.0177 65.9213C36.3692 65.9213 33.1723 65.316 35.0177 65.9213ZM34.7837 66.2107C34.7837 65.7634 34.2119 66.2107 34.7837 66.2107ZM31.9766 62.1318C31.4568 61.2634 30.1053 61.3424 31.9766 62.1318ZM30.5731 61.2108C30.3652 60.3424 29.0656 60.3424 30.5731 61.2108ZM30.5731 62.9213C30.3912 62.2634 29.0916 61.7634 30.5731 62.9213ZM30.1832 59.395C30.5211 58.8687 29.2735 59.395 30.1832 59.395ZM36.6291 68.6054C36.6291 68.237 35.3036 68.2107 36.6291 68.6054ZM35.6674 67.6054H35.2516C33.4842 66.1844 36.0573 66.6055 37.2009 67.237C39.7221 67.6054 36.6291 68.2633 35.6674 67.6054ZM42.6852 71.9475C43.101 71.237 40.9177 71.5264 42.6852 71.9475ZM42.2433 70.5791C42.1133 70.5791 41.9834 70.2896 42.2433 70.5791ZM40.008 67.0528C38.4745 66.6844 40.5539 66.5528 40.9437 67.0528C43.5949 67.6054 40.7878 67.737 40.008 67.0528ZM40.5539 70.237H40.2679L39.9301 70.0791C38.4745 68.5265 43.023 70.8159 40.5539 70.237ZM39.8261 72.0527C39.8261 71.6843 39.4362 72.2106 39.8261 72.0527ZM40.5798 68.9212L40.164 68.7896C38.4485 67.6054 42.3473 69.0265 40.5798 68.7896V68.9212ZM40.9957 73.4474C41.6715 72.7896 39.956 73.0264 40.9957 73.4474ZM41.2556 71.5001C42.1913 71.158 39.7481 71.1317 41.2556 71.5001ZM41.5935 69.8949C41.7235 69.3422 40.4499 69.737 41.5935 69.8949ZM39.7221 67.5791C40.9177 67.737 40.9437 68.2896 39.7221 67.9475C39.4882 67.9475 39.0983 67.9475 38.9944 67.5002C37.019 66.1844 39.0723 66.8423 39.7221 67.4475V67.5791ZM39.5662 72.8422C39.5662 72.2632 39.0463 73.158 39.5662 72.8422ZM38.7604 71.5001C39.8001 70.8159 37.3829 71.5001 38.7604 71.5001ZM38.4485 72.4211C38.8904 72.2106 37.7728 72.158 38.4485 72.4211ZM39.2283 70.0791C39.8781 69.6054 37.8767 69.7107 39.2283 70.0791ZM38.8124 68.5791C38.6565 68.1581 38.0847 68.5791 38.8124 68.5791ZM37.4089 66.0791C40.4759 67.0791 35.9274 64.8686 37.4089 66.0791ZM37.2529 66.5791C37.2529 66.737 36.967 66.3423 37.2529 66.5791ZM46.7398 76.5263C44.4266 76.1053 42.1913 75.3422 40.086 74.2895L39.2283 73.7632C37.7468 72.9475 37.9287 72.7632 39.3842 73.579C39.8781 74.0001 43.5169 75.5 41.8014 74.5001C41.0477 74.3159 36.8631 72.0001 39.6182 73.0001C41.9054 74.2369 44.2966 75.2895 46.7398 76.1842C48.8192 76.6842 50.9505 76.8158 53.0558 76.579C54.7452 77.4474 56.5126 76.3685 58.2541 77.1316C54.3813 77.6053 50.4826 77.3947 46.6879 76.5263H46.7398ZM43.4909 74.6843C43.9068 74.079 42.1653 74.4474 43.4909 74.6843ZM45.3883 72.0527C46.9478 71.4475 43.8808 71.7633 45.3883 72.0527ZM47.5716 75.5C50.1707 76.4737 46.0121 75.8158 45.1543 75.2632C42.7631 74.2632 47.0257 75.5 47.5716 75.5ZM44.8165 72.6054C47.1557 72.6054 42.7111 72.2896 44.8165 72.6054ZM48.7672 74.8422C48.7672 74.0527 48.0134 75.4474 48.7672 74.8422ZM49.5209 74.9737C49.5209 74.5264 49.1311 75.1316 49.5209 74.9737ZM50.2227 73.9737C50.2227 73.3685 49.8068 74.5001 50.2227 73.9737ZM51.0284 73.9737C52.25 72.9474 49.8588 74.4211 51.0284 73.9737ZM51.3923 73.9737C52.6659 72.8685 52.7179 73.3948 52.6919 74.3158C51.5743 75.579 52.25 73.7895 51.5483 74.4737C50.8465 75.1579 51.0544 74.2106 51.3923 74.0264V73.9737ZM53.5496 75.1579C54.8752 73.7369 52.25 75.1579 53.5496 75.1579ZM53.5496 75.6316C53.5496 75.2895 53.0298 75.7632 53.5496 75.6316ZM53.1337 74.7106C55.5769 73.1053 52.1201 74.0264 53.1337 74.7106ZM54.6153 74.9474H54.4073C54.3294 74.3422 55.8109 74.2369 54.6153 75V74.9474ZM55.0051 75.4474C56.2267 74.3948 54.2254 75.2369 55.0051 75.4474ZM55.9408 75.1843C57.1884 74.1316 54.6153 75.6579 55.9408 75.1843ZM56.5126 75.4737L56.2007 75.6842C55.6029 75.3158 58.0461 74.4211 56.5126 75.5V75.4737ZM55.395 74.079C53.9915 73.6053 51.7562 72.079 50.1967 73.1053C48.1174 74.4474 51.2624 71.6317 49.5729 72.8948C47.8575 74.9737 48.4033 71.5791 46.7398 72.6054C46.7398 72.2896 45.2583 72.1843 46.298 71.6317C45.3623 71.6317 45.9601 71.5001 46.298 70.737C45.8821 70.737 43.6988 70.737 42.7631 69.9738C41.7235 68.6054 42.9451 69.1844 44.0107 69.3686C42.2693 69.6843 44.6345 70.6843 45.7781 70.1317C45.2583 69.8949 44.6605 68.7633 43.179 67.7633C41.3856 66.7633 39.5402 65.8949 37.6428 65.1318C35.4595 63.816 38.1106 64.6581 38.8644 65.3423C41.0477 66.316 40.19 64.0002 38.8644 63.395C37.4609 63.395 37.123 61.8424 36.0053 61.9213C37.7468 62.2108 38.9684 61.474 37.019 59.6845C35.0696 57.8951 37.7987 61.3424 36.7331 60.8424C36.2393 60.1845 36.6031 59.2635 35.0436 58.9214C35.0436 59.5266 34.8357 60.4477 34.4978 59.1845C34.056 59.1845 33.5621 59.7371 33.1982 58.4477C33.5361 56.9477 31.7427 56.6056 31.4568 55.6583C33.0163 56.6582 33.7181 55.8688 32.6264 54.7899C31.5348 53.7109 31.7687 54.5004 31.3529 54.7899C29.8194 56.3688 31.1969 52.1583 30.5211 53.3162C29.8453 53.3162 30.2352 54.0793 30.2612 55.0267C28.0259 54.4741 30.781 56.2109 31.4308 57.1582C30.4172 56.1056 30.5991 57.974 29.7414 57.1582C29.4555 56.3688 29.4295 55.132 27.9999 54.9214C29.6114 54.3425 27.0643 53.2109 27.2722 53.1583C28.1819 52.3162 28.3118 51.1583 29.4035 52.9741C28.0259 52.9741 29.4035 55.2898 29.7154 54.553C29.7154 53.3162 30.2872 51.9215 28.1819 51.4215C27.5581 52.2636 26.4924 49.7636 27.714 50.2899C27.5581 48.6321 29.6374 49.6057 29.5075 48.8952C30.5991 48.4215 28.2079 46.8689 29.5075 46.2637C30.4951 46.8952 33.0423 45.3163 31.3269 45.1058C32.4185 45.1058 33.2762 45.5795 33.3802 44.4742C34.2379 44.6584 36.6031 45.4216 34.4718 44.2374C35.4075 43.8427 36.3952 43.6321 37.4089 43.5795C39.4622 41.9743 39.0463 46.211 38.5785 47.3952C39.3582 46.8426 39.2023 49.8689 38.9424 51.0004C39.3582 50.4215 39.5402 51.9478 38.9424 53.0267C38.9424 52.8425 39.982 52.6846 39.2543 53.9478C38.6825 52.7109 38.4485 56.5793 38.8124 54.7899C39.7741 53.1846 39.5402 54.7899 39.8261 55.4214C40.034 56.8688 40.6578 58.2109 40.8657 59.5266C41.7755 60.4477 40.4759 59.8161 40.4759 61.0792C40.7618 60.7108 41.9834 61.5792 41.9574 62.8687C41.9574 60.8161 42.1913 62.395 43.179 62.8687C43.8548 64.2371 44.7125 65.5002 45.7781 66.6054C46.7398 67.737 45.7781 66.9475 46.142 67.6317C47.4416 69.4475 49.391 70.658 51.5743 71.0001C52.406 72.4475 54.0435 73.1843 55.6549 72.8422C54.0954 73.8159 60.0215 74.079 58.0202 74.6053C57.4223 75.0264 56.4087 74.079 55.395 74.1316V74.079ZM38.4485 64.6844C38.4485 64.1581 37.8247 64.6844 38.4485 64.6844ZM39.4362 65.2634C39.1243 64.6318 38.9684 65.2634 39.4362 65.2634ZM32.6524 55.6583C32.9123 55.4214 32.0286 55.4741 32.6524 55.6583ZM31.1189 55.6583C31.1189 54.7635 30.4431 55.6583 31.1189 55.6583ZM30.3392 55.4477C30.3392 55.1583 30.0793 55.5793 30.3392 55.4477ZM58.9299 77.1579C59.7616 76.579 57.9162 76.9737 58.9299 77.1579ZM60.8272 74.3948H60.0475C60.2034 73.2106 63.5044 74.1316 64.8559 74.158C64.4401 75.0527 61.9189 74.2632 60.8272 74.5001V74.3948ZM66.0255 74.3948C66.3374 73.5527 65.3238 74.3948 66.0255 74.3948ZM68.6247 74.158C68.6247 73.3685 67.9749 74.5001 68.6247 74.158ZM69.8723 74.4474C68.5207 74.1316 70.4961 74.1316 70.912 74.079C73.3552 74.1316 70.9119 74.5001 69.6903 74.5001L69.8723 74.4474Z" fill="#282828"/>
<path d="M32.7565 41.5794C35.3556 41.0531 31.7688 40.711 30.9631 41.5794C31.4309 41.9215 32.0287 41.0268 32.7565 41.5794ZM30.6252 41.9215C31.093 41.3426 30.6252 42.4215 30.6252 41.9215ZM37.435 40.6584C39.1764 40.3689 37.7209 39.5795 37.201 40.9215C37.383 41.29 37.487 40.79 37.435 40.6584ZM35.8235 40.9215C38.2407 41.8689 35.6935 38.29 35.8235 40.9215ZM28.234 43.3689C28.5459 43.3689 28.8318 43.4478 29.0917 43.632C31.0411 45.0004 28.8318 41.4215 28.234 43.3689Z" fill="#282828"/>
<path d="M28.338 42.4215C29.0918 41.8689 28.7539 42.7636 28.338 42.4215ZM29.2997 42.4479L29.6636 42.7636C31.431 42.9215 29.3777 41.5531 29.2997 42.4479ZM43.6211 64.9738C43.855 65.7633 43.6211 63.9475 43.6211 64.9738ZM31.1971 51.8161C31.665 51.3425 31.457 52.2898 31.1971 51.8161ZM31.431 53.4214C31.9249 54.3161 31.431 52.0793 31.431 53.4214ZM31.9768 52.1319C32.8346 52.6845 31.2491 50.7635 31.9768 52.1319ZM30.9112 49.9741C31.0931 50.3688 31.535 50.3951 31.8729 50.5004C35.3038 52.1056 29.4037 47.8688 30.9112 49.9741ZM32.3147 53.7372C33.1205 55.1319 32.7826 52.7635 32.3147 53.7372ZM33.5623 53.3161C34.524 55.7371 32.9645 53.0003 32.7826 52.1845C32.7826 53.1056 33.0425 54.0266 33.5103 54.8161C34.3941 56.1582 34.0042 54.0793 34.9399 55.4213C34.4201 54.2371 35.1998 54.895 35.0958 54.3687C34.9919 53.8424 32.4967 51.2898 33.5623 53.3161ZM34.498 58.0002C34.9659 58.0002 34.732 58.816 34.498 58.0002ZM31.0412 46.5531C31.3271 46.5531 31.1971 46.9215 31.0412 46.5531ZM32.7826 47.6583C33.6143 48.7372 33.2244 46.711 32.7826 47.6583ZM30.4693 50.6583L30.8332 51.053C33.4064 51.8161 28.1041 48.553 30.4693 50.6583ZM32.2887 49.6846C34.8879 50.7635 32.0548 48.9741 31.1451 49.1583C31.431 49.5004 31.9768 49.3425 32.2887 49.6846ZM31.8209 48.5267C32.2887 49.0004 33.9522 49.8688 32.6266 48.6846C33.4584 48.5267 32.6266 48.2636 32.0028 47.8425C30.8592 46.0794 32.1848 48.0004 31.8209 48.5267Z" fill="#282828"/>
<path d="M30.1571 50.8687C28.7796 49.7108 30.573 51.4213 30.0012 51.395C28.5716 50.3424 29.1694 51.1055 30.0012 51.9213C30.8589 53.2371 31.5606 51.1318 30.1571 50.8687ZM35.7193 52.5529C36.0312 52.8423 35.5633 50.7634 35.7193 52.5529ZM38.3704 43.3425C38.5524 43.0793 38.3704 43.6583 38.3704 43.3425ZM39.2282 55.6844C39.2282 56.237 39.2282 55.2107 39.2282 55.6844ZM38.4744 52.4739C38.7343 50.4213 38.6823 53.6844 38.4744 52.4739ZM38.8383 53.0529V53.316C39.3841 51.9739 38.9422 51.2371 38.8383 53.0529ZM38.5784 45.9477C38.2145 47.7898 37.8766 47.0266 38.3704 45.6582C38.2405 43.8951 37.2008 46.7372 37.6687 47.5529C38.4224 48.7898 39.2281 44.5004 38.5784 45.9477ZM41.2035 61.6843C41.5414 62.6053 41.4894 60.579 41.2035 61.6843ZM37.6946 50.4213C37.6946 50.9476 37.6946 50.0529 37.6946 50.4213ZM39.3581 54.8949C39.644 53.8949 39.3581 55.5791 39.3581 54.8949ZM40.5277 59.7106L40.7097 60.0001C41.0735 58.7107 39.774 57.9212 40.5277 59.7106ZM36.473 58.3422C37.1748 58.9212 36.1352 57.737 36.473 58.3422ZM39.67 56.1054C39.8779 56.8686 39.67 55.0002 39.67 56.1054ZM36.9929 48.6845C37.3828 49.5529 36.8629 47.974 36.9929 48.6845Z" fill="#282828"/>
<path d="M37.409 49.7897C38.0328 50.6844 36.7332 48.1055 37.409 49.7897ZM37.2531 52.816C36.9152 50.1844 36.1614 54.0001 37.2531 54.6317C37.591 55.5264 37.9029 55.158 38.0328 54.1317C37.2011 54.1317 38.2407 52.5002 37.2531 52.816Z" fill="#282828"/>
</svg>
