<svg width="94" height="108" viewBox="0 0 94 108" fill="none" xmlns="http://www.w3.org/2000/svg">
<path d="M92 80.2243V28.0748L47 2L2 28.0748V80.2243L47 106.299L92 80.2243Z" fill="#FCD0C2" stroke="#282828" stroke-width="3" stroke-linejoin="round"/>
<path d="M57.1336 51.9405C53.6924 49.3332 50.3088 46.7706 46.8364 44.141C46.8364 44.7689 46.8192 45.3139 46.8504 45.8558C46.8566 45.961 47.0468 46.0661 47.1636 46.1538C49.5778 47.977 51.992 49.797 54.4078 51.6186C54.5371 51.7158 54.6618 51.8178 54.8317 51.9517C50.1638 55.5088 45.5209 59.0452 40.864 62.5944C36.2336 59.1042 31.6203 55.6267 26.9743 52.1254C27.1333 51.9963 27.2548 51.8943 27.3811 51.7971C33.6745 47.0256 39.9694 42.2556 46.255 37.4761C46.5168 37.2769 46.6789 37.2833 46.9345 37.4761C53.3511 42.3305 59.7754 47.1754 66.1966 52.0234C66.301 52.1015 66.3976 52.1907 66.527 52.2975C57.9628 58.7823 49.4235 65.2479 40.8718 71.7247C32.2562 65.2272 23.6608 58.7424 15 52.2098C25.7103 44.1218 36.3785 36.0641 47.0577 28C57.7056 35.9637 68.3333 43.9131 79 51.8911C78.8613 52.009 78.7584 52.1063 78.6478 52.1907C66.0501 61.7417 53.4508 71.2928 40.8531 80.8454C40.6801 80.9761 40.5539 81.086 40.3216 80.9044C37.7454 78.8995 35.1597 76.9074 32.5772 74.9121C32.5305 74.8754 32.4759 74.8499 32.3762 74.7893C33.4641 73.9495 34.4818 73.151 35.5151 72.3717C36.0621 71.9589 36.6419 71.594 37.1874 71.178C37.4305 70.9932 37.5926 70.9916 37.8404 71.1828C38.8395 71.9605 39.8572 72.7112 40.8983 73.4953C50.2153 66.4288 59.5182 59.3719 68.8554 52.2895C68.3193 51.8847 67.8221 51.5086 67.325 51.1325C60.6326 46.0741 53.9417 41.0157 47.2494 35.9557C46.8078 35.6221 46.3672 35.6221 45.9277 35.9557C39.0779 41.1512 32.2281 46.3482 25.3783 51.5437C25.143 51.7222 24.9123 51.9054 24.6458 52.1126C25.3051 52.6099 25.9332 53.0848 26.5628 53.5581C31.159 57.0148 35.752 60.4763 40.3513 63.9267C41.0355 64.4399 40.7923 64.4192 41.4531 63.9171C46.4561 60.1066 51.4512 56.2881 56.4494 52.4712C56.6614 52.3102 56.8702 52.1461 57.1383 51.9373L57.1336 51.9405ZM36.4907 51.7668C36.3427 52.2561 36.4954 52.527 36.8492 52.774C37.6628 53.343 38.4436 53.9581 39.2416 54.5526C39.3257 54.6163 39.4255 54.6594 39.547 54.7311C39.5689 54.2944 39.5985 53.9199 39.5969 53.5454C39.5969 53.4354 39.5283 53.2681 39.4442 53.225C38.4717 52.7326 37.4913 52.2577 36.4923 51.77L36.4907 51.7668ZM45.4789 51.7668C44.4783 52.2577 43.4933 52.7358 42.5145 53.2234C42.4491 53.2569 42.3711 53.3541 42.3711 53.4211C42.3774 53.8482 42.4039 54.2737 42.4272 54.7757C43.3733 54.0681 44.2305 53.4019 45.1157 52.7756C45.4648 52.5286 45.6378 52.2656 45.4789 51.7652V51.7668Z" fill="#282828"/>
</svg>
