<svg width="149" height="173" viewBox="0 0 149 173" fill="none" xmlns="http://www.w3.org/2000/svg">
<path d="M74.0383 1.73576L146.577 43.9732V128.47L74.0383 170.708L1.5 128.47V43.9732L74.0383 1.73576Z" fill="#282828" stroke="#FF9800" stroke-width="3" stroke-linejoin="round"/>
<path d="M111.782 105.749C107.4 108.053 84.7355 117.477 79.9181 120.014C75.1008 122.551 72.4102 122.525 68.605 120.687C64.7998 118.849 40.6617 108.998 36.3184 106.901C34.1403 105.853 33 104.973 33 104.131V95.7566C33 95.7566 64.4026 88.8445 69.4762 87.0064C74.5499 85.1684 76.3051 85.1036 80.6228 86.6958C84.9405 88.2879 110.731 92.9995 114.998 94.5787V102.837C114.998 103.665 114.011 104.597 111.782 105.749Z" fill="#BCBBBB"/>
<path d="M111.782 97.3743C107.4 99.6784 84.7355 109.102 79.9182 111.639C75.1008 114.176 72.4102 114.15 68.605 112.312C64.7998 110.474 40.6617 100.623 36.3184 98.5264C31.975 96.4294 31.8854 94.9797 36.1518 93.297L69.4762 80.2623C74.5499 78.4242 76.3051 78.3595 80.6228 79.9516C84.9405 81.5437 107.464 90.6046 111.731 92.2097C115.997 93.8147 116.164 95.0832 111.782 97.3873V97.3614V97.3743Z" fill="#D2D2D2"/>
<path d="M111.782 92.0934C107.4 94.3974 84.7355 103.821 79.9181 106.358C75.1008 108.895 72.4102 108.869 68.605 107.031C64.7998 105.193 40.6617 95.3423 36.3184 93.2454C34.1403 92.1969 33 91.3167 33 90.4754V82.1005C33 82.1005 64.4026 75.1884 69.4762 73.3504C74.5499 71.5123 76.3051 71.4476 80.6228 73.0397C84.9405 74.6318 110.731 79.3435 114.998 80.9226V89.1809C114.998 90.0094 114.011 90.9413 111.782 92.0934Z" fill="#BCBBBB"/>
<path d="M111.782 83.7186C107.4 86.0226 84.7355 95.4459 79.9182 97.983C75.1008 100.52 72.4102 100.494 68.605 98.6561C64.7998 96.818 40.6617 86.9676 36.3184 84.8706C31.975 82.7737 31.8854 81.3239 36.1518 79.6412L69.4762 66.6065C74.5499 64.7685 76.3051 64.7038 80.6228 66.2959C84.9405 67.888 107.464 76.9489 111.731 78.528C115.997 80.1072 116.164 81.4016 111.782 83.7057V83.7186Z" fill="#D2D2D2"/>
<path d="M111.782 77.9326C107.4 80.2367 84.7355 89.66 79.9181 92.197C75.088 94.734 72.4102 94.7081 68.605 92.8701C64.7998 91.032 40.6617 81.1816 36.3184 79.0847C34.1403 78.0362 33 77.156 33 76.3146V67.9398C33 67.9398 64.4026 61.0277 69.4762 59.1896C74.5499 57.3516 76.3051 57.2868 80.6228 58.879C84.9405 60.4711 110.731 65.1827 114.998 66.7619V75.0202C114.998 75.8486 114.011 76.7806 111.782 77.9326Z" fill="#BCBBBB"/>
<path d="M111.782 69.5576C107.4 71.8616 84.7355 81.2849 79.9182 83.8219C75.1008 86.359 72.4102 86.3331 68.605 84.495C64.7998 82.6569 40.6617 72.8065 36.3184 70.7096C31.975 68.6126 31.8854 67.1629 36.1518 65.4802L69.4762 52.4455C74.5499 50.6074 76.3051 50.5427 80.6228 52.1348C84.9405 53.727 107.464 62.7878 111.731 64.367C115.997 65.9462 116.164 67.2406 111.782 69.5446V69.5576Z" fill="#D2D2D2"/>
<path d="M76.0489 66.1015L73.4736 61.7911L65.2738 61.0403L71.398 58.814L69.5659 55.3838L75.2929 57.649L80.6997 55.8627L79.2391 59.4094L84.7483 61.4934L77.6504 62.2441L76.0617 66.1144L76.0489 66.1015ZM62.3527 74.6963L81.3531 71.7451L75.6132 80.2493L62.3527 74.6963Z" fill="#BCBBBB"/>
<path d="M57.2406 71.5898C62.8518 71.5898 67.4007 69.8106 67.4007 67.6159C67.4007 65.4212 62.8518 63.6421 57.2406 63.6421C51.6294 63.6421 47.0806 65.4212 47.0806 67.6159C47.0806 69.8106 51.6294 71.5898 57.2406 71.5898Z" fill="#BCBBBB"/>
<path d="M104.377 67.0335L93.1403 71.5121V62.5419L104.377 67.0335Z" fill="#A5A4A4"/>
<path d="M93.1403 71.5251L91.9231 72.004L80.6997 67.5254L93.1403 62.5549V71.5251Z" fill="#BCBBBB"/>
<rect x="41" y="103" width="101" height="23" rx="4" fill="#FDF8F8"/>
<path d="M52.5078 109.625V121H50.1719V109.625H52.5078ZM63.9609 109.625V121H61.6172L57.0469 113.375V121H54.7031V109.625H57.0469L61.625 117.258V109.625H63.9609ZM71.0547 109.625H73.0391L75.9609 117.977L78.8828 109.625H80.8672L76.7578 121H75.1641L71.0547 109.625ZM69.9844 109.625H71.9609L72.3203 117.766V121H69.9844V109.625ZM79.9609 109.625H81.9453V121H79.6016V117.766L79.9609 109.625ZM91.6328 119.172V121H85.5781V119.172H91.6328ZM86.3438 109.625V121H84V109.625H86.3438ZM90.8438 114.258V116.039H85.5781V114.258H90.8438ZM91.625 109.625V111.461H85.5781V109.625H91.625ZM94.0703 109.625H96.0547L98.9766 117.977L101.898 109.625H103.883L99.7734 121H98.1797L94.0703 109.625ZM93 109.625H94.9766L95.3359 117.766V121H93V109.625ZM102.977 109.625H104.961V121H102.617V117.766L102.977 109.625ZM116.359 115.047V115.586C116.359 116.451 116.242 117.227 116.008 117.914C115.773 118.602 115.443 119.188 115.016 119.672C114.589 120.151 114.078 120.518 113.484 120.773C112.896 121.029 112.242 121.156 111.523 121.156C110.81 121.156 110.156 121.029 109.562 120.773C108.974 120.518 108.464 120.151 108.031 119.672C107.599 119.188 107.263 118.602 107.023 117.914C106.789 117.227 106.672 116.451 106.672 115.586V115.047C106.672 114.177 106.789 113.401 107.023 112.719C107.258 112.031 107.589 111.445 108.016 110.961C108.448 110.477 108.958 110.107 109.547 109.852C110.141 109.596 110.794 109.469 111.508 109.469C112.227 109.469 112.88 109.596 113.469 109.852C114.062 110.107 114.573 110.477 115 110.961C115.432 111.445 115.766 112.031 116 112.719C116.24 113.401 116.359 114.177 116.359 115.047ZM113.992 115.586V115.031C113.992 114.427 113.938 113.896 113.828 113.438C113.719 112.979 113.557 112.594 113.344 112.281C113.13 111.969 112.87 111.734 112.562 111.578C112.255 111.417 111.904 111.336 111.508 111.336C111.112 111.336 110.76 111.417 110.453 111.578C110.151 111.734 109.893 111.969 109.68 112.281C109.471 112.594 109.312 112.979 109.203 113.438C109.094 113.896 109.039 114.427 109.039 115.031V115.586C109.039 116.185 109.094 116.716 109.203 117.18C109.312 117.638 109.474 118.026 109.688 118.344C109.901 118.656 110.161 118.893 110.469 119.055C110.776 119.216 111.128 119.297 111.523 119.297C111.919 119.297 112.271 119.216 112.578 119.055C112.885 118.893 113.143 118.656 113.352 118.344C113.56 118.026 113.719 117.638 113.828 117.18C113.938 116.716 113.992 116.185 113.992 115.586ZM118.047 109.625H122.289C123.159 109.625 123.906 109.755 124.531 110.016C125.161 110.276 125.646 110.661 125.984 111.172C126.323 111.682 126.492 112.31 126.492 113.055C126.492 113.664 126.388 114.188 126.18 114.625C125.977 115.057 125.688 115.419 125.312 115.711C124.943 115.997 124.508 116.227 124.008 116.398L123.266 116.789H119.578L119.562 114.961H122.305C122.716 114.961 123.057 114.888 123.328 114.742C123.599 114.596 123.802 114.393 123.938 114.133C124.078 113.872 124.148 113.57 124.148 113.227C124.148 112.862 124.081 112.547 123.945 112.281C123.81 112.016 123.604 111.812 123.328 111.672C123.052 111.531 122.706 111.461 122.289 111.461H120.391V121H118.047V109.625ZM124.406 121L121.812 115.93L124.289 115.914L126.914 120.891V121H124.406ZM129.484 109.625L131.859 114.812L134.234 109.625H136.789L133.047 116.859V121H130.672V116.859L126.922 109.625H129.484Z" fill="#282828"/>
</svg>
