<svg width="95" height="109" viewBox="0 0 95 109" fill="none" xmlns="http://www.w3.org/2000/svg">
<path d="M92.6048 80.75V28.25L47.3024 2L2 28.25V80.75L47.3024 107L92.6048 80.75Z" fill="#FCD0C2" stroke="#282828" stroke-width="3" stroke-linejoin="round"/>
<path d="M47.6279 31V35.016L74 39.5526V36.4065L47.6279 31ZM73.8778 67.3014V43.3156L67.8875 42.3326L62.7074 51.9942L57.2573 41.0267L50.1307 39.9875V70.4199L56.7844 69.3945V53.0766L62.6003 63.9172H62.7216L68.239 53.1189V68.2992L73.8787 67.3024L73.8778 67.3014ZM47.6279 79L74 73.6073V70.4474L47.6289 74.9978L47.6279 79Z" fill="#282828"/>
<path d="M47.6279 31V35.016L20 39.5526V36.4065L47.6279 31ZM20.1281 67.3014V43.3156L26.4036 42.3326L31.8303 51.9942L37.54 41.0267L45.0059 39.9875V70.4199L38.0354 69.3945V53.0766L31.9425 63.9172H31.8154L26.0353 53.1189V68.2992L20.1271 67.3024L20.1281 67.3014ZM47.6279 79L20 73.6073V70.4474L47.6269 74.9978L47.6279 79Z" fill="#282828"/>
</svg>
