<svg width="151" height="175" viewBox="0 0 151 175" fill="none" xmlns="http://www.w3.org/2000/svg">
<path d="M75.1985 1.73362L148.897 44.4374V129.854L75.1985 172.558L1.5 129.854V44.4374L75.1985 1.73362Z" fill="#282828" stroke="#FCD0C2" stroke-width="3" stroke-linejoin="round"/>
<path d="M108.821 112.968L112.999 56.8036L111.362 65.9968L96.0038 91.7608L90.6958 97.5272L53.3956 116.793C70.9243 115.567 90.508 114.228 108.826 112.976L108.821 112.968Z" fill="#D9D9D9"/>
<path d="M111.362 65.9968L89.81 48.2871L83.957 68.3851C107.759 70.3992 102.988 66.509 111.362 65.9968ZM62.0624 88.0509L91.0296 97.1646L91.1008 97.0872L83.957 68.3851L62.0624 88.0509ZM42.7691 92.1569C52.3074 122.196 54.6919 128.679 62.0624 88.0509L42.5523 92.5891L42.7691 92.1569ZM80.2718 41.8039L101.299 42.02L89.81 48.2871C87.4255 46.7744 82.006 43.1006 80.2718 41.8039ZM38.8671 80.271L38 101.666L42.9859 92.373L38.8671 80.271ZM85.0409 45.4778C90.6771 51.0965 84.8241 64.7113 73.5516 75.7328C62.2792 86.7542 47.9718 93.6697 42.3356 88.0509C36.9161 82.4559 42.4873 68.6012 53.7923 57.5798C65.0973 46.5583 79.6323 39.859 85.0517 45.4778H85.0409Z" fill="#D9D9D9"/>
<path d="M62.0624 88.0509L90.8939 97.3431C80.4885 107.068 61.0869 116.036 53.3913 116.793L62.0624 88.0509Z" fill="#C6C6C6"/>
<path d="M83.957 68.3851L91.1107 97.127C99.7818 88.0505 107.46 78.0988 111.362 65.9968L83.957 68.3851Z" fill="#EAEAEA"/>
<path d="M111.362 65.9968C114.18 57.1364 114.831 44.17 100.957 41.7928L89.4675 48.0599L111.362 65.9968Z" fill="#C2BFBF"/>
<path d="M38 101.666C38.4336 116.361 48.8389 116.577 53.3913 116.793L42.7691 92.3727L38 101.666Z" fill="#C6C6C6"/>
<path d="M62.0624 88.0509L73.5321 109.16C80.469 105.486 86.2605 102.135 91.0296 97.1646L62.0624 88.0509Z" fill="#C2BFBF"/>
<path d="M42.7691 92.3727L41.0349 112.038C44.0698 116.361 48.4054 116.577 52.9577 116.361C49.706 108.365 43.2027 92.1566 42.7691 92.3727Z" fill="#C2BFBF"/>
<rect x="57" y="123.793" width="36" height="30" rx="4" fill="#FCD0C2"/>
<path d="M71.8154 137.063H74.2178C74.833 137.063 75.3359 136.956 75.7266 136.741C76.127 136.516 76.4248 136.204 76.6201 135.804C76.8154 135.393 76.9131 134.91 76.9131 134.353C76.9131 133.924 76.8203 133.528 76.6348 133.167C76.459 132.805 76.1855 132.517 75.8145 132.303C75.4434 132.078 74.9697 131.966 74.3936 131.966C74.0029 131.966 73.6221 132.049 73.251 132.215C72.8799 132.371 72.5723 132.596 72.3281 132.888C72.0938 133.181 71.9766 133.538 71.9766 133.958H67.0254C67.0254 132.747 67.3574 131.712 68.0215 130.852C68.6953 129.983 69.5791 129.319 70.6729 128.86C71.7764 128.391 72.9629 128.157 74.2324 128.157C75.7461 128.157 77.0742 128.391 78.2168 128.86C79.3594 129.319 80.248 130.003 80.8828 130.911C81.5273 131.809 81.8496 132.923 81.8496 134.251C81.8496 134.983 81.6787 135.672 81.3369 136.316C80.9951 136.961 80.5166 137.527 79.9014 138.015C79.2861 138.504 78.5635 138.889 77.7334 139.173C76.9131 139.446 76.0146 139.583 75.0381 139.583H71.8154V137.063ZM71.8154 140.74V138.279H75.0381C76.1025 138.279 77.0742 138.401 77.9531 138.645C78.832 138.88 79.5889 139.231 80.2236 139.7C80.8584 140.169 81.3467 140.75 81.6885 141.443C82.0303 142.127 82.2012 142.913 82.2012 143.802C82.2012 144.798 82.001 145.686 81.6006 146.468C81.2002 147.249 80.6387 147.908 79.916 148.445C79.1934 148.982 78.3486 149.392 77.3818 149.676C76.415 149.949 75.3652 150.086 74.2324 150.086C73.3438 150.086 72.4551 149.969 71.5664 149.734C70.6777 149.49 69.8672 149.119 69.1348 148.621C68.4023 148.113 67.8115 147.469 67.3623 146.687C66.9229 145.896 66.7031 144.954 66.7031 143.86H71.6543C71.6543 144.309 71.7764 144.72 72.0205 145.091C72.2744 145.452 72.6113 145.74 73.0312 145.955C73.4512 146.17 73.9053 146.277 74.3936 146.277C74.999 146.277 75.5117 146.165 75.9316 145.94C76.3613 145.706 76.6885 145.393 76.9131 145.003C77.1377 144.612 77.25 144.178 77.25 143.699C77.25 142.976 77.1279 142.4 76.8838 141.971C76.6494 141.541 76.3027 141.228 75.8438 141.033C75.3945 140.838 74.8525 140.74 74.2178 140.74H71.8154Z" fill="#242424"/>
</svg>
