<svg width="95" height="109" viewBox="0 0 95 109" fill="none" xmlns="http://www.w3.org/2000/svg">
<path d="M92.6048 80.75V28.25L47.3024 2L2 28.25V80.75L47.3024 107L92.6048 80.75Z" fill="#FCD0C2" stroke="#282828" stroke-width="3" stroke-linejoin="round"/>
<path d="M38.5121 81C37.7155 81 36.9348 80.8609 36.1774 80.5826C33.0305 79.4232 31.3619 76.122 32.2271 73.0698L32.1928 73.0565L32.3988 72.5577L48.4136 32.4381C48.6539 31.8419 48.5441 30.4288 48.4273 29.6404C48.3909 29.4529 48.3909 29.2846 48.4459 29.1104L48.4644 29.0594L48.4781 29.0262V29.011L48.4987 28.9692C48.7459 28.3246 49.5287 28 50.8059 28C52.3461 28 54.4726 28.4638 56.6445 29.2654C58.4689 29.9431 60.1306 30.7872 61.298 31.6392C62.6761 32.6329 63.2254 33.5253 62.9164 34.2892L62.8457 34.3886L62.8093 34.4217C62.7063 34.5562 62.6033 34.6867 62.466 34.7861C61.747 35.3843 60.717 36.4092 60.5433 36.873L44.3775 77.553L44.3411 77.5397C43.2101 79.6332 41.006 80.9781 38.5203 80.9868H38.5066L38.5134 81H38.5121ZM33.5064 72.7895L33.4604 72.9002C32.4372 75.5522 33.8311 78.5467 36.5826 79.565C37.2026 79.7969 37.8439 79.9049 38.4983 79.9049C40.721 79.9049 42.6869 78.613 43.5061 76.5923L43.5679 76.4578L59.4962 36.5079C59.8306 35.6467 61.4188 34.2554 61.7367 33.9904L61.7731 33.9553C61.8006 33.9222 61.8191 33.9222 61.8191 33.889C61.8191 33.7565 61.6797 33.2928 60.544 32.4646C59.4474 31.6696 57.9025 30.8746 56.1858 30.2452C54.1993 29.5211 52.1394 29.0547 50.7661 29.0547C49.8734 29.0547 49.5665 29.2356 49.5184 29.333V29.4211C49.5548 29.651 49.8549 31.7067 49.4408 32.7667L33.5064 72.7829V72.7895ZM53.9913 47.3777C53.9913 47.3777 51.7851 49.827 49.7732 50.7101C47.7592 51.5893 46.2733 51.3574 44.4633 52.3796C42.6574 53.3979 41.7441 54.8157 41.7441 54.8157L34.3853 73.2818C33.5888 75.3667 34.7698 77.8087 36.9602 78.6262C39.1575 79.4411 41.6295 78.3612 42.4809 76.2942L53.9913 47.3777ZM42.7048 69.428C42.943 69.3372 43.2198 69.428 43.3138 69.6598C43.41 69.8897 43.3138 70.1501 43.0735 70.2429C42.8352 70.3376 42.5585 70.2429 42.4644 70.013C42.3683 69.799 42.4644 69.536 42.7048 69.428ZM40.3839 65.4483C40.0357 65.5987 39.6196 65.4483 39.4754 65.1058C39.3154 64.7699 39.4754 64.3684 39.8277 64.2293C40.1799 64.0749 40.5947 64.2293 40.7389 64.5671C40.9085 64.8984 40.7574 65.2608 40.3839 65.4284V65.4483ZM41.0383 63.0281C40.7567 62.3921 41.0383 61.6521 41.6954 61.354C42.3477 61.0804 43.103 61.354 43.412 61.9834C43.6887 62.6214 43.412 63.3614 42.7597 63.6549C42.073 63.9331 41.3198 63.6549 41.0087 63.0255L41.0383 63.0275V63.0281ZM46.5912 58.0414C46.9414 57.8778 47.3582 58.0414 47.5024 58.3727C47.6624 58.7126 47.5024 59.1147 47.1522 59.2538C46.7972 59.4082 46.3811 59.2538 46.239 58.9113C46.0694 58.5754 46.239 58.1739 46.5912 58.0348V58.0414ZM43.6317 54.9959C43.8721 54.9031 44.1488 54.9959 44.2408 55.2278C44.339 55.4577 44.2408 55.7266 44.0025 55.8154C43.7643 55.9082 43.4855 55.8154 43.3962 55.5855C43.2953 55.3517 43.41 55.084 43.6317 54.9959ZM51.3477 30.5169C51.5763 29.9405 53.6205 30.1591 55.9139 31.0157C58.2005 31.8637 59.8711 33.0231 59.6445 33.5995C59.4062 34.1825 57.3627 33.9619 55.0762 33.1113C52.7759 32.2613 51.1073 31.1019 51.3408 30.5142H51.3477V30.5162V30.5169Z" fill="#282828"/>
</svg>
