<svg width="95" height="109" viewBox="0 0 95 109" fill="none" xmlns="http://www.w3.org/2000/svg">
<path d="M92.6048 80.75V28.25L47.3024 2L2 28.25V80.75L47.3024 107L92.6048 80.75Z" fill="#FCD0C2" stroke="#282828" stroke-width="3" stroke-linejoin="round"/>
<path d="M17.9409 75H39.8889C39.8889 75 35.6964 54.7082 49.5839 46.4867C52.6121 44.9244 62.2479 39.0939 78.0282 51.4611C78.5271 51.0173 79 50.6641 79 50.6641C79 50.6641 64.5531 35.3796 48.4705 37.0877C40.3879 37.8531 30.4455 45.6581 24.6118 55.9683C21.3581 61.4469 19.0172 67.8586 17.9821 74.7018L17.945 74.9945L17.9409 74.9986V75Z" fill="#282828"/>
<path d="M17.9409 74.9945H39.8889C39.8889 74.9945 35.6964 54.7027 49.5839 46.4812C52.6121 44.9189 62.2479 39.0884 78.0282 51.4556C78.5271 51.0118 79 50.6586 79 50.6586C79 50.6586 64.5531 35.3783 48.4705 37.0863C40.3604 37.8517 30.418 45.6568 24.5801 55.9669C21.3265 61.4401 18.9952 67.8573 17.978 74.7059L17.9409 74.9945ZM63.6734 38.7408L63.7833 36.7661C63.0136 36.358 62.1201 36.0062 61.1812 35.7589L61.0891 35.7355L60.9792 37.6772C61.896 37.9974 62.784 38.3546 63.6734 38.7353V38.7408Z" fill="#282828"/>
<path d="M61.0204 44.9834L60.9105 46.8385C61.9043 46.8756 62.8486 47.0075 63.76 47.2233L63.6596 47.2054L63.7696 45.3737C62.9765 45.1909 62.0376 45.0535 61.0754 44.9889L61.0204 44.9848V44.9834ZM50.7482 35.796H51.0272L50.454 34C49.5152 34 48.5887 34.0646 47.6815 34.1883L47.7873 34.1745L48.3138 35.91C48.9969 35.8372 49.7887 35.7905 50.5956 35.7905H50.7564H50.7468V35.7946L50.7482 35.796ZM52.0815 46.6338L52.7179 48.6675C53.3874 48.3061 54.1887 47.9571 55.0135 47.674L55.1331 47.6369L54.5186 45.6952C53.5468 45.9976 52.7358 46.3177 51.9578 46.6887L52.0774 46.6379L52.0815 46.6338ZM39.4587 38.8878L38.2078 36.8541C37.5164 37.221 36.792 37.6511 36.0401 38.1224L37.3185 40.1836C38.0511 39.7123 38.7439 39.2671 39.4532 38.8878H39.4587ZM45.1495 52.144L46.4828 54.2643C47.001 53.4811 47.5412 52.7981 48.1323 52.1619L48.1227 52.1715L46.8718 50.1653C46.2533 50.7658 45.6897 51.4116 45.1811 52.0987L45.1495 52.1399V52.144ZM41.1178 61.6256L43.368 63.5081C43.4958 62.2068 43.702 61.0347 43.9866 59.8942L43.9495 60.0632L41.9467 58.3867C41.658 59.2387 41.3694 60.3284 41.1453 61.4373L41.1137 61.6256H41.1178ZM28.9706 47.6369L26.9953 45.8134C26.2627 46.5458 25.5795 47.2796 24.9376 48.012L27.0723 49.9537C27.7087 49.0839 28.3273 48.3281 28.983 47.5998L28.9596 47.6273L28.9692 47.6369H28.9706ZM20.5815 60.8011L17.3883 59.5547C16.8619 60.8231 16.2887 62.2934 16 63.0904L19.1932 64.3271C19.5547 63.3281 20.1375 61.8853 20.5815 60.7997V60.8011ZM40.7192 69.1105C40.7604 70.4612 40.88 71.7447 41.0766 72.9993L41.0532 72.8206L44.3838 74.0889C44.1364 72.9443 43.8849 71.643 43.7144 70.2592L40.7178 69.1146V69.1105H40.7192Z" fill="#282828"/>
</svg>
