<svg width="151" height="175" viewBox="0 0 151 175" fill="none" xmlns="http://www.w3.org/2000/svg">
<path d="M75.1985 1.73362L148.897 44.4374V129.854L75.1985 172.558L1.5 129.854V44.4374L75.1985 1.73362Z" fill="#282828" stroke="#A5270E" stroke-width="3" stroke-linejoin="round"/>
<path d="M75 48C96.528 48 114 65.472 114 87C114 108.528 96.528 126 75 126C53.472 126 36 108.528 36 87C36 65.472 53.472 48 75 48ZM67.239 99.987C67.824 102.093 67.746 104.043 67.161 105.798L66.966 106.383C66.459 107.553 65.796 108.645 64.899 109.581C62.637 112.038 59.478 112.974 58.113 112.194C56.631 111.336 57.372 107.865 60.024 105.057C62.871 102.054 66.927 100.143 66.927 100.143L67.278 99.948L67.239 99.987ZM99.453 64.692C97.698 57.75 86.193 55.488 75.351 59.349C68.877 61.65 61.896 65.238 56.865 69.957C50.859 75.534 49.923 80.409 50.313 82.476C51.717 89.652 61.545 94.371 65.601 97.842C64.392 98.427 55.656 102.834 53.628 107.358C51.444 112.155 53.979 115.548 55.617 115.977C60.726 117.381 65.991 114.807 68.838 110.634C71.568 106.539 71.334 101.274 70.164 98.7C71.763 98.271 73.674 98.076 76.092 98.349C82.917 99.129 84.282 103.419 83.97 105.174C83.697 106.929 82.254 107.943 81.786 108.255C81.279 108.567 81.162 108.645 81.201 108.84C81.24 109.113 81.513 109.113 81.903 109.074C82.449 108.996 85.452 107.592 85.608 104.277C85.764 100.104 81.747 95.424 74.649 95.502C71.724 95.541 69.852 95.814 68.565 96.321C68.487 96.165 68.37 96.048 68.214 95.97C63.846 91.251 55.695 87.936 56.046 81.618C56.163 79.317 56.982 73.272 71.646 65.979C83.697 59.973 93.291 61.65 94.968 65.277C97.347 70.503 89.859 80.175 77.301 81.618C72.504 82.164 70.047 80.292 69.384 79.629C68.721 78.888 68.604 78.849 68.37 79.005C67.98 79.2 68.214 79.824 68.37 80.214C68.76 81.189 70.281 82.905 72.894 83.763C75.195 84.504 80.772 84.933 87.519 82.281C95.085 79.356 100.974 71.205 99.258 64.38L99.492 64.614L99.453 64.692Z" fill="#D2D2D2"/>
</svg>
