<svg width="356" height="409" viewBox="0 0 356 409" fill="none" xmlns="http://www.w3.org/2000/svg">
<path d="M332.005 299.486C335.107 297.702 337.019 294.396 337.019 290.818V119.77C337.019 116.192 335.107 112.886 332.005 111.102L183.243 25.5447C180.156 23.7694 176.358 23.7695 173.272 25.5448L24.521 111.102C21.419 112.886 19.5068 116.192 19.5068 119.77V290.818C19.5068 294.397 21.419 297.702 24.521 299.486L173.272 385.043C176.358 386.819 180.156 386.819 183.243 385.043L332.005 299.486Z" fill="#444444" stroke="#F6F4EF" stroke-opacity="0.36" stroke-width="13" stroke-linejoin="round"/>
<g filter="url(#filter0_f_503_4577)">
<path d="M285 272.75V160.25L187.5 104L90 160.25V272.75L187.5 329L285 272.75Z" fill="#05050A" fill-opacity="0.8"/>
<path d="M285 272.75V160.25L187.5 104L90 160.25V272.75L187.5 329L285 272.75Z" stroke="#05050A" stroke-width="1.5" stroke-linejoin="round"/>
</g>
<path d="M277 265.5V152.5L178.5 96L80 152.5V265.5L178.5 322L277 265.5Z" fill="#EAE4DF"/>
<path d="M51 261.5V137L132 91" stroke="url(#paint0_linear_503_4577)" stroke-width="2" stroke-linecap="round" stroke-linejoin="round"/>
<path d="M62.5 143L178 78" stroke="url(#paint1_linear_503_4577)" stroke-width="2"/>
<path d="M156 178.987C156 180.352 157.031 181.461 158.299 181.461H197.92C199.188 181.461 200.219 180.352 200.219 178.987V173.317C200.219 164.795 193.775 157.86 185.857 157.86H170.362C162.444 157.86 156 164.795 156 173.317V178.987Z" fill="#404040"/>
<path d="M177.557 154.489C171.765 154.489 167.055 149.7 167.055 143.812C167.055 137.924 171.765 133.135 177.557 133.135C183.348 133.135 188.059 137.924 188.059 143.812C188.059 149.7 183.348 154.489 177.557 154.489Z" fill="#404040"/>
<path d="M125.422 253.562H121.415L121.441 251.493H125.422C126.793 251.493 127.936 251.207 128.85 250.636C129.764 250.056 130.45 249.247 130.907 248.21C131.373 247.164 131.605 245.942 131.605 244.545V243.371C131.605 242.273 131.474 241.297 131.21 240.445C130.946 239.583 130.56 238.858 130.05 238.269C129.54 237.672 128.916 237.219 128.178 236.911C127.448 236.604 126.609 236.45 125.66 236.45H121.335V234.367H125.66C126.917 234.367 128.063 234.578 129.101 235C130.138 235.413 131.03 236.015 131.777 236.806C132.533 237.588 133.113 238.537 133.517 239.654C133.921 240.761 134.124 242.009 134.124 243.398V244.545C134.124 245.933 133.921 247.186 133.517 248.302C133.113 249.41 132.528 250.354 131.764 251.137C131.008 251.919 130.094 252.521 129.021 252.943C127.958 253.356 126.758 253.562 125.422 253.562ZM122.772 234.367V253.562H120.228V234.367H122.772ZM143.497 253.826C142.504 253.826 141.603 253.659 140.794 253.325C139.995 252.982 139.305 252.503 138.725 251.888C138.153 251.273 137.714 250.543 137.406 249.7C137.099 248.856 136.945 247.933 136.945 246.931V246.377C136.945 245.217 137.116 244.184 137.459 243.279C137.802 242.365 138.268 241.592 138.856 240.959C139.445 240.326 140.113 239.847 140.86 239.522C141.607 239.197 142.381 239.034 143.181 239.034C144.2 239.034 145.079 239.21 145.817 239.561C146.564 239.913 147.175 240.405 147.65 241.038C148.125 241.662 148.476 242.4 148.705 243.253C148.933 244.097 149.047 245.019 149.047 246.021V247.116H138.395V245.125H146.608V244.94C146.573 244.307 146.441 243.692 146.213 243.095C145.993 242.497 145.642 242.005 145.158 241.618C144.675 241.231 144.016 241.038 143.181 241.038C142.627 241.038 142.117 241.157 141.651 241.394C141.186 241.622 140.786 241.965 140.452 242.422C140.118 242.879 139.858 243.437 139.674 244.097C139.489 244.756 139.397 245.516 139.397 246.377V246.931C139.397 247.608 139.489 248.245 139.674 248.843C139.867 249.432 140.144 249.95 140.504 250.398C140.874 250.847 141.317 251.198 141.836 251.453C142.363 251.708 142.961 251.835 143.629 251.835C144.49 251.835 145.22 251.66 145.817 251.308C146.415 250.956 146.938 250.486 147.386 249.897L148.863 251.071C148.555 251.536 148.164 251.98 147.689 252.402C147.215 252.824 146.63 253.167 145.936 253.431C145.25 253.694 144.438 253.826 143.497 253.826ZM156.048 251.361L159.95 239.298H162.442L157.313 253.562H155.679L156.048 251.361ZM152.792 239.298L156.812 251.427L157.089 253.562H155.455L150.287 239.298H152.792ZM170.523 253.826C169.53 253.826 168.629 253.659 167.821 253.325C167.021 252.982 166.331 252.503 165.751 251.888C165.18 251.273 164.74 250.543 164.433 249.7C164.125 248.856 163.971 247.933 163.971 246.931V246.377C163.971 245.217 164.143 244.184 164.485 243.279C164.828 242.365 165.294 241.592 165.883 240.959C166.472 240.326 167.14 239.847 167.887 239.522C168.634 239.197 169.407 239.034 170.207 239.034C171.227 239.034 172.105 239.21 172.844 239.561C173.591 239.913 174.202 240.405 174.676 241.038C175.151 241.662 175.502 242.4 175.731 243.253C175.959 244.097 176.074 245.019 176.074 246.021V247.116H165.421V245.125H173.635V244.94C173.6 244.307 173.468 243.692 173.239 243.095C173.02 242.497 172.668 242.005 172.185 241.618C171.701 241.231 171.042 241.038 170.207 241.038C169.653 241.038 169.144 241.157 168.678 241.394C168.212 241.622 167.812 241.965 167.478 242.422C167.144 242.879 166.885 243.437 166.7 244.097C166.516 244.756 166.423 245.516 166.423 246.377V246.931C166.423 247.608 166.516 248.245 166.7 248.843C166.894 249.432 167.17 249.95 167.531 250.398C167.9 250.847 168.344 251.198 168.862 251.453C169.39 251.708 169.987 251.835 170.655 251.835C171.517 251.835 172.246 251.66 172.844 251.308C173.441 250.956 173.964 250.486 174.413 249.897L175.889 251.071C175.582 251.536 175.19 251.98 174.716 252.402C174.241 252.824 173.657 253.167 172.962 253.431C172.277 253.694 171.464 253.826 170.523 253.826ZM181.571 233.312V253.562H179.119V233.312H181.571ZM184.841 246.588V246.285C184.841 245.257 184.99 244.303 185.289 243.424C185.588 242.536 186.019 241.767 186.581 241.117C187.144 240.458 187.825 239.948 188.625 239.588C189.424 239.219 190.321 239.034 191.314 239.034C192.316 239.034 193.217 239.219 194.017 239.588C194.825 239.948 195.511 240.458 196.073 241.117C196.645 241.767 197.08 242.536 197.378 243.424C197.677 244.303 197.827 245.257 197.827 246.285V246.588C197.827 247.617 197.677 248.57 197.378 249.449C197.08 250.328 196.645 251.097 196.073 251.756C195.511 252.407 194.83 252.916 194.03 253.286C193.239 253.646 192.342 253.826 191.34 253.826C190.338 253.826 189.438 253.646 188.638 253.286C187.838 252.916 187.152 252.407 186.581 251.756C186.019 251.097 185.588 250.328 185.289 249.449C184.99 248.57 184.841 247.617 184.841 246.588ZM187.28 246.285V246.588C187.28 247.3 187.363 247.973 187.53 248.605C187.697 249.229 187.948 249.783 188.282 250.266C188.625 250.75 189.051 251.132 189.561 251.413C190.07 251.686 190.664 251.822 191.34 251.822C192.008 251.822 192.593 251.686 193.094 251.413C193.604 251.132 194.025 250.75 194.359 250.266C194.693 249.783 194.944 249.229 195.111 248.605C195.287 247.973 195.375 247.3 195.375 246.588V246.285C195.375 245.582 195.287 244.918 195.111 244.294C194.944 243.661 194.689 243.103 194.346 242.62C194.012 242.128 193.59 241.741 193.081 241.46C192.58 241.179 191.991 241.038 191.314 241.038C190.646 241.038 190.057 241.179 189.547 241.46C189.046 241.741 188.625 242.128 188.282 242.62C187.948 243.103 187.697 243.661 187.53 244.294C187.363 244.918 187.28 245.582 187.28 246.285ZM203.324 242.04V259.047H200.872V239.298H203.113L203.324 242.04ZM212.935 246.311V246.588C212.935 247.625 212.812 248.588 212.566 249.475C212.32 250.354 211.959 251.119 211.485 251.769C211.019 252.42 210.443 252.925 209.758 253.286C209.072 253.646 208.286 253.826 207.398 253.826C206.493 253.826 205.693 253.677 204.999 253.378C204.304 253.079 203.715 252.644 203.232 252.073C202.749 251.501 202.362 250.816 202.072 250.016C201.791 249.216 201.597 248.315 201.492 247.313V245.837C201.597 244.782 201.795 243.837 202.085 243.002C202.375 242.167 202.757 241.455 203.232 240.867C203.715 240.269 204.3 239.816 204.985 239.509C205.671 239.192 206.462 239.034 207.358 239.034C208.255 239.034 209.05 239.21 209.745 239.561C210.439 239.904 211.023 240.396 211.498 241.038C211.973 241.68 212.329 242.449 212.566 243.345C212.812 244.233 212.935 245.222 212.935 246.311ZM210.483 246.588V246.311C210.483 245.599 210.408 244.932 210.259 244.307C210.109 243.675 209.876 243.121 209.56 242.646C209.252 242.163 208.857 241.785 208.374 241.513C207.89 241.231 207.314 241.091 206.646 241.091C206.031 241.091 205.495 241.196 205.038 241.407C204.59 241.618 204.208 241.904 203.891 242.264C203.575 242.616 203.315 243.02 203.113 243.477C202.92 243.925 202.775 244.391 202.678 244.874V248.289C202.854 248.904 203.1 249.484 203.417 250.029C203.733 250.565 204.155 251 204.682 251.334C205.209 251.66 205.873 251.822 206.673 251.822C207.332 251.822 207.899 251.686 208.374 251.413C208.857 251.132 209.252 250.75 209.56 250.266C209.876 249.783 210.109 249.229 210.259 248.605C210.408 247.973 210.483 247.3 210.483 246.588ZM221.966 253.826C220.973 253.826 220.072 253.659 219.263 253.325C218.463 252.982 217.773 252.503 217.193 251.888C216.622 251.273 216.183 250.543 215.875 249.7C215.567 248.856 215.414 247.933 215.414 246.931V246.377C215.414 245.217 215.585 244.184 215.928 243.279C216.271 242.365 216.736 241.592 217.325 240.959C217.914 240.326 218.582 239.847 219.329 239.522C220.076 239.197 220.85 239.034 221.649 239.034C222.669 239.034 223.548 239.21 224.286 239.561C225.033 239.913 225.644 240.405 226.119 241.038C226.593 241.662 226.945 242.4 227.173 243.253C227.402 244.097 227.516 245.019 227.516 246.021V247.116H216.864V245.125H225.077V244.94C225.042 244.307 224.91 243.692 224.682 243.095C224.462 242.497 224.11 242.005 223.627 241.618C223.144 241.231 222.484 241.038 221.649 241.038C221.096 241.038 220.586 241.157 220.12 241.394C219.654 241.622 219.254 241.965 218.92 242.422C218.586 242.879 218.327 243.437 218.143 244.097C217.958 244.756 217.866 245.516 217.866 246.377V246.931C217.866 247.608 217.958 248.245 218.143 248.843C218.336 249.432 218.613 249.95 218.973 250.398C219.342 250.847 219.786 251.198 220.305 251.453C220.832 251.708 221.43 251.835 222.098 251.835C222.959 251.835 223.688 251.66 224.286 251.308C224.884 250.956 225.407 250.486 225.855 249.897L227.332 251.071C227.024 251.536 226.633 251.98 226.158 252.402C225.684 252.824 225.099 253.167 224.405 253.431C223.719 253.694 222.906 253.826 221.966 253.826ZM232.803 241.539V253.562H230.364V239.298H232.737L232.803 241.539ZM237.259 239.219L237.246 241.486C237.043 241.442 236.85 241.416 236.666 241.407C236.49 241.39 236.288 241.381 236.059 241.381C235.497 241.381 235 241.469 234.569 241.644C234.139 241.82 233.774 242.066 233.475 242.383C233.176 242.699 232.939 243.077 232.763 243.516C232.596 243.947 232.486 244.422 232.434 244.94L231.748 245.336C231.748 244.474 231.832 243.666 231.999 242.91C232.174 242.154 232.442 241.486 232.803 240.906C233.163 240.317 233.62 239.86 234.174 239.535C234.736 239.201 235.404 239.034 236.178 239.034C236.354 239.034 236.556 239.056 236.784 239.1C237.013 239.135 237.171 239.175 237.259 239.219Z" fill="#262626"/>
<path d="M140.758 215.045C140.758 214.648 140.697 214.294 140.574 213.983C140.461 213.662 140.249 213.374 139.937 213.119C139.635 212.855 139.205 212.6 138.648 212.354C138.101 212.099 137.393 211.835 136.524 211.561C135.562 211.259 134.665 210.919 133.834 210.542C133.003 210.164 132.272 209.725 131.639 209.225C131.016 208.725 130.53 208.149 130.181 207.497C129.831 206.837 129.657 206.072 129.657 205.203C129.657 204.354 129.836 203.58 130.195 202.881C130.563 202.183 131.082 201.583 131.752 201.083C132.423 200.573 133.211 200.181 134.117 199.908C135.033 199.634 136.043 199.497 137.147 199.497C138.677 199.497 139.998 199.775 141.112 200.332C142.236 200.889 143.104 201.645 143.718 202.598C144.331 203.551 144.638 204.623 144.638 205.812H140.758C140.758 205.17 140.621 204.604 140.348 204.113C140.083 203.622 139.677 203.235 139.13 202.952C138.592 202.669 137.912 202.527 137.091 202.527C136.298 202.527 135.637 202.645 135.108 202.881C134.589 203.117 134.197 203.438 133.933 203.844C133.678 204.25 133.551 204.703 133.551 205.203C133.551 205.581 133.64 205.921 133.82 206.223C133.999 206.516 134.268 206.794 134.627 207.058C134.986 207.313 135.429 207.554 135.958 207.781C136.496 207.998 137.119 208.215 137.827 208.432C138.96 208.772 139.951 209.149 140.801 209.565C141.66 209.98 142.373 210.452 142.939 210.981C143.515 211.509 143.944 212.104 144.228 212.765C144.52 213.426 144.667 214.176 144.667 215.016C144.667 215.904 144.492 216.697 144.143 217.395C143.793 218.094 143.293 218.689 142.642 219.18C141.99 219.67 141.207 220.043 140.291 220.298C139.385 220.553 138.37 220.681 137.247 220.681C136.246 220.681 135.255 220.548 134.273 220.284C133.301 220.01 132.418 219.604 131.625 219.066C130.832 218.519 130.2 217.83 129.728 216.999C129.256 216.159 129.02 215.177 129.02 214.054H132.928C132.928 214.705 133.032 215.262 133.239 215.724C133.456 216.178 133.758 216.55 134.146 216.843C134.542 217.126 135.005 217.334 135.533 217.466C136.062 217.598 136.633 217.664 137.247 217.664C138.04 217.664 138.691 217.556 139.201 217.339C139.72 217.112 140.107 216.801 140.362 216.404C140.626 216.008 140.758 215.555 140.758 215.045ZM151.817 199.78V220.397H147.923V199.78H151.817ZM172.59 199.78V220.397H168.682L159.917 206.096V220.397H156.023V199.78H159.917L168.71 214.096V199.78H172.59ZM192.641 209.735V217.764C192.339 218.151 191.862 218.571 191.211 219.024C190.569 219.477 189.729 219.869 188.69 220.199C187.652 220.52 186.378 220.681 184.867 220.681C183.555 220.681 182.356 220.463 181.271 220.029C180.185 219.585 179.25 218.939 178.467 218.089C177.683 217.24 177.079 216.201 176.654 214.974C176.229 213.747 176.017 212.345 176.017 210.768V209.409C176.017 207.833 176.215 206.431 176.612 205.203C177.018 203.976 177.594 202.938 178.339 202.088C179.095 201.239 179.996 200.592 181.044 200.148C182.101 199.705 183.281 199.483 184.584 199.483C186.33 199.483 187.765 199.771 188.889 200.347C190.021 200.922 190.89 201.715 191.494 202.725C192.098 203.726 192.476 204.878 192.627 206.181H188.832C188.728 205.463 188.521 204.835 188.209 204.297C187.897 203.75 187.454 203.325 186.878 203.023C186.312 202.711 185.575 202.556 184.669 202.556C183.904 202.556 183.229 202.707 182.644 203.009C182.059 203.311 181.568 203.75 181.171 204.326C180.775 204.901 180.473 205.614 180.265 206.464C180.067 207.313 179.968 208.286 179.968 209.381V210.768C179.968 211.873 180.081 212.855 180.308 213.714C180.534 214.563 180.86 215.281 181.285 215.866C181.719 216.442 182.252 216.881 182.885 217.183C183.527 217.476 184.254 217.622 185.065 217.622C185.802 217.622 186.411 217.561 186.892 217.438C187.383 217.306 187.775 217.15 188.067 216.971C188.36 216.791 188.587 216.617 188.747 216.447V212.581H184.655V209.735H192.641ZM209.407 217.339V220.397H199.042V217.339H209.407ZM200.217 199.78V220.397H196.323V199.78H200.217ZM225.677 217.339V220.397H214.717V217.339H225.677ZM215.906 199.78V220.397H212.012V199.78H215.906ZM224.247 208.29V211.278H214.717V208.29H224.247ZM225.634 199.78V202.853H214.717V199.78H225.634Z" fill="#363636"/>
<defs>
<filter id="filter0_f_503_4577" x="71.25" y="85.25" width="232.5" height="262.5" filterUnits="userSpaceOnUse" color-interpolation-filters="sRGB">
<feFlood flood-opacity="0" result="BackgroundImageFix"/>
<feBlend mode="normal" in="SourceGraphic" in2="BackgroundImageFix" result="shape"/>
<feGaussianBlur stdDeviation="9" result="effect1_foregroundBlur_503_4577"/>
</filter>
<linearGradient id="paint0_linear_503_4577" x1="115.5" y1="91" x2="55" y2="231.5" gradientUnits="userSpaceOnUse">
<stop stop-color="#929191"/>
<stop offset="1" stop-color="#4B4B4B"/>
</linearGradient>
<linearGradient id="paint1_linear_503_4577" x1="169.5" y1="69.5" x2="76.5" y2="162" gradientUnits="userSpaceOnUse">
<stop stop-color="#3C3C3C"/>
<stop offset="1" stop-color="#666666"/>
</linearGradient>
</defs>
</svg>
