<svg width="150" height="174" viewBox="0 0 150 174" fill="none" xmlns="http://www.w3.org/2000/svg">
<path d="M74.6359 1.73576L147.772 44.3212V129.514L74.6359 172.1L1.5 129.514V44.3212L74.6359 1.73576Z" fill="#282828" stroke="white" stroke-width="3" stroke-linejoin="round"/>
<path d="M96.6705 120.608C86.4146 126.531 72.3146 127.14 58.1275 121.061C46.6412 116.174 37.1098 107.62 31 97.8478C33.9331 100.291 37.3547 102.246 41.0198 103.956C55.6704 110.821 70.3186 110.352 80.6267 103.973C65.9624 92.7322 53.4843 78.0532 44.1977 66.0823C42.2415 64.1267 40.775 61.6831 39.3096 59.4841C50.5512 69.7465 68.3922 82.697 74.7456 86.3637C61.3055 72.1901 49.3294 54.5982 49.8166 55.0862C71.0792 76.5893 90.8764 88.8073 90.8764 88.8073C91.5314 89.1767 92.0372 89.4837 92.4436 89.7582C92.8724 88.6687 93.2478 87.5368 93.5647 86.3637C96.9862 73.9023 93.0775 59.7288 84.5218 48C104.317 59.9734 116.049 82.4524 111.16 101.269C111.032 101.777 110.894 102.277 110.744 102.769C120.518 114.987 118.003 128.148 116.781 125.705C111.478 115.33 101.663 118.502 96.6718 120.606L96.6705 120.608Z" fill="#D2D2D2"/>
</svg>
