<svg width="356" height="409" viewBox="0 0 356 409" fill="none" xmlns="http://www.w3.org/2000/svg">
<path d="M332.005 299.486C335.107 297.702 337.019 294.396 337.019 290.818V119.77C337.019 116.192 335.107 112.886 332.005 111.102L183.243 25.5447C180.156 23.7694 176.358 23.7695 173.272 25.5448L24.521 111.102C21.419 112.886 19.5069 116.192 19.5069 119.77V290.818C19.5069 294.397 21.419 297.702 24.521 299.486L173.272 385.043C176.358 386.819 180.156 386.819 183.243 385.043L332.005 299.486Z" fill="#440101" stroke="#F6F4EF" stroke-opacity="0.36" stroke-width="13" stroke-linejoin="round"/>
<g filter="url(#filter0_f_503_4616)">
<path d="M283 270.75V158.25L185.5 102L88 158.25V270.75L185.5 327L283 270.75Z" fill="#05050A" fill-opacity="0.8"/>
<path d="M283 270.75V158.25L185.5 102L88 158.25V270.75L185.5 327L283 270.75Z" stroke="#05050A" stroke-width="1.5" stroke-linejoin="round"/>
</g>
<path d="M277 265.5V152.5L178.5 96L80 152.5V265.5L178.5 322L277 265.5Z" fill="#EAE4DF"/>
<path d="M128.07 244.584H123.206L123.179 242.541H127.596C128.325 242.541 128.962 242.418 129.507 242.172C130.052 241.926 130.474 241.574 130.773 241.117C131.081 240.651 131.234 240.098 131.234 239.456C131.234 238.753 131.098 238.182 130.826 237.742C130.562 237.294 130.153 236.969 129.6 236.766C129.055 236.556 128.36 236.45 127.517 236.45H123.772V253.562H121.228V234.367H127.517C128.501 234.367 129.38 234.468 130.153 234.67C130.927 234.864 131.582 235.171 132.118 235.593C132.663 236.006 133.076 236.534 133.357 237.175C133.638 237.817 133.779 238.586 133.779 239.482C133.779 240.273 133.577 240.99 133.172 241.631C132.768 242.264 132.206 242.783 131.485 243.187C130.773 243.591 129.938 243.85 128.98 243.965L128.07 244.584ZM127.952 253.562H122.204L123.641 251.493H127.952C128.76 251.493 129.446 251.352 130.008 251.071C130.58 250.789 131.015 250.394 131.313 249.884C131.612 249.366 131.762 248.755 131.762 248.052C131.762 247.34 131.634 246.724 131.379 246.206C131.125 245.687 130.725 245.287 130.18 245.006C129.635 244.725 128.932 244.584 128.07 244.584H124.445L124.471 242.541H129.428L129.969 243.279C130.892 243.358 131.674 243.622 132.315 244.07C132.957 244.51 133.445 245.072 133.779 245.758C134.122 246.443 134.293 247.199 134.293 248.025C134.293 249.221 134.029 250.231 133.502 251.057C132.983 251.875 132.25 252.499 131.3 252.93C130.351 253.351 129.235 253.562 127.952 253.562ZM146.409 250.266V239.298H148.861V253.562H146.527L146.409 250.266ZM146.87 247.261L147.885 247.234C147.885 248.183 147.784 249.062 147.582 249.871C147.389 250.671 147.072 251.365 146.633 251.954C146.193 252.543 145.618 253.004 144.906 253.338C144.194 253.663 143.328 253.826 142.309 253.826C141.614 253.826 140.977 253.725 140.397 253.523C139.826 253.321 139.333 253.009 138.92 252.587C138.507 252.165 138.187 251.616 137.958 250.939C137.738 250.262 137.628 249.449 137.628 248.5V239.298H140.067V248.526C140.067 249.168 140.138 249.7 140.278 250.121C140.428 250.535 140.625 250.864 140.872 251.11C141.126 251.348 141.408 251.515 141.715 251.611C142.032 251.708 142.357 251.756 142.691 251.756C143.728 251.756 144.55 251.558 145.156 251.163C145.763 250.759 146.198 250.218 146.461 249.541C146.734 248.856 146.87 248.096 146.87 247.261ZM155.229 239.298V253.562H152.776V239.298H155.229ZM152.592 235.514C152.592 235.119 152.71 234.785 152.948 234.512C153.194 234.24 153.554 234.103 154.029 234.103C154.495 234.103 154.851 234.24 155.097 234.512C155.352 234.785 155.479 235.119 155.479 235.514C155.479 235.892 155.352 236.217 155.097 236.49C154.851 236.753 154.495 236.885 154.029 236.885C153.554 236.885 153.194 236.753 152.948 236.49C152.71 236.217 152.592 235.892 152.592 235.514ZM161.794 233.312V253.562H159.342V233.312H161.794ZM174.701 250.794V233.312H177.153V253.562H174.912L174.701 250.794ZM165.103 246.588V246.311C165.103 245.222 165.235 244.233 165.499 243.345C165.771 242.449 166.153 241.68 166.646 241.038C167.146 240.396 167.74 239.904 168.425 239.561C169.12 239.21 169.893 239.034 170.746 239.034C171.642 239.034 172.424 239.192 173.092 239.509C173.769 239.816 174.34 240.269 174.806 240.867C175.281 241.455 175.654 242.167 175.927 243.002C176.199 243.837 176.388 244.782 176.494 245.837V247.05C176.397 248.096 176.208 249.036 175.927 249.871C175.654 250.706 175.281 251.418 174.806 252.007C174.34 252.596 173.769 253.048 173.092 253.365C172.416 253.672 171.625 253.826 170.719 253.826C169.884 253.826 169.12 253.646 168.425 253.286C167.74 252.925 167.146 252.42 166.646 251.769C166.153 251.119 165.771 250.354 165.499 249.475C165.235 248.588 165.103 247.625 165.103 246.588ZM167.555 246.311V246.588C167.555 247.3 167.625 247.968 167.766 248.592C167.916 249.216 168.144 249.766 168.452 250.24C168.759 250.715 169.15 251.088 169.625 251.361C170.1 251.624 170.667 251.756 171.326 251.756C172.134 251.756 172.798 251.585 173.316 251.242C173.844 250.899 174.266 250.447 174.582 249.884C174.898 249.322 175.145 248.711 175.32 248.052V244.874C175.215 244.391 175.061 243.925 174.859 243.477C174.666 243.02 174.411 242.616 174.094 242.264C173.787 241.904 173.404 241.618 172.947 241.407C172.499 241.196 171.967 241.091 171.352 241.091C170.684 241.091 170.108 241.231 169.625 241.513C169.15 241.785 168.759 242.163 168.452 242.646C168.144 243.121 167.916 243.675 167.766 244.307C167.625 244.932 167.555 245.599 167.555 246.311ZM190.561 234.367V253.562H188.016V234.367H190.561ZM198.603 243.002V245.085H190.007V243.002H198.603ZM199.908 234.367V236.45H190.007V234.367H199.908ZM210.534 251.123V243.78C210.534 243.218 210.419 242.73 210.191 242.317C209.971 241.895 209.637 241.57 209.189 241.341C208.741 241.113 208.187 240.998 207.528 240.998C206.913 240.998 206.372 241.104 205.906 241.315C205.449 241.526 205.089 241.803 204.825 242.145C204.57 242.488 204.443 242.857 204.443 243.253H202.004C202.004 242.743 202.136 242.238 202.399 241.737C202.663 241.236 203.041 240.783 203.533 240.379C204.034 239.966 204.632 239.641 205.326 239.403C206.029 239.157 206.812 239.034 207.673 239.034C208.71 239.034 209.624 239.21 210.415 239.561C211.215 239.913 211.839 240.445 212.287 241.157C212.744 241.86 212.973 242.743 212.973 243.807V250.451C212.973 250.926 213.012 251.431 213.091 251.967C213.179 252.503 213.307 252.965 213.474 253.351V253.562H210.929C210.806 253.281 210.709 252.908 210.639 252.442C210.569 251.967 210.534 251.528 210.534 251.123ZM210.956 244.914L210.982 246.628H208.517C207.822 246.628 207.203 246.685 206.658 246.799C206.113 246.905 205.656 247.067 205.287 247.287C204.917 247.507 204.636 247.784 204.443 248.118C204.25 248.443 204.153 248.825 204.153 249.265C204.153 249.713 204.254 250.121 204.456 250.491C204.658 250.86 204.961 251.154 205.366 251.374C205.779 251.585 206.284 251.69 206.882 251.69C207.629 251.69 208.288 251.532 208.859 251.216C209.431 250.899 209.883 250.513 210.217 250.056C210.56 249.599 210.745 249.155 210.771 248.724L211.812 249.897C211.751 250.266 211.584 250.675 211.312 251.123C211.039 251.572 210.674 252.002 210.217 252.415C209.769 252.82 209.233 253.158 208.609 253.431C207.994 253.694 207.299 253.826 206.526 253.826C205.559 253.826 204.711 253.637 203.981 253.259C203.261 252.881 202.698 252.376 202.294 251.743C201.898 251.101 201.701 250.385 201.701 249.594C201.701 248.829 201.85 248.157 202.149 247.577C202.448 246.988 202.878 246.5 203.441 246.114C204.003 245.718 204.68 245.419 205.471 245.217C206.262 245.015 207.146 244.914 208.121 244.914H210.956ZM225.115 249.779C225.115 249.427 225.036 249.102 224.877 248.803C224.728 248.495 224.416 248.219 223.941 247.973C223.476 247.718 222.772 247.498 221.832 247.313C221.041 247.146 220.325 246.949 219.683 246.72C219.05 246.492 218.51 246.215 218.062 245.89C217.622 245.564 217.284 245.182 217.046 244.743C216.809 244.303 216.69 243.789 216.69 243.2C216.69 242.638 216.813 242.106 217.06 241.605C217.314 241.104 217.67 240.66 218.127 240.273C218.593 239.887 219.151 239.583 219.802 239.364C220.452 239.144 221.177 239.034 221.977 239.034C223.12 239.034 224.095 239.236 224.904 239.641C225.712 240.045 226.332 240.585 226.763 241.262C227.193 241.93 227.409 242.673 227.409 243.49H224.97C224.97 243.095 224.851 242.712 224.614 242.343C224.385 241.965 224.047 241.653 223.599 241.407C223.159 241.161 222.619 241.038 221.977 241.038C221.3 241.038 220.751 241.143 220.329 241.354C219.916 241.557 219.613 241.816 219.419 242.132C219.235 242.449 219.143 242.783 219.143 243.134C219.143 243.398 219.187 243.635 219.274 243.846C219.371 244.048 219.538 244.237 219.775 244.413C220.013 244.58 220.347 244.738 220.777 244.888C221.208 245.037 221.757 245.186 222.425 245.336C223.594 245.599 224.557 245.916 225.312 246.285C226.068 246.654 226.631 247.107 227 247.643C227.369 248.179 227.554 248.829 227.554 249.594C227.554 250.218 227.422 250.789 227.158 251.308C226.903 251.827 226.53 252.275 226.038 252.653C225.554 253.022 224.974 253.312 224.297 253.523C223.629 253.725 222.878 253.826 222.043 253.826C220.786 253.826 219.723 253.602 218.853 253.154C217.982 252.705 217.323 252.125 216.875 251.413C216.427 250.702 216.203 249.95 216.203 249.159H218.655C218.69 249.827 218.883 250.359 219.235 250.754C219.586 251.141 220.017 251.418 220.527 251.585C221.037 251.743 221.542 251.822 222.043 251.822C222.711 251.822 223.269 251.734 223.717 251.558C224.174 251.383 224.521 251.141 224.759 250.833C224.996 250.526 225.115 250.174 225.115 249.779ZM236.729 239.298V241.17H229.017V239.298H236.729ZM231.627 235.83H234.066V250.029C234.066 250.513 234.141 250.877 234.291 251.123C234.44 251.37 234.633 251.532 234.871 251.611C235.108 251.69 235.363 251.73 235.635 251.73C235.837 251.73 236.048 251.712 236.268 251.677C236.497 251.633 236.668 251.598 236.782 251.572L236.795 253.562C236.602 253.624 236.347 253.681 236.031 253.734C235.723 253.795 235.35 253.826 234.91 253.826C234.312 253.826 233.763 253.707 233.262 253.47C232.761 253.233 232.361 252.837 232.062 252.284C231.772 251.721 231.627 250.965 231.627 250.016V235.83Z" fill="#262626"/>
<path d="M126.438 199.78H130.332V213.473C130.332 215.05 129.992 216.376 129.312 217.452C128.633 218.519 127.708 219.326 126.537 219.873C125.367 220.411 124.035 220.681 122.544 220.681C121.034 220.681 119.688 220.411 118.508 219.873C117.328 219.326 116.403 218.519 115.733 217.452C115.063 216.376 114.728 215.05 114.728 213.473V199.78H118.622V213.473C118.622 214.436 118.782 215.224 119.103 215.838C119.424 216.442 119.877 216.89 120.462 217.183C121.048 217.476 121.742 217.622 122.544 217.622C123.356 217.622 124.05 217.476 124.625 217.183C125.211 216.89 125.659 216.442 125.971 215.838C126.282 215.224 126.438 214.436 126.438 213.473V199.78ZM134.028 199.78H141.519C143.086 199.78 144.431 200.016 145.554 200.488C146.678 200.96 147.541 201.659 148.146 202.584C148.75 203.509 149.052 204.647 149.052 205.996C149.052 207.063 148.863 207.988 148.485 208.772C148.108 209.555 147.574 210.211 146.885 210.74C146.206 211.269 145.403 211.684 144.478 211.986L143.26 212.609H136.647L136.619 209.536H141.561C142.363 209.536 143.029 209.395 143.558 209.112C144.086 208.828 144.483 208.437 144.747 207.936C145.021 207.436 145.158 206.865 145.158 206.223C145.158 205.534 145.026 204.939 144.761 204.439C144.497 203.929 144.096 203.537 143.558 203.264C143.02 202.99 142.34 202.853 141.519 202.853H137.922V220.397H134.028V199.78ZM145.667 220.397L140.896 211.165L145.016 211.151L149.845 220.199V220.397H145.667ZM168.55 209.735V217.764C168.248 218.151 167.771 218.571 167.12 219.024C166.478 219.477 165.638 219.869 164.6 220.199C163.561 220.52 162.287 220.681 160.776 220.681C159.464 220.681 158.265 220.463 157.18 220.029C156.094 219.585 155.16 218.939 154.376 218.089C153.592 217.24 152.988 216.201 152.563 214.974C152.139 213.747 151.926 212.345 151.926 210.768V209.409C151.926 207.833 152.125 206.431 152.521 205.203C152.927 203.976 153.503 202.938 154.249 202.088C155.004 201.239 155.905 200.592 156.953 200.148C158.01 199.705 159.19 199.483 160.493 199.483C162.24 199.483 163.674 199.771 164.798 200.347C165.931 200.922 166.799 201.715 167.403 202.725C168.007 203.726 168.385 204.878 168.536 206.181H164.741C164.637 205.463 164.43 204.835 164.118 204.297C163.807 203.75 163.363 203.325 162.787 203.023C162.221 202.711 161.484 202.556 160.578 202.556C159.813 202.556 159.139 202.707 158.553 203.009C157.968 203.311 157.477 203.75 157.081 204.326C156.684 204.901 156.382 205.614 156.174 206.464C155.976 207.313 155.877 208.286 155.877 209.381V210.768C155.877 211.873 155.99 212.855 156.217 213.714C156.443 214.563 156.769 215.281 157.194 215.866C157.628 216.442 158.161 216.881 158.794 217.183C159.436 217.476 160.163 217.622 160.975 217.622C161.711 217.622 162.32 217.561 162.801 217.438C163.292 217.306 163.684 217.15 163.977 216.971C164.269 216.791 164.496 216.617 164.656 216.447V212.581H160.564V209.735H168.55ZM185.896 217.339V220.397H174.937V217.339H185.896ZM176.126 199.78V220.397H172.232V199.78H176.126ZM184.466 208.29V211.278H174.937V208.29H184.466ZM185.854 199.78V202.853H174.937V199.78H185.854ZM205.168 199.78V220.397H201.26L192.495 206.096V220.397H188.601V199.78H192.495L201.289 214.096V199.78H205.168ZM221.198 213.615H225.092C224.988 214.993 224.606 216.215 223.945 217.282C223.284 218.339 222.364 219.17 221.184 219.774C220.004 220.378 218.573 220.681 216.893 220.681C215.6 220.681 214.434 220.454 213.396 220.001C212.367 219.538 211.484 218.882 210.748 218.033C210.021 217.174 209.464 216.145 209.077 214.946C208.69 213.737 208.496 212.383 208.496 210.882V209.31C208.496 207.809 208.694 206.454 209.091 205.246C209.487 204.038 210.054 203.009 210.79 202.159C211.536 201.3 212.428 200.639 213.466 200.177C214.514 199.714 215.685 199.483 216.978 199.483C218.658 199.483 220.079 199.794 221.24 200.417C222.401 201.031 223.303 201.876 223.945 202.952C224.587 204.028 224.974 205.265 225.106 206.662H221.212C221.136 205.793 220.948 205.057 220.646 204.453C220.353 203.849 219.909 203.391 219.314 203.079C218.729 202.759 217.95 202.598 216.978 202.598C216.223 202.598 215.557 202.74 214.981 203.023C214.415 203.306 213.943 203.731 213.565 204.297C213.188 204.854 212.905 205.553 212.716 206.393C212.527 207.224 212.433 208.187 212.433 209.282V210.882C212.433 211.93 212.518 212.869 212.688 213.7C212.857 214.53 213.122 215.234 213.48 215.809C213.839 216.385 214.302 216.824 214.868 217.126C215.435 217.428 216.11 217.579 216.893 217.579C217.847 217.579 218.621 217.428 219.215 217.126C219.819 216.824 220.277 216.381 220.589 215.795C220.91 215.21 221.113 214.483 221.198 213.615ZM230.515 199.78L235.046 209.395L239.606 199.78H243.882L237.029 212.85V220.397H233.078V212.85L226.21 199.78H230.515Z" fill="#363636"/>
<path d="M304.08 254.354L304.237 134" stroke="url(#paint0_linear_503_4616)" stroke-width="2"/>
<path d="M158.674 154.272L191.73 126.87L179.794 150.657L196.986 153.519L164.485 181.013L174.758 156.948L158.674 154.272Z" fill="#404040" stroke="#404040" stroke-width="4" stroke-linejoin="round"/>
<path d="M54.2018 156.242L53.7132 276.595L91.1457 298.195" stroke="url(#paint1_linear_503_4616)" stroke-width="2"/>
<defs>
<filter id="filter0_f_503_4616" x="69.25" y="83.25" width="232.5" height="262.5" filterUnits="userSpaceOnUse" color-interpolation-filters="sRGB">
<feFlood flood-opacity="0" result="BackgroundImageFix"/>
<feBlend mode="normal" in="SourceGraphic" in2="BackgroundImageFix" result="shape"/>
<feGaussianBlur stdDeviation="9" result="effect1_foregroundBlur_503_4616"/>
</filter>
<linearGradient id="paint0_linear_503_4616" x1="292.19" y1="111.525" x2="325.581" y2="267.512" gradientUnits="userSpaceOnUse">
<stop stop-color="#FBB090"/>
<stop offset="1" stop-color="#4E1800"/>
</linearGradient>
<linearGradient id="paint1_linear_503_4616" x1="42.2161" y1="133.735" x2="97.6457" y2="296.695" gradientUnits="userSpaceOnUse">
<stop stop-color="#FBB090"/>
<stop offset="1" stop-color="#4E1800"/>
</linearGradient>
</defs>
</svg>
